<svg width="81" height="126" fill="none" xmlns="http://www.w3.org/2000/svg"><path d="M60.358 110.308c-5.59-7.523-18.04-30.935-18.04-30.935-2.8-4.87-7.238-10.759-10.335-12.52 13.888 0 24.532-15.188 24.532-32.414C56.515 13.706 45.79 1 28.289 1L1 1.002v5.543c2.014.07 19.495-.352 26.768.137 10.752.726 17.56 11.033 17.914 27.124.088 3.901-.28 6.65-.918 9.143-4.098 16.023-15.048 18.223-22.54 18.474-4.346.146-7.63.06-7.63.06v1.645c5.274 0 9.487 6.164 13.263 12.006 1.108 1.716 17.384 32.401 19.023 34.815 4.541 6.68 11.777 14.995 25.218 14.995h7.9l.002-1.181c-8.486-.085-13.831-5.638-19.642-13.455z" fill="#FD7615" stroke="#DBE4E9" stroke-width=".296" stroke-miterlimit="10" opacity=".1"/></svg>