<svg width="17" height="17" fill="none" xmlns="http://www.w3.org/2000/svg"><path d="M15.97 12.23v2.258a1.505 1.505 0 01-1.641 1.506 14.896 14.896 0 01-6.496-2.31 14.679 14.679 0 01-4.516-4.517 14.896 14.896 0 01-2.31-6.526 1.505 1.505 0 011.497-1.64h2.258a1.505 1.505 0 011.505 1.294c.096.722.273 1.432.527 2.115a1.505 1.505 0 01-.338 1.588l-.956.956a12.044 12.044 0 004.516 4.516l.956-.956a1.505 1.505 0 011.588-.338 9.665 9.665 0 002.115.526 1.505 1.505 0 011.295 1.528z" stroke="#F1FAFC" stroke-linecap="round" stroke-linejoin="round"/></svg>