<svg width="328" height="419" fill="none" xmlns="http://www.w3.org/2000/svg"><path d="M246.44 369.436c-23.236-25.43-74.871-104.544-74.871-104.544-11.618-16.482-30.042-36.379-42.951-42.265 57.62 0 101.862-51.33 101.862-109.606C230.48 42.971 186.004 0 113.245 0H0v18.719c8.332.235 80.973-1.177 111.133.47 44.594 2.473 72.876 37.321 74.401 91.712.352 13.186-1.173 22.487-3.755 30.846-17.016 54.155-62.432 61.572-93.53 62.396-18.072.471-31.685.236-31.685.236v5.533c21.945 0 39.43 20.838 55.038 40.617 4.577 5.769 72.172 109.488 78.978 117.729C209.474 390.863 239.516 419 295.259 419H328v-4.003c-35.206-.353-57.385-19.072-81.56-45.561z" fill="#fff" fill-opacity=".2"/></svg>