<svg width="180" height="72" fill="none" xmlns="http://www.w3.org/2000/svg"><path d="M9.002 58.926a.579.579 0 00.19-.243c.059-.119.088-.294.088-.526v-1.971H6.01v1.971c0 .232.03.407.088.526a.543.543 0 00.191.238c.07.04.104.056.104.044H5.011c0 .017.036.004.105-.04a.546.546 0 00.186-.242c.055-.119.083-.294.083-.526v-4.358c0-.232-.028-.407-.083-.526a.514.514 0 00-.186-.238c-.07-.04-.105-.055-.105-.044h1.382c0-.011-.034.003-.104.044a.543.543 0 00-.191.238c-.058.12-.087.294-.087.526v2.005H9.28V53.8c0-.232-.03-.407-.087-.526a.543.543 0 00-.191-.238c-.07-.04-.105-.055-.105-.044h1.382c0-.017-.034-.004-.104.04a.552.552 0 00-.187.242c-.055.12-.082.294-.082.526v4.358c0 .232.028.407.087.526a.538.538 0 00.191.238c.069.04.104.056.104.044h-1.39c0 .017.034.004.104-.04z" fill="#D64E00"/><path d="M9.002 58.926a.579.579 0 00.19-.243c.059-.119.088-.294.088-.526v-1.971H6.01v1.971c0 .232.03.407.088.526a.543.543 0 00.191.238c.07.04.104.056.104.044H5.011c0 .017.036.004.105-.04a.546.546 0 00.186-.242c.055-.119.083-.294.083-.526v-4.358c0-.232-.028-.407-.083-.526a.514.514 0 00-.186-.238c-.07-.04-.105-.055-.105-.044h1.382c0-.011-.034.003-.104.044a.543.543 0 00-.191.238c-.058.12-.087.294-.087.526v2.005H9.28V53.8c0-.232-.03-.407-.087-.526a.543.543 0 00-.191-.238c-.07-.04-.105-.055-.105-.044h1.382c0-.017-.034-.004-.104.04a.552.552 0 00-.187.242c-.055.12-.082.294-.082.526v4.358c0 .232.028.407.087.526a.538.538 0 00.191.238c.069.04.104.056.104.044h-1.39c0 .017.034.004.104-.04z" stroke="#D64E00" stroke-width=".109" stroke-miterlimit="10" stroke-linejoin="round"/><path d="M16.184 56.89c0 .457-.087.85-.26 1.176-.175.327-.42.576-.736.747-.316.17-.683.256-1.1.256-.69 0-1.224-.19-1.6-.573-.378-.382-.566-.911-.566-1.589v-3.108c0-.23-.028-.406-.083-.525a.54.54 0 00-.183-.239c-.066-.04-.1-.054-.1-.043h1.358c0-.011-.034.003-.1.043a.529.529 0 00-.183.235c-.055.115-.083.283-.083.503v3.134c0 .562.135.996.404 1.302.27.307.666.46 1.188.46.48 0 .861-.145 1.14-.438.278-.292.417-.725.417-1.298V53.8c0-.23-.029-.406-.087-.525a.541.541 0 00-.191-.239c-.07-.04-.105-.054-.105-.043h1.253c0-.011-.035.003-.105.043a.542.542 0 00-.19.239c-.059.119-.088.294-.088.525v3.09z" fill="#D64E00"/><path d="M16.184 56.89c0 .457-.087.85-.26 1.176-.175.327-.42.576-.736.747-.316.17-.683.256-1.1.256-.69 0-1.224-.19-1.6-.573-.378-.382-.566-.911-.566-1.589v-3.108c0-.23-.028-.406-.083-.525a.54.54 0 00-.183-.239c-.066-.04-.1-.054-.1-.043h1.358c0-.011-.034.003-.1.043a.529.529 0 00-.183.235c-.055.115-.083.283-.083.503v3.134c0 .562.135.996.404 1.302.27.307.666.46 1.188.46.48 0 .861-.145 1.14-.438.278-.292.417-.725.417-1.298V53.8c0-.23-.029-.406-.087-.525a.541.541 0 00-.191-.239c-.07-.04-.105-.054-.105-.043h1.253c0-.011-.035.003-.105.043a.542.542 0 00-.19.239c-.059.119-.088.294-.088.525v3.09z" stroke="#D64E00" stroke-width=".109" stroke-miterlimit="10" stroke-linejoin="round"/><path d="M23.268 52.992c-.081.017-.16.082-.239.194-.078.114-.117.312-.117.596v5.424l-4.446-5.181v4.157c0 .277.05.472.147.586.099.112.195.177.288.195h-1.226c.081-.018.165-.083.248-.195.085-.114.127-.31.127-.595v-4.34a.824.824 0 00-.2-.537.845.845 0 00-.504-.304h1.077l4.072 4.748v-3.958c0-.446-.15-.71-.451-.79h1.224z" fill="#D64E00"/><path d="M23.268 52.992c-.081.017-.16.082-.239.194-.078.114-.117.312-.117.596v5.424l-4.446-5.181v4.157c0 .277.05.472.147.586.099.112.195.177.288.195h-1.226c.081-.018.165-.083.248-.195.085-.114.127-.31.127-.595v-4.34a.824.824 0 00-.2-.537.845.845 0 00-.504-.304h1.077l4.072 4.748v-3.958c0-.446-.15-.71-.451-.79h1.224z" stroke="#D64E00" stroke-width=".109" stroke-miterlimit="10" stroke-linejoin="round"/><path d="M24.472 53.486a.901.901 0 00-.366.374l.121-.868h4.13l.123.868a.907.907 0 00-.366-.374 1.25 1.25 0 00-.636-.147h-.872v4.818c0 .232.03.408.087.53a.542.542 0 00.192.243c.07.04.104.053.104.035h-1.384c0 .018.034.005.104-.035.07-.04.133-.12.187-.239.056-.118.083-.296.083-.534V53.34h-.871c-.256 0-.468.05-.636.147z" fill="#D64E00"/><path d="M24.472 53.486a.901.901 0 00-.366.374l.121-.868h4.13l.123.868a.907.907 0 00-.366-.374 1.25 1.25 0 00-.636-.147h-.872v4.818c0 .232.03.408.087.53a.542.542 0 00.192.243c.07.04.104.053.104.035h-1.384c0 .018.034.005.104-.035.07-.04.133-.12.187-.239.056-.118.083-.296.083-.534V53.34h-.871c-.256 0-.468.05-.636.147z" stroke="#D64E00" stroke-width=".109" stroke-miterlimit="10" stroke-linejoin="round"/><path d="M29.301 58.965c0 .018.035.005.105-.039.07-.043.132-.13.188-.26.055-.13.083-.32.083-.569v-4.263c0-.237-.028-.418-.083-.543a.589.589 0 00-.188-.255c-.07-.047-.105-.061-.105-.045h3.165v.87c-.105-.348-.42-.522-.945-.522h-1.214v2.466h1.504a.709.709 0 00.297-.056.67.67 0 00.183-.118.489.489 0 00.07-.078v.842a.596.596 0 00-.249-.19.718.718 0 00-.293-.053h-1.512v2.466h1.363c.263 0 .488-.054.677-.16a.955.955 0 00.407-.413l-.157.92h-3.296z" fill="#D64E00"/><path d="M29.301 58.965c0 .018.035.005.105-.039.07-.043.132-.13.188-.26.055-.13.083-.32.083-.569v-4.263c0-.237-.028-.418-.083-.543a.589.589 0 00-.188-.255c-.07-.047-.105-.061-.105-.045h3.165v.87c-.105-.348-.42-.522-.945-.522h-1.214v2.466h1.504a.709.709 0 00.297-.056.67.67 0 00.183-.118.489.489 0 00.07-.078v.842a.596.596 0 00-.249-.19.718.718 0 00-.293-.053h-1.512v2.466h1.363c.263 0 .488-.054.677-.16a.955.955 0 00.407-.413l-.157.92h-3.296z" stroke="#D64E00" stroke-width=".109" stroke-miterlimit="10" stroke-linejoin="round"/><path d="M36.29 55.775c.197-.124.346-.286.448-.486a1.443 1.443 0 00.008-1.268 1.19 1.19 0 00-.439-.49 1.3 1.3 0 00-.723-.192h-.74v4.828c0 .231.029.407.087.525.059.119.123.198.192.235.07.038.105.05.105.039h-1.385c0 .011.034-.003.104-.044a.508.508 0 00.187-.234c.056-.116.083-.29.083-.521v-4.341c0-.238-.027-.419-.083-.543a.54.54 0 00-.187-.252c-.07-.043-.104-.056-.104-.04h1.724c.452 0 .826.075 1.119.222.293.148.505.339.636.574a1.554 1.554 0 01.03 1.45 1.72 1.72 0 01-.474.581 1.786 1.786 0 01-.72.343l-.139.026 1.534 1.945c.203.226.37.4.504.521.133.122.23.203.292.243.061.04.096.064.11.07h-1.02l-2.368-3.004h.522c.267 0 .499-.063.697-.187z" fill="#D64E00"/><path d="M36.29 55.775c.197-.124.346-.286.448-.486a1.443 1.443 0 00.008-1.268 1.19 1.19 0 00-.439-.49 1.3 1.3 0 00-.723-.192h-.74v4.828c0 .231.029.407.087.525.059.119.123.198.192.235.07.038.105.05.105.039h-1.385c0 .011.034-.003.104-.044a.508.508 0 00.187-.234c.056-.116.083-.29.083-.521v-4.341c0-.238-.027-.419-.083-.543a.54.54 0 00-.187-.252c-.07-.043-.104-.056-.104-.04h1.724c.452 0 .826.075 1.119.222.293.148.505.339.636.574a1.554 1.554 0 01.03 1.45 1.72 1.72 0 01-.474.581 1.786 1.786 0 01-.72.343l-.139.026 1.534 1.945c.203.226.37.4.504.521.133.122.23.203.292.243.061.04.096.064.11.07h-1.02l-2.368-3.004h.522c.267 0 .499-.063.697-.187v0z" stroke="#D64E00" stroke-width=".109" stroke-miterlimit="10" stroke-linejoin="round"/><path d="M41.658 60.112h.413v-8.249h-.413v8.25zm45.567 0h.413v-8.249h-.413v8.25zm38.721 0h.413v-8.249h-.413v8.25z" fill="#B4B9BC"/><path d="M48.794 55.506c-.16.263-.388.47-.685.62-.297.151-.645.226-1.048.226a4.22 4.22 0 01-.785-.078v1.893c0 .226.03.399.087.517a.534.534 0 00.193.239c.069.04.104.055.104.043h-1.388c0 .012.035-.003.104-.044a.514.514 0 00.188-.233c.056-.117.083-.29.083-.522v-4.35c0-.231-.027-.408-.083-.53a.546.546 0 00-.188-.247c-.07-.043-.104-.06-.104-.048h1.711c.297 0 .541.02.733.057.192.037.362.094.506.17.262.132.463.325.603.576.14.252.21.523.21.813 0 .335-.08.635-.24.898zm-.816-1.785c-.256-.254-.596-.381-1.021-.381h-.68v2.595c.25.047.511.07.784.07.407 0 .727-.117.956-.352.23-.233.346-.545.346-.933 0-.41-.129-.744-.385-.999z" fill="#D64E00"/><path d="M48.794 55.506c-.16.263-.388.47-.685.62-.297.151-.645.226-1.048.226a4.22 4.22 0 01-.785-.078v1.893c0 .226.03.399.087.517a.534.534 0 00.193.239c.069.04.104.055.104.043h-1.388c0 .012.035-.003.104-.044a.514.514 0 00.188-.233c.056-.117.083-.29.083-.522v-4.35c0-.231-.027-.408-.083-.53a.546.546 0 00-.188-.247c-.07-.043-.104-.06-.104-.048h1.711c.297 0 .541.02.733.057.192.037.362.094.506.17.262.132.463.325.603.576.14.252.21.523.21.813 0 .335-.08.635-.24.898zm-.816-1.785c-.256-.254-.596-.381-1.021-.381h-.68v2.595c.25.047.511.07.784.07.407 0 .727-.117.956-.352.23-.233.346-.545.346-.933 0-.41-.129-.744-.385-.999v0z" stroke="#D64E00" stroke-width=".109" stroke-miterlimit="10" stroke-linejoin="round"/><path d="M50.085 58.926a.578.578 0 00.197-.243c.06-.118.09-.294.09-.526V53.8c0-.232-.03-.406-.086-.526a.524.524 0 00-.192-.238c-.072-.04-.108-.055-.108-.043h1.424c0-.012-.036.003-.108.043a.54.54 0 00-.197.239c-.06.119-.09.293-.09.525v4.358c0 .232.03.408.09.526.06.119.125.198.197.239.072.04.108.055.108.043h-1.432c0 .018.035.004.107-.039z" fill="#D64E00"/><path d="M50.085 58.926a.578.578 0 00.197-.243c.06-.118.09-.294.09-.526V53.8c0-.232-.03-.406-.086-.526a.524.524 0 00-.192-.238c-.072-.04-.108-.055-.108-.043h1.424c0-.012-.036.003-.108.043a.54.54 0 00-.197.239c-.06.119-.09.293-.09.525v4.358c0 .232.03.408.09.526.06.119.125.198.197.239.072.04.108.055.108.043h-1.432c0 .018.035.004.107-.039z" stroke="#D64E00" stroke-width=".109" stroke-miterlimit="10" stroke-linejoin="round"/><path d="M58.264 52.991c-.08.018-.16.083-.238.195-.079.114-.118.312-.118.596v5.424l-4.445-5.181v4.157c0 .277.048.472.147.586.098.112.194.177.287.195h-1.225c.08-.018.163-.083.247-.195.084-.114.126-.31.126-.595v-4.34a.827.827 0 00-.2-.537.85.85 0 00-.503-.305h1.077l4.072 4.749v-3.958c0-.446-.15-.71-.451-.79h1.224z" fill="#D64E00"/><path d="M58.264 52.991c-.08.018-.16.083-.238.195-.079.114-.118.312-.118.596v5.424l-4.445-5.181v4.157c0 .277.048.472.147.586.098.112.194.177.287.195h-1.225c.08-.018.163-.083.247-.195.084-.114.126-.31.126-.595v-4.34a.827.827 0 00-.2-.537.85.85 0 00-.503-.305h1.077l4.072 4.749v-3.958c0-.446-.15-.71-.451-.79h1.224z" stroke="#D64E00" stroke-width=".109" stroke-miterlimit="10" stroke-linejoin="round"/><path d="M63.484 58.887c-.354.122-.71.183-1.07.183a3.14 3.14 0 01-1.506-.374 2.86 2.86 0 01-1.117-1.076c-.282-.47-.422-1.019-.422-1.65 0-.59.13-1.12.387-1.588a2.743 2.743 0 011.105-1.098c.479-.263 1.036-.395 1.674-.395.68 0 1.282.148 1.81.443v.963c-.18-.318-.44-.57-.783-.759a2.237 2.237 0 00-1.096-.282c-.494 0-.92.116-1.283.347-.363.231-.64.549-.83.95a3.096 3.096 0 00-.288 1.35c0 .562.109 1.05.326 1.467.218.417.512.737.883.96.371.223.786.334 1.244.334.736 0 1.346-.214 1.826-.643v.417c-.22.18-.507.33-.86.451z" fill="#D64E00"/><path d="M63.484 58.887c-.354.122-.71.183-1.07.183a3.14 3.14 0 01-1.506-.374 2.86 2.86 0 01-1.117-1.076c-.282-.47-.422-1.019-.422-1.65 0-.59.13-1.12.387-1.588a2.743 2.743 0 011.105-1.098c.479-.263 1.036-.395 1.674-.395.68 0 1.282.148 1.81.443v.963c-.18-.318-.44-.57-.783-.759a2.237 2.237 0 00-1.096-.282c-.494 0-.92.116-1.283.347-.363.231-.64.549-.83.95a3.096 3.096 0 00-.288 1.35c0 .562.109 1.05.326 1.467.218.417.512.737.883.96.371.223.786.334 1.244.334.736 0 1.346-.214 1.826-.643v.417c-.22.18-.507.33-.86.451z" stroke="#D64E00" stroke-width=".109" stroke-miterlimit="10" stroke-linejoin="round"/><path d="M69.595 58.926a.571.571 0 00.191-.243c.058-.118.087-.294.087-.526v-1.97h-3.269v1.97c0 .232.03.408.087.526a.546.546 0 00.192.239c.07.04.104.055.104.043h-1.382c0 .018.035.004.104-.039a.545.545 0 00.187-.243c.055-.118.082-.294.082-.526V53.8c0-.232-.027-.406-.082-.526a.514.514 0 00-.187-.238c-.069-.04-.104-.055-.104-.043h1.382c0-.012-.035.003-.104.043a.548.548 0 00-.192.239c-.057.119-.087.293-.087.525v2.006h3.27V53.8c0-.232-.03-.406-.088-.526a.537.537 0 00-.19-.238c-.07-.04-.105-.055-.105-.043h1.382c0-.018-.035-.005-.105.039a.557.557 0 00-.186.242c-.055.12-.083.294-.083.526v4.358c0 .232.029.408.087.526a.537.537 0 00.192.239c.07.04.104.055.104.043H69.49c0 .018.034.004.104-.039z" fill="#D64E00"/><path d="M69.595 58.926a.571.571 0 00.191-.243c.058-.118.087-.294.087-.526v-1.97h-3.269v1.97c0 .232.03.408.087.526a.546.546 0 00.192.239c.07.04.104.055.104.043h-1.382c0 .018.035.004.104-.039a.545.545 0 00.187-.243c.055-.118.082-.294.082-.526V53.8c0-.232-.027-.406-.082-.526a.514.514 0 00-.187-.238c-.069-.04-.104-.055-.104-.043h1.382c0-.012-.035.003-.104.043a.548.548 0 00-.192.239c-.057.119-.087.293-.087.525v2.006h3.27V53.8c0-.232-.03-.406-.088-.526a.537.537 0 00-.19-.238c-.07-.04-.105-.055-.105-.043h1.382c0-.018-.035-.005-.105.039a.557.557 0 00-.186.242c-.055.12-.083.294-.083.526v4.358c0 .232.029.408.087.526a.537.537 0 00.192.239c.07.04.104.055.104.043H69.49c0 .018.034.004.104-.039z" stroke="#D64E00" stroke-width=".109" stroke-miterlimit="10" stroke-linejoin="round"/><path d="M73.242 56.648l-.556 1.38c-.087.214-.13.39-.13.53 0 .19.087.327.26.407h-1.24c.057 0 .14-.057.25-.174.11-.115.238-.344.383-.685l2.266-5.39 2.25 5.416c.127.312.25.527.37.642.118.116.212.18.282.191h-1.443c.146-.07.218-.176.218-.32 0-.122-.047-.296-.14-.522l-.607-1.475h-2.163zm2.024-.356l-.947-2.317-.93 2.317h1.877z" fill="#D64E00"/><path d="M73.242 56.648l-.556 1.38c-.087.214-.13.39-.13.53 0 .19.087.327.26.407h-1.24c.057 0 .14-.057.25-.174.11-.115.238-.344.383-.685l2.266-5.39 2.25 5.416c.127.312.25.527.37.642.118.116.212.18.282.191h-1.443c.146-.07.218-.176.218-.32 0-.122-.047-.296-.14-.522l-.607-1.475h-2.163zm2.024-.356l-.947-2.317-.93 2.317h1.877z" stroke="#D64E00" stroke-width=".109" stroke-miterlimit="10" stroke-linejoin="round"/><path d="M78.777 58.944a2.734 2.734 0 01-.752-.352v-1.05c.151.387.383.681.695.88.312.2.636.3.975.3.338 0 .621-.111.848-.334.227-.223.341-.5.341-.83a1.1 1.1 0 00-.136-.563 1.403 1.403 0 00-.432-.439 6.072 6.072 0 00-.84-.456c-.507-.23-.876-.472-1.105-.724a1.306 1.306 0 01-.346-.915 1.507 1.507 0 01.826-1.377c.254-.13.532-.195.835-.195a2.8 2.8 0 011.469.417v.937a1.624 1.624 0 00-.633-.742 1.616 1.616 0 00-.862-.265 1.071 1.071 0 00-1.11 1.085c0 .215.06.398.183.551a1.6 1.6 0 00.45.386c.178.105.428.232.748.383.327.156.594.3.804.433.21.134.385.308.525.521.14.215.21.475.21.782 0 .347-.084.648-.25.903-.165.254-.387.45-.664.586a2.025 2.025 0 01-.905.204c-.303 0-.594-.042-.874-.126z" fill="#D64E00"/><path d="M78.777 58.944a2.734 2.734 0 01-.752-.352v-1.05c.151.387.383.681.695.88.312.2.636.3.975.3.338 0 .621-.111.848-.334.227-.223.341-.5.341-.83a1.1 1.1 0 00-.136-.563 1.403 1.403 0 00-.432-.439 6.072 6.072 0 00-.84-.456c-.507-.23-.876-.472-1.105-.724a1.306 1.306 0 01-.346-.915 1.507 1.507 0 01.826-1.377c.254-.13.532-.195.835-.195a2.8 2.8 0 011.469.417v.937a1.624 1.624 0 00-.633-.742 1.616 1.616 0 00-.862-.265 1.071 1.071 0 00-1.11 1.085c0 .215.06.398.183.551a1.6 1.6 0 00.45.386c.178.105.428.232.748.383.327.156.594.3.804.433.21.134.385.308.525.521.14.215.21.475.21.782 0 .347-.084.648-.25.903-.165.254-.387.45-.664.586a2.025 2.025 0 01-.905.204c-.303 0-.594-.042-.874-.126z" stroke="#D64E00" stroke-width=".109" stroke-miterlimit="10" stroke-linejoin="round"/><path d="M82.7 58.926a.578.578 0 00.197-.243c.06-.118.09-.294.09-.526V53.8c0-.232-.029-.406-.086-.526a.524.524 0 00-.192-.238c-.072-.04-.108-.055-.108-.043h1.424c0-.012-.037.003-.108.043a.54.54 0 00-.197.239c-.06.119-.09.293-.09.525v4.358c0 .232.03.408.09.526.06.119.125.198.197.239.072.04.108.055.108.043h-1.433c0 .018.037.004.108-.039z" fill="#D64E00"/><path d="M82.7 58.926a.578.578 0 00.197-.243c.06-.118.09-.294.09-.526V53.8c0-.232-.029-.406-.086-.526a.524.524 0 00-.192-.238c-.072-.04-.108-.055-.108-.043h1.424c0-.012-.037.003-.108.043a.54.54 0 00-.197.239c-.06.119-.09.293-.09.525v4.358c0 .232.03.408.09.526.06.119.125.198.197.239.072.04.108.055.108.043h-1.433c0 .018.037.004.108-.039z" stroke="#D64E00" stroke-width=".109" stroke-miterlimit="10" stroke-linejoin="round"/><path d="M91.03 53.86v-.867h4.422l-3.621 5.626h2.68c.262 0 .487-.053.675-.16a.952.952 0 00.405-.413l-.157.92H90.84l3.63-5.626h-2.5c-.522 0-.836.174-.94.52z" fill="#D64E00"/><path d="M91.03 53.86v-.867h4.422l-3.621 5.626h2.68c.262 0 .487-.053.675-.16a.952.952 0 00.405-.413l-.157.92H90.84l3.63-5.626h-2.5c-.522 0-.836.174-.94.52z" stroke="#D64E00" stroke-width=".109" stroke-miterlimit="10" stroke-linejoin="round"/><path d="M99.126 55.775a1.23 1.23 0 00.448-.486c.102-.2.152-.41.152-.63 0-.225-.048-.438-.144-.638a1.19 1.19 0 00-.439-.49 1.3 1.3 0 00-.723-.192h-.74v4.828c0 .231.029.407.087.525a.508.508 0 00.192.235c.07.038.105.05.105.039h-1.385c0 .011.035-.003.104-.044a.513.513 0 00.187-.234c.056-.116.083-.29.083-.521v-4.341c0-.238-.027-.419-.083-.543-.055-.125-.117-.209-.187-.252-.07-.043-.104-.056-.104-.04h1.723c.454 0 .827.075 1.12.222.292.148.504.339.635.574a1.549 1.549 0 01.031 1.45 1.732 1.732 0 01-.474.581 1.788 1.788 0 01-.72.343l-.138.026 1.533 1.945c.203.226.371.4.503.521.135.122.232.203.293.243a2 2 0 00.108.07h-1.018l-2.368-3.004h.522c.267 0 .499-.063.697-.187z" fill="#D64E00"/><path d="M99.126 55.775a1.23 1.23 0 00.448-.486c.102-.2.152-.41.152-.63 0-.225-.048-.438-.144-.638a1.19 1.19 0 00-.439-.49 1.3 1.3 0 00-.723-.192h-.74v4.828c0 .231.029.407.087.525a.508.508 0 00.192.235c.07.038.105.05.105.039h-1.385c0 .011.035-.003.104-.044a.513.513 0 00.187-.234c.056-.116.083-.29.083-.521v-4.341c0-.238-.027-.419-.083-.543-.055-.125-.117-.209-.187-.252-.07-.043-.104-.056-.104-.04h1.723c.454 0 .827.075 1.12.222.292.148.504.339.635.574a1.549 1.549 0 01.031 1.45 1.732 1.732 0 01-.474.581 1.788 1.788 0 01-.72.343l-.138.026 1.533 1.945c.203.226.371.4.503.521.135.122.232.203.293.243a2 2 0 00.108.07h-1.018l-2.368-3.004h.522c.267 0 .499-.063.697-.187v0z" stroke="#D64E00" stroke-width=".109" stroke-miterlimit="10" stroke-linejoin="round"/><path d="M102.111 58.926a.586.586 0 00.197-.243c.059-.118.089-.294.089-.526V53.8c0-.232-.028-.406-.085-.526a.52.52 0 00-.193-.238c-.07-.04-.107-.055-.107-.043h1.424c0-.012-.036.003-.108.043a.544.544 0 00-.197.239c-.06.119-.089.293-.089.525v4.358c0 .232.029.408.089.526.06.119.125.198.197.239.072.04.108.055.108.043h-1.433c0 .018.036.004.108-.039z" fill="#D64E00"/><path d="M102.111 58.926a.586.586 0 00.197-.243c.059-.118.089-.294.089-.526V53.8c0-.232-.028-.406-.085-.526a.52.52 0 00-.193-.238c-.07-.04-.107-.055-.107-.043h1.424c0-.012-.036.003-.108.043a.544.544 0 00-.197.239c-.06.119-.089.293-.089.525v4.358c0 .232.029.408.089.526.06.119.125.198.197.239.072.04.108.055.108.043h-1.433c0 .018.036.004.108-.039z" stroke="#D64E00" stroke-width=".109" stroke-miterlimit="10" stroke-linejoin="round"/><path d="M108.686 58.926a.58.58 0 00.191-.243c.058-.118.087-.294.087-.526v-1.97h-3.269v1.97c0 .232.029.408.087.526a.543.543 0 00.191.239c.07.04.105.055.105.043h-1.382c0 .018.034.004.104-.039a.546.546 0 00.187-.243c.055-.118.082-.294.082-.526V53.8c0-.232-.027-.406-.082-.526a.514.514 0 00-.187-.238c-.07-.04-.104-.055-.104-.043h1.382c0-.012-.035.003-.105.043a.545.545 0 00-.191.239c-.058.119-.087.293-.087.525v2.006h3.269V53.8c0-.232-.029-.406-.087-.526a.545.545 0 00-.191-.238c-.07-.04-.105-.055-.105-.043h1.383c0-.018-.034-.005-.105.039a.553.553 0 00-.186.242c-.056.12-.083.294-.083.526v4.358c0 .232.029.408.087.526a.543.543 0 00.191.239c.069.04.105.055.105.043h-1.392c0 .018.035.004.105-.039z" fill="#D64E00"/><path d="M108.686 58.926a.58.58 0 00.191-.243c.058-.118.087-.294.087-.526v-1.97h-3.269v1.97c0 .232.029.408.087.526a.543.543 0 00.191.239c.07.04.105.055.105.043h-1.382c0 .018.034.004.104-.039a.546.546 0 00.187-.243c.055-.118.082-.294.082-.526V53.8c0-.232-.027-.406-.082-.526a.514.514 0 00-.187-.238c-.07-.04-.104-.055-.104-.043h1.382c0-.012-.035.003-.105.043a.545.545 0 00-.191.239c-.058.119-.087.293-.087.525v2.006h3.269V53.8c0-.232-.029-.406-.087-.526a.545.545 0 00-.191-.238c-.07-.04-.105-.055-.105-.043h1.383c0-.018-.034-.005-.105.039a.553.553 0 00-.186.242c-.056.12-.083.294-.083.526v4.358c0 .232.029.408.087.526a.543.543 0 00.191.239c.069.04.105.055.105.043h-1.392c0 .018.035.004.105-.039z" stroke="#D64E00" stroke-width=".109" stroke-miterlimit="10" stroke-linejoin="round"/><path d="M112.332 56.648l-.556 1.38c-.086.214-.131.39-.131.53 0 .19.087.327.261.407h-1.242c.059 0 .143-.057.252-.174.11-.115.238-.344.382-.685l2.268-5.39 2.249 5.416c.127.312.25.527.369.642.118.116.213.18.282.191h-1.442c.145-.07.217-.176.217-.32 0-.122-.046-.296-.138-.522l-.608-1.475h-2.163zm2.024-.356l-.947-2.317-.929 2.317h1.876z" fill="#D64E00"/><path d="M112.332 56.648l-.556 1.38c-.086.214-.131.39-.131.53 0 .19.087.327.261.407h-1.242c.059 0 .143-.057.252-.174.11-.115.238-.344.382-.685l2.268-5.39 2.249 5.416c.127.312.25.527.369.642.118.116.213.18.282.191h-1.442c.145-.07.217-.176.217-.32 0-.122-.046-.296-.138-.522l-.608-1.475h-2.163zm2.024-.356l-.947-2.317-.929 2.317h1.876z" stroke="#D64E00" stroke-width=".109" stroke-miterlimit="10" stroke-linejoin="round"/><path d="M122.745 52.991c-.081.018-.16.083-.238.195-.078.114-.118.312-.118.596v5.424l-4.446-5.181v4.157c0 .277.05.472.148.586.098.112.194.177.286.195h-1.223c.08-.018.163-.083.247-.195.083-.114.126-.31.126-.595v-4.34a.826.826 0 00-.2-.537.848.848 0 00-.503-.305h1.076l4.072 4.749v-3.958c0-.446-.15-.71-.451-.79h1.224z" fill="#D64E00"/><path d="M122.745 52.991c-.081.018-.16.083-.238.195-.078.114-.118.312-.118.596v5.424l-4.446-5.181v4.157c0 .277.05.472.148.586.098.112.194.177.286.195h-1.223c.08-.018.163-.083.247-.195.083-.114.126-.31.126-.595v-4.34a.826.826 0 00-.2-.537.848.848 0 00-.503-.305h1.076l4.072 4.749v-3.958c0-.446-.15-.71-.451-.79h1.224z" stroke="#D64E00" stroke-width=".109" stroke-miterlimit="10" stroke-linejoin="round"/><path d="M131.806 58.931a7.253 7.253 0 01-.807.035h-1.44c.075-.018.156-.083.244-.196s.13-.33.13-.656v-4.297c0-.302-.04-.508-.121-.621-.082-.113-.163-.18-.244-.204h1.431c.372 0 .656.016.851.048.194.032.365.08.51.142.256.123.454.293.593.513.14.22.21.458.21.713 0 .387-.118.722-.353 1.002-.236.28-.546.462-.929.543.261.03.509.104.746.226.235.121.427.286.575.494.149.209.223.447.223.713 0 .37-.099.672-.297.907-.197.234-.465.41-.803.526a2.564 2.564 0 01-.519.112zm-.1-5.527a1.811 1.811 0 00-.541-.065h-.603v2.466h.708c.209 0 .383-.031.523-.095a1.193 1.193 0 00.628-.652 1.23 1.23 0 00.096-.477 1.42 1.42 0 00-.109-.556 1.012 1.012 0 00-.327-.426 1.308 1.308 0 00-.375-.195zm.148 2.81a2.865 2.865 0 00-.663-.062h-.629v2.466h.829c.419 0 .747-.099.982-.295.236-.197.353-.51.353-.937 0-.4-.154-.727-.462-.982a1.08 1.08 0 00-.41-.19z" fill="#D64E00"/><path d="M131.806 58.931a7.253 7.253 0 01-.807.035h-1.44c.075-.018.156-.083.244-.196s.13-.33.13-.656v-4.297c0-.302-.04-.508-.121-.621-.082-.113-.163-.18-.244-.204h1.431c.372 0 .656.016.851.048.194.032.365.08.51.142.256.123.454.293.593.513.14.22.21.458.21.713 0 .387-.118.722-.353 1.002-.236.28-.546.462-.929.543.261.03.509.104.746.226.235.121.427.286.575.494.149.209.223.447.223.713 0 .37-.099.672-.297.907-.197.234-.465.41-.803.526a2.564 2.564 0 01-.519.112zm-.1-5.527a1.811 1.811 0 00-.541-.065h-.603v2.466h.708c.209 0 .383-.031.523-.095a1.193 1.193 0 00.628-.652 1.23 1.23 0 00.096-.477 1.42 1.42 0 00-.109-.556 1.012 1.012 0 00-.327-.426 1.308 1.308 0 00-.375-.195zm.148 2.81a2.865 2.865 0 00-.663-.062h-.629v2.466h.829c.419 0 .747-.099.982-.295.236-.197.353-.51.353-.937 0-.4-.154-.727-.462-.982a1.08 1.08 0 00-.41-.19z" stroke="#D64E00" stroke-width=".109" stroke-miterlimit="10" stroke-linejoin="round"/><path d="M134.651 58.965c0 .018.035.005.105-.039.069-.043.132-.13.188-.26.055-.13.083-.32.083-.569v-4.263c0-.237-.028-.418-.083-.543a.594.594 0 00-.188-.256c-.07-.046-.105-.06-.105-.044h3.165v.87c-.105-.348-.42-.522-.945-.522h-1.214v2.466h1.504a.668.668 0 00.48-.174.467.467 0 00.07-.078v.842a.588.588 0 00-.249-.19.718.718 0 00-.293-.053h-1.512v2.466h1.364c.262 0 .488-.054.677-.16a.96.96 0 00.407-.413l-.158.92h-3.296z" fill="#D64E00"/><path d="M134.651 58.965c0 .018.035.005.105-.039.069-.043.132-.13.188-.26.055-.13.083-.32.083-.569v-4.263c0-.237-.028-.418-.083-.543a.594.594 0 00-.188-.256c-.07-.046-.105-.06-.105-.044h3.165v.87c-.105-.348-.42-.522-.945-.522h-1.214v2.466h1.504a.668.668 0 00.48-.174.467.467 0 00.07-.078v.842a.588.588 0 00-.249-.19.718.718 0 00-.293-.053h-1.512v2.466h1.364c.262 0 .488-.054.677-.16a.96.96 0 00.407-.413l-.158.92h-3.296z" stroke="#D64E00" stroke-width=".109" stroke-miterlimit="10" stroke-linejoin="round"/><path d="M144.787 52.991c-.08.018-.16.083-.238.195-.079.114-.118.312-.118.596v5.424l-4.446-5.181v4.157c0 .277.05.472.148.586.098.112.194.177.286.195h-1.224c.081-.018.164-.083.248-.195.084-.114.125-.31.125-.595v-4.34a.825.825 0 00-.199-.537.847.847 0 00-.504-.305h1.077l4.072 4.749v-3.958c0-.446-.15-.71-.451-.79h1.224z" fill="#D64E00"/><path d="M144.787 52.991c-.08.018-.16.083-.238.195-.079.114-.118.312-.118.596v5.424l-4.446-5.181v4.157c0 .277.05.472.148.586.098.112.194.177.286.195h-1.224c.081-.018.164-.083.248-.195.084-.114.125-.31.125-.595v-4.34a.825.825 0 00-.199-.537.847.847 0 00-.504-.305h1.077l4.072 4.749v-3.958c0-.446-.15-.71-.451-.79h1.224z" stroke="#D64E00" stroke-width=".109" stroke-miterlimit="10" stroke-linejoin="round"/><path d="M148.275 58.965c0 .018.035.005.105-.039.07-.043.133-.13.188-.26.055-.13.083-.32.083-.569v-4.263c0-.237-.028-.418-.083-.543a.579.579 0 00-.188-.256c-.07-.046-.105-.06-.105-.044h3.165v.87c-.105-.348-.42-.522-.945-.522h-1.214v2.466h1.504a.668.668 0 00.48-.174.467.467 0 00.07-.078v.842a.588.588 0 00-.249-.19.718.718 0 00-.293-.053h-1.512v2.466h1.364c.262 0 .488-.054.677-.16a.953.953 0 00.406-.413l-.157.92h-3.296z" fill="#D64E00"/><path d="M148.275 58.965c0 .018.035.005.105-.039.07-.043.133-.13.188-.26.055-.13.083-.32.083-.569v-4.263c0-.237-.028-.418-.083-.543a.579.579 0 00-.188-.256c-.07-.046-.105-.06-.105-.044h3.165v.87c-.105-.348-.42-.522-.945-.522h-1.214v2.466h1.504a.668.668 0 00.48-.174.467.467 0 00.07-.078v.842a.588.588 0 00-.249-.19.718.718 0 00-.293-.053h-1.512v2.466h1.364c.262 0 .488-.054.677-.16a.953.953 0 00.406-.413l-.157.92h-3.296z" stroke="#D64E00" stroke-width=".109" stroke-miterlimit="10" stroke-linejoin="round"/><path d="M152.776 53.86v-.867h4.421l-3.62 5.626h2.681c.261 0 .485-.053.674-.16a.957.957 0 00.405-.413l-.157.92h-4.596l3.63-5.626h-2.499c-.521 0-.835.174-.939.52z" fill="#D64E00"/><path d="M152.776 53.86v-.867h4.421l-3.62 5.626h2.681c.261 0 .485-.053.674-.16a.957.957 0 00.405-.413l-.157.92h-4.596l3.63-5.626h-2.499c-.521 0-.835.174-.939.52z" stroke="#D64E00" stroke-width=".109" stroke-miterlimit="10" stroke-linejoin="round"/><path d="M160.871 55.775c.197-.124.347-.286.449-.486.102-.2.152-.41.152-.63a1.47 1.47 0 00-.143-.638 1.192 1.192 0 00-.44-.49 1.301 1.301 0 00-.723-.192h-.74v4.828c0 .231.029.407.087.525.058.119.122.198.192.235.069.038.104.05.104.039h-1.384c0 .011.034-.003.104-.044a.512.512 0 00.187-.234c.055-.116.083-.29.083-.521v-4.341c0-.238-.028-.419-.083-.543-.055-.125-.117-.209-.187-.252-.07-.043-.104-.056-.104-.04h1.723c.453 0 .827.075 1.119.222.293.148.505.339.636.574a1.549 1.549 0 01.031 1.45 1.74 1.74 0 01-.475.581 1.782 1.782 0 01-.719.343l-.139.026 1.533 1.945c.203.226.371.4.504.521.134.122.231.203.292.243.062.04.098.064.11.07h-1.019l-2.369-3.004h.523c.267 0 .499-.063.696-.187z" fill="#D64E00"/><path d="M160.871 55.775c.197-.124.347-.286.449-.486.102-.2.152-.41.152-.63a1.47 1.47 0 00-.143-.638 1.192 1.192 0 00-.44-.49 1.301 1.301 0 00-.723-.192h-.74v4.828c0 .231.029.407.087.525.058.119.122.198.192.235.069.038.104.05.104.039h-1.384c0 .011.034-.003.104-.044a.512.512 0 00.187-.234c.055-.116.083-.29.083-.521v-4.341c0-.238-.028-.419-.083-.543-.055-.125-.117-.209-.187-.252-.07-.043-.104-.056-.104-.04h1.723c.453 0 .827.075 1.119.222.293.148.505.339.636.574a1.549 1.549 0 01.031 1.45 1.74 1.74 0 01-.475.581 1.782 1.782 0 01-.719.343l-.139.026 1.533 1.945c.203.226.371.4.504.521.134.122.231.203.292.243.062.04.098.064.11.07h-1.019l-2.369-3.004h.523c.267 0 .499-.063.696-.187v0z" stroke="#D64E00" stroke-width=".109" stroke-miterlimit="10" stroke-linejoin="round"/><path d="M164.857 56.648l-.556 1.38c-.087.214-.13.39-.13.53 0 .19.087.327.261.407h-1.243c.059 0 .142-.057.252-.174.111-.115.238-.344.383-.685l2.266-5.39 2.25 5.416c.127.312.25.527.369.642.119.116.213.18.283.191h-1.443c.146-.07.218-.176.218-.32 0-.122-.047-.296-.139-.522l-.608-1.475h-2.163zm2.024-.356l-.947-2.317-.929 2.317h1.876z" fill="#D64E00"/><path d="M164.857 56.648l-.556 1.38c-.087.214-.13.39-.13.53 0 .19.087.327.261.407h-1.243c.059 0 .142-.057.252-.174.111-.115.238-.344.383-.685l2.266-5.39 2.25 5.416c.127.312.25.527.369.642.119.116.213.18.283.191h-1.443c.146-.07.218-.176.218-.32 0-.122-.047-.296-.139-.522l-.608-1.475h-2.163zm2.024-.356l-.947-2.317-.929 2.317h1.876z" stroke="#D64E00" stroke-width=".109" stroke-miterlimit="10" stroke-linejoin="round"/><path d="M63.311 65.76a.467.467 0 00-.17-.22c-.064-.037-.095-.05-.095-.04h1.264c0-.01-.032.003-.096.04a.49.49 0 00-.175.22c-.054.109-.08.27-.08.482v4.427h1.305c.238 0 .443-.048.615-.147a.872.872 0 00.37-.379l-.143.846h-3.06c0 .016.031.004.094-.036.064-.04.121-.12.171-.24.05-.12.076-.293.076-.523v-3.948c0-.213-.026-.373-.076-.483z" fill="#517B95"/><path d="M63.311 65.76a.467.467 0 00-.17-.22c-.064-.037-.095-.05-.095-.04h1.264c0-.01-.032.003-.096.04a.49.49 0 00-.175.22c-.054.109-.08.27-.08.482v4.427h1.305c.238 0 .443-.048.615-.147a.872.872 0 00.37-.379l-.143.846h-3.06c0 .016.031.004.094-.036.064-.04.121-.12.171-.24.05-.12.076-.293.076-.523v-3.948c0-.213-.026-.373-.076-.483z" stroke="#517B95" stroke-width=".17" stroke-miterlimit="10" stroke-linejoin="round"/><path d="M69.536 68.858l-.51 1.269c-.08.196-.12.36-.12.487 0 .175.08.3.24.374h-1.142c.054 0 .13-.052.232-.16.1-.105.218-.315.35-.63l2.083-4.955 2.065 4.98c.117.287.23.484.34.59.108.106.195.165.259.175h-1.325c.133-.063.2-.162.2-.295 0-.111-.043-.27-.128-.478l-.558-1.357h-1.986zm1.858-.327l-.87-2.13-.852 2.13h1.722z" fill="#517B95"/><path d="M69.536 68.858l-.51 1.269c-.08.196-.12.36-.12.487 0 .175.08.3.24.374h-1.142c.054 0 .13-.052.232-.16.1-.105.218-.315.35-.63l2.083-4.955 2.065 4.98c.117.287.23.484.34.59.108.106.195.165.259.175h-1.325c.133-.063.2-.162.2-.295 0-.111-.043-.27-.128-.478l-.558-1.357h-1.986zm1.858-.327l-.87-2.13-.852 2.13h1.722z" stroke="#517B95" stroke-width=".17" stroke-miterlimit="10" stroke-linejoin="round"/><path d="M80.34 65.85c0-.218-.097-.335-.288-.35h1.238c-.08.015-.183.076-.308.182-.125.107-.24.315-.347.623l-1.726 4.876-1.542-4.421-1.59 4.421-1.574-4.9c-.139-.446-.34-.707-.606-.782h1.325c-.149.027-.223.115-.223.264 0 .074.032.207.096.399l.087.278 1.007 3.329 1.622-4.422 1.542 4.39 1.19-3.44c.065-.192.096-.34.096-.447z" fill="#517B95"/><path d="M80.34 65.85c0-.218-.097-.335-.288-.35h1.238c-.08.015-.183.076-.308.182-.125.107-.24.315-.347.623l-1.726 4.876-1.542-4.421-1.59 4.421-1.574-4.9c-.139-.446-.34-.707-.606-.782h1.325c-.149.027-.223.115-.223.264 0 .074.032.207.096.399l.087.278 1.007 3.329 1.622-4.422 1.542 4.39 1.19-3.44c.065-.192.096-.34.096-.447z" stroke="#517B95" stroke-width=".17" stroke-miterlimit="10" stroke-linejoin="round"/><path d="M86.794 65.819v2.266h1.374c.196 0 .327-.03.393-.088.067-.058.1-.106.1-.144v.782c0-.016-.013-.041-.036-.076a.366.366 0 00-.143-.103.742.742 0 00-.314-.052h-1.374v1.843c0 .207.027.365.08.475a.521.521 0 00.174.222c.064.04.095.055.095.044h-1.262c0 .011.031-.002.095-.04a.468.468 0 00.171-.219c.05-.109.076-.27.076-.482v-3.966c0-.218-.026-.384-.076-.498a.558.558 0 00-.17-.24c-.065-.044-.096-.06-.096-.044h2.875v.814a.614.614 0 00-.223-.343c-.122-.1-.293-.151-.516-.151h-1.223z" fill="#517B95"/><path d="M86.794 65.819v2.266h1.374c.196 0 .327-.03.393-.088.067-.058.1-.106.1-.144v.782c0-.016-.013-.041-.036-.076a.366.366 0 00-.143-.103.742.742 0 00-.314-.052h-1.374v1.843c0 .207.027.365.08.475a.521.521 0 00.174.222c.064.04.095.055.095.044h-1.262c0 .011.031-.002.095-.04a.468.468 0 00.171-.219c.05-.109.076-.27.076-.482v-3.966c0-.218-.026-.384-.076-.498a.558.558 0 00-.17-.24c-.065-.044-.096-.06-.096-.044h2.875v.814a.614.614 0 00-.223-.343c-.122-.1-.293-.151-.516-.151h-1.223z" stroke="#517B95" stroke-width=".17" stroke-miterlimit="10" stroke-linejoin="round"/><path d="M91.628 70.953a.533.533 0 00.173-.224c.051-.108.078-.27.078-.482v-4.005c0-.213-.024-.373-.075-.483a.47.47 0 00-.168-.219c-.063-.037-.094-.05-.094-.04h1.248c0-.01-.032.003-.095.04a.483.483 0 00-.172.22c-.053.109-.08.27-.08.482v4.005c0 .213.027.374.08.483.051.108.11.182.172.22.063.037.095.05.095.039h-1.256c0 .016.032.004.094-.036z" fill="#517B95"/><path d="M91.628 70.953a.533.533 0 00.173-.224c.051-.108.078-.27.078-.482v-4.005c0-.213-.024-.373-.075-.483a.47.47 0 00-.168-.219c-.063-.037-.094-.05-.094-.04h1.248c0-.01-.032.003-.095.04a.483.483 0 00-.172.22c-.053.109-.08.27-.08.482v4.005c0 .213.027.374.08.483.051.108.11.182.172.22.063.037.095.05.095.039h-1.256c0 .016.032.004.094-.036z" stroke="#517B95" stroke-width=".17" stroke-miterlimit="10" stroke-linejoin="round"/><path d="M97.966 68.056c.18-.114.317-.263.41-.447.093-.182.14-.376.14-.578 0-.207-.045-.402-.132-.587a1.097 1.097 0 00-.402-.45 1.192 1.192 0 00-.662-.176h-.676v4.437c0 .212.026.373.079.482.053.11.11.181.175.216.065.034.096.046.096.035h-1.266c0 .011.032-.002.095-.04a.479.479 0 00.172-.215c.05-.106.076-.266.076-.478v-3.99c0-.217-.027-.384-.076-.498a.514.514 0 00-.172-.232c-.063-.04-.095-.051-.095-.035h1.576c.415 0 .756.067 1.024.203.269.136.462.311.582.526.118.215.18.45.18.707a1.4 1.4 0 01-.152.625 1.62 1.62 0 01-1.092.85l-.127.024 1.402 1.787c.186.208.34.367.462.48.122.11.21.186.266.222.056.038.09.059.1.064h-.932l-2.166-2.76h.478c.244 0 .456-.057.637-.172z" fill="#517B95"/><path d="M97.966 68.056c.18-.114.317-.263.41-.447.093-.182.14-.376.14-.578 0-.207-.045-.402-.132-.587a1.097 1.097 0 00-.402-.45 1.192 1.192 0 00-.662-.176h-.676v4.437c0 .212.026.373.079.482.053.11.11.181.175.216.065.034.096.046.096.035h-1.266c0 .011.032-.002.095-.04a.479.479 0 00.172-.215c.05-.106.076-.266.076-.478v-3.99c0-.217-.027-.384-.076-.498a.514.514 0 00-.172-.232c-.063-.04-.095-.051-.095-.035h1.576c.415 0 .756.067 1.024.203.269.136.462.311.582.526.118.215.18.45.18.707a1.4 1.4 0 01-.152.625 1.62 1.62 0 01-1.092.85l-.127.024 1.402 1.787c.186.208.34.367.462.48.122.11.21.186.266.222.056.038.09.059.1.064h-.932l-2.166-2.76h.478c.244 0 .456-.057.637-.172v0z" stroke="#517B95" stroke-width=".17" stroke-miterlimit="10" stroke-linejoin="round"/><path d="M107.004 70.988c.063-.01.132-.068.207-.171.075-.104.112-.297.112-.578v-3.99l-2.091 4.827-2.122-4.819v3.941c0 .288.045.489.139.603.092.115.177.177.251.187h-1.181c.08-.01.168-.07.263-.18.096-.108.144-.311.144-.61v-3.997c0-.255-.045-.43-.135-.526a.569.569 0 00-.272-.176h1.077l1.955 4.46 1.924-4.46h.966c-.069.01-.144.066-.224.168-.08.1-.12.287-.12.558v4.045c0 .266.04.45.12.55.08.102.155.158.224.168h-1.237z" fill="#517B95"/><path d="M107.004 70.988c.063-.01.132-.068.207-.171.075-.104.112-.297.112-.578v-3.99l-2.091 4.827-2.122-4.819v3.941c0 .288.045.489.139.603.092.115.177.177.251.187h-1.181c.08-.01.168-.07.263-.18.096-.108.144-.311.144-.61v-3.997c0-.255-.045-.43-.135-.526a.569.569 0 00-.272-.176h1.077l1.955 4.46 1.924-4.46h.966c-.069.01-.144.066-.224.168-.08.1-.12.287-.12.558v4.045c0 .266.04.45.12.55.08.102.155.158.224.168h-1.237z" stroke="#517B95" stroke-width=".17" stroke-miterlimit="10" stroke-linejoin="round"/><path d="M9.677 4.777A3.918 3.918 0 0113.592.971h.773l.01-.61H1.003l.01.61h.773A3.917 3.917 0 015.7 4.791v34.7a3.917 3.917 0 01-3.916 3.843H1.01l-.01.612h13.376l-.01-.612h-.773a3.917 3.917 0 01-3.916-3.843V22.92H31.33v-1.834H9.677V4.777z" fill="#517B95"/><path d="M9.677 4.777A3.918 3.918 0 0113.592.971h.773l.01-.61H1.003l.01.61h.773A3.917 3.917 0 015.7 4.791v34.7a3.917 3.917 0 01-3.916 3.843H1.01l-.01.612h13.376l-.01-.612h-.773a3.917 3.917 0 01-3.916-3.843V22.92H31.33v-1.834H9.677V4.777z" stroke="#517B95" stroke-width=".296" stroke-miterlimit="10"/><path d="M100.138 35.914L66.852.371l-7.03-.007v.612h.996c1.738 0 3.153 1.229 3.229 2.942v24.117c-.014 8.433-5.458 14.055-13.625 14.055-7.788 0-12.98-5.937-12.98-14.844V3.911C37.516 2.2 38.929.975 40.664.975h.997V.364H29.244v.61h.996c1.766 0 3.2 1.27 3.232 3.028v24.142c0 9.522 6.782 15.87 16.954 15.87 9.887 0 16.478-6.39 16.478-15.976l-.04-21.564 35.128 37.47h.924l.002-40.383h-2.81l.03 32.353z" fill="#517B95"/><path d="M100.138 35.914L66.852.371l-7.03-.007v.612h.996c1.738 0 3.153 1.228 3.229 2.942v24.117c-.014 8.433-5.458 14.055-13.625 14.055-7.788 0-12.98-5.937-12.98-14.844V3.911C37.516 2.2 38.929.975 40.664.975h.997V.364H29.244v.61h.996c1.766 0 3.2 1.27 3.232 3.028v24.142c0 9.522 6.782 15.87 16.954 15.87 9.887 0 16.478-6.39 16.478-15.976l-.04-21.564 35.128 37.47h.924l.002-40.383h-2.81l.03 32.353z" stroke="#517B95" stroke-width=".296" stroke-miterlimit="10"/><path d="M86.803 6.877l.615-.009V5.78a3.646 3.646 0 013.485-3.642h20.854a3.645 3.645 0 013.485 3.642v1.09l.615.008V.301l-29.054.01v6.566z" fill="#517B95"/><path d="M86.803 6.877l.615-.009V5.78a3.646 3.646 0 013.485-3.642h20.854a3.645 3.645 0 013.485 3.642v1.09l.615.008V.301l-29.054.01v6.566z" stroke="#517B95" stroke-width=".296" stroke-miterlimit="10"/><path d="M140.332 5.97v1.11l.629.008V.36H119.21v1.904h17.636a3.714 3.714 0 013.486 3.707z" fill="#517B95"/><path d="M140.332 5.97v1.11l.629.008V.36H119.21v1.904h17.636a3.714 3.714 0 013.486 3.707z" stroke="#517B95" stroke-width=".296" stroke-miterlimit="10"/><path d="M133.083 42.04h-13.872v1.906h21.923l3.624-10.06h-.622c-1.923 4.741-4.456 8.154-11.053 8.154z" fill="#517B95"/><path d="M133.083 42.04h-13.872v1.906h21.923l3.624-10.06h-.622c-1.923 4.741-4.456 8.154-11.053 8.154z" stroke="#517B95" stroke-width=".296" stroke-miterlimit="10"/><path d="M140.432 26.012v.917l.608.007v-9.853l-.608.008v.917c0 1.677-1.343 2.745-3.011 2.776H119.21v2.596h18.275c1.638.065 2.947.977 2.947 2.632z" fill="#517B95"/><path d="M140.432 26.012v.917l.608.007v-9.853l-.608.008v.917c0 1.677-1.343 2.745-3.011 2.776H119.21v2.596h18.275c1.638.065 2.947.977 2.947 2.632z" stroke="#517B95" stroke-width=".296" stroke-miterlimit="10"/><path d="M170.401 39.206c-2.447-2.673-7.897-10.993-7.897-10.993-1.226-1.73-3.169-3.823-4.525-4.449 6.08 0 10.74-5.396 10.74-11.518 0-7.367-4.695-11.882-12.357-11.882h-11.946v1.97c.881.025 8.534-.125 11.718.05 4.707.257 7.687 3.92 7.843 9.637.038 1.387-.123 2.364-.402 3.25-1.795 5.693-6.588 6.475-9.868 6.564-1.903.052-3.341.021-3.341.021v.585c2.31 0 4.154 2.19 5.807 4.266.485.61 7.61 11.514 8.328 12.371 1.988 2.374 5.156 5.329 11.04 5.329h3.458l.001-.42c-3.715-.03-6.055-2.003-8.599-4.781z" fill="#D64E00"/><path d="M170.401 39.206c-2.447-2.673-7.897-10.993-7.897-10.993-1.226-1.73-3.169-3.823-4.525-4.449 6.08 0 10.74-5.396 10.74-11.518 0-7.367-4.695-11.882-12.357-11.882h-11.946v1.97c.881.025 8.534-.125 11.718.05 4.707.257 7.687 3.92 7.843 9.637.038 1.387-.123 2.364-.402 3.25-1.795 5.693-6.588 6.475-9.868 6.564-1.903.052-3.341.021-3.341.021v.585c2.31 0 4.154 2.19 5.807 4.266.485.61 7.61 11.514 8.328 12.371 1.988 2.374 5.156 5.329 11.04 5.329h3.458l.001-.42c-3.715-.03-6.055-2.003-8.599-4.781z" stroke="#D64E00" stroke-width=".296" stroke-miterlimit="10"/></svg>