<svg width="280" height="112" fill="none" xmlns="http://www.w3.org/2000/svg"><path d="M13.501 92.587c.11-.068.208-.195.299-.38.09-.185.136-.459.136-.821v-3.08H8.829v3.08c0 .362.045.636.136.821.09.185.19.31.298.373.11.063.163.086.163.068h-2.16c0 .028.056.007.164-.061.109-.068.206-.195.292-.38.085-.185.129-.459.129-.821v-6.809c0-.362-.044-.635-.13-.821-.085-.185-.182-.31-.29-.373-.109-.063-.165-.085-.165-.067h2.16c0-.018-.054.004-.163.067-.108.064-.208.188-.298.373-.09.186-.136.46-.136.821v3.133h5.107v-3.133c0-.362-.046-.635-.136-.821-.091-.185-.19-.31-.299-.373-.109-.063-.163-.085-.163-.067h2.16c0-.027-.055-.008-.164.06-.107.068-.206.195-.291.38-.087.186-.13.46-.13.821v6.809c0 .362.045.636.137.821.09.185.19.31.298.373.108.063.163.086.163.068h-2.173c0 .028.054.007.163-.061z" fill="#fff"/><path d="M13.501 92.587c.11-.068.208-.195.299-.38.09-.185.136-.459.136-.821v-3.08H8.829v3.08c0 .362.045.636.136.821.09.185.19.31.298.373.11.063.163.086.163.068h-2.16c0 .028.056.007.164-.061.109-.068.206-.195.292-.38.085-.185.129-.459.129-.821v-6.809c0-.362-.044-.635-.13-.821-.085-.185-.182-.31-.29-.373-.109-.063-.165-.085-.165-.067h2.16c0-.018-.054.004-.163.067-.108.064-.208.188-.298.373-.09.186-.136.46-.136.821v3.133h5.107v-3.133c0-.362-.046-.635-.136-.821-.091-.185-.19-.31-.299-.373-.109-.063-.163-.085-.163-.067h2.16c0-.027-.055-.008-.164.06-.107.068-.206.195-.291.38-.087.186-.13.46-.13.821v6.809c0 .362.045.636.137.821.09.185.19.31.298.373.108.063.163.086.163.068h-2.173c0 .028.054.007.163-.061z" stroke="#fff" stroke-width=".109" stroke-miterlimit="10" stroke-linejoin="round"/><path d="M24.723 89.406c0 .714-.136 1.327-.408 1.837a2.78 2.78 0 01-1.148 1.167c-.494.266-1.067.4-1.72.4-1.077 0-1.911-.298-2.5-.895-.59-.597-.883-1.424-.883-2.482v-4.856c0-.36-.044-.635-.13-.82-.086-.185-.18-.31-.285-.373-.103-.064-.156-.086-.156-.068h2.12c0-.018-.052.004-.157.068-.104.063-.199.185-.284.366-.086.18-.13.443-.13.786v4.897c0 .877.21 1.555.631 2.034.423.48 1.041.72 1.855.72.752 0 1.346-.229 1.78-.686.437-.457.653-1.133.653-2.027v-4.897c0-.36-.044-.635-.136-.82-.09-.185-.19-.31-.298-.373-.11-.064-.163-.086-.163-.068h1.957c0-.018-.055.004-.164.068-.109.063-.208.188-.299.372-.09.186-.135.46-.135.821v4.829z" fill="#fff"/><path d="M24.723 89.406c0 .714-.136 1.327-.408 1.837a2.78 2.78 0 01-1.148 1.167c-.494.266-1.067.4-1.72.4-1.077 0-1.911-.298-2.5-.895-.59-.597-.883-1.424-.883-2.482v-4.856c0-.36-.044-.635-.13-.82-.086-.185-.18-.31-.285-.373-.103-.064-.156-.086-.156-.068h2.12c0-.018-.052.004-.157.068-.104.063-.199.185-.284.366-.086.18-.13.443-.13.786v4.897c0 .877.21 1.555.631 2.034.423.48 1.041.72 1.855.72.752 0 1.346-.229 1.78-.686.437-.457.653-1.133.653-2.027v-4.897c0-.36-.044-.635-.136-.82-.09-.185-.19-.31-.298-.373-.11-.064-.163-.086-.163-.068h1.957c0-.018-.055.004-.164.068-.109.063-.208.188-.299.372-.09.186-.135.46-.135.821v4.829z" stroke="#fff" stroke-width=".109" stroke-miterlimit="10" stroke-linejoin="round"/><path d="M35.788 83.316c-.126.027-.25.129-.372.305-.123.177-.184.487-.184.93v8.474l-6.946-8.095v6.495c0 .434.077.738.23.915.154.176.304.278.45.306H27.05c.127-.028.257-.13.388-.306.131-.177.197-.485.197-.929v-6.78a1.29 1.29 0 00-.313-.84 1.32 1.32 0 00-.786-.475h1.682l6.362 7.418v-6.183c0-.697-.235-1.108-.705-1.235h1.912z" fill="#fff"/><path d="M35.788 83.316c-.126.027-.25.129-.372.305-.123.177-.184.487-.184.93v8.474l-6.946-8.095v6.495c0 .434.077.738.23.915.154.176.304.278.45.306H27.05c.127-.028.257-.13.388-.306.131-.177.197-.485.197-.929v-6.78a1.29 1.29 0 00-.313-.84 1.32 1.32 0 00-.786-.475h1.682l6.362 7.418v-6.183c0-.697-.235-1.108-.705-1.235h1.912z" stroke="#fff" stroke-width=".109" stroke-miterlimit="10" stroke-linejoin="round"/><path d="M37.67 84.09a1.408 1.408 0 00-.57.582l.189-1.356h6.453l.19 1.356a1.415 1.415 0 00-.57-.583c-.264-.153-.596-.23-.995-.23h-1.361v7.528c0 .362.045.637.135.828.092.19.191.316.3.38.11.061.163.081.163.053h-2.163c0 .028.053.008.162-.054.11-.063.208-.187.293-.373.087-.186.13-.463.13-.834v-7.529h-1.362c-.4 0-.73.078-.993.231z" fill="#fff"/><path d="M37.67 84.09a1.408 1.408 0 00-.57.582l.189-1.356h6.453l.19 1.356a1.415 1.415 0 00-.57-.583c-.264-.153-.596-.23-.995-.23h-1.361v7.528c0 .362.045.637.135.828.092.19.191.316.3.38.11.061.163.081.163.053h-2.163c0 .028.053.008.162-.054.11-.063.208-.187.293-.373.087-.186.13-.463.13-.834v-7.529h-1.362c-.4 0-.73.078-.993.231z" stroke="#fff" stroke-width=".109" stroke-miterlimit="10" stroke-linejoin="round"/><path d="M45.216 92.65c0 .026.054.006.164-.062.108-.068.206-.204.293-.407.086-.203.13-.5.13-.888v-6.66c0-.37-.044-.654-.13-.849-.087-.194-.185-.327-.293-.4-.11-.072-.164-.094-.164-.068h4.944v1.357c-.164-.542-.656-.814-1.476-.814h-1.897v3.853h2.35c.18 0 .335-.03.463-.088.128-.06.223-.12.287-.184a.766.766 0 00.11-.122v1.316a.929.929 0 00-.389-.297 1.12 1.12 0 00-.459-.083h-2.362v3.853h2.13c.41 0 .763-.085 1.058-.25.296-.168.508-.383.636-.646l-.246 1.438h-5.15z" fill="#fff"/><path d="M45.216 92.65c0 .026.054.006.164-.062.108-.068.206-.204.293-.407.086-.203.13-.5.13-.888v-6.66c0-.37-.044-.654-.13-.849-.087-.194-.185-.327-.293-.4-.11-.072-.164-.094-.164-.068h4.944v1.357c-.164-.542-.656-.814-1.476-.814h-1.897v3.853h2.35c.18 0 .335-.03.463-.088.128-.06.223-.12.287-.184a.766.766 0 00.11-.122v1.316a.929.929 0 00-.389-.297 1.12 1.12 0 00-.459-.083h-2.362v3.853h2.13c.41 0 .763-.085 1.058-.25.296-.168.508-.383.636-.646l-.246 1.438h-5.15z" stroke="#fff" stroke-width=".109" stroke-miterlimit="10" stroke-linejoin="round"/><path d="M56.134 87.665a1.92 1.92 0 00.7-.76c.158-.312.237-.64.237-.983 0-.353-.074-.686-.224-.997a1.857 1.857 0 00-.686-.766c-.31-.2-.686-.3-1.13-.3h-1.155V91.4c0 .362.044.636.135.821.092.185.191.308.3.367.108.058.163.078.163.06h-2.163c0 .018.053-.004.162-.067.11-.063.208-.185.293-.367.087-.18.129-.452.129-.814v-6.78c0-.371-.042-.653-.129-.847-.085-.195-.182-.327-.293-.395-.109-.066-.163-.087-.163-.06h2.695c.706 0 1.29.116 1.747.345.458.232.79.53.994.896a2.428 2.428 0 01.046 2.266 2.69 2.69 0 01-.74.909 2.793 2.793 0 01-1.123.535l-.218.04 2.395 3.04c.318.352.58.624.789.813.208.19.36.317.455.38.096.063.151.1.171.109h-1.593l-3.699-4.694h.817c.417 0 .779-.097 1.088-.291z" fill="#fff"/><path d="M56.134 87.665a1.92 1.92 0 00.7-.76c.158-.312.237-.64.237-.983 0-.353-.074-.686-.224-.997a1.857 1.857 0 00-.686-.766c-.31-.2-.686-.3-1.13-.3h-1.155V91.4c0 .362.044.636.135.821.092.185.191.308.3.367.108.058.163.078.163.06h-2.163c0 .018.053-.004.162-.067.11-.063.208-.185.293-.367.087-.18.129-.452.129-.814v-6.78c0-.371-.042-.653-.129-.847-.085-.195-.182-.327-.293-.395-.109-.066-.163-.087-.163-.06h2.695c.706 0 1.29.116 1.747.345.458.232.79.53.994.896a2.428 2.428 0 01.046 2.266 2.69 2.69 0 01-.74.909 2.793 2.793 0 01-1.123.535l-.218.04 2.395 3.04c.318.352.58.624.789.813.208.19.36.317.455.38.096.063.151.1.171.109h-1.593l-3.699-4.694h.817c.417 0 .779-.097 1.088-.291v0z" stroke="#fff" stroke-width=".109" stroke-miterlimit="10" stroke-linejoin="round"/><path d="M64.52 94.441h.645V81.554h-.645v12.887zm71.19 0h.646V81.554h-.646v12.887zm60.494 0h.644V81.554h-.644v12.887z" fill="#B4B9BC"/><path d="M75.67 87.244c-.25.411-.607.734-1.071.97-.464.235-1.008.352-1.638.352-.38 0-.789-.04-1.226-.121v2.957c0 .353.046.622.136.807.09.185.19.31.301.373.108.063.163.087.163.068h-2.17c0 .018.056-.005.164-.068.11-.063.208-.185.293-.366.088-.181.13-.452.13-.814v-6.796c0-.362-.042-.637-.13-.828-.085-.19-.184-.319-.293-.387-.108-.066-.163-.092-.163-.075h2.674c.463 0 .845.031 1.145.09.3.058.565.147.79.264.41.208.724.509.943.902.219.394.326.817.326 1.269 0 .523-.124.992-.374 1.403zm-1.276-2.788c-.4-.397-.931-.596-1.595-.596h-1.064v4.055c.391.073.8.11 1.227.11.636 0 1.136-.184 1.493-.55.36-.366.54-.853.54-1.459 0-.642-.2-1.162-.6-1.56z" fill="#fff"/><path d="M75.67 87.244c-.25.411-.607.734-1.071.97-.464.235-1.008.352-1.638.352-.38 0-.789-.04-1.226-.121v2.957c0 .353.046.622.136.807.09.185.19.31.301.373.108.063.163.087.163.068h-2.17c0 .018.056-.005.164-.068.11-.063.208-.185.293-.366.088-.181.13-.452.13-.814v-6.796c0-.362-.042-.637-.13-.828-.085-.19-.184-.319-.293-.387-.108-.066-.163-.092-.163-.075h2.674c.463 0 .845.031 1.145.09.3.058.565.147.79.264.41.208.724.509.943.902.219.394.326.817.326 1.269 0 .523-.124.992-.374 1.403zm-1.276-2.788c-.4-.397-.931-.596-1.595-.596h-1.064v4.055c.391.073.8.11 1.227.11.636 0 1.136-.184 1.493-.55.36-.366.54-.853.54-1.459 0-.642-.2-1.162-.6-1.56v0z" stroke="#fff" stroke-width=".109" stroke-miterlimit="10" stroke-linejoin="round"/><path d="M77.685 92.588c.112-.068.214-.195.308-.38.093-.185.14-.459.14-.821v-6.809c0-.362-.045-.635-.134-.821-.089-.185-.189-.31-.3-.373-.111-.063-.167-.085-.167-.067h2.223c0-.018-.056.004-.168.067-.112.064-.215.188-.308.373-.093.186-.14.46-.14.821v6.809c0 .362.047.636.14.821.093.185.196.31.308.373.112.063.168.086.168.067h-2.237c0 .029.055.008.167-.06z" fill="#fff"/><path d="M77.685 92.588c.112-.068.214-.195.308-.38.093-.185.14-.459.14-.821v-6.809c0-.362-.045-.635-.134-.821-.089-.185-.189-.31-.3-.373-.111-.063-.167-.085-.167-.067h2.223c0-.018-.056.004-.168.067-.112.064-.215.188-.308.373-.093.186-.14.46-.14.821v6.809c0 .362.047.636.14.821.093.185.196.31.308.373.112.063.168.086.168.067h-2.237c0 .029.055.008.167-.06z" stroke="#fff" stroke-width=".109" stroke-miterlimit="10" stroke-linejoin="round"/><path d="M90.464 83.316c-.126.027-.25.129-.372.305-.123.177-.184.487-.184.93v8.474l-6.945-8.095v6.495c0 .434.076.738.23.915.153.176.303.278.448.306h-1.914c.127-.028.256-.13.387-.306.131-.177.197-.485.197-.929v-6.78c0-.306-.105-.587-.312-.84a1.327 1.327 0 00-.787-.475h1.682l6.363 7.418v-6.183c0-.697-.236-1.108-.706-1.235h1.913z" fill="#fff"/><path d="M90.464 83.316c-.126.027-.25.129-.372.305-.123.177-.184.487-.184.93v8.474l-6.945-8.095v6.495c0 .434.076.738.23.915.153.176.303.278.448.306h-1.914c.127-.028.256-.13.387-.306.131-.177.197-.485.197-.929v-6.78c0-.306-.105-.587-.312-.84a1.327 1.327 0 00-.787-.475h1.682l6.363 7.418v-6.183c0-.697-.236-1.108-.706-1.235h1.913z" stroke="#fff" stroke-width=".109" stroke-miterlimit="10" stroke-linejoin="round"/><path d="M98.62 92.527c-.554.19-1.11.285-1.672.285a4.904 4.904 0 01-2.352-.584 4.467 4.467 0 01-1.746-1.68c-.44-.734-.66-1.592-.66-2.577 0-.922.202-1.75.605-2.482a4.285 4.285 0 011.727-1.715c.747-.411 1.619-.618 2.615-.618 1.062 0 2.002.231 2.827.691v1.506a3.05 3.05 0 00-1.223-1.186 3.497 3.497 0 00-1.712-.441c-.771 0-1.438.181-2.005.542a3.502 3.502 0 00-1.297 1.485c-.3.63-.45 1.332-.45 2.11 0 .876.17 1.64.51 2.291.341.651.8 1.15 1.38 1.498.58.35 1.228.523 1.944.523 1.15 0 2.102-.334 2.853-1.004v.651c-.343.28-.793.515-1.345.705z" fill="#fff"/><path d="M98.62 92.527c-.554.19-1.11.285-1.672.285a4.904 4.904 0 01-2.352-.584 4.467 4.467 0 01-1.746-1.68c-.44-.734-.66-1.592-.66-2.577 0-.922.202-1.75.605-2.482a4.285 4.285 0 011.727-1.715c.747-.411 1.619-.618 2.615-.618 1.062 0 2.002.231 2.827.691v1.506a3.05 3.05 0 00-1.223-1.186 3.497 3.497 0 00-1.712-.441c-.771 0-1.438.181-2.005.542a3.502 3.502 0 00-1.297 1.485c-.3.63-.45 1.332-.45 2.11 0 .876.17 1.64.51 2.291.341.651.8 1.15 1.38 1.498.58.35 1.228.523 1.944.523 1.15 0 2.102-.334 2.853-1.004v.651c-.343.28-.793.515-1.345.705z" stroke="#fff" stroke-width=".109" stroke-miterlimit="10" stroke-linejoin="round"/><path d="M108.166 92.588c.109-.068.209-.195.299-.38s.136-.459.136-.821v-3.08h-5.107v3.08c0 .362.046.636.136.821.091.185.191.31.299.373.109.063.162.086.162.067h-2.158c0 .029.055.008.162-.06.109-.068.207-.195.292-.38.086-.185.129-.459.129-.821v-6.809c0-.362-.043-.635-.129-.821-.085-.185-.183-.31-.292-.373-.107-.063-.162-.085-.162-.067h2.158c0-.018-.053.004-.162.067-.108.064-.208.188-.299.373-.09.186-.136.46-.136.821v3.133h5.107v-3.133c0-.362-.046-.635-.136-.821-.09-.185-.19-.31-.299-.373-.108-.063-.162-.085-.162-.067h2.158c0-.027-.053-.007-.162.06-.108.068-.205.195-.292.38-.086.186-.129.46-.129.821v6.809c0 .362.045.636.136.821.09.185.19.31.299.373.109.063.163.086.163.067h-2.173c0 .029.054.008.162-.06z" fill="#fff"/><path d="M108.166 92.588c.109-.068.209-.195.299-.38s.136-.459.136-.821v-3.08h-5.107v3.08c0 .362.046.636.136.821.091.185.191.31.299.373.109.063.162.086.162.067h-2.158c0 .029.055.008.162-.06.109-.068.207-.195.292-.38.086-.185.129-.459.129-.821v-6.809c0-.362-.043-.635-.129-.821-.085-.185-.183-.31-.292-.373-.107-.063-.162-.085-.162-.067h2.158c0-.018-.053.004-.162.067-.108.064-.208.188-.299.373-.09.186-.136.46-.136.821v3.133h5.107v-3.133c0-.362-.046-.635-.136-.821-.09-.185-.19-.31-.299-.373-.108-.063-.162-.085-.162-.067h2.158c0-.027-.053-.008-.162.06-.108.068-.205.195-.292.38-.086.186-.129.46-.129.821v6.809c0 .362.045.636.136.821.09.185.19.31.299.373.109.063.163.086.163.067h-2.173c0 .029.054.008.162-.06z" stroke="#fff" stroke-width=".109" stroke-miterlimit="10" stroke-linejoin="round"/><path d="M113.864 89.029l-.868 2.157c-.136.333-.204.61-.204.826 0 .3.136.511.408.638h-1.94c.09 0 .22-.09.392-.272.172-.18.371-.538.598-1.07l3.541-8.422 3.515 8.461c.198.489.391.824.576 1.004.185.18.333.28.442.299h-2.254c.227-.11.34-.276.34-.502 0-.19-.073-.461-.218-.814l-.949-2.305h-3.379zm3.162-.555l-1.479-3.62-1.453 3.62h2.932z" fill="#fff"/><path d="M113.864 89.029l-.868 2.157c-.136.333-.204.61-.204.826 0 .3.136.511.408.638h-1.94c.09 0 .22-.09.392-.272.172-.18.371-.538.598-1.07l3.541-8.422 3.515 8.461c.198.489.391.824.576 1.004.185.18.333.28.442.299h-2.254c.227-.11.34-.276.34-.502 0-.19-.073-.461-.218-.814l-.949-2.305h-3.379zm3.162-.555l-1.479-3.62-1.453 3.62h2.932z" stroke="#fff" stroke-width=".109" stroke-miterlimit="10" stroke-linejoin="round"/><path d="M122.512 92.615a4.26 4.26 0 01-1.175-.55v-1.64c.237.605.598 1.064 1.086 1.376.487.313.994.468 1.522.468.529 0 .972-.174 1.326-.522.355-.348.533-.78.533-1.296 0-.343-.071-.637-.213-.88-.14-.245-.366-.472-.674-.686-.311-.212-.748-.45-1.312-.712-.793-.36-1.37-.738-1.728-1.131-.361-.394-.54-.87-.54-1.43 0-.48.116-.907.348-1.283.233-.375.546-.664.943-.868a2.82 2.82 0 011.305-.305c.408 0 .809.057 1.2.17.393.113.757.273 1.093.482v1.464a2.536 2.536 0 00-.989-1.16c-.442-.275-.891-.413-1.345-.413-.52 0-.939.167-1.257.501a1.672 1.672 0 00-.478 1.194c0 .335.095.62.286.86a2.5 2.5 0 00.704.604c.277.163.667.362 1.169.597.509.244.927.47 1.255.677.328.209.601.48.82.814.218.335.328.742.328 1.22 0 .543-.131 1.014-.39 1.412a2.56 2.56 0 01-1.038.915 3.164 3.164 0 01-1.413.319 4.73 4.73 0 01-1.366-.197z" fill="#fff"/><path d="M122.512 92.615a4.26 4.26 0 01-1.175-.55v-1.64c.237.605.598 1.064 1.086 1.376.487.313.994.468 1.522.468.529 0 .972-.174 1.326-.522.355-.348.533-.78.533-1.296 0-.343-.071-.637-.213-.88-.14-.245-.366-.472-.674-.686-.311-.212-.748-.45-1.312-.712-.793-.36-1.37-.738-1.728-1.131-.361-.394-.54-.87-.54-1.43 0-.48.116-.907.348-1.283.233-.375.546-.664.943-.868a2.82 2.82 0 011.305-.305c.408 0 .809.057 1.2.17.393.113.757.273 1.093.482v1.464a2.536 2.536 0 00-.989-1.16c-.442-.275-.891-.413-1.345-.413-.52 0-.939.167-1.257.501a1.672 1.672 0 00-.478 1.194c0 .335.095.62.286.86a2.5 2.5 0 00.704.604c.277.163.667.362 1.169.597.509.244.927.47 1.255.677.328.209.601.48.82.814.218.335.328.742.328 1.22 0 .543-.131 1.014-.39 1.412a2.56 2.56 0 01-1.038.915 3.164 3.164 0 01-1.413.319 4.73 4.73 0 01-1.366-.197z" stroke="#fff" stroke-width=".109" stroke-miterlimit="10" stroke-linejoin="round"/><path d="M128.64 92.588c.112-.068.214-.195.308-.38.092-.185.139-.459.139-.821v-6.809c0-.362-.043-.635-.132-.821-.089-.185-.19-.31-.301-.373-.111-.063-.168-.085-.168-.067h2.224c0-.018-.057.004-.168.067-.112.064-.215.188-.308.373-.092.186-.139.46-.139.821v6.809c0 .362.047.636.139.821.093.185.196.31.308.373.111.063.168.086.168.067h-2.239c0 .029.058.008.169-.06z" fill="#fff"/><path d="M128.64 92.588c.112-.068.214-.195.308-.38.092-.185.139-.459.139-.821v-6.809c0-.362-.043-.635-.132-.821-.089-.185-.19-.31-.301-.373-.111-.063-.168-.085-.168-.067h2.224c0-.018-.057.004-.168.067-.112.064-.215.188-.308.373-.092.186-.139.46-.139.821v6.809c0 .362.047.636.139.821.093.185.196.31.308.373.111.063.168.086.168.067h-2.239c0 .029.058.008.169-.06z" stroke="#fff" stroke-width=".109" stroke-miterlimit="10" stroke-linejoin="round"/><path d="M141.655 84.674v-1.356h6.908l-5.657 8.79h4.188c.408 0 .759-.083 1.053-.25.296-.168.506-.383.633-.645l-.245 1.438h-7.179l5.67-8.79h-3.902c-.816 0-1.307.271-1.469.813z" fill="#fff"/><path d="M141.655 84.674v-1.356h6.908l-5.657 8.79h4.188c.408 0 .759-.083 1.053-.25.296-.168.506-.383.633-.645l-.245 1.438h-7.179l5.67-8.79h-3.902c-.816 0-1.307.271-1.469.813z" stroke="#fff" stroke-width=".109" stroke-miterlimit="10" stroke-linejoin="round"/><path d="M154.303 87.665c.307-.195.541-.448.7-.76.158-.312.237-.64.237-.983a2.28 2.28 0 00-.224-.997 1.858 1.858 0 00-.686-.766c-.31-.2-.686-.3-1.129-.3h-1.157V91.4c0 .362.045.636.136.821.09.185.191.308.3.367.108.058.163.078.163.06h-2.164c0 .018.056-.004.163-.067.11-.063.206-.185.293-.367.087-.18.129-.452.129-.814v-6.78c0-.371-.042-.653-.129-.847-.087-.195-.183-.327-.293-.395-.107-.066-.163-.087-.163-.06h2.693c.709 0 1.291.116 1.749.345.457.232.789.53.992.896a2.417 2.417 0 01.048 2.266 2.687 2.687 0 01-.74.909 2.793 2.793 0 01-1.123.535l-.217.04 2.394 3.04c.318.352.58.624.787.813.21.19.362.317.457.38.096.063.151.1.17.109h-1.592l-3.699-4.694h.815c.419 0 .781-.097 1.09-.291z" fill="#fff"/><path d="M154.303 87.665c.307-.195.541-.448.7-.76.158-.312.237-.64.237-.983a2.28 2.28 0 00-.224-.997 1.858 1.858 0 00-.686-.766c-.31-.2-.686-.3-1.129-.3h-1.157V91.4c0 .362.045.636.136.821.09.185.191.308.3.367.108.058.163.078.163.06h-2.164c0 .018.056-.004.163-.067.11-.063.206-.185.293-.367.087-.18.129-.452.129-.814v-6.78c0-.371-.042-.653-.129-.847-.087-.195-.183-.327-.293-.395-.107-.066-.163-.087-.163-.06h2.693c.709 0 1.291.116 1.749.345.457.232.789.53.992.896a2.417 2.417 0 01.048 2.266 2.687 2.687 0 01-.74.909 2.793 2.793 0 01-1.123.535l-.217.04 2.394 3.04c.318.352.58.624.787.813.21.19.362.317.457.38.096.063.151.1.17.109h-1.592l-3.699-4.694h.815c.419 0 .781-.097 1.09-.291v0z" stroke="#fff" stroke-width=".109" stroke-miterlimit="10" stroke-linejoin="round"/><path d="M158.967 92.588c.111-.068.214-.195.308-.38.092-.185.139-.459.139-.821v-6.809c0-.362-.045-.635-.134-.821-.089-.185-.188-.31-.301-.373-.11-.063-.167-.085-.167-.067h2.224c0-.018-.056.004-.167.067-.113.064-.216.188-.308.373-.094.186-.14.46-.14.821v6.809c0 .362.046.636.14.821.092.185.195.31.308.373.111.063.167.086.167.067h-2.238c0 .029.056.008.169-.06z" fill="#fff"/><path d="M158.967 92.588c.111-.068.214-.195.308-.38.092-.185.139-.459.139-.821v-6.809c0-.362-.045-.635-.134-.821-.089-.185-.188-.31-.301-.373-.11-.063-.167-.085-.167-.067h2.224c0-.018-.056.004-.167.067-.113.064-.216.188-.308.373-.094.186-.14.46-.14.821v6.809c0 .362.046.636.14.821.092.185.195.31.308.373.111.063.167.086.167.067h-2.238c0 .029.056.008.169-.06z" stroke="#fff" stroke-width=".109" stroke-miterlimit="10" stroke-linejoin="round"/><path d="M169.239 92.588c.108-.068.208-.195.298-.38.091-.185.136-.459.136-.821v-3.08h-5.107v3.08c0 .362.046.636.136.821.09.185.191.31.299.373.109.063.163.086.163.067h-2.159c0 .029.054.008.163-.06.109-.068.206-.195.291-.38.087-.185.129-.459.129-.821v-6.809c0-.362-.042-.635-.129-.821-.085-.185-.182-.31-.291-.373-.109-.063-.163-.085-.163-.067h2.159c0-.018-.054.004-.163.067-.108.064-.209.188-.299.373-.09.186-.136.46-.136.821v3.133h5.107v-3.133c0-.362-.045-.635-.136-.821-.09-.185-.19-.31-.298-.373-.109-.063-.164-.085-.164-.067h2.161c0-.027-.054-.007-.164.06-.108.068-.205.195-.292.38-.086.186-.129.46-.129.821v6.809c0 .362.046.636.136.821.09.185.19.31.299.373.108.063.163.086.163.067h-2.174c0 .029.055.008.164-.06z" fill="#fff"/><path d="M169.239 92.588c.108-.068.208-.195.298-.38.091-.185.136-.459.136-.821v-3.08h-5.107v3.08c0 .362.046.636.136.821.09.185.191.31.299.373.109.063.163.086.163.067h-2.159c0 .029.054.008.163-.06.109-.068.206-.195.291-.38.087-.185.129-.459.129-.821v-6.809c0-.362-.042-.635-.129-.821-.085-.185-.182-.31-.291-.373-.109-.063-.163-.085-.163-.067h2.159c0-.018-.054.004-.163.067-.108.064-.209.188-.299.373-.09.186-.136.46-.136.821v3.133h5.107v-3.133c0-.362-.045-.635-.136-.821-.09-.185-.19-.31-.298-.373-.109-.063-.164-.085-.164-.067h2.161c0-.027-.054-.008-.164.06-.108.068-.205.195-.292.38-.086.186-.129.46-.129.821v6.809c0 .362.046.636.136.821.09.185.19.31.299.373.108.063.163.086.163.067h-2.174c0 .029.055.008.164-.06z" stroke="#fff" stroke-width=".109" stroke-miterlimit="10" stroke-linejoin="round"/><path d="M174.936 89.029l-.869 2.157c-.135.333-.204.61-.204.826 0 .3.136.511.407.638h-1.94c.091 0 .222-.09.393-.272.172-.18.371-.538.598-1.07l3.542-8.422 3.514 8.461c.198.489.391.824.576 1.004.185.18.333.28.442.299h-2.254c.227-.11.34-.276.34-.502 0-.19-.073-.461-.217-.814l-.95-2.305h-3.378zm3.161-.555l-1.479-3.62-1.451 3.62h2.93z" fill="#fff"/><path d="M174.936 89.029l-.869 2.157c-.135.333-.204.61-.204.826 0 .3.136.511.407.638h-1.94c.091 0 .222-.09.393-.272.172-.18.371-.538.598-1.07l3.542-8.422 3.514 8.461c.198.489.391.824.576 1.004.185.18.333.28.442.299h-2.254c.227-.11.34-.276.34-.502 0-.19-.073-.461-.217-.814l-.95-2.305h-3.378zm3.161-.555l-1.479-3.62-1.451 3.62h2.93z" stroke="#fff" stroke-width=".109" stroke-miterlimit="10" stroke-linejoin="round"/><path d="M191.204 83.316c-.127.027-.251.129-.373.305-.121.177-.184.487-.184.93v8.474l-6.946-8.095v6.495c0 .434.078.738.231.915.154.176.304.278.448.306h-1.912c.125-.028.255-.13.387-.306.13-.177.196-.485.196-.929v-6.78a1.29 1.29 0 00-.312-.84 1.324 1.324 0 00-.786-.475h1.682l6.361 7.418v-6.183c0-.697-.234-1.108-.705-1.235h1.913z" fill="#fff"/><path d="M191.204 83.316c-.127.027-.251.129-.373.305-.121.177-.184.487-.184.93v8.474l-6.946-8.095v6.495c0 .434.078.738.231.915.154.176.304.278.448.306h-1.912c.125-.028.255-.13.387-.306.13-.177.196-.485.196-.929v-6.78a1.29 1.29 0 00-.312-.84 1.324 1.324 0 00-.786-.475h1.682l6.361 7.418v-6.183c0-.697-.234-1.108-.705-1.235h1.913z" stroke="#fff" stroke-width=".109" stroke-miterlimit="10" stroke-linejoin="round"/><path d="M205.36 92.596c-.305.036-.726.054-1.261.054h-2.25c.118-.027.244-.13.381-.305.138-.177.204-.518.204-1.025v-6.714c0-.47-.063-.793-.189-.97-.128-.177-.256-.282-.382-.318h2.236c.581 0 1.025.024 1.329.075.304.049.571.124.798.222.399.191.709.457.926.801.218.344.328.715.328 1.113 0 .606-.185 1.128-.552 1.566-.368.438-.853.722-1.452.848a3.34 3.34 0 011.166.353c.368.19.667.447.899.773.232.325.348.697.348 1.113 0 .578-.154 1.05-.464 1.417-.308.365-.727.64-1.254.821-.237.08-.506.14-.811.176zm-.157-8.634c-.209-.068-.492-.102-.845-.102h-.942v3.853h1.106c.326 0 .599-.05.817-.15.218-.099.41-.23.573-.393a1.88 1.88 0 00.409-.624c.101-.244.15-.493.15-.746a2.22 2.22 0 00-.17-.868 1.591 1.591 0 00-.512-.666 2.043 2.043 0 00-.586-.304zm.232 4.388c-.255-.064-.601-.095-1.036-.095h-.983v3.852h1.295c.655 0 1.167-.154 1.535-.461.369-.307.552-.796.552-1.464 0-.625-.242-1.135-.723-1.534a1.676 1.676 0 00-.64-.298z" fill="#fff"/><path d="M205.36 92.596c-.305.036-.726.054-1.261.054h-2.25c.118-.027.244-.13.381-.305.138-.177.204-.518.204-1.025v-6.714c0-.47-.063-.793-.189-.97-.128-.177-.256-.282-.382-.318h2.236c.581 0 1.025.024 1.329.075.304.049.571.124.798.222.399.191.709.457.926.801.218.344.328.715.328 1.113 0 .606-.185 1.128-.552 1.566-.368.438-.853.722-1.452.848a3.34 3.34 0 011.166.353c.368.19.667.447.899.773.232.325.348.697.348 1.113 0 .578-.154 1.05-.464 1.417-.308.365-.727.64-1.254.821-.237.08-.506.14-.811.176zm-.157-8.634c-.209-.068-.492-.102-.845-.102h-.942v3.853h1.106c.326 0 .599-.05.817-.15.218-.099.41-.23.573-.393a1.88 1.88 0 00.409-.624c.101-.244.15-.493.15-.746a2.22 2.22 0 00-.17-.868 1.591 1.591 0 00-.512-.666 2.043 2.043 0 00-.586-.304zm.232 4.388c-.255-.064-.601-.095-1.036-.095h-.983v3.852h1.295c.655 0 1.167-.154 1.535-.461.369-.307.552-.796.552-1.464 0-.625-.242-1.135-.723-1.534a1.676 1.676 0 00-.64-.298z" stroke="#fff" stroke-width=".109" stroke-miterlimit="10" stroke-linejoin="round"/><path d="M209.804 92.65c0 .026.054.006.164-.062.107-.068.206-.204.293-.407.086-.203.13-.5.13-.888v-6.66c0-.37-.044-.654-.13-.849-.087-.194-.186-.327-.293-.4-.11-.072-.164-.094-.164-.068h4.944v1.357c-.164-.542-.656-.814-1.476-.814h-1.898v3.853h2.35c.182 0 .336-.03.464-.088.128-.06.223-.12.287-.184a.76.76 0 00.109-.122v1.316a.924.924 0 00-.389-.297 1.119 1.119 0 00-.458-.083h-2.363v3.853h2.131c.41 0 .763-.085 1.058-.25.296-.168.508-.383.636-.646l-.246 1.438h-5.149z" fill="#fff"/><path d="M209.804 92.65c0 .026.054.006.164-.062.107-.068.206-.204.293-.407.086-.203.13-.5.13-.888v-6.66c0-.37-.044-.654-.13-.849-.087-.194-.186-.327-.293-.4-.11-.072-.164-.094-.164-.068h4.944v1.357c-.164-.542-.656-.814-1.476-.814h-1.898v3.853h2.35c.182 0 .336-.03.464-.088.128-.06.223-.12.287-.184a.76.76 0 00.109-.122v1.316a.924.924 0 00-.389-.297 1.119 1.119 0 00-.458-.083h-2.363v3.853h2.131c.41 0 .763-.085 1.058-.25.296-.168.508-.383.636-.646l-.246 1.438h-5.149z" stroke="#fff" stroke-width=".109" stroke-miterlimit="10" stroke-linejoin="round"/><path d="M225.641 83.316c-.127.027-.251.129-.373.305-.123.177-.184.487-.184.93v8.474l-6.946-8.095v6.495c0 .434.077.738.231.915.153.176.303.278.447.306h-1.912c.126-.028.255-.13.386-.306.131-.177.197-.485.197-.929v-6.78a1.29 1.29 0 00-.312-.84 1.326 1.326 0 00-.787-.475h1.682l6.363 7.418v-6.183c0-.697-.235-1.108-.705-1.235h1.913z" fill="#fff"/><path d="M225.641 83.316c-.127.027-.251.129-.373.305-.123.177-.184.487-.184.93v8.474l-6.946-8.095v6.495c0 .434.077.738.231.915.153.176.303.278.447.306h-1.912c.126-.028.255-.13.386-.306.131-.177.197-.485.197-.929v-6.78a1.29 1.29 0 00-.312-.84 1.326 1.326 0 00-.787-.475h1.682l6.363 7.418v-6.183c0-.697-.235-1.108-.705-1.235h1.913z" stroke="#fff" stroke-width=".109" stroke-miterlimit="10" stroke-linejoin="round"/><path d="M231.089 92.65c0 .026.054.006.164-.062.109-.068.208-.204.293-.407.087-.203.13-.5.13-.888v-6.66c0-.37-.043-.654-.13-.849-.085-.194-.184-.327-.293-.4-.11-.072-.164-.094-.164-.068h4.945v1.357c-.164-.542-.656-.814-1.476-.814h-1.898v3.853h2.35a1.056 1.056 0 00.751-.272.82.82 0 00.109-.122v1.316a.883.883 0 00-.389-.298 1.122 1.122 0 00-.458-.082h-2.363v3.853h2.131c.41 0 .762-.085 1.058-.25.296-.168.508-.383.634-.646l-.244 1.438h-5.15z" fill="#fff"/><path d="M231.089 92.65c0 .026.054.006.164-.062.109-.068.208-.204.293-.407.087-.203.13-.5.13-.888v-6.66c0-.37-.043-.654-.13-.849-.085-.194-.184-.327-.293-.4-.11-.072-.164-.094-.164-.068h4.945v1.357c-.164-.542-.656-.814-1.476-.814h-1.898v3.853h2.35a1.056 1.056 0 00.751-.272.82.82 0 00.109-.122v1.316a.883.883 0 00-.389-.298 1.122 1.122 0 00-.458-.082h-2.363v3.853h2.131c.41 0 .762-.085 1.058-.25.296-.168.508-.383.634-.646l-.244 1.438h-5.15z" stroke="#fff" stroke-width=".109" stroke-miterlimit="10" stroke-linejoin="round"/><path d="M238.121 84.674v-1.356h6.907l-5.656 8.79h4.188c.408 0 .758-.083 1.053-.25.294-.168.506-.383.633-.645l-.245 1.438h-7.18l5.67-8.79h-3.903c-.815 0-1.305.271-1.467.813z" fill="#fff"/><path d="M238.121 84.674v-1.356h6.907l-5.656 8.79h4.188c.408 0 .758-.083 1.053-.25.294-.168.506-.383.633-.645l-.245 1.438h-7.18l5.67-8.79h-3.903c-.815 0-1.305.271-1.467.813z" stroke="#fff" stroke-width=".109" stroke-miterlimit="10" stroke-linejoin="round"/><path d="M250.768 87.665c.308-.195.542-.448.701-.76.159-.312.238-.64.238-.983a2.28 2.28 0 00-.224-.997 1.863 1.863 0 00-.688-.766c-.308-.2-.685-.3-1.129-.3h-1.156V91.4c0 .362.046.636.136.821.091.185.191.308.3.367.109.058.163.078.163.06h-2.163c0 .018.054-.004.163-.067.109-.063.206-.185.293-.367.085-.18.129-.452.129-.814v-6.78c0-.371-.044-.653-.129-.847-.087-.195-.184-.327-.293-.395-.109-.066-.163-.087-.163-.06h2.693c.708 0 1.291.116 1.748.345.458.232.789.53.993.896a2.416 2.416 0 01.048 2.266 2.69 2.69 0 01-.741.909 2.784 2.784 0 01-1.124.535l-.216.04 2.394 3.04c.317.352.58.624.788.813.209.19.361.317.456.38.096.063.152.1.171.109h-1.592l-3.7-4.694h.816c.417 0 .78-.097 1.088-.291z" fill="#fff"/><path d="M250.768 87.665c.308-.195.542-.448.701-.76.159-.312.238-.64.238-.983a2.28 2.28 0 00-.224-.997 1.863 1.863 0 00-.688-.766c-.308-.2-.685-.3-1.129-.3h-1.156V91.4c0 .362.046.636.136.821.091.185.191.308.3.367.109.058.163.078.163.06h-2.163c0 .018.054-.004.163-.067.109-.063.206-.185.293-.367.085-.18.129-.452.129-.814v-6.78c0-.371-.044-.653-.129-.847-.087-.195-.184-.327-.293-.395-.109-.066-.163-.087-.163-.06h2.693c.708 0 1.291.116 1.748.345.458.232.789.53.993.896a2.416 2.416 0 01.048 2.266 2.69 2.69 0 01-.741.909 2.784 2.784 0 01-1.124.535l-.216.04 2.394 3.04c.317.352.58.624.788.813.209.19.361.317.456.38.096.063.152.1.171.109h-1.592l-3.7-4.694h.816c.417 0 .78-.097 1.088-.291v0z" stroke="#fff" stroke-width=".109" stroke-miterlimit="10" stroke-linejoin="round"/><path d="M256.995 89.029l-.868 2.157c-.136.333-.204.61-.204.826 0 .3.136.511.408.638h-1.941c.092 0 .222-.09.394-.272.172-.18.371-.538.597-1.07l3.541-8.422 3.515 8.461c.198.489.39.824.577 1.004.185.18.332.28.441.299h-2.254c.228-.11.34-.276.34-.502 0-.19-.072-.461-.217-.814l-.949-2.305h-3.38zm3.163-.555l-1.48-3.62-1.452 3.62h2.932z" fill="#fff"/><path d="M256.995 89.029l-.868 2.157c-.136.333-.204.61-.204.826 0 .3.136.511.408.638h-1.941c.092 0 .222-.09.394-.272.172-.18.371-.538.597-1.07l3.541-8.422 3.515 8.461c.198.489.39.824.577 1.004.185.18.332.28.441.299h-2.254c.228-.11.34-.276.34-.502 0-.19-.072-.461-.217-.814l-.949-2.305h-3.38zm3.163-.555l-1.48-3.62-1.452 3.62h2.932z" stroke="#fff" stroke-width=".109" stroke-miterlimit="10" stroke-linejoin="round"/><path d="M98.35 103.263c-.079-.171-.168-.285-.267-.342-.099-.059-.148-.08-.148-.063h1.975c0-.017-.05.004-.15.063-.1.057-.19.171-.273.342-.084.171-.124.421-.124.754v6.917h2.037c.372 0 .692-.076.962-.23.269-.154.462-.351.577-.592l-.223 1.321h-4.78c0 .024.048.006.147-.056.1-.062.188-.188.267-.374.078-.187.118-.459.118-.818v-6.168c0-.333-.04-.583-.118-.754zm9.724 4.841l-.797 1.982c-.126.307-.188.561-.188.76 0 .274.125.47.375.586h-1.783c.083 0 .204-.082.362-.25.157-.165.34-.493.547-.984l3.254-7.742 3.226 7.779c.183.45.36.758.531.923.169.166.305.257.405.274h-2.07c.209-.1.312-.253.312-.462 0-.173-.067-.422-.199-.747l-.873-2.119h-3.102zm2.903-.512l-1.359-3.328-1.332 3.328h2.691zm13.975-4.187c0-.341-.15-.523-.448-.548h1.934c-.126.025-.286.119-.481.286-.196.166-.376.491-.542.973l-2.698 7.617-2.408-6.907-2.483 6.907-2.46-7.654c-.217-.698-.532-1.106-.948-1.222h2.071c-.233.041-.349.178-.349.411 0 .116.051.325.15.623l.137.436 1.573 5.2 2.534-6.908 2.409 6.857 1.859-5.373c.101-.3.15-.531.15-.698zm10.085-.049v3.54h2.147c.305 0 .51-.046.613-.137.105-.091.156-.166.156-.225v1.222c0-.025-.02-.065-.056-.118a.573.573 0 00-.224-.162c-.111-.054-.274-.081-.489-.081h-2.147v2.879c0 .324.042.571.124.742.082.17.173.286.273.348.099.063.148.085.148.069h-1.972c0 .016.049-.004.149-.062.1-.059.188-.173.267-.344.078-.169.118-.421.118-.753v-6.195c0-.341-.04-.601-.118-.779-.079-.178-.167-.303-.267-.374-.1-.07-.149-.093-.149-.069h4.492v1.271a.955.955 0 00-.348-.535c-.191-.157-.459-.237-.807-.237h-1.91zm7.552 8.021c.098-.062.188-.18.27-.349.081-.17.122-.422.122-.754v-6.257c0-.333-.038-.583-.116-.754-.078-.171-.165-.285-.263-.342-.099-.059-.147-.08-.147-.063h1.949c0-.017-.049.004-.148.063-.098.057-.188.171-.269.342-.082.171-.123.421-.123.754v6.257c0 .332.041.584.123.754.081.169.171.284.269.343.099.058.148.078.148.062h-1.962c0 .024.05.006.147-.056zm9.902-4.525c.282-.179.496-.411.641-.698.145-.286.218-.588.218-.903 0-.325-.069-.629-.206-.917a1.716 1.716 0 00-.628-.703c-.283-.183-.627-.276-1.033-.276h-1.058v6.931c0 .332.041.584.124.753.083.171.173.284.274.338.101.054.149.072.149.055h-1.977c0 .017.049-.004.148-.062.1-.059.189-.17.269-.336.077-.167.118-.416.118-.748v-6.232c0-.34-.041-.6-.118-.779-.08-.178-.169-.299-.269-.362-.099-.061-.148-.08-.148-.055h2.462c.648 0 1.18.105 1.6.317.419.212.721.486.909.822.185.337.28.704.28 1.104 0 .332-.079.658-.237.978a2.522 2.522 0 01-1.705 1.327l-.199.037 2.191 2.793c.291.324.53.573.722.748.189.174.329.291.415.348.087.059.14.092.156.1h-1.456l-3.384-4.312h.746c.382 0 .713-.089.996-.268zm14.119 4.58c.1-.016.207-.106.324-.268.116-.162.175-.464.175-.903v-6.233l-3.267 7.541-3.316-7.528v6.157c0 .449.072.763.218.941.144.18.276.277.392.293h-1.844c.124-.016.262-.11.411-.281.148-.17.223-.487.223-.953v-6.245c0-.399-.07-.672-.21-.822-.142-.15-.283-.241-.424-.275h1.682l3.054 6.968 3.006-6.968h1.509c-.108.017-.225.104-.349.262-.126.158-.188.449-.188.873v6.319c0 .416.062.703.188.86.124.158.241.246.349.262h-1.933z" fill="#fff"/><path d="M98.35 103.263c-.079-.171-.168-.285-.267-.342-.099-.059-.148-.08-.148-.063h1.975c0-.017-.05.004-.15.063-.1.057-.19.171-.273.342-.084.171-.124.421-.124.754v6.917h2.037c.372 0 .692-.076.962-.23.269-.154.462-.351.577-.592l-.223 1.321h-4.78c0 .024.048.006.147-.056.1-.062.188-.188.267-.374.078-.187.118-.459.118-.818v-6.168c0-.333-.04-.583-.118-.754zm9.725 4.841l-.798 1.982c-.125.307-.187.561-.187.76 0 .274.125.47.374.586h-1.782c.083 0 .203-.082.362-.25.157-.165.339-.493.547-.984l3.254-7.742 3.225 7.779c.183.45.36.758.531.923.17.166.306.257.405.274h-2.069c.208-.1.311-.253.311-.462 0-.173-.067-.422-.199-.747l-.873-2.119h-3.101zm2.902-.512l-1.358-3.328-1.332 3.328h2.69zm13.975-4.187c0-.341-.15-.523-.448-.548h1.934c-.126.025-.286.119-.481.286-.196.166-.376.491-.542.973l-2.698 7.617-2.408-6.907-2.483 6.907-2.46-7.654c-.217-.698-.532-1.106-.948-1.222h2.071c-.233.041-.349.178-.349.411 0 .116.051.325.15.623l.137.436 1.573 5.2 2.534-6.908 2.409 6.857 1.859-5.373c.101-.3.15-.531.15-.698zm10.085-.049v3.54h2.147c.306 0 .511-.046.614-.137.104-.092.156-.167.156-.225v1.222c0-.025-.02-.065-.057-.119a.567.567 0 00-.223-.161c-.112-.054-.274-.081-.49-.081h-2.147v2.879c0 .323.042.57.124.741.082.17.174.286.273.348.1.064.149.086.149.069h-1.973c0 .017.05-.003.149-.062.101-.058.189-.172.267-.343.079-.17.118-.422.118-.753v-6.195c0-.341-.039-.601-.118-.779-.078-.178-.166-.304-.267-.374-.099-.07-.149-.094-.149-.069h4.492v1.271a.959.959 0 00-.347-.535c-.191-.157-.46-.237-.808-.237h-1.91zm7.552 8.021c.098-.062.188-.18.27-.349.081-.17.122-.422.122-.754v-6.257c0-.333-.038-.583-.116-.754-.078-.171-.165-.285-.263-.342-.099-.059-.147-.08-.147-.063h1.949c0-.017-.049.004-.148.063-.098.057-.188.171-.269.342-.082.171-.123.421-.123.754v6.257c0 .332.041.584.123.754.081.169.171.284.269.343.099.058.148.078.148.062h-1.962c0 .024.05.006.147-.056zm9.903-4.525c.282-.18.495-.411.64-.698.146-.286.218-.588.218-.904 0-.324-.069-.629-.206-.917a1.715 1.715 0 00-.628-.703c-.282-.182-.627-.275-1.033-.275h-1.058v6.931c0 .332.041.583.124.753.084.171.174.284.275.338.1.053.148.072.148.055h-1.977c0 .017.049-.004.149-.062.099-.059.188-.17.268-.337.077-.166.118-.415.118-.747v-6.233c0-.339-.041-.599-.118-.779-.08-.178-.169-.298-.268-.362-.1-.06-.149-.079-.149-.055h2.462c.648 0 1.181.106 1.6.318.42.212.722.486.909.822.185.336.28.704.28 1.104 0 .332-.078.658-.236.978a2.535 2.535 0 01-1.706 1.327l-.199.037 2.192 2.793c.29.324.529.572.721.748.19.174.329.291.416.348.087.059.139.091.156.1h-1.456l-3.384-4.312h.746c.382 0 .712-.089.996-.268zm14.119 4.58c.099-.016.207-.107.324-.268.116-.162.175-.464.175-.903v-6.233l-3.267 7.541-3.316-7.528v6.156c0 .45.071.764.217.942.145.179.277.277.393.293h-1.845c.124-.016.262-.11.411-.281.149-.17.224-.487.224-.954v-6.244c0-.399-.07-.672-.211-.822-.142-.15-.282-.242-.424-.276h1.682l3.055 6.969 3.006-6.969h1.508c-.108.018-.225.105-.349.263-.125.158-.187.448-.187.873v6.319c0 .416.062.703.187.86.124.158.241.246.349.262h-1.932z" fill="#FD7615" stroke="#FD7615" stroke-width=".17" stroke-miterlimit="10" stroke-linejoin="round"/><path d="M14.556 7.993a6.121 6.121 0 016.117-5.947h1.207l.017-.952H1.004l.014.952h1.208a6.12 6.12 0 016.116 5.967v54.212a6.12 6.12 0 01-6.118 6.004H1.015L1 69.185h20.897l-.015-.956h-1.208a6.12 6.12 0 01-6.118-6.004v-25.89h33.83v-2.864h-33.83V7.993z" fill="#fff"/><path d="M14.556 7.993a6.121 6.121 0 016.117-5.947h1.207l.017-.952H1.004l.014.952h1.208a6.12 6.12 0 016.116 5.967v54.212a6.12 6.12 0 01-6.118 6.004H1.015L1 69.185h20.897l-.015-.956h-1.208a6.12 6.12 0 01-6.118-6.004v-25.89h33.83v-2.864h-33.83V7.993z" stroke="#fff" stroke-width=".296" stroke-miterlimit="10"/><path d="M155.883 56.637L103.882 1.11l-10.984-.011v.956h1.557c2.714 0 4.925 1.92 5.043 4.597v37.677c-.02 13.173-8.527 21.957-21.286 21.957-12.167 0-20.279-9.275-20.279-23.19V6.64c.116-2.673 2.324-4.587 5.035-4.587h1.556v-.955H45.127v.955h1.556c2.76 0 4.999 1.983 5.05 4.73v37.715c0 14.877 10.594 24.794 26.487 24.794 15.446 0 25.743-9.984 25.743-24.96l-.062-33.689 54.881 58.54h1.443l.003-63.09h-4.391l.047 50.544z" fill="#fff"/><path d="M155.883 56.637L103.882 1.11l-10.984-.011v.956h1.557c2.714 0 4.925 1.92 5.043 4.597v37.677c-.02 13.173-8.527 21.957-21.286 21.957-12.167 0-20.279-9.275-20.279-23.19V6.64c.116-2.673 2.324-4.587 5.035-4.587h1.556v-.955H45.127v.955h1.556c2.76 0 4.999 1.983 5.05 4.73v37.715c0 14.877 10.594 24.794 26.487 24.794 15.446 0 25.743-9.984 25.743-24.96l-.062-33.689 54.881 58.54h1.443l.003-63.09h-4.391l.047 50.544z" stroke="#fff" stroke-width=".296" stroke-miterlimit="10"/><path d="M135.05 11.274l.961-.014V9.558a5.695 5.695 0 015.445-5.689h32.58a5.696 5.696 0 015.446 5.69v1.701l.96.014V1l-45.392.014v10.26z" fill="#fff"/><path d="M135.05 11.274l.961-.014V9.558a5.695 5.695 0 015.445-5.689h32.58a5.696 5.696 0 015.446 5.69v1.701l.96.014V1l-45.392.014v10.26z" stroke="#fff" stroke-width=".296" stroke-miterlimit="10"/><path d="M218.68 9.856v1.733l.983.014V1.091h-33.982v2.975h27.552a5.802 5.802 0 015.447 5.79z" fill="#fff"/><path d="M218.68 9.856v1.733l.983.014V1.091h-33.982v2.975h27.552a5.802 5.802 0 015.447 5.79z" stroke="#fff" stroke-width=".296" stroke-miterlimit="10"/><path d="M207.354 66.207h-21.672v2.978h34.25l5.662-15.716h-.972c-3.003 7.406-6.961 12.738-17.268 12.738z" fill="#fff"/><path d="M207.354 66.207h-21.672v2.978h34.25l5.662-15.716h-.972c-3.003 7.406-6.961 12.738-17.268 12.738z" stroke="#fff" stroke-width=".296" stroke-miterlimit="10"/><path d="M218.837 41.167V42.6l.95.011V27.218l-.95.012v1.433c0 2.62-2.099 4.288-4.706 4.336h-28.45v4.057h28.551c2.559.1 4.605 1.526 4.605 4.111z" fill="#fff"/><path d="M218.837 41.167V42.6l.95.011V27.218l-.95.012v1.433c0 2.62-2.099 4.288-4.706 4.336h-28.45v4.057h28.551c2.559.1 4.605 1.526 4.605 4.111z" stroke="#fff" stroke-width=".296" stroke-miterlimit="10"/><path d="M265.657 61.78c-3.823-4.177-12.338-17.174-12.338-17.174-1.915-2.703-4.951-5.973-7.069-6.95 9.499 0 16.779-8.432 16.779-17.995 0-11.51-7.335-18.563-19.305-18.563l-18.664.001v3.077c1.377.039 13.333-.195 18.308.076 7.353.403 12.009 6.125 12.252 15.058.06 2.166-.192 3.692-.628 5.075-2.803 8.896-10.293 10.117-15.416 10.257-2.973.08-5.22.032-5.22.032v.914c3.608 0 6.49 3.422 9.073 6.665.757.952 11.889 17.987 13.01 19.327 3.106 3.709 8.055 8.325 17.248 8.325h5.403l.001-.656c-5.804-.047-9.46-3.13-13.434-7.47z" fill="#747679"/><path d="M265.657 61.78c-3.823-4.177-12.338-17.174-12.338-17.174-1.915-2.703-4.951-5.973-7.069-6.95 9.499 0 16.779-8.432 16.779-17.995 0-11.51-7.335-18.563-19.305-18.563l-18.664.001v3.077c1.377.039 13.333-.195 18.308.076 7.353.403 12.009 6.125 12.252 15.058.06 2.166-.192 3.692-.628 5.075-2.803 8.896-10.293 10.117-15.416 10.257-2.973.08-5.22.032-5.22.032v.914c3.608 0 6.49 3.422 9.073 6.665.757.952 11.889 17.987 13.01 19.327 3.106 3.709 8.055 8.325 17.248 8.325h5.403l.001-.656c-5.804-.047-9.46-3.13-13.434-7.47z" fill="#FD7615" stroke="#FD7615" stroke-width=".296" stroke-miterlimit="10"/></svg>