<svg width="179" height="72" fill="none" xmlns="http://www.w3.org/2000/svg"><path d="M9.002 59.623a.579.579 0 00.19-.243c.059-.119.088-.294.088-.526v-1.971H6.01v1.971c0 .232.03.407.088.526a.543.543 0 00.191.238c.07.04.104.056.104.044H5.011c0 .018.036.004.105-.04a.547.547 0 00.186-.242c.055-.119.083-.294.083-.526v-4.358c0-.232-.028-.407-.083-.526a.514.514 0 00-.186-.238c-.07-.04-.105-.055-.105-.044h1.382c0-.01-.034.003-.104.044a.543.543 0 00-.191.238c-.058.12-.087.294-.087.526V56.5H9.28v-2.005c0-.232-.03-.407-.087-.526a.543.543 0 00-.191-.238c-.07-.04-.105-.055-.105-.044h1.382c0-.017-.034-.004-.104.04a.552.552 0 00-.187.242c-.055.12-.082.294-.082.526v4.358c0 .232.028.407.087.526a.538.538 0 00.191.238c.069.04.104.056.104.044h-1.39c0 .018.034.004.104-.04z" fill="#fff"/><path d="M9.002 59.623a.579.579 0 00.19-.243c.059-.119.088-.294.088-.526v-1.971H6.01v1.971c0 .232.03.407.088.526a.543.543 0 00.191.238c.07.04.104.056.104.044H5.011c0 .018.036.004.105-.04a.547.547 0 00.186-.242c.055-.119.083-.294.083-.526v-4.358c0-.232-.028-.407-.083-.526a.514.514 0 00-.186-.238c-.07-.04-.105-.055-.105-.044h1.382c0-.01-.034.003-.104.044a.543.543 0 00-.191.238c-.058.12-.087.294-.087.526V56.5H9.28v-2.005c0-.232-.03-.407-.087-.526a.543.543 0 00-.191-.238c-.07-.04-.105-.055-.105-.044h1.382c0-.017-.034-.004-.104.04a.552.552 0 00-.187.242c-.055.12-.082.294-.082.526v4.358c0 .232.028.407.087.526a.538.538 0 00.191.238c.069.04.104.056.104.044h-1.39c0 .018.034.004.104-.04z" stroke="#fff" stroke-width=".109" stroke-miterlimit="10" stroke-linejoin="round"/><path d="M16.184 57.587c0 .457-.087.85-.26 1.176-.175.327-.42.576-.736.747-.316.17-.683.256-1.1.256-.69 0-1.224-.19-1.6-.573-.378-.382-.566-.911-.566-1.589v-3.108c0-.23-.028-.406-.083-.525a.54.54 0 00-.183-.239c-.066-.04-.1-.054-.1-.043h1.358c0-.011-.034.003-.1.043a.528.528 0 00-.183.235c-.055.115-.083.283-.083.503v3.134c0 .562.135.996.404 1.302.27.307.666.46 1.188.46.48 0 .861-.146 1.14-.438.278-.292.417-.725.417-1.298v-3.134c0-.23-.029-.406-.087-.525a.542.542 0 00-.191-.239c-.07-.04-.105-.054-.105-.043h1.253c0-.011-.035.003-.105.043a.542.542 0 00-.19.239c-.059.119-.088.294-.088.525v3.09z" fill="#fff"/><path d="M16.184 57.587c0 .457-.087.85-.26 1.176-.175.327-.42.576-.736.747-.316.17-.683.256-1.1.256-.69 0-1.224-.19-1.6-.573-.378-.382-.566-.911-.566-1.589v-3.108c0-.23-.028-.406-.083-.525a.54.54 0 00-.183-.239c-.066-.04-.1-.054-.1-.043h1.358c0-.011-.034.003-.1.043a.528.528 0 00-.183.235c-.055.115-.083.283-.083.503v3.134c0 .562.135.996.404 1.302.27.307.666.46 1.188.46.48 0 .861-.146 1.14-.438.278-.292.417-.725.417-1.298v-3.134c0-.23-.029-.406-.087-.525a.542.542 0 00-.191-.239c-.07-.04-.105-.054-.105-.043h1.253c0-.011-.035.003-.105.043a.542.542 0 00-.19.239c-.059.119-.088.294-.088.525v3.09z" stroke="#fff" stroke-width=".109" stroke-miterlimit="10" stroke-linejoin="round"/><path d="M23.267 53.689c-.08.017-.16.082-.238.195-.079.113-.118.312-.118.595v5.425l-4.446-5.182v4.157c0 .278.05.473.148.586.098.112.194.178.287.196h-1.225c.08-.018.164-.084.248-.196.084-.113.126-.31.126-.595v-4.34a.824.824 0 00-.2-.537.846.846 0 00-.503-.304h1.076l4.072 4.748V54.48c0-.446-.15-.71-.451-.79h1.224z" fill="#fff"/><path d="M23.267 53.689c-.08.017-.16.082-.238.195-.079.113-.118.312-.118.595v5.425l-4.446-5.182v4.157c0 .278.05.473.148.586.098.112.194.178.287.196h-1.225c.08-.018.164-.084.248-.196.084-.113.126-.31.126-.595v-4.34a.824.824 0 00-.2-.537.846.846 0 00-.503-.304h1.076l4.072 4.748V54.48c0-.446-.15-.71-.451-.79h1.224z" stroke="#fff" stroke-width=".109" stroke-miterlimit="10" stroke-linejoin="round"/><path d="M24.472 54.184a.9.9 0 00-.366.373l.121-.868h4.13l.123.868a.905.905 0 00-.366-.373 1.25 1.25 0 00-.636-.148h-.872v4.819c0 .231.03.407.087.53a.543.543 0 00.192.243c.07.04.104.052.104.034h-1.384c0 .018.034.005.104-.034.07-.04.133-.12.187-.24.056-.118.083-.296.083-.533v-4.82h-.871c-.256 0-.468.05-.636.149z" fill="#fff"/><path d="M24.472 54.184a.9.9 0 00-.366.373l.121-.868h4.13l.123.868a.905.905 0 00-.366-.373 1.25 1.25 0 00-.636-.148h-.872v4.819c0 .231.03.407.087.53a.543.543 0 00.192.243c.07.04.104.052.104.034h-1.384c0 .018.034.005.104-.034.07-.04.133-.12.187-.24.056-.118.083-.296.083-.533v-4.82h-.871c-.256 0-.468.05-.636.149z" stroke="#fff" stroke-width=".109" stroke-miterlimit="10" stroke-linejoin="round"/><path d="M29.301 59.663c0 .017.035.004.105-.04.07-.043.132-.13.188-.26.055-.13.083-.32.083-.569v-4.263c0-.237-.028-.418-.083-.542a.589.589 0 00-.188-.256c-.07-.047-.105-.06-.105-.044h3.165v.869c-.105-.348-.42-.522-.945-.522h-1.214v2.466h1.504a.709.709 0 00.297-.056.665.665 0 00.183-.117.489.489 0 00.07-.078v.842a.596.596 0 00-.249-.19.718.718 0 00-.293-.053h-1.512v2.465h1.364c.262 0 .488-.053.676-.16a.955.955 0 00.408-.413l-.158.92h-3.296z" fill="#fff"/><path d="M29.301 59.663c0 .017.035.004.105-.04.07-.043.132-.13.188-.26.055-.13.083-.32.083-.569v-4.263c0-.237-.028-.418-.083-.542a.589.589 0 00-.188-.256c-.07-.047-.105-.06-.105-.044h3.165v.869c-.105-.348-.42-.522-.945-.522h-1.214v2.466h1.504a.709.709 0 00.297-.056.665.665 0 00.183-.117.489.489 0 00.07-.078v.842a.596.596 0 00-.249-.19.718.718 0 00-.293-.053h-1.512v2.465h1.364c.262 0 .488-.053.676-.16a.955.955 0 00.408-.413l-.158.92h-3.296z" stroke="#fff" stroke-width=".109" stroke-miterlimit="10" stroke-linejoin="round"/><path d="M36.29 56.472c.197-.124.346-.286.448-.486.102-.2.152-.41.152-.63 0-.225-.047-.438-.143-.637a1.19 1.19 0 00-.44-.49 1.3 1.3 0 00-.723-.193h-.74v4.828c0 .232.029.407.087.526.059.118.123.197.192.234.07.038.105.05.105.04h-1.385c0 .01.034-.004.104-.044a.509.509 0 00.187-.235c.056-.115.083-.29.083-.52v-4.342c0-.238-.027-.418-.083-.542a.54.54 0 00-.187-.253c-.07-.043-.104-.056-.104-.039h1.724c.452 0 .826.075 1.119.221.293.149.505.34.636.574a1.554 1.554 0 01.03 1.45c-.11.223-.269.417-.474.582a1.787 1.787 0 01-.72.343l-.139.026 1.534 1.945c.203.225.37.4.504.52.134.122.231.203.292.244.061.04.097.063.11.07h-1.02l-2.368-3.005h.522c.267 0 .499-.062.697-.187z" fill="#fff"/><path d="M36.29 56.472c.197-.124.346-.286.448-.486.102-.2.152-.41.152-.63 0-.225-.047-.438-.143-.637a1.19 1.19 0 00-.44-.49 1.3 1.3 0 00-.723-.193h-.74v4.828c0 .232.029.407.087.526.059.118.123.197.192.234.07.038.105.05.105.04h-1.385c0 .01.034-.004.104-.044a.509.509 0 00.187-.235c.056-.115.083-.29.083-.52v-4.342c0-.238-.027-.418-.083-.542a.54.54 0 00-.187-.253c-.07-.043-.104-.056-.104-.039h1.724c.452 0 .826.075 1.119.221.293.149.505.34.636.574a1.554 1.554 0 01.03 1.45c-.11.223-.269.417-.474.582a1.787 1.787 0 01-.72.343l-.139.026 1.534 1.945c.203.225.37.4.504.52.134.122.231.203.292.244.061.04.097.063.11.07h-1.02l-2.368-3.005h.522c.267 0 .499-.062.697-.187v0z" stroke="#fff" stroke-width=".109" stroke-miterlimit="10" stroke-linejoin="round"/><path d="M41.658 60.81h.413v-8.25h-.413v8.25zm45.567 0h.413v-8.25h-.413v8.25zm38.721 0h.413v-8.25h-.413v8.25z" fill="#B4B9BC"/><path d="M48.795 56.203c-.16.263-.389.47-.686.62-.297.151-.645.227-1.048.227-.243 0-.505-.026-.785-.078v1.893c0 .225.03.398.087.516a.534.534 0 00.193.239c.069.04.104.055.104.043h-1.388c0 .012.035-.003.104-.043a.514.514 0 00.188-.234c.056-.117.083-.29.083-.521v-4.35c0-.232-.027-.408-.083-.53a.546.546 0 00-.188-.248c-.07-.043-.104-.06-.104-.048h1.711c.297 0 .542.02.733.057.192.038.362.094.506.17.262.132.463.325.603.577.14.252.21.522.21.812 0 .335-.08.635-.24.898zm-.817-1.784c-.256-.255-.596-.382-1.021-.382h-.68v2.596c.25.046.511.07.784.07.407 0 .727-.118.956-.352.231-.234.346-.546.346-.934 0-.41-.129-.744-.385-.998z" fill="#fff"/><path d="M48.795 56.203c-.16.263-.389.47-.686.62-.297.151-.645.227-1.048.227-.243 0-.505-.026-.785-.078v1.893c0 .225.03.398.087.516a.534.534 0 00.193.239c.069.04.104.055.104.043h-1.388c0 .012.035-.003.104-.043a.514.514 0 00.188-.234c.056-.117.083-.29.083-.521v-4.35c0-.232-.027-.408-.083-.53a.546.546 0 00-.188-.248c-.07-.043-.104-.06-.104-.048h1.711c.297 0 .542.02.733.057.192.038.362.094.506.17.262.132.463.325.603.577.14.252.21.522.21.812 0 .335-.08.635-.24.898zm-.817-1.784c-.256-.255-.596-.382-1.021-.382h-.68v2.596c.25.046.511.07.784.07.407 0 .727-.118.956-.352.231-.234.346-.546.346-.934 0-.41-.129-.744-.385-.998v0z" stroke="#fff" stroke-width=".109" stroke-miterlimit="10" stroke-linejoin="round"/><path d="M50.085 59.623a.579.579 0 00.197-.243c.06-.118.09-.294.09-.525v-4.358c0-.232-.03-.407-.086-.526a.524.524 0 00-.192-.238c-.072-.041-.108-.055-.108-.044h1.424c0-.011-.036.003-.108.044a.54.54 0 00-.197.238c-.06.12-.09.294-.09.526v4.358c0 .232.03.407.09.525a.54.54 0 00.197.239c.072.04.108.055.108.043h-1.432c0 .018.035.005.107-.039z" fill="#fff"/><path d="M50.085 59.623a.579.579 0 00.197-.243c.06-.118.09-.294.09-.525v-4.358c0-.232-.03-.407-.086-.526a.524.524 0 00-.192-.238c-.072-.041-.108-.055-.108-.044h1.424c0-.011-.036.003-.108.044a.54.54 0 00-.197.238c-.06.12-.09.294-.09.526v4.358c0 .232.03.407.09.525a.54.54 0 00.197.239c.072.04.108.055.108.043h-1.432c0 .018.035.005.107-.039z" stroke="#fff" stroke-width=".109" stroke-miterlimit="10" stroke-linejoin="round"/><path d="M58.264 53.689c-.08.017-.16.082-.238.195-.08.113-.118.312-.118.595v5.424l-4.445-5.181v4.157c0 .278.048.473.147.586.098.112.194.177.287.195h-1.225c.08-.018.163-.083.247-.195.084-.114.126-.31.126-.595v-4.34a.827.827 0 00-.2-.537.85.85 0 00-.503-.304h1.076l4.073 4.748v-3.958c0-.446-.15-.71-.451-.79h1.224z" fill="#fff"/><path d="M58.264 53.689c-.08.017-.16.082-.238.195-.08.113-.118.312-.118.595v5.424l-4.445-5.181v4.157c0 .278.048.473.147.586.098.112.194.177.287.195h-1.225c.08-.018.163-.083.247-.195.084-.114.126-.31.126-.595v-4.34a.827.827 0 00-.2-.537.85.85 0 00-.503-.304h1.076l4.073 4.748v-3.958c0-.446-.15-.71-.451-.79h1.224z" stroke="#fff" stroke-width=".109" stroke-miterlimit="10" stroke-linejoin="round"/><path d="M63.484 59.584c-.354.122-.71.183-1.07.183-.54 0-1.04-.125-1.506-.374a2.86 2.86 0 01-1.117-1.075c-.282-.47-.422-1.02-.422-1.65 0-.59.13-1.12.387-1.589a2.743 2.743 0 011.105-1.097c.479-.264 1.036-.395 1.674-.395.68 0 1.282.147 1.81.442v.963c-.18-.318-.44-.57-.783-.758a2.237 2.237 0 00-1.096-.283c-.494 0-.92.116-1.283.347-.363.232-.64.549-.83.95a3.097 3.097 0 00-.288 1.351c0 .56.109 1.05.326 1.467.218.416.512.736.883.959.371.223.786.334 1.244.334.736 0 1.346-.214 1.826-.643v.417c-.22.18-.507.33-.86.451z" fill="#fff"/><path d="M63.484 59.584c-.354.122-.71.183-1.07.183-.54 0-1.04-.125-1.506-.374a2.86 2.86 0 01-1.117-1.075c-.282-.47-.422-1.02-.422-1.65 0-.59.13-1.12.387-1.589a2.743 2.743 0 011.105-1.097c.479-.264 1.036-.395 1.674-.395.68 0 1.282.147 1.81.442v.963c-.18-.318-.44-.57-.783-.758a2.237 2.237 0 00-1.096-.283c-.494 0-.92.116-1.283.347-.363.232-.64.549-.83.95a3.097 3.097 0 00-.288 1.351c0 .56.109 1.05.326 1.467.218.416.512.736.883.959.371.223.786.334 1.244.334.736 0 1.346-.214 1.826-.643v.417c-.22.18-.507.33-.86.451z" stroke="#fff" stroke-width=".109" stroke-miterlimit="10" stroke-linejoin="round"/><path d="M69.595 59.623a.572.572 0 00.191-.243c.058-.118.087-.294.087-.525v-1.971h-3.269v1.97c0 .233.03.408.087.526a.547.547 0 00.192.239c.07.04.104.055.104.043h-1.382c0 .018.035.005.104-.039a.546.546 0 00.187-.243c.055-.118.082-.294.082-.525v-4.358c0-.232-.027-.407-.082-.526a.514.514 0 00-.187-.238c-.069-.041-.104-.055-.104-.044h1.382c0-.011-.035.003-.104.044a.547.547 0 00-.192.238c-.057.12-.087.294-.087.526v2.005h3.27v-2.006c0-.231-.03-.406-.088-.525a.537.537 0 00-.19-.238c-.07-.041-.105-.055-.105-.044h1.382c0-.017-.035-.005-.105.039a.557.557 0 00-.186.243c-.055.12-.083.294-.083.526v4.358c0 .232.029.407.087.525a.537.537 0 00.192.239c.07.04.104.055.104.043H69.49c0 .018.034.005.104-.039z" fill="#fff"/><path d="M69.595 59.623a.572.572 0 00.191-.243c.058-.118.087-.294.087-.525v-1.971h-3.269v1.97c0 .233.03.408.087.526a.547.547 0 00.192.239c.07.04.104.055.104.043h-1.382c0 .018.035.005.104-.039a.546.546 0 00.187-.243c.055-.118.082-.294.082-.525v-4.358c0-.232-.027-.407-.082-.526a.514.514 0 00-.187-.238c-.069-.041-.104-.055-.104-.044h1.382c0-.011-.035.003-.104.044a.547.547 0 00-.192.238c-.057.12-.087.294-.087.526v2.005h3.27v-2.006c0-.231-.03-.406-.088-.525a.537.537 0 00-.19-.238c-.07-.041-.105-.055-.105-.044h1.382c0-.017-.035-.005-.105.039a.557.557 0 00-.186.243c-.055.12-.083.294-.083.526v4.358c0 .232.029.407.087.525a.537.537 0 00.192.239c.07.04.104.055.104.043H69.49c0 .018.034.005.104-.039z" stroke="#fff" stroke-width=".109" stroke-miterlimit="10" stroke-linejoin="round"/><path d="M73.242 57.345l-.556 1.38c-.087.214-.13.391-.13.53 0 .19.087.327.26.408h-1.24c.057 0 .14-.058.25-.174.11-.116.238-.344.383-.686l2.266-5.39 2.25 5.416c.127.313.25.527.37.642.118.116.212.18.282.192h-1.443c.146-.07.218-.177.218-.321 0-.122-.047-.296-.14-.521l-.607-1.476h-2.163zm2.024-.355l-.947-2.318-.93 2.318h1.877z" fill="#fff"/><path d="M73.242 57.345l-.556 1.38c-.087.214-.13.391-.13.53 0 .19.087.327.26.408h-1.24c.057 0 .14-.058.25-.174.11-.116.238-.344.383-.686l2.266-5.39 2.25 5.416c.127.313.25.527.37.642.118.116.212.18.282.192h-1.443c.146-.07.218-.177.218-.321 0-.122-.047-.296-.14-.521l-.607-1.476h-2.163zm2.024-.355l-.947-2.318-.93 2.318h1.877z" stroke="#fff" stroke-width=".109" stroke-miterlimit="10" stroke-linejoin="round"/><path d="M78.777 59.64a2.731 2.731 0 01-.752-.35v-1.051c.151.387.383.681.695.88.312.2.636.3.975.3.338 0 .621-.111.848-.334.227-.223.341-.5.341-.829a1.1 1.1 0 00-.136-.564 1.403 1.403 0 00-.432-.438 6.088 6.088 0 00-.84-.456c-.507-.231-.876-.473-1.105-.724a1.306 1.306 0 01-.346-.916 1.508 1.508 0 01.826-1.377c.254-.13.532-.195.835-.195.262 0 .518.037.769.11.251.071.484.174.7.307v.938a1.625 1.625 0 00-.633-.743 1.616 1.616 0 00-.862-.264c-.333 0-.6.107-.804.32-.204.215-.306.47-.306.765 0 .214.06.397.183.55.123.154.273.283.45.387.178.104.428.231.748.382.327.156.594.3.804.434.21.133.385.307.525.52.14.215.21.475.21.782 0 .347-.084.648-.25.903-.165.254-.387.45-.664.586a2.027 2.027 0 01-.905.204c-.303 0-.594-.042-.874-.126z" fill="#fff"/><path d="M78.777 59.64a2.731 2.731 0 01-.752-.35v-1.051c.151.387.383.681.695.88.312.2.636.3.975.3.338 0 .621-.111.848-.334.227-.223.341-.5.341-.829a1.1 1.1 0 00-.136-.564 1.403 1.403 0 00-.432-.438 6.088 6.088 0 00-.84-.456c-.507-.231-.876-.473-1.105-.724a1.306 1.306 0 01-.346-.916 1.508 1.508 0 01.826-1.377c.254-.13.532-.195.835-.195.262 0 .518.037.769.11.251.071.484.174.7.307v.938a1.625 1.625 0 00-.633-.743 1.616 1.616 0 00-.862-.264c-.333 0-.6.107-.804.32-.204.215-.306.47-.306.765 0 .214.06.397.183.55.123.154.273.283.45.387.178.104.428.231.748.382.327.156.594.3.804.434.21.133.385.307.525.52.14.215.21.475.21.782 0 .347-.084.648-.25.903-.165.254-.387.45-.664.586a2.027 2.027 0 01-.905.204c-.303 0-.594-.042-.874-.126z" stroke="#fff" stroke-width=".109" stroke-miterlimit="10" stroke-linejoin="round"/><path d="M82.7 59.623a.579.579 0 00.197-.243c.06-.118.09-.294.09-.525v-4.358c0-.232-.029-.407-.086-.526a.524.524 0 00-.192-.238c-.072-.041-.108-.055-.108-.044h1.424c0-.011-.036.003-.108.044a.539.539 0 00-.197.238c-.06.12-.09.294-.09.526v4.358c0 .232.03.407.09.525.06.119.125.198.197.239.072.04.108.055.108.043h-1.433c0 .018.037.005.108-.039z" fill="#fff"/><path d="M82.7 59.623a.579.579 0 00.197-.243c.06-.118.09-.294.09-.525v-4.358c0-.232-.029-.407-.086-.526a.524.524 0 00-.192-.238c-.072-.041-.108-.055-.108-.044h1.424c0-.011-.036.003-.108.044a.539.539 0 00-.197.238c-.06.12-.09.294-.09.526v4.358c0 .232.03.407.09.525.06.119.125.198.197.239.072.04.108.055.108.043h-1.433c0 .018.037.005.108-.039z" stroke="#fff" stroke-width=".109" stroke-miterlimit="10" stroke-linejoin="round"/><path d="M91.03 54.558v-.868h4.422l-3.621 5.626h2.68c.262 0 .487-.053.675-.16a.951.951 0 00.405-.413l-.157.92H90.84l3.63-5.626h-2.5c-.522 0-.836.174-.94.521z" fill="#fff"/><path d="M91.03 54.558v-.868h4.422l-3.621 5.626h2.68c.262 0 .487-.053.675-.16a.951.951 0 00.405-.413l-.157.92H90.84l3.63-5.626h-2.5c-.522 0-.836.174-.94.521z" stroke="#fff" stroke-width=".109" stroke-miterlimit="10" stroke-linejoin="round"/><path d="M99.126 56.472a1.23 1.23 0 00.448-.486c.102-.2.152-.41.152-.63a1.45 1.45 0 00-.144-.637 1.189 1.189 0 00-.439-.49 1.3 1.3 0 00-.723-.193h-.74v4.828c0 .232.029.407.087.526a.509.509 0 00.192.234c.07.038.105.05.105.04h-1.385c0 .01.035-.004.104-.044a.514.514 0 00.187-.235c.056-.115.083-.29.083-.521v-4.341c0-.238-.027-.419-.083-.542-.055-.125-.117-.21-.187-.253-.07-.043-.104-.056-.104-.039h1.723c.454 0 .827.074 1.12.221.292.149.504.34.635.574a1.548 1.548 0 01.031 1.45 1.732 1.732 0 01-.474.582 1.788 1.788 0 01-.72.342l-.138.027 1.532 1.944c.204.226.372.4.504.521.135.122.232.203.293.243.061.04.096.064.108.07h-1.018l-2.368-3.004h.522c.267 0 .499-.062.697-.187z" fill="#fff"/><path d="M99.126 56.472a1.23 1.23 0 00.448-.486c.102-.2.152-.41.152-.63a1.45 1.45 0 00-.144-.637 1.189 1.189 0 00-.439-.49 1.3 1.3 0 00-.723-.193h-.74v4.828c0 .232.029.407.087.526a.509.509 0 00.192.234c.07.038.105.05.105.04h-1.385c0 .01.035-.004.104-.044a.514.514 0 00.187-.235c.056-.115.083-.29.083-.521v-4.341c0-.238-.027-.419-.083-.542-.055-.125-.117-.21-.187-.253-.07-.043-.104-.056-.104-.039h1.723c.454 0 .827.074 1.12.221.292.149.504.34.635.574a1.548 1.548 0 01.031 1.45 1.732 1.732 0 01-.474.582 1.788 1.788 0 01-.72.342l-.138.027 1.532 1.944c.204.226.372.4.504.521.135.122.232.203.293.243.061.04.096.064.108.07h-1.018l-2.368-3.004h.522c.267 0 .499-.062.697-.187v0z" stroke="#fff" stroke-width=".109" stroke-miterlimit="10" stroke-linejoin="round"/><path d="M102.111 59.623a.586.586 0 00.197-.243c.059-.118.089-.294.089-.525v-4.358c0-.232-.028-.407-.085-.526a.52.52 0 00-.193-.238c-.07-.041-.107-.055-.107-.044h1.424c0-.011-.036.003-.108.044a.55.55 0 00-.197.238c-.06.12-.089.294-.089.526v4.358c0 .232.029.407.089.525a.55.55 0 00.197.239c.072.04.108.055.108.043h-1.433c0 .018.036.005.108-.039z" fill="#fff"/><path d="M102.111 59.623a.586.586 0 00.197-.243c.059-.118.089-.294.089-.525v-4.358c0-.232-.028-.407-.085-.526a.52.52 0 00-.193-.238c-.07-.041-.107-.055-.107-.044h1.424c0-.011-.036.003-.108.044a.55.55 0 00-.197.238c-.06.12-.089.294-.089.526v4.358c0 .232.029.407.089.525a.55.55 0 00.197.239c.072.04.108.055.108.043h-1.433c0 .018.036.005.108-.039z" stroke="#fff" stroke-width=".109" stroke-miterlimit="10" stroke-linejoin="round"/><path d="M108.686 59.623a.58.58 0 00.191-.243c.058-.118.087-.294.087-.525v-1.971h-3.269v1.97c0 .233.029.408.087.526a.544.544 0 00.191.239c.07.04.105.055.105.043h-1.382c0 .018.034.005.104-.039a.546.546 0 00.187-.243c.055-.118.082-.294.082-.525v-4.358c0-.232-.027-.407-.082-.526a.514.514 0 00-.187-.238c-.07-.041-.104-.055-.104-.044h1.382c0-.011-.035.003-.105.044a.544.544 0 00-.191.238c-.058.12-.087.294-.087.526v2.005h3.269v-2.006c0-.231-.029-.406-.087-.525a.544.544 0 00-.191-.238c-.07-.041-.105-.055-.105-.044h1.383c0-.017-.034-.005-.105.039a.553.553 0 00-.186.243c-.056.12-.083.294-.083.526v4.358c0 .232.029.407.087.525a.544.544 0 00.191.239c.069.04.105.055.105.043h-1.392c0 .018.035.005.105-.039z" fill="#fff"/><path d="M108.686 59.623a.58.58 0 00.191-.243c.058-.118.087-.294.087-.525v-1.971h-3.269v1.97c0 .233.029.408.087.526a.544.544 0 00.191.239c.07.04.105.055.105.043h-1.382c0 .018.034.005.104-.039a.546.546 0 00.187-.243c.055-.118.082-.294.082-.525v-4.358c0-.232-.027-.407-.082-.526a.514.514 0 00-.187-.238c-.07-.041-.104-.055-.104-.044h1.382c0-.011-.035.003-.105.044a.544.544 0 00-.191.238c-.058.12-.087.294-.087.526v2.005h3.269v-2.006c0-.231-.029-.406-.087-.525a.544.544 0 00-.191-.238c-.07-.041-.105-.055-.105-.044h1.383c0-.017-.034-.005-.105.039a.553.553 0 00-.186.243c-.056.12-.083.294-.083.526v4.358c0 .232.029.407.087.525a.544.544 0 00.191.239c.069.04.105.055.105.043h-1.392c0 .018.035.005.105-.039z" stroke="#fff" stroke-width=".109" stroke-miterlimit="10" stroke-linejoin="round"/><path d="M112.332 57.345l-.556 1.38c-.086.214-.131.391-.131.53 0 .19.087.327.261.408h-1.242c.059 0 .143-.058.252-.174.11-.116.238-.344.382-.686l2.268-5.39 2.249 5.416c.127.313.25.527.369.642.118.116.213.18.282.192h-1.442c.145-.07.217-.177.217-.321 0-.122-.046-.296-.138-.521l-.608-1.476h-2.163zm2.024-.355l-.947-2.318-.929 2.318h1.876z" fill="#fff"/><path d="M112.332 57.345l-.556 1.38c-.086.214-.131.391-.131.53 0 .19.087.327.261.408h-1.242c.059 0 .143-.058.252-.174.11-.116.238-.344.382-.686l2.268-5.39 2.249 5.416c.127.313.25.527.369.642.118.116.213.18.282.192h-1.442c.145-.07.217-.177.217-.321 0-.122-.046-.296-.138-.521l-.608-1.476h-2.163zm2.024-.355l-.947-2.318-.929 2.318h1.876z" stroke="#fff" stroke-width=".109" stroke-miterlimit="10" stroke-linejoin="round"/><path d="M122.745 53.689c-.081.017-.16.082-.238.195-.078.113-.118.312-.118.595v5.424l-4.446-5.181v4.157c0 .278.05.473.148.586.098.112.194.177.286.195h-1.223c.08-.018.163-.083.247-.195.083-.114.126-.31.126-.595v-4.34a.826.826 0 00-.2-.537.848.848 0 00-.503-.304h1.076l4.072 4.748v-3.958c0-.446-.15-.71-.451-.79h1.224z" fill="#fff"/><path d="M122.745 53.689c-.081.017-.16.082-.238.195-.078.113-.118.312-.118.595v5.424l-4.446-5.181v4.157c0 .278.05.473.148.586.098.112.194.177.286.195h-1.223c.08-.018.163-.083.247-.195.083-.114.126-.31.126-.595v-4.34a.826.826 0 00-.2-.537.848.848 0 00-.503-.304h1.076l4.072 4.748v-3.958c0-.446-.15-.71-.451-.79h1.224z" stroke="#fff" stroke-width=".109" stroke-miterlimit="10" stroke-linejoin="round"/><path d="M131.806 59.628a7.229 7.229 0 01-.807.035h-1.44c.075-.018.156-.083.244-.195.088-.114.13-.332.13-.656v-4.298c0-.301-.04-.508-.121-.62-.082-.114-.163-.181-.244-.205h1.431c.372 0 .656.016.851.048.194.032.365.08.51.143.256.122.454.292.593.513.14.22.21.457.21.712 0 .388-.118.722-.353 1.002-.236.28-.546.462-.929.543.261.03.509.104.746.226.235.121.427.286.575.495.149.208.223.446.223.712 0 .37-.099.672-.297.907-.197.234-.465.41-.803.526a2.564 2.564 0 01-.519.112zm-.1-5.526a1.811 1.811 0 00-.541-.066h-.603v2.466h.708c.209 0 .383-.031.523-.095a1.194 1.194 0 00.628-.652c.065-.155.096-.315.096-.477a1.42 1.42 0 00-.109-.556 1.013 1.013 0 00-.327-.425 1.31 1.31 0 00-.375-.195zm.148 2.808a2.865 2.865 0 00-.663-.06h-.629v2.465h.829c.419 0 .747-.098.982-.295.236-.196.353-.509.353-.937 0-.4-.154-.727-.462-.981a1.08 1.08 0 00-.41-.192z" fill="#fff"/><path d="M131.806 59.628a7.229 7.229 0 01-.807.035h-1.44c.075-.018.156-.083.244-.195.088-.114.13-.332.13-.656v-4.298c0-.301-.04-.508-.121-.62-.082-.114-.163-.181-.244-.205h1.431c.372 0 .656.016.851.048.194.032.365.08.51.143.256.122.454.292.593.513.14.22.21.457.21.712 0 .388-.118.722-.353 1.002-.236.28-.546.462-.929.543.261.03.509.104.746.226.235.121.427.286.575.495.149.208.223.446.223.712 0 .37-.099.672-.297.907-.197.234-.465.41-.803.526a2.564 2.564 0 01-.519.112zm-.1-5.526a1.811 1.811 0 00-.541-.066h-.603v2.466h.708c.209 0 .383-.031.523-.095a1.194 1.194 0 00.628-.652c.065-.155.096-.315.096-.477a1.42 1.42 0 00-.109-.556 1.013 1.013 0 00-.327-.425 1.31 1.31 0 00-.375-.195zm.148 2.808a2.865 2.865 0 00-.663-.06h-.629v2.465h.829c.419 0 .747-.098.982-.295.236-.196.353-.509.353-.937 0-.4-.154-.727-.462-.981a1.08 1.08 0 00-.41-.192z" stroke="#fff" stroke-width=".109" stroke-miterlimit="10" stroke-linejoin="round"/><path d="M134.651 59.663c0 .017.035.004.105-.04.069-.043.132-.13.188-.26.055-.13.083-.32.083-.569v-4.263c0-.237-.028-.418-.083-.542a.593.593 0 00-.188-.256c-.07-.047-.105-.06-.105-.044h3.165v.869c-.105-.348-.42-.522-.945-.522h-1.214v2.466h1.504a.71.71 0 00.297-.056.666.666 0 00.183-.117.47.47 0 00.07-.078v.842a.588.588 0 00-.249-.19.718.718 0 00-.293-.053h-1.512v2.465h1.364c.262 0 .488-.053.677-.16a.96.96 0 00.407-.413l-.158.92h-3.296z" fill="#fff"/><path d="M134.651 59.663c0 .017.035.004.105-.04.069-.043.132-.13.188-.26.055-.13.083-.32.083-.569v-4.263c0-.237-.028-.418-.083-.542a.593.593 0 00-.188-.256c-.07-.047-.105-.06-.105-.044h3.165v.869c-.105-.348-.42-.522-.945-.522h-1.214v2.466h1.504a.71.71 0 00.297-.056.666.666 0 00.183-.117.47.47 0 00.07-.078v.842a.588.588 0 00-.249-.19.718.718 0 00-.293-.053h-1.512v2.465h1.364c.262 0 .488-.053.677-.16a.96.96 0 00.407-.413l-.158.92h-3.296z" stroke="#fff" stroke-width=".109" stroke-miterlimit="10" stroke-linejoin="round"/><path d="M144.788 53.689c-.081.017-.161.082-.239.195-.079.113-.118.312-.118.595v5.424l-4.446-5.181v4.157c0 .278.05.473.148.586.098.112.194.177.286.195h-1.224c.081-.018.164-.083.248-.195.084-.114.125-.31.125-.595v-4.34a.825.825 0 00-.199-.537.848.848 0 00-.504-.304h1.077l4.073 4.748v-3.958c0-.446-.151-.71-.452-.79h1.225z" fill="#fff"/><path d="M144.788 53.689c-.081.017-.161.082-.239.195-.079.113-.118.312-.118.595v5.424l-4.446-5.181v4.157c0 .278.05.473.148.586.098.112.194.177.286.195h-1.224c.081-.018.164-.083.248-.195.084-.114.125-.31.125-.595v-4.34a.825.825 0 00-.199-.537.848.848 0 00-.504-.304h1.077l4.073 4.748v-3.958c0-.446-.151-.71-.452-.79h1.225z" stroke="#fff" stroke-width=".109" stroke-miterlimit="10" stroke-linejoin="round"/><path d="M148.275 59.663c0 .017.035.004.105-.04.07-.043.133-.13.188-.26.055-.13.083-.32.083-.569v-4.263c0-.237-.028-.418-.083-.542a.578.578 0 00-.188-.256c-.07-.047-.105-.06-.105-.044h3.165v.869c-.105-.348-.42-.522-.945-.522h-1.214v2.466h1.504a.71.71 0 00.297-.056.666.666 0 00.183-.117.47.47 0 00.07-.078v.842a.588.588 0 00-.249-.19.718.718 0 00-.293-.053h-1.512v2.465h1.364c.262 0 .488-.053.677-.16a.952.952 0 00.406-.413l-.157.92h-3.296z" fill="#fff"/><path d="M148.275 59.663c0 .017.035.004.105-.04.07-.043.133-.13.188-.26.055-.13.083-.32.083-.569v-4.263c0-.237-.028-.418-.083-.542a.578.578 0 00-.188-.256c-.07-.047-.105-.06-.105-.044h3.165v.869c-.105-.348-.42-.522-.945-.522h-1.214v2.466h1.504a.71.71 0 00.297-.056.666.666 0 00.183-.117.47.47 0 00.07-.078v.842a.588.588 0 00-.249-.19.718.718 0 00-.293-.053h-1.512v2.465h1.364c.262 0 .488-.053.677-.16a.952.952 0 00.406-.413l-.157.92h-3.296z" stroke="#fff" stroke-width=".109" stroke-miterlimit="10" stroke-linejoin="round"/><path d="M152.776 54.558v-.868h4.421l-3.62 5.626h2.681c.261 0 .485-.053.674-.16a.957.957 0 00.405-.413l-.157.92h-4.596l3.63-5.626h-2.499c-.521 0-.835.174-.939.521z" fill="#fff"/><path d="M152.776 54.558v-.868h4.421l-3.62 5.626h2.681c.261 0 .485-.053.674-.16a.957.957 0 00.405-.413l-.157.92h-4.596l3.63-5.626h-2.499c-.521 0-.835.174-.939.521z" stroke="#fff" stroke-width=".109" stroke-miterlimit="10" stroke-linejoin="round"/><path d="M160.871 56.472c.197-.124.347-.286.449-.486.102-.2.152-.41.152-.63 0-.225-.048-.438-.143-.637a1.187 1.187 0 00-.441-.49 1.296 1.296 0 00-.722-.193h-.74v4.828c0 .232.029.407.087.526.058.118.122.197.192.234.069.038.104.05.104.04h-1.384c0 .01.034-.004.104-.044a.513.513 0 00.187-.235c.055-.115.083-.29.083-.521v-4.341c0-.238-.028-.419-.083-.542-.055-.125-.117-.21-.187-.253-.07-.043-.104-.056-.104-.039h1.723c.453 0 .827.074 1.119.221.293.149.505.34.636.574a1.548 1.548 0 01.031 1.45 1.74 1.74 0 01-.475.582 1.782 1.782 0 01-.719.342l-.139.027 1.533 1.944c.203.226.371.4.504.521.134.122.231.203.292.243.062.04.098.064.11.07h-1.019l-2.369-3.004h.523c.267 0 .499-.062.696-.187z" fill="#fff"/><path d="M160.871 56.472c.197-.124.347-.286.449-.486.102-.2.152-.41.152-.63 0-.225-.048-.438-.143-.637a1.187 1.187 0 00-.441-.49 1.296 1.296 0 00-.722-.193h-.74v4.828c0 .232.029.407.087.526.058.118.122.197.192.234.069.038.104.05.104.04h-1.384c0 .01.034-.004.104-.044a.513.513 0 00.187-.235c.055-.115.083-.29.083-.521v-4.341c0-.238-.028-.419-.083-.542-.055-.125-.117-.21-.187-.253-.07-.043-.104-.056-.104-.039h1.723c.453 0 .827.074 1.119.221.293.149.505.34.636.574a1.548 1.548 0 01.031 1.45 1.74 1.74 0 01-.475.582 1.782 1.782 0 01-.719.342l-.139.027 1.533 1.944c.203.226.371.4.504.521.134.122.231.203.292.243.062.04.098.064.11.07h-1.019l-2.369-3.004h.523c.267 0 .499-.062.696-.187v0z" stroke="#fff" stroke-width=".109" stroke-miterlimit="10" stroke-linejoin="round"/><path d="M164.857 57.345l-.556 1.38c-.087.214-.13.391-.13.53 0 .19.087.327.261.408h-1.243c.059 0 .142-.058.252-.174.111-.116.238-.344.383-.686l2.266-5.39 2.25 5.416c.127.313.25.527.369.642.119.116.213.18.283.192h-1.443c.146-.07.218-.177.218-.321 0-.122-.047-.296-.139-.521l-.608-1.476h-2.163zm2.024-.355l-.947-2.318-.929 2.318h1.876z" fill="#fff"/><path d="M164.857 57.345l-.556 1.38c-.087.214-.13.391-.13.53 0 .19.087.327.261.408h-1.243c.059 0 .142-.058.252-.174.111-.116.238-.344.383-.686l2.266-5.39 2.25 5.416c.127.313.25.527.369.642.119.116.213.18.283.192h-1.443c.146-.07.218-.177.218-.321 0-.122-.047-.296-.139-.521l-.608-1.476h-2.163zm2.024-.355l-.947-2.318-.929 2.318h1.876z" stroke="#fff" stroke-width=".109" stroke-miterlimit="10" stroke-linejoin="round"/><path d="M63.311 66.456a.466.466 0 00-.17-.219c-.064-.037-.095-.05-.095-.04h1.264c0-.01-.032.003-.096.04a.49.49 0 00-.175.22c-.054.109-.08.27-.08.482v4.427h1.305c.238 0 .443-.048.615-.147a.872.872 0 00.37-.379l-.143.846h-3.06c0 .015.031.003.094-.036.064-.04.121-.12.171-.24.05-.12.076-.293.076-.523V66.94c0-.213-.026-.373-.076-.483z" fill="#fff"/><path d="M63.311 66.456a.466.466 0 00-.17-.219c-.064-.037-.095-.05-.095-.04h1.264c0-.01-.032.003-.096.04a.49.49 0 00-.175.22c-.054.109-.08.27-.08.482v4.427h1.305c.238 0 .443-.048.615-.147a.872.872 0 00.37-.379l-.143.846h-3.06c0 .015.031.003.094-.036.064-.04.121-.12.171-.24.05-.12.076-.293.076-.523V66.94c0-.213-.026-.373-.076-.483z" stroke="#fff" stroke-width=".17" stroke-miterlimit="10" stroke-linejoin="round"/><path d="M69.536 69.555l-.51 1.269c-.08.196-.12.359-.12.486 0 .176.08.301.24.375h-1.142c.054 0 .13-.052.232-.16.1-.105.218-.315.35-.63l2.083-4.955 2.065 4.979c.117.288.23.485.34.59.108.107.195.166.259.176h-1.325c.133-.064.2-.162.2-.295 0-.111-.043-.27-.128-.479l-.558-1.356h-1.986zm1.858-.328l-.87-2.13-.852 2.13h1.722z" fill="#fff"/><path d="M69.536 69.555l-.51 1.269c-.08.196-.12.359-.12.486 0 .176.08.301.24.375h-1.142c.054 0 .13-.052.232-.16.1-.105.218-.315.35-.63l2.083-4.955 2.065 4.979c.117.288.23.485.34.59.108.107.195.166.259.176h-1.325c.133-.064.2-.162.2-.295 0-.111-.043-.27-.128-.479l-.558-1.356h-1.986zm1.858-.328l-.87-2.13-.852 2.13h1.722z" stroke="#fff" stroke-width=".17" stroke-miterlimit="10" stroke-linejoin="round"/><path d="M80.34 66.547c0-.218-.097-.335-.288-.35h1.238c-.08.015-.183.076-.308.182-.126.107-.24.314-.347.623l-1.726 4.876-1.542-4.421-1.59 4.421-1.574-4.9c-.139-.446-.34-.707-.606-.781h1.325c-.149.026-.223.113-.223.263 0 .074.032.207.096.399l.087.278 1.007 3.329 1.622-4.422 1.542 4.39 1.19-3.44c.065-.192.096-.34.096-.447z" fill="#fff"/><path d="M80.34 66.547c0-.218-.097-.335-.288-.35h1.238c-.08.015-.183.076-.308.182-.126.107-.24.314-.347.623l-1.726 4.876-1.542-4.421-1.59 4.421-1.574-4.9c-.139-.446-.34-.707-.606-.781h1.325c-.149.026-.223.113-.223.263 0 .074.032.207.096.399l.087.278 1.007 3.329 1.622-4.422 1.542 4.39 1.19-3.44c.065-.192.096-.34.096-.447z" stroke="#fff" stroke-width=".17" stroke-miterlimit="10" stroke-linejoin="round"/><path d="M86.794 66.516v2.266h1.374c.196 0 .327-.03.393-.088.067-.059.1-.106.1-.144v.782c0-.016-.013-.041-.036-.076a.367.367 0 00-.143-.103.742.742 0 00-.314-.052h-1.374v1.843c0 .207.027.365.08.474a.521.521 0 00.174.223c.064.04.095.055.095.044h-1.262c0 .01.031-.002.095-.04a.468.468 0 00.171-.219c.05-.109.076-.27.076-.482v-3.966c0-.218-.026-.384-.076-.498a.559.559 0 00-.17-.24c-.065-.044-.096-.06-.096-.043h2.875v.813a.613.613 0 00-.222-.343c-.123-.1-.294-.151-.517-.151h-1.223z" fill="#fff"/><path d="M86.794 66.516v2.266h1.374c.196 0 .327-.03.393-.088.067-.059.1-.106.1-.144v.782c0-.016-.013-.041-.036-.076a.367.367 0 00-.143-.103.742.742 0 00-.314-.052h-1.374v1.843c0 .207.027.365.08.474a.521.521 0 00.174.223c.064.04.095.055.095.044h-1.262c0 .01.031-.002.095-.04a.468.468 0 00.171-.219c.05-.109.076-.27.076-.482v-3.966c0-.218-.026-.384-.076-.498a.559.559 0 00-.17-.24c-.065-.044-.096-.06-.096-.043h2.875v.813a.613.613 0 00-.222-.343c-.123-.1-.294-.151-.517-.151h-1.223z" stroke="#fff" stroke-width=".17" stroke-miterlimit="10" stroke-linejoin="round"/><path d="M91.628 71.65a.533.533 0 00.173-.224c.051-.108.078-.27.078-.482V66.94c0-.213-.024-.373-.075-.483a.469.469 0 00-.168-.219c-.063-.037-.094-.05-.094-.04h1.248c0-.01-.032.003-.095.04a.482.482 0 00-.172.22c-.053.109-.08.27-.08.482v4.005c0 .212.027.374.08.482.051.109.11.183.172.22.063.037.095.05.095.04h-1.256c0 .015.032.003.094-.036z" fill="#fff"/><path d="M91.628 71.65a.533.533 0 00.173-.224c.051-.108.078-.27.078-.482V66.94c0-.213-.024-.373-.075-.483a.469.469 0 00-.168-.219c-.063-.037-.094-.05-.094-.04h1.248c0-.01-.032.003-.095.04a.482.482 0 00-.172.22c-.053.109-.08.27-.08.482v4.005c0 .212.027.374.08.482.051.109.11.183.172.22.063.037.095.05.095.04h-1.256c0 .015.032.003.094-.036z" stroke="#fff" stroke-width=".17" stroke-miterlimit="10" stroke-linejoin="round"/><path d="M97.966 68.753c.18-.114.317-.263.41-.447.093-.182.14-.376.14-.578 0-.207-.045-.402-.132-.587a1.097 1.097 0 00-.402-.45 1.192 1.192 0 00-.662-.176h-.676v4.437c0 .212.026.373.079.482.053.11.11.181.175.216.065.034.096.046.096.035h-1.266c0 .011.032-.002.095-.04a.479.479 0 00.172-.215c.05-.107.076-.266.076-.478v-3.99c0-.217-.027-.384-.076-.498a.514.514 0 00-.172-.232c-.063-.039-.095-.051-.095-.035h1.576c.415 0 .756.067 1.024.203.269.136.462.311.582.526.118.215.18.45.18.706 0 .213-.051.422-.152.626a1.62 1.62 0 01-1.092.85l-.127.024 1.402 1.787c.186.208.34.367.462.48.122.11.21.185.266.222.056.038.09.059.1.064h-.932l-2.166-2.76h.478c.244 0 .456-.057.637-.172z" fill="#fff"/><path d="M97.966 68.753c.18-.114.317-.263.41-.447.093-.182.14-.376.14-.578 0-.207-.045-.402-.132-.587a1.097 1.097 0 00-.402-.45 1.192 1.192 0 00-.662-.176h-.676v4.437c0 .212.026.373.079.482.053.11.11.181.175.216.065.034.096.046.096.035h-1.266c0 .011.032-.002.095-.04a.479.479 0 00.172-.215c.05-.107.076-.266.076-.478v-3.99c0-.217-.027-.384-.076-.498a.514.514 0 00-.172-.232c-.063-.039-.095-.051-.095-.035h1.576c.415 0 .756.067 1.024.203.269.136.462.311.582.526.118.215.18.45.18.706 0 .213-.051.422-.152.626a1.62 1.62 0 01-1.092.85l-.127.024 1.402 1.787c.186.208.34.367.462.48.122.11.21.185.266.222.056.038.09.059.1.064h-.932l-2.166-2.76h.478c.244 0 .456-.057.637-.172v0z" stroke="#fff" stroke-width=".17" stroke-miterlimit="10" stroke-linejoin="round"/><path d="M107.004 71.685c.063-.01.132-.068.207-.171.075-.104.112-.297.112-.578v-3.99l-2.091 4.827-2.122-4.819v3.941c0 .288.045.489.139.603.092.115.177.177.251.187h-1.181c.08-.01.168-.07.263-.18.096-.108.144-.311.144-.61v-3.997c0-.255-.045-.43-.135-.526a.568.568 0 00-.272-.176h1.077l1.955 4.46 1.924-4.46h.966c-.069.01-.144.066-.224.168-.08.1-.12.287-.12.558v4.045c0 .266.04.45.12.55.08.102.155.158.224.168h-1.237z" fill="#fff"/><path d="M107.004 71.685c.063-.01.132-.068.207-.171.075-.104.112-.297.112-.578v-3.99l-2.091 4.827-2.122-4.819v3.941c0 .288.045.489.139.603.092.115.177.177.251.187h-1.181c.08-.01.168-.07.263-.18.096-.108.144-.311.144-.61v-3.997c0-.255-.045-.43-.135-.526a.568.568 0 00-.272-.176h1.077l1.955 4.46 1.924-4.46h.966c-.069.01-.144.066-.224.168-.08.1-.12.287-.12.558v4.045c0 .266.04.45.12.55.08.102.155.158.224.168h-1.237z" stroke="#fff" stroke-width=".17" stroke-miterlimit="10" stroke-linejoin="round"/><path d="M9.677 5.476a3.918 3.918 0 013.915-3.806h.773l.01-.61H1.003l.01.61h.773A3.917 3.917 0 015.7 5.489v34.7a3.917 3.917 0 01-3.916 3.843H1.01l-.01.612h13.376l-.01-.612h-.773a3.917 3.917 0 01-3.916-3.843V23.618H31.33v-1.834H9.677V5.476z" fill="#fff"/><path d="M9.677 5.476a3.918 3.918 0 013.915-3.806h.773l.01-.61H1.003l.01.61h.773A3.917 3.917 0 015.7 5.489v34.7a3.917 3.917 0 01-3.916 3.843H1.01l-.01.612h13.376l-.01-.612h-.773a3.917 3.917 0 01-3.916-3.843V23.618H31.33v-1.834H9.677V5.476z" fill="#fff" stroke="#fff" stroke-width=".296" stroke-miterlimit="10"/><path d="M100.137 36.612L66.852 1.069l-7.03-.006v.611h.996c1.738 0 3.153 1.23 3.229 2.943v24.116c-.014 8.432-5.458 14.055-13.625 14.055-7.788 0-12.98-5.938-12.98-14.844V4.61c.074-1.711 1.487-2.936 3.222-2.936h.997v-.611H29.244v.61h.996c1.766 0 3.2 1.27 3.232 3.028v24.141c0 9.522 6.782 15.87 16.954 15.87 9.887 0 16.478-6.39 16.478-15.976l-.04-21.564 35.128 37.47h.924l.002-40.383h-2.811l.03 32.353z" fill="#fff"/><path d="M100.137 36.612L66.852 1.069l-7.03-.006v.611h.996c1.738 0 3.153 1.23 3.229 2.943v24.116c-.014 8.432-5.458 14.055-13.625 14.055-7.788 0-12.98-5.938-12.98-14.844V4.61c.074-1.711 1.487-2.936 3.222-2.936h.997v-.611H29.244v.61h.996c1.766 0 3.2 1.27 3.232 3.028v24.141c0 9.522 6.782 15.87 16.954 15.87 9.887 0 16.478-6.39 16.478-15.976l-.04-21.564 35.128 37.47h.924l.002-40.383h-2.811l.03 32.353z" stroke="#fff" stroke-width=".296" stroke-miterlimit="10"/><path d="M86.803 7.576l.615-.009v-1.09a3.646 3.646 0 013.485-3.64h20.854a3.646 3.646 0 013.485 3.64v1.09l.615.01V1l-29.054.01v6.566z" fill="#fff"/><path d="M86.803 7.576l.615-.009v-1.09a3.646 3.646 0 013.485-3.64h20.854a3.646 3.646 0 013.485 3.64v1.09l.615.01V1l-29.054.01v6.566zm53.529-.908v1.11l.629.009v-6.73H119.21v1.905h17.636a3.713 3.713 0 013.486 3.706z" fill="#fff"/><path d="M140.332 6.668v1.11l.629.009v-6.73H119.21v1.905h17.636a3.713 3.713 0 013.486 3.706z" fill="#fff" stroke="#fff" stroke-width=".296" stroke-miterlimit="10"/><path d="M133.083 42.738h-13.872v1.906h21.923l3.624-10.06h-.622c-1.923 4.741-4.456 8.154-11.053 8.154z" fill="#fff"/><path d="M133.083 42.738h-13.872v1.906h21.923l3.624-10.06h-.622c-1.923 4.741-4.456 8.154-11.053 8.154z" fill="#fff" stroke="#fff" stroke-width=".296" stroke-miterlimit="10"/><path d="M140.432 26.71v.917l.608.007v-9.853l-.608.008v.917c0 1.677-1.343 2.745-3.011 2.776H119.21v2.596h18.275c1.638.065 2.947.977 2.947 2.632z" fill="#fff"/><path d="M140.432 26.71v.917l.608.007v-9.853l-.608.008v.917c0 1.677-1.343 2.745-3.011 2.776H119.21v2.596h18.275c1.638.065 2.947.977 2.947 2.632z" fill="#fff" stroke="#fff" stroke-width=".296" stroke-miterlimit="10"/><path d="M170.401 39.904c-2.447-2.673-7.897-10.993-7.897-10.993-1.226-1.73-3.169-3.823-4.525-4.449 6.08 0 10.74-5.396 10.74-11.517 0-7.367-4.695-11.882-12.357-11.882h-11.946v1.97c.881.025 8.534-.125 11.718.049 4.707.258 7.687 3.92 7.842 9.638.039 1.386-.122 2.363-.401 3.248-1.795 5.694-6.588 6.476-9.868 6.565-1.903.052-3.341.021-3.341.021v.585c2.31 0 4.154 2.19 5.807 4.266.485.61 7.61 11.513 8.328 12.371 1.988 2.374 5.156 5.328 11.04 5.328h3.458l.001-.42c-3.715-.03-6.055-2.003-8.599-4.78z" fill="#747679"/><path d="M170.401 39.904c-2.447-2.673-7.897-10.993-7.897-10.993-1.226-1.73-3.169-3.823-4.525-4.449 6.08 0 10.74-5.396 10.74-11.517 0-7.367-4.695-11.882-12.357-11.882h-11.946v1.97c.881.025 8.534-.125 11.718.049 4.707.258 7.687 3.92 7.842 9.638.039 1.386-.122 2.363-.401 3.248-1.795 5.694-6.588 6.476-9.868 6.565-1.903.052-3.341.021-3.341.021v.585c2.31 0 4.154 2.19 5.807 4.266.485.61 7.61 11.513 8.328 12.371 1.988 2.374 5.156 5.328 11.04 5.328h3.458l.001-.42c-3.715-.03-6.055-2.003-8.599-4.78z" fill="#FD7615"/></svg>