<svg width="46" height="41" fill="none" xmlns="http://www.w3.org/2000/svg"><path d="M32.416 40.95a.643.643 0 01-.46-.194.672.672 0 01-.19-.47V4.983l-8.24-3.534-6.92 2.783v36.054a.672.672 0 01-.191.47.643.643 0 01-.92 0 .672.672 0 01-.19-.47V3.778c0-.133.039-.264.113-.374a.653.653 0 01.299-.244L23.295.113a.637.637 0 01.49.005l8.883 3.81a.657.657 0 01.398.613v35.745a.672.672 0 01-.19.47.643.643 0 01-.46.194z" fill="#D64E00"/><path d="M23.533 40.95a.643.643 0 01-.46-.194.672.672 0 01-.19-.47V.73c0-.176.068-.345.19-.47a.643.643 0 01.92 0c.122.125.19.294.19.47v39.555a.672.672 0 01-.19.47.643.643 0 01-.46.194zm19.38 0a.643.643 0 01-.46-.194.672.672 0 01-.19-.47V19.398l-6.358-3.78h-3.49a.643.643 0 01-.459-.195.672.672 0 010-.94.643.643 0 01.46-.194h3.665a.64.64 0 01.325.09l6.833 4.063a.676.676 0 01.325.574v21.266a.678.678 0 01-.19.473.65.65 0 01-.46.195z" fill="#D64E00"/><path d="M36.082 40.95a.643.643 0 01-.46-.194.672.672 0 01-.19-.47V14.953c0-.176.068-.345.19-.47a.643.643 0 01.92 0c.122.125.19.294.19.47v25.333a.672.672 0 01-.19.47.643.643 0 01-.46.194zm-33.482 0a.643.643 0 01-.46-.194.672.672 0 01-.19-.47V19.588c0-.176.068-.345.19-.47a.643.643 0 01.46-.195h13.355c.173 0 .338.07.46.195a.672.672 0 010 .94.643.643 0 01-.46.194H3.25v20.034a.672.672 0 01-.19.47.643.643 0 01-.46.194z" fill="#D64E00"/><path d="M6.178 22.805H4.797a.643.643 0 01-.46-.195.672.672 0 010-.94.643.643 0 01.46-.194h1.381c.173 0 .338.07.46.195a.672.672 0 010 .94.643.643 0 01-.46.194zm3.792 0H8.586a.643.643 0 01-.46-.195.672.672 0 010-.94.643.643 0 01.46-.194h1.382c.173 0 .338.07.46.195a.672.672 0 010 .94.643.643 0 01-.46.194zm3.787 0h-1.381a.643.643 0 01-.46-.195.672.672 0 010-.94.643.643 0 01.46-.194h1.381c.173 0 .338.07.46.195a.672.672 0 010 .94.644.644 0 01-.46.194zm-7.579 3.119H4.797a.643.643 0 01-.46-.195.672.672 0 010-.94.643.643 0 01.46-.194h1.381c.173 0 .338.07.46.194a.672.672 0 010 .94.643.643 0 01-.46.195zm3.792 0H8.586a.643.643 0 01-.46-.195.672.672 0 010-.94.643.643 0 01.46-.194h1.382c.173 0 .338.07.46.194a.672.672 0 010 .94.643.643 0 01-.46.195zm3.787 0h-1.381a.643.643 0 01-.46-.195.672.672 0 010-.94.643.643 0 01.46-.194h1.381c.173 0 .338.07.46.194a.672.672 0 010 .94.643.643 0 01-.46.195zm-7.579 3.118H4.797a.643.643 0 01-.46-.195.672.672 0 010-.94.643.643 0 01.46-.194h1.381c.173 0 .338.07.46.194a.672.672 0 010 .94.643.643 0 01-.46.195zm3.792 0H8.586a.643.643 0 01-.46-.195.672.672 0 010-.94.643.643 0 01.46-.194h1.382c.173 0 .338.07.46.194a.672.672 0 010 .94.643.643 0 01-.46.195zm3.787 0h-1.381a.643.643 0 01-.46-.195.672.672 0 010-.94.643.643 0 01.46-.194h1.381c.173 0 .338.07.46.194a.672.672 0 010 .94.644.644 0 01-.46.195zM6.178 32.16H4.797a.643.643 0 01-.46-.194.672.672 0 010-.94.643.643 0 01.46-.194h1.381c.173 0 .338.07.46.194a.672.672 0 010 .94.643.643 0 01-.46.195zm3.792 0H8.586a.643.643 0 01-.46-.194.672.672 0 010-.94.643.643 0 01.46-.194h1.382c.173 0 .338.07.46.194a.672.672 0 010 .94.643.643 0 01-.46.195zm3.787 0h-1.381a.643.643 0 01-.46-.194.672.672 0 010-.94.643.643 0 01.46-.194h1.381c.173 0 .338.07.46.194a.672.672 0 010 .94.644.644 0 01-.46.195zm-7.579 3.12H4.797a.643.643 0 01-.46-.195.672.672 0 010-.94.643.643 0 01.46-.195h1.381c.173 0 .338.07.46.195a.672.672 0 010 .94.643.643 0 01-.46.195zm3.792 0H8.586a.643.643 0 01-.46-.195.672.672 0 010-.94.643.643 0 01.46-.195h1.382c.173 0 .338.07.46.195a.672.672 0 010 .94.643.643 0 01-.46.195zm3.787 0h-1.381a.643.643 0 01-.46-.195.672.672 0 010-.94.643.643 0 01.46-.195h1.381c.173 0 .338.07.46.195a.672.672 0 010 .94.644.644 0 01-.46.195zm-7.579 3.118H4.797a.643.643 0 01-.46-.194.672.672 0 010-.94.643.643 0 01.46-.195h1.381c.173 0 .338.07.46.195a.672.672 0 010 .94.643.643 0 01-.46.194zm3.792 0H8.586a.643.643 0 01-.46-.194.672.672 0 010-.94.643.643 0 01.46-.195h1.382c.173 0 .338.07.46.195a.672.672 0 010 .94.643.643 0 01-.46.194zm3.787 0h-1.381a.643.643 0 01-.46-.194.672.672 0 010-.94.643.643 0 01.46-.195h1.381c.173 0 .338.07.46.195a.672.672 0 010 .94.644.644 0 01-.46.194zm7.484-31.161a.643.643 0 01-.46-.195.672.672 0 01-.19-.47V5.318c0-.176.068-.345.19-.47a.643.643 0 01.92 0c.122.125.19.294.19.47v1.254a.672.672 0 01-.19.47.643.643 0 01-.46.195zm-2.965.773a.643.643 0 01-.46-.195.672.672 0 01-.19-.47V6.091c0-.176.069-.345.19-.47a.643.643 0 01.92 0c.122.125.19.294.19.47v1.254a.672.672 0 01-.19.47.643.643 0 01-.46.195zm2.965 4.226a.643.643 0 01-.46-.195.672.672 0 01-.19-.47v-1.254c0-.176.068-.345.19-.47a.643.643 0 01.92 0c.122.125.19.294.19.47v1.254a.672.672 0 01-.19.47.643.643 0 01-.46.195zm-2.965.773a.643.643 0 01-.46-.195.672.672 0 01-.19-.47V11.09c0-.176.069-.345.19-.47a.643.643 0 01.92 0c.122.125.19.294.19.47v1.254a.672.672 0 01-.19.47.644.644 0 01-.46.195zm2.965 4.228a.643.643 0 01-.46-.194.672.672 0 01-.19-.47v-1.257c0-.176.068-.345.19-.47a.643.643 0 01.92 0c.122.125.19.294.19.47v1.257a.672.672 0 01-.19.47.643.643 0 01-.46.194zm-2.965.771a.643.643 0 01-.46-.195.672.672 0 01-.19-.47v-1.254c0-.176.069-.345.19-.47a.643.643 0 01.92 0c.122.125.19.294.19.47v1.254a.672.672 0 01-.19.47.644.644 0 01-.46.195zm2.965 4.225a.643.643 0 01-.46-.195.672.672 0 01-.19-.47v-1.254c0-.176.068-.345.19-.47a.643.643 0 01.92 0c.122.125.19.294.19.47v1.254a.672.672 0 01-.19.47.643.643 0 01-.46.195zm-2.965.773a.643.643 0 01-.46-.195.672.672 0 01-.19-.47v-1.254c0-.176.069-.345.19-.47a.643.643 0 01.92 0c.122.125.19.294.19.47v1.254a.672.672 0 01-.19.47.643.643 0 01-.46.195zm2.965 4.226a.643.643 0 01-.46-.195.672.672 0 01-.19-.47v-1.254c0-.176.068-.345.19-.47a.643.643 0 01.92 0c.122.125.19.294.19.47v1.254a.672.672 0 01-.19.47.643.643 0 01-.46.195zm-2.965.771a.643.643 0 01-.46-.195.672.672 0 01-.19-.47v-1.252c0-.176.069-.345.19-.47a.643.643 0 01.92 0c.122.125.19.294.19.47v1.253a.672.672 0 01-.19.47.643.643 0 01-.46.194zm2.965 4.227a.643.643 0 01-.46-.194.672.672 0 01-.19-.47v-1.254c0-.176.068-.345.19-.47a.643.643 0 01.92 0c.122.125.19.294.19.47v1.254a.672.672 0 01-.19.47.643.643 0 01-.46.195zm-2.965.773a.643.643 0 01-.46-.194.672.672 0 01-.19-.47v-1.254c0-.176.069-.346.19-.47a.643.643 0 01.92 0c.122.125.19.294.19.47v1.254a.672.672 0 01-.19.47.644.644 0 01-.46.194zm2.965 4.226a.643.643 0 01-.46-.195.672.672 0 01-.19-.47v-1.25a.67.67 0 01.19-.47.643.643 0 01.92 0 .67.67 0 01.19.47v1.254a.67.67 0 01-.191.467.643.643 0 01-.459.194zm-2.965.773a.643.643 0 01-.46-.194.672.672 0 01-.19-.47v-1.255c0-.176.069-.345.19-.47a.643.643 0 01.92 0c.122.125.19.294.19.47v1.254a.678.678 0 01-.19.47.649.649 0 01-.46.195zm7.451-31.398a.643.643 0 01-.46-.194.672.672 0 01-.19-.47V4.687c0-.176.069-.345.19-.47a.643.643 0 01.92 0c.122.125.19.294.19.47V5.94a.672.672 0 01-.19.47.643.643 0 01-.46.194zm2.197.848a.643.643 0 01-.46-.195.672.672 0 01-.19-.47V5.534a.67.67 0 01.19-.47.643.643 0 01.92 0c.121.124.19.293.19.47v1.254a.672.672 0 01-.19.47.643.643 0 01-.46.194zm2.194.846a.643.643 0 01-.46-.194.672.672 0 01-.19-.47V6.38c0-.176.068-.345.19-.47a.643.643 0 01.92 0c.122.125.19.294.19.47v1.254a.672.672 0 01-.19.47.643.643 0 01-.46.194zm-4.391 3.29a.643.643 0 01-.46-.194.672.672 0 01-.19-.47V9.668c0-.176.069-.345.19-.47a.643.643 0 01.92 0c.122.125.19.294.19.47v1.256a.672.672 0 01-.19.47.643.643 0 01-.46.194zm2.197.844a.643.643 0 01-.46-.194.672.672 0 01-.19-.47v-1.253a.67.67 0 01.19-.47.643.643 0 01.92 0c.121.124.19.293.19.47v1.253a.673.673 0 01-.19.47.643.643 0 01-.46.194zm2.194.848a.643.643 0 01-.46-.195.672.672 0 01-.19-.47V11.36c0-.176.068-.345.19-.47a.643.643 0 01.92 0c.122.125.19.294.19.47v1.254a.672.672 0 01-.19.47.643.643 0 01-.46.194zm-4.391 3.287a.643.643 0 01-.46-.194.672.672 0 01-.19-.47v-1.258c0-.176.069-.345.19-.47a.643.643 0 01.92 0c.122.125.19.294.19.47V15.9a.678.678 0 01-.189.472.651.651 0 01-.46.195zm2.197.847a.643.643 0 01-.46-.195.672.672 0 01-.19-.47v-1.253a.67.67 0 01.19-.47.643.643 0 01.92 0c.121.124.19.293.19.47v1.254a.672.672 0 01-.19.47.643.643 0 01-.46.194zm2.194.846a.643.643 0 01-.46-.195.672.672 0 01-.19-.47v-1.253c0-.176.068-.345.19-.47a.643.643 0 01.92 0c.122.125.19.294.19.47v1.254a.672.672 0 01-.19.47.643.643 0 01-.46.194zm-4.391 3.288a.643.643 0 01-.46-.194.672.672 0 01-.19-.47V19.63c0-.177.069-.345.19-.47a.643.643 0 01.92 0 .67.67 0 01.19.47v1.254a.672.672 0 01-.19.47.643.643 0 01-.46.194zm2.197.847a.643.643 0 01-.46-.195.672.672 0 01-.19-.47v-1.254c0-.176.068-.345.19-.47a.643.643 0 01.92 0c.121.125.19.294.19.47v1.254a.672.672 0 01-.19.47.643.643 0 01-.46.195zm2.194.847a.643.643 0 01-.46-.195.672.672 0 01-.19-.47v-1.254c0-.176.068-.345.19-.47a.643.643 0 01.92 0c.122.125.19.294.19.47v1.254a.672.672 0 01-.19.47.643.643 0 01-.46.195zm-4.391 3.288a.643.643 0 01-.46-.195.672.672 0 01-.19-.47v-1.251c0-.176.069-.345.19-.47a.643.643 0 01.92 0c.122.125.19.294.19.47v1.254c0 .176-.07.344-.191.468a.643.643 0 01-.459.193zm2.197.846a.643.643 0 01-.46-.195.672.672 0 01-.19-.47v-1.254c0-.176.068-.345.19-.47a.643.643 0 01.92 0c.121.125.19.294.19.47v1.254a.673.673 0 01-.19.47.643.643 0 01-.46.195zm2.194.847a.643.643 0 01-.46-.195.672.672 0 01-.19-.47v-1.254c0-.176.068-.345.19-.47a.643.643 0 01.92 0c.122.125.19.294.19.47v1.254a.672.672 0 01-.19.47.643.643 0 01-.46.195zm-4.391 3.287a.643.643 0 01-.46-.194.673.673 0 01-.19-.47v-1.254c0-.177.069-.346.19-.47a.643.643 0 01.92 0 .67.67 0 01.19.47v1.254a.672.672 0 01-.19.47.643.643 0 01-.46.194zm2.197.847a.643.643 0 01-.46-.195.672.672 0 01-.19-.47v-1.254c0-.176.068-.345.19-.47a.643.643 0 01.92 0c.121.125.19.294.19.47v1.254a.673.673 0 01-.19.47.643.643 0 01-.46.195zm2.194.846a.643.643 0 01-.46-.194.672.672 0 01-.19-.47v-1.254c0-.176.068-.345.19-.47a.643.643 0 01.92 0c.122.125.19.294.19.47v1.254a.672.672 0 01-.19.47.643.643 0 01-.46.194zm-4.391 3.288a.643.643 0 01-.46-.195.672.672 0 01-.19-.47v-1.254c0-.176.069-.345.19-.47a.643.643 0 01.92 0c.122.125.19.294.19.47v1.255a.672.672 0 01-.19.47.643.643 0 01-.46.194zm2.197.847a.643.643 0 01-.46-.195.672.672 0 01-.19-.47V35.42c0-.176.068-.345.19-.47a.643.643 0 01.92 0c.121.125.19.294.19.47v1.254a.672.672 0 01-.19.47.643.643 0 01-.46.195zm2.194.846a.643.643 0 01-.46-.194.672.672 0 01-.19-.47v-1.254c0-.176.068-.345.19-.47a.643.643 0 01.92 0c.122.125.19.294.19.47v1.254a.672.672 0 01-.19.47.643.643 0 01-.46.194zm8.224-17.458a.644.644 0 01-.46-.194.672.672 0 01-.19-.47v-.672a.67.67 0 01.19-.47.643.643 0 01.92 0c.121.124.19.293.19.47v.672a.672.672 0 01-.19.47.643.643 0 01-.46.194zm2.191 1.408a.643.643 0 01-.46-.195.672.672 0 01-.19-.47v-.672c0-.176.068-.345.19-.47a.643.643 0 01.92 0c.122.125.19.294.19.47v.672a.672.672 0 01-.19.47.643.643 0 01-.46.195zm-2.191 1.874a.644.644 0 01-.46-.195.672.672 0 01-.19-.47v-.67a.67.67 0 01.19-.47.643.643 0 01.92 0c.121.124.19.293.19.47v.671a.672.672 0 01-.19.47.643.643 0 01-.46.194zm2.191 1.407a.643.643 0 01-.46-.194.672.672 0 01-.19-.47v-.669c0-.176.068-.345.19-.47a.643.643 0 01.92 0c.122.125.19.294.19.47v.672c0 .176-.07.344-.191.468a.643.643 0 01-.459.193zm-2.191 1.875a.644.644 0 01-.46-.194.672.672 0 01-.19-.47v-.672a.67.67 0 01.19-.47.644.644 0 01.92 0c.121.124.19.293.19.47v.672a.672.672 0 01-.19.47.643.643 0 01-.46.194zm2.191 1.408a.643.643 0 01-.46-.195.672.672 0 01-.19-.47v-.672c0-.176.068-.345.19-.47a.643.643 0 01.92 0c.122.125.19.294.19.47v.672a.672.672 0 01-.19.47.643.643 0 01-.46.195zm-2.191 1.874a.644.644 0 01-.46-.194.672.672 0 01-.19-.47v-.672c0-.176.068-.345.19-.47a.643.643 0 01.92 0c.121.125.19.294.19.47v.672a.672.672 0 01-.19.47.643.643 0 01-.46.194zm2.191 1.408a.643.643 0 01-.46-.195.672.672 0 01-.19-.47v-.672c0-.176.068-.345.19-.47a.643.643 0 01.92 0c.122.125.19.294.19.47v.672a.672.672 0 01-.19.47.643.643 0 01-.46.194zm-2.191 1.872a.644.644 0 01-.46-.195.672.672 0 01-.19-.47v-.67c0-.176.068-.345.19-.47a.643.643 0 01.92 0c.121.125.19.294.19.47v.67a.672.672 0 01-.19.47.643.643 0 01-.46.195zm2.191 1.41a.643.643 0 01-.46-.195.672.672 0 01-.19-.47v-.672c0-.176.068-.345.19-.47a.643.643 0 01.92 0c.122.125.19.294.19.47v.672a.672.672 0 01-.19.47.643.643 0 01-.46.195zm-2.191 1.874a.644.644 0 01-.46-.194.672.672 0 01-.19-.47V35.8c0-.176.068-.345.19-.47a.644.644 0 01.92 0c.121.125.19.294.19.47v.672a.672.672 0 01-.19.47.643.643 0 01-.46.194zm2.191 1.407a.643.643 0 01-.46-.194.672.672 0 01-.19-.47v-.672c0-.176.068-.345.19-.47a.643.643 0 01.92 0c.122.125.19.294.19.47v.672a.672.672 0 01-.19.47.643.643 0 01-.46.194zm4.331 2.397H.65a.643.643 0 01-.46-.195.672.672 0 010-.94.643.643 0 01.46-.194h44.214c.172 0 .338.07.46.194a.672.672 0 010 .94.643.643 0 01-.46.195z" fill="#D64E00"/></svg>