<svg width="17" height="17" fill="none" xmlns="http://www.w3.org/2000/svg"><path d="M16.156 12.495v2.285a1.523 1.523 0 01-1.661 1.524 15.085 15.085 0 01-6.577-2.339 14.857 14.857 0 01-4.572-4.57 15.07 15.07 0 01-2.34-6.604A1.523 1.523 0 012.523 1.13h2.286a1.524 1.524 0 011.524 1.31c.096.731.275 1.45.533 2.14a1.523 1.523 0 01-.343 1.608l-.967.967a12.19 12.19 0 004.572 4.57l.968-.967a1.524 1.524 0 011.608-.342 9.87 9.87 0 002.141.533 1.524 1.524 0 011.31 1.546z" stroke="#D64E00" stroke-linecap="round" stroke-linejoin="round"/></svg>