<svg width="46" height="42" fill="none" xmlns="http://www.w3.org/2000/svg"><path d="M32.416 41.05a.642.642 0 01-.46-.194.676.676 0 01-.19-.472V4.964l-8.24-3.545-6.92 2.792v36.173a.675.675 0 01-.191.471.642.642 0 01-.92 0 .676.676 0 01-.19-.471V3.756c0-.134.039-.265.113-.376a.653.653 0 01.299-.245L23.295.078a.635.635 0 01.49.006l8.883 3.822c.118.05.218.136.29.246.07.11.108.237.108.369v35.863a.675.675 0 01-.19.471.642.642 0 01-.46.196z" fill="#fff"/><path d="M23.533 41.05a.642.642 0 01-.46-.194.675.675 0 01-.19-.472V.699c0-.177.068-.346.19-.471a.642.642 0 01.92 0c.122.125.19.294.19.471v39.685a.676.676 0 01-.19.471.642.642 0 01-.46.196zm19.381 0a.642.642 0 01-.46-.195.675.675 0 01-.19-.471V19.428l-6.358-3.794h-3.49a.642.642 0 01-.46-.195.675.675 0 010-.943.642.642 0 01.46-.195h3.666c.114 0 .226.032.325.09l6.833 4.077a.68.68 0 01.325.576v21.337a.68.68 0 01-.19.473.65.65 0 01-.461.197z" fill="#fff"/><path d="M36.081 41.05a.642.642 0 01-.46-.195.676.676 0 01-.19-.471V14.968a.68.68 0 01.19-.472.642.642 0 01.92 0c.122.125.19.295.19.472v25.416a.675.675 0 01-.19.471.642.642 0 01-.46.196zm-33.481 0a.642.642 0 01-.46-.194.675.675 0 01-.19-.472V19.618c0-.177.068-.347.19-.472a.642.642 0 01.46-.195h13.355c.173 0 .338.07.46.195a.676.676 0 010 .943.642.642 0 01-.46.196H3.25v20.099a.675.675 0 01-.19.471.642.642 0 01-.46.196z" fill="#fff"/><path d="M6.179 22.846H4.797a.642.642 0 01-.46-.196.676.676 0 010-.943.642.642 0 01.46-.195H6.18c.172 0 .338.07.46.195a.676.676 0 010 .943.642.642 0 01-.46.196zm3.791 0H8.586a.642.642 0 01-.46-.196.676.676 0 010-.943.642.642 0 01.46-.195h1.382c.173 0 .338.07.46.195a.675.675 0 010 .943.642.642 0 01-.46.196zm3.787 0h-1.381a.642.642 0 01-.46-.196.676.676 0 010-.943.642.642 0 01.46-.195h1.381c.173 0 .338.07.46.195a.676.676 0 010 .943.643.643 0 01-.46.196zm-7.578 3.129H4.797a.642.642 0 01-.46-.196.676.676 0 010-.943.642.642 0 01.46-.195H6.18c.172 0 .338.07.46.195a.676.676 0 010 .943.642.642 0 01-.46.196zm3.791 0H8.586a.642.642 0 01-.46-.196.676.676 0 010-.943.642.642 0 01.46-.195h1.382c.173 0 .338.07.46.195a.675.675 0 010 .943.642.642 0 01-.46.196zm3.787 0h-1.381a.642.642 0 01-.46-.196.676.676 0 010-.943.642.642 0 01.46-.195h1.381c.173 0 .338.07.46.195a.676.676 0 010 .943.642.642 0 01-.46.196zm-7.578 3.128H4.797a.642.642 0 01-.46-.195.675.675 0 010-.943.642.642 0 01.46-.195H6.18c.172 0 .338.07.46.195a.675.675 0 010 .943.642.642 0 01-.46.195zm3.791 0H8.586a.642.642 0 01-.46-.195.675.675 0 010-.943.642.642 0 01.46-.195h1.382c.173 0 .338.07.46.195a.675.675 0 010 .943.642.642 0 01-.46.195zm3.787 0h-1.381a.642.642 0 01-.46-.195.676.676 0 010-.943.642.642 0 01.46-.195h1.381c.173 0 .338.07.46.195a.675.675 0 010 .943.642.642 0 01-.46.195zm-7.578 3.129H4.797a.642.642 0 01-.46-.195.675.675 0 010-.943.642.642 0 01.46-.195H6.18c.172 0 .338.07.46.195a.676.676 0 010 .943.642.642 0 01-.46.195zm3.791 0H8.586a.642.642 0 01-.46-.195.675.675 0 010-.943.642.642 0 01.46-.195h1.382c.173 0 .338.07.46.195a.675.675 0 010 .943.642.642 0 01-.46.195zm3.787 0h-1.381a.642.642 0 01-.46-.195.675.675 0 010-.943.642.642 0 01.46-.195h1.381c.173 0 .338.07.46.195a.676.676 0 010 .943.643.643 0 01-.46.195zm-7.578 3.129H4.797a.642.642 0 01-.46-.195.675.675 0 010-.943.642.642 0 01.46-.195H6.18c.172 0 .338.07.46.195a.675.675 0 010 .943.642.642 0 01-.46.195zm3.791 0H8.586a.642.642 0 01-.46-.195.675.675 0 010-.943.642.642 0 01.46-.195h1.382c.173 0 .338.07.46.195a.675.675 0 010 .943.642.642 0 01-.46.195zm3.787 0h-1.381a.642.642 0 01-.46-.195.675.675 0 010-.943.642.642 0 01.46-.195h1.381c.173 0 .338.07.46.195a.675.675 0 010 .943.642.642 0 01-.46.195zM6.179 38.49H4.797a.642.642 0 01-.46-.195.675.675 0 010-.943.642.642 0 01.46-.195H6.18c.172 0 .338.07.46.195a.675.675 0 010 .943.642.642 0 01-.46.195zm3.791 0H8.586a.642.642 0 01-.46-.195.675.675 0 010-.943.642.642 0 01.46-.195h1.382c.173 0 .338.07.46.195a.675.675 0 010 .943.642.642 0 01-.46.195zm3.787 0h-1.381a.642.642 0 01-.46-.195.675.675 0 010-.943.642.642 0 01.46-.195h1.381c.173 0 .338.07.46.195a.675.675 0 010 .943.643.643 0 01-.46.195zm7.484-31.264a.642.642 0 01-.46-.195.675.675 0 01-.19-.472V5.301c0-.177.068-.347.19-.472a.642.642 0 01.92 0c.122.125.19.295.19.472v1.258a.676.676 0 01-.19.472.642.642 0 01-.46.195zm-2.965.775a.642.642 0 01-.46-.195.676.676 0 01-.19-.471v-1.26a.68.68 0 01.19-.471.642.642 0 01.92 0c.122.125.19.295.19.471v1.259a.676.676 0 01-.19.47.642.642 0 01-.46.196zm2.965 4.24a.642.642 0 01-.46-.195.675.675 0 01-.19-.471v-1.259c0-.176.068-.346.19-.471a.642.642 0 01.92 0c.122.125.19.295.19.471v1.259a.675.675 0 01-.19.471.642.642 0 01-.46.195zm-2.965.776a.642.642 0 01-.46-.196.675.675 0 01-.19-.471v-1.258a.68.68 0 01.19-.472.642.642 0 01.92 0c.122.125.19.295.19.472v1.258a.675.675 0 01-.19.471.642.642 0 01-.46.196zm2.965 4.243a.642.642 0 01-.46-.196.675.675 0 01-.19-.471v-1.261c0-.177.068-.347.19-.472a.642.642 0 01.92 0c.122.125.19.295.19.472v1.26a.676.676 0 01-.19.472.642.642 0 01-.46.195zm-2.965.772a.642.642 0 01-.46-.195.675.675 0 01-.19-.472v-1.258c0-.177.069-.346.19-.471a.642.642 0 01.92 0c.122.125.19.294.19.471v1.258a.675.675 0 01-.19.472.642.642 0 01-.46.195zm2.965 4.239a.642.642 0 01-.46-.195.675.675 0 01-.19-.471v-1.259a.67.67 0 01.19-.47.642.642 0 01.92 0 .67.67 0 01.19.47v1.259a.676.676 0 01-.19.471.642.642 0 01-.46.195zm-2.965.776a.642.642 0 01-.46-.195.676.676 0 01-.19-.472v-1.258a.68.68 0 01.19-.472.642.642 0 01.92 0c.122.125.19.295.19.472v1.258a.676.676 0 01-.19.472.643.643 0 01-.46.195zm2.965 4.24a.642.642 0 01-.46-.195.675.675 0 01-.19-.472v-1.258c0-.177.068-.346.19-.471a.642.642 0 01.92 0c.122.125.19.294.19.47v1.259a.676.676 0 01-.19.471.642.642 0 01-.46.196zm-2.965.773a.642.642 0 01-.46-.194.675.675 0 01-.19-.472v-1.257c0-.177.069-.346.19-.471a.642.642 0 01.92 0c.122.125.19.294.19.471v1.257a.675.675 0 01-.19.472.643.643 0 01-.46.195zm2.965 4.242a.642.642 0 01-.46-.195.675.675 0 01-.19-.471v-1.259c0-.177.068-.346.19-.471a.642.642 0 01.92 0c.122.125.19.294.19.471v1.259a.675.675 0 01-.19.47.642.642 0 01-.46.196zm-2.965.776a.642.642 0 01-.46-.196.675.675 0 01-.19-.471v-1.258a.68.68 0 01.19-.472.642.642 0 01.92 0c.122.125.19.295.19.472v1.258a.675.675 0 01-.19.471.642.642 0 01-.46.196zm2.965 4.239a.642.642 0 01-.46-.195.675.675 0 01-.19-.472v-1.255c0-.177.068-.346.19-.471a.642.642 0 01.92 0c.122.125.19.294.19.471v1.258c0 .177-.07.346-.191.47a.642.642 0 01-.459.194zm-2.965.776a.642.642 0 01-.46-.195.675.675 0 01-.19-.472v-1.259c0-.177.069-.346.19-.471a.642.642 0 01.92 0c.122.125.19.294.19.471v1.258a.681.681 0 01-.19.472.65.65 0 01-.46.196zm7.451-31.502a.642.642 0 01-.46-.195.676.676 0 01-.19-.472V4.667a.68.68 0 01.19-.471.642.642 0 01.92 0c.122.125.19.295.19.471v1.257a.675.675 0 01-.19.472.642.642 0 01-.46.195zm2.196.85a.642.642 0 01-.46-.195.676.676 0 01-.19-.472V5.517c0-.177.069-.346.19-.472a.642.642 0 01.92 0c.122.126.19.295.19.472v1.258a.676.676 0 01-.19.471.642.642 0 01-.46.195zm2.195.849a.642.642 0 01-.46-.195.676.676 0 01-.19-.471V6.366c0-.176.068-.346.19-.471a.642.642 0 01.92 0c.122.125.19.295.19.471v1.259a.676.676 0 01-.19.47.642.642 0 01-.46.196zm-4.391 3.302a.642.642 0 01-.46-.196.676.676 0 01-.19-.47V9.664a.68.68 0 01.19-.472.642.642 0 01.92 0c.122.125.19.295.19.472v1.26a.675.675 0 01-.19.471.642.642 0 01-.46.196zm2.196.847a.642.642 0 01-.46-.196.676.676 0 01-.19-.471v-1.258a.68.68 0 01.19-.471.642.642 0 01.92 0c.122.125.19.295.19.471v1.258a.675.675 0 01-.19.471.642.642 0 01-.46.196zm2.195.849a.642.642 0 01-.46-.195.675.675 0 01-.19-.472v-1.257c0-.177.068-.347.19-.472a.642.642 0 01.92 0c.122.126.19.295.19.472v1.258a.676.676 0 01-.19.471.642.642 0 01-.46.195zm-4.391 3.299a.642.642 0 01-.46-.195.676.676 0 01-.19-.472v-1.26a.68.68 0 01.19-.472.642.642 0 01.92 0c.122.126.19.295.19.472v1.258a.682.682 0 01-.189.474.65.65 0 01-.46.196zm2.196.85a.642.642 0 01-.46-.196.676.676 0 01-.19-.471v-1.258a.68.68 0 01.19-.472.642.642 0 01.92 0c.122.125.19.295.19.472v1.258a.675.675 0 01-.19.471.642.642 0 01-.46.196zm2.195.848a.642.642 0 01-.46-.195.675.675 0 01-.19-.471V16.36c0-.177.068-.346.19-.471a.642.642 0 01.92 0c.122.125.19.294.19.471v1.258a.676.676 0 01-.19.471.642.642 0 01-.46.195zm-4.391 3.3a.642.642 0 01-.46-.196.676.676 0 01-.19-.471V19.66a.68.68 0 01.19-.472.642.642 0 01.92 0c.122.125.19.295.19.472v1.258a.675.675 0 01-.19.471.642.642 0 01-.46.196zm2.196.849a.642.642 0 01-.46-.195.676.676 0 01-.19-.472V20.51c0-.177.069-.346.19-.471a.642.642 0 01.92 0c.122.125.19.294.19.471v1.258a.675.675 0 01-.19.472.642.642 0 01-.46.195zm2.195.85a.642.642 0 01-.46-.196.676.676 0 01-.19-.471v-1.258c0-.177.068-.347.19-.472a.642.642 0 01.92 0c.122.125.19.295.19.472v1.258a.675.675 0 01-.19.471.642.642 0 01-.46.196zm-4.391 3.298a.642.642 0 01-.46-.195.676.676 0 01-.19-.472V24.66a.68.68 0 01.19-.471.642.642 0 01.92 0c.122.125.19.295.19.471v1.259c0 .176-.07.345-.191.469a.642.642 0 01-.459.194zm2.196.849a.642.642 0 01-.46-.195.676.676 0 01-.19-.471v-1.258a.68.68 0 01.19-.472.642.642 0 01.92 0c.122.125.19.295.19.472v1.258a.675.675 0 01-.19.471.642.642 0 01-.46.195zm2.195.85a.642.642 0 01-.46-.195.675.675 0 01-.19-.472v-1.258c0-.177.068-.346.19-.471a.642.642 0 01.92 0c.122.125.19.294.19.471v1.258a.675.675 0 01-.19.472.642.642 0 01-.46.195zm-4.391 3.299a.642.642 0 01-.46-.196.676.676 0 01-.19-.471v-1.259a.68.68 0 01.19-.471.642.642 0 01.92 0c.122.125.19.295.19.471v1.259a.675.675 0 01-.19.471.642.642 0 01-.46.195zm2.196.849a.642.642 0 01-.46-.195.676.676 0 01-.19-.472v-1.258a.68.68 0 01.19-.472.642.642 0 01.92 0c.122.125.19.295.19.472v1.258a.675.675 0 01-.19.472.642.642 0 01-.46.195zm2.195.849a.642.642 0 01-.46-.195.675.675 0 01-.19-.471v-1.259c0-.176.068-.346.19-.471a.642.642 0 01.92 0c.122.125.19.295.19.471v1.259a.675.675 0 01-.19.471.642.642 0 01-.46.195zm-4.391 3.299a.642.642 0 01-.46-.195.676.676 0 01-.19-.472v-1.258c0-.177.069-.346.19-.471a.642.642 0 01.92 0c.122.125.19.294.19.471v1.258a.675.675 0 01-.19.472.642.642 0 01-.46.195zm2.196.849a.642.642 0 01-.46-.195.676.676 0 01-.19-.471V35.5a.68.68 0 01.19-.471.642.642 0 01.92 0c.122.125.19.295.19.471v1.259a.675.675 0 01-.19.471.642.642 0 01-.46.195zm2.195.85a.642.642 0 01-.46-.196.676.676 0 01-.19-.471V36.35c0-.177.068-.346.19-.471a.642.642 0 01.92 0 .67.67 0 01.19.47v1.259a.675.675 0 01-.19.471.642.642 0 01-.46.196zm8.224-17.516a.643.643 0 01-.46-.196.676.676 0 01-.19-.471v-.674c0-.177.068-.346.19-.471a.642.642 0 01.92 0c.121.125.19.294.19.47v.675a.676.676 0 01-.19.471.642.642 0 01-.46.196zm2.19 1.412a.642.642 0 01-.46-.195.675.675 0 01-.19-.472v-.674c0-.177.069-.346.19-.471a.642.642 0 01.92 0c.122.125.19.294.19.471v.674a.675.675 0 01-.19.472.642.642 0 01-.46.195zm-2.19 1.88a.643.643 0 01-.46-.195.676.676 0 01-.19-.471v-.674c0-.177.068-.346.19-.471a.642.642 0 01.92 0c.121.125.19.294.19.471v.674a.675.675 0 01-.19.471.642.642 0 01-.46.195zm2.19 1.413a.642.642 0 01-.46-.196.675.675 0 01-.19-.471v-.671c0-.177.069-.346.19-.471a.642.642 0 01.92 0c.122.125.19.294.19.471v.674a.677.677 0 01-.19.47.642.642 0 01-.46.194zm-2.19 1.881a.643.643 0 01-.46-.196.676.676 0 01-.19-.471v-.674c0-.177.068-.347.19-.472a.642.642 0 01.92 0 .68.68 0 01.19.472v.674a.676.676 0 01-.19.471.642.642 0 01-.46.196zm2.19 1.412a.642.642 0 01-.46-.196.675.675 0 01-.19-.471v-.674a.68.68 0 01.19-.472.642.642 0 01.92 0c.122.125.19.295.19.472v.674a.676.676 0 01-.19.471.642.642 0 01-.46.196zm-2.19 1.881a.642.642 0 01-.46-.196.676.676 0 01-.19-.471v-.674c0-.177.068-.347.19-.472a.642.642 0 01.92 0 .68.68 0 01.19.472v.674a.676.676 0 01-.19.471.642.642 0 01-.46.195zm2.19 1.411a.642.642 0 01-.46-.195.675.675 0 01-.19-.472v-.674c0-.177.069-.346.19-.471a.642.642 0 01.92 0c.122.125.19.294.19.471v.674a.676.676 0 01-.19.472.642.642 0 01-.46.195zm-2.19 1.878a.643.643 0 01-.46-.195.676.676 0 01-.19-.471v-.672c0-.177.068-.346.19-.471a.642.642 0 01.92 0c.121.125.19.294.19.471v.672a.676.676 0 01-.19.471.642.642 0 01-.46.196zm2.19 1.415a.642.642 0 01-.46-.195.675.675 0 01-.19-.471v-.674a.68.68 0 01.19-.472.642.642 0 01.92 0c.122.125.19.295.19.472v.674a.675.675 0 01-.19.471.642.642 0 01-.46.195zm-2.19 1.881a.642.642 0 01-.46-.195.675.675 0 01-.19-.472v-.674c0-.177.068-.346.19-.471a.642.642 0 01.92 0c.121.125.19.294.19.471v.674a.675.675 0 01-.19.472.642.642 0 01-.46.195zm2.19 1.412a.642.642 0 01-.46-.196.675.675 0 01-.19-.471v-.674c0-.177.069-.346.19-.471a.642.642 0 01.92 0c.122.125.19.294.19.471v.674a.676.676 0 01-.19.471.642.642 0 01-.46.196zm4.332 2.404H.65a.642.642 0 01-.46-.195.676.676 0 010-.943.642.642 0 01.46-.196h44.214a.64.64 0 01.46.196.676.676 0 010 .943.642.642 0 01-.46.195z" fill="#fff"/></svg>