<svg width="47" height="40" fill="none" xmlns="http://www.w3.org/2000/svg"><path d="M33.845 37.416h-21.06v1.621h21.06v-1.621zM24.037 0h-1.662v35.53h1.662V0zM37.94 10.37c-1.972 0-3.669-1.15-5.237-2.214a41.95 41.95 0 00-1.18-.782c-.15-.094-.3-.191-.45-.29-1.369-.892-2.662-1.735-5.417-.973l-.8.221-.453-1.56.8-.22c3.493-.966 5.323.226 6.794 1.185.143.094.285.186.427.276.42.264.83.543 1.228.813 2.462 1.67 4.406 2.988 7.298.633l.638-.52 1.066 1.246-.639.52c-1.491 1.212-2.837 1.666-4.075 1.666zm-6.888 19.086l-.772-1.114 6.756-16.354 1.528-.033 7.623 16.354-.756 1.146H31.05zm6.803-15.109l-5.572 13.486h11.858l-6.286-13.486z" fill="#fff"/><path d="M38.338 34.437h-.104c-3.472-.031-5.457-1.456-6.512-2.646-1.155-1.305-1.469-2.622-1.482-2.677l-.182-.792 1.621-.356.182.787c.044.18 1.049 4.014 6.387 4.06 2.276.02 4.035-.702 5.237-2.145.88-1.057 1.129-2.128 1.132-2.139l.17-.793 1.627.333-.17.793c-.013.06-.322 1.454-1.469 2.829-1.046 1.258-3.01 2.746-6.437 2.746zM8.474 10.37c-1.238 0-2.584-.453-4.075-1.667l-.639-.52 1.066-1.245.638.52c2.892 2.355 4.836 1.036 7.297-.633.398-.27.81-.55 1.23-.812.14-.09.284-.182.427-.276 1.47-.959 3.301-2.152 6.794-1.186l.8.221-.454 1.56-.799-.221c-2.755-.762-4.048.08-5.417.973-.152.098-.3.196-.45.29-.394.249-.794.52-1.18.782-1.57 1.064-3.266 2.214-5.238 2.214zm6.888 19.086L.983 29.455l-.756-1.146L7.85 11.955l1.527.032 6.757 16.355-.772 1.114zM2.273 27.833l11.858.001-5.572-13.486-6.286 13.485z" fill="#fff"/><path d="M8.077 34.437c-3.428 0-5.392-1.488-6.439-2.744C.492 30.317.182 28.923.17 28.864L0 28.072l1.627-.333.17.794c.04.173 1.037 4.328 6.37 4.283 5.398-.046 6.376-4.016 6.386-4.056l.183-.792 1.622.356-.183.791c-.013.056-.327 1.372-1.482 2.677-1.054 1.19-3.04 2.616-6.512 2.646h-.104z" fill="#fff"/></svg>