<svg width="40" height="42" fill="none" xmlns="http://www.w3.org/2000/svg"><path d="M39.394 16.408H24.121V.62c0-.372-.242-.621-.606-.621H2.485c-.364 0-.606.249-.606.621v17.34c0 .373.242.622.606.622s.606-.249.606-.622V1.243h19.818v34.742H5.88V33.56c2.606-.31 4.666-2.61 4.666-5.345 0-2.797-4.303-8.95-4.787-9.633a.62.62 0 00-.97 0C4.303 19.204 0 25.419 0 28.153c0 2.798 2.06 5.097 4.667 5.346v6.215l-4.061.062c-.364 0-.606.249-.606.621 0 .373.242.622.606.622h38.788c.364 0 .606-.249.606-.622V17.03c0-.373-.242-.621-.606-.621zM5.273 28.03c-.364 0-.606.248-.606.621v3.667c-1.94-.31-3.455-2.051-3.455-4.164 0-1.802 2.606-6.029 4.06-8.204 1.455 2.175 4.061 6.464 4.061 8.204a4.12 4.12 0 01-3.454 4.102V28.65c0-.373-.243-.621-.606-.621zm17.636 11.746H5.88v-2.548h17.03v2.548zm10.667 0h-4.243v-9.509h4.243v9.509zm5.212 0h-4v-10.13c0-.373-.243-.622-.606-.622h-5.455c-.363 0-.606.249-.606.622v10.13h-4V17.651h14.667v22.125z" fill="#fff"/><path d="M6.303 9.447h4.666c.364 0 .607-.249.607-.622v-4.91c0-.373-.243-.621-.607-.621H6.303c-.364 0-.606.249-.606.621v4.91c0 .373.303.622.606.622zm.606-4.91h3.454v3.667H6.91V4.537zm8.061 4.91h4.667c.363 0 .606-.249.606-.622v-4.91c0-.373-.243-.621-.606-.621H14.97c-.364 0-.606.249-.606.621v4.91c0 .373.303.622.606.622zm.606-4.91h3.454v3.667h-3.454V4.537zM6.303 17.588h4.666c.364 0 .607-.248.607-.621v-4.91c0-.373-.243-.621-.607-.621H6.303c-.364 0-.606.248-.606.621v4.91c0 .373.242.622.606.622zm.606-4.847h3.454v3.667H6.91V12.74zm7.455 4.226c0 .373.242.622.606.622h4.667c.363 0 .606-.25.606-.622v-4.91c0-.373-.243-.621-.606-.621H14.97c-.364 0-.606.248-.606.621v4.91zm1.212-4.226h3.454v3.667h-3.454V12.74zm-1.212 12.243c0 .373.242.622.606.622h4.667c.363 0 .606-.249.606-.622v-4.91c0-.372-.243-.62-.606-.62H14.97c-.364 0-.606.248-.606.62v4.91zm1.212-4.288h3.454v3.667h-3.454v-3.667zm-1.212 12.306c0 .373.242.621.606.621h4.667c.363 0 .606-.248.606-.621v-4.91c0-.373-.243-.621-.606-.621H14.97c-.364 0-.606.248-.606.62v4.91zm1.212-4.289h3.454v3.667h-3.454v-3.667zm10.788-3.543h3.94c.363 0 .605-.248.605-.62v-4.04c0-.373-.242-.622-.606-.622h-3.94c-.363 0-.605.249-.605.622v4.04c0 .372.303.62.606.62zm.606-4.039h2.727v2.797H26.97V21.13zm5.757 4.039h3.94c.363 0 .605-.248.605-.62v-4.04c0-.373-.242-.622-.605-.622h-3.94c-.363 0-.606.249-.606.622v4.04c0 .372.242.62.606.62zm.606-4.039h2.727v2.797h-2.727V21.13z" fill="#fff"/></svg>