<svg width="34" height="42" fill="none" xmlns="http://www.w3.org/2000/svg"><path d="M32.903 5.325h-7.748a12.974 12.974 0 00-4.549-3.896A12.63 12.63 0 0014.84.032a.637.637 0 00-.457.194.67.67 0 00-.188.467v4.632h-.646V2.678a.67.67 0 00-.189-.468.637.637 0 00-.456-.193C5.79 2.017 0 7.953 0 15.249a13.499 13.499 0 001.73 6.613 13.08 13.08 0 004.722 4.842V40.39a.67.67 0 00.189.468.637.637 0 00.456.194h21.935c.171 0 .335-.07.457-.194l3.87-3.97a.67.67 0 00.19-.467V5.986a.67.67 0 00-.19-.468.637.637 0 00-.456-.193zm-17.42-3.952a11.5 11.5 0 017.564 3.474 12.065 12.065 0 013.387 7.755h-10.95V1.373zM1.29 15.25c0-6.345 4.864-11.546 10.968-11.891v11.89a.67.67 0 00.189.468.637.637 0 00.456.194h11.595c-.336 6.26-5.408 11.247-11.595 11.247C6.5 27.157 1.29 21.815 1.29 15.25zm28.387 23.543v-1.71h1.669l-1.669 1.71zm2.581-3.034h-3.226a.637.637 0 00-.456.194.67.67 0 00-.189.468v3.308H7.742V27.375a12.563 12.563 0 005.161 1.106c7.115 0 12.903-5.937 12.903-13.232a.67.67 0 00-.189-.468.637.637 0 00-.456-.194H13.548v-7.94h.646v6.617a.67.67 0 00.188.468.637.637 0 00.457.193h12.258c.17 0 .335-.07.456-.193a.67.67 0 00.189-.468 13.413 13.413 0 00-1.732-6.616h6.248v29.11z" fill="#fff"/><path d="M18.71 31.789H9.677a.637.637 0 00-.456.193.67.67 0 000 .936.637.637 0 00.456.194h9.033a.64.64 0 00.456-.194.67.67 0 000-.936.637.637 0 00-.456-.193zm-3.871 1.984H9.677a.637.637 0 00-.456.194.67.67 0 000 .936.637.637 0 00.456.194h5.162a.64.64 0 00.456-.194.67.67 0 000-.936.637.637 0 00-.456-.194zm2.581 0h-.646a.637.637 0 00-.456.194.67.67 0 000 .936.637.637 0 00.456.194h.645c.171 0 .335-.07.456-.194a.67.67 0 000-.936.637.637 0 00-.456-.194zm3.87-.661h9.033a.64.64 0 00.456-.194.67.67 0 000-.936.637.637 0 00-.456-.193H21.29a.637.637 0 00-.456.193.67.67 0 000 .936.637.637 0 00.456.194zm0-1.985h9.033a.64.64 0 00.456-.194.67.67 0 000-.935.637.637 0 00-.456-.194H21.29a.637.637 0 00-.456.194.67.67 0 000 .935.637.637 0 00.456.194zm0-1.985h9.033a.64.64 0 00.456-.194.67.67 0 000-.935.637.637 0 00-.456-.194H21.29a.637.637 0 00-.456.194.67.67 0 000 .935.637.637 0 00.456.194zm5.161 4.631h-5.16a.637.637 0 00-.457.194.67.67 0 000 .936.637.637 0 00.456.194h5.162a.64.64 0 00.456-.194.67.67 0 000-.936.637.637 0 00-.457-.194zm1.936 1.324h.645c.172 0 .336-.07.457-.194a.67.67 0 000-.936.637.637 0 00-.457-.194h-.645a.637.637 0 00-.456.194.67.67 0 000 .936.637.637 0 00.456.194z" fill="#fff"/></svg>