<svg width="41" height="42" fill="none" xmlns="http://www.w3.org/2000/svg"><path d="M20.833 41.018H2.5c-1.378 0-2.5-1.15-2.5-2.563v-1.71c0-1.413 1.122-2.563 2.5-2.563h18.333c1.379 0 2.5 1.15 2.5 2.563v1.71c0 1.413-1.121 2.563-2.5 2.563zM2.5 35.891a.845.845 0 00-.833.854v1.71c0 .47.373.854.833.854h18.333c.46 0 .834-.384.834-.854v-1.71a.846.846 0 00-.834-.854H2.5zm15.322-14.309c-.388 0-.76-.116-1.066-.43l-5.85-6c-1.024-1.05.101-2.864.47-3.459.691-1.114 1.768-2.444 3.035-3.743 1.268-1.302 2.566-2.41 3.653-3.12.583-.38 2.355-1.534 3.378-.485l5.85 6c1.025 1.05-.103 2.87-.473 3.466-.693 1.116-1.773 2.447-3.043 3.748-1.267 1.299-2.564 2.403-3.649 3.11-.405.267-1.396.913-2.305.913zm2.444-16.028c-.292.012-2.12.984-4.67 3.597-2.55 2.616-3.5 4.492-3.44 4.916l5.78 5.876c.293-.012 2.121-.985 4.673-3.6 2.453-2.517 3.423-4.348 3.44-4.86l-5.783-5.93z" fill="#fff"/><path d="M15.005 25.498c-.636 0-1.275-.25-1.76-.747l-5.85-6a2.561 2.561 0 01-.728-1.802c0-.682.258-1.323.73-1.805l1.17-1.2a2.447 2.447 0 013.518 0l5.85 6a2.6 2.6 0 010 3.607l-1.17 1.2a2.455 2.455 0 01-1.76.747zm-4.68-10.592c-.21 0-.42.084-.581.248l-1.169 1.198a.846.846 0 00-.241.597c0 .225.085.435.241.596l5.85 6a.81.81 0 001.162 0l1.17-1.2a.86.86 0 000-1.192l-5.85-5.999a.816.816 0 00-.582-.248zm17.551-2.608c-.637 0-1.275-.25-1.76-.747l-5.85-5.999a2.598 2.598 0 010-3.606l1.17-1.2a2.447 2.447 0 013.518 0l5.85 6a2.6 2.6 0 010 3.607l-1.17 1.2a2.447 2.447 0 01-1.758.745zM23.196 1.71c-.21 0-.42.082-.582.246l-1.17 1.2a.857.857 0 000 1.19l5.85 5.999a.812.812 0 001.162 0l1.17-1.199a.86.86 0 000-1.19l-5.85-6a.807.807 0 00-.58-.246zm7.018 8.04h.017-.017zm6.614 24.437c-1.005 0-2.086-.59-3.236-1.77-1.15-1.178-7.912-8.81-12.109-13.884a.867.867 0 01.097-1.203.817.817 0 011.175.099c4.377 5.291 11.022 12.762 12.015 13.78 1.877 1.929 2.608 1.178 3.045.734.2-.205.475-.486.513-.887.057-.583-.368-1.356-1.226-2.238-.985-1.011-8.259-7.815-13.439-12.324a.867.867 0 01-.096-1.203.817.817 0 011.175-.1c4.968 4.323 12.401 11.248 13.541 12.42 1.242 1.272 1.817 2.49 1.707 3.614-.098 1.007-.703 1.627-.993 1.924-.677.693-1.4 1.038-2.169 1.038z" fill="#fff"/></svg>