<svg width="20" height="23" viewBox="0 0 20 23" fill="none" xmlns="http://www.w3.org/2000/svg">
<path d="M19 9.52563C19 16.4062 10 22.3038 10 22.3038C10 22.3038 1 16.4062 1 9.52563C1 7.17941 1.94821 4.92929 3.63604 3.27026C5.32387 1.61123 7.61305 0.679199 10 0.679199C12.3869 0.679199 14.6761 1.61123 16.364 3.27026C18.0518 4.92929 19 7.17941 19 9.52563Z" stroke="#D64E00" stroke-linecap="round" stroke-linejoin="round"/>
<path d="M10.001 12.4742C11.6578 12.4742 13.001 11.154 13.001 9.52545C13.001 7.89688 11.6578 6.57666 10.001 6.57666C8.34412 6.57666 7.00098 7.89688 7.00098 9.52545C7.00098 11.154 8.34412 12.4742 10.001 12.4742Z" stroke="#D64E00" stroke-linecap="round" stroke-linejoin="round"/>
</svg>
