<svg width="15" height="15" viewBox="0 0 15 15" fill="none" xmlns="http://www.w3.org/2000/svg">
<path d="M7.5 0C6.01664 0 4.56659 0.439867 3.33323 1.26398C2.09986 2.08809 1.13856 3.25943 0.570907 4.62987C0.00324953 6.00032 -0.145275 7.50832 0.144114 8.96317C0.433503 10.418 1.14781 11.7544 2.1967 12.8033C3.2456 13.8522 4.58197 14.5665 6.03682 14.8559C7.49168 15.1453 8.99968 14.9967 10.3701 14.4291C11.7406 13.8614 12.9119 12.9001 13.736 11.6668C14.5601 10.4334 15 8.98336 15 7.5C14.9978 5.51156 14.2069 3.60521 12.8008 2.19918C11.3948 0.793139 9.48844 0.00224313 7.5 0ZM7.5 14.4C6.13531 14.4 4.80127 13.9953 3.66657 13.2371C2.53187 12.479 1.64748 11.4013 1.12523 10.1405C0.60299 8.8797 0.466347 7.49234 0.732585 6.15387C0.998823 4.81541 1.65598 3.58594 2.62097 2.62096C3.58595 1.65598 4.81541 0.998819 6.15388 0.732581C7.49235 0.466343 8.87971 0.602986 10.1405 1.12523C11.4013 1.64748 12.479 2.53187 13.2371 3.66656C13.9953 4.80126 14.4 6.13531 14.4 7.5C14.3979 9.32936 13.6703 11.0832 12.3768 12.3768C11.0832 13.6703 9.32936 14.3979 7.5 14.4ZM4.80023 7.49962C4.80026 8.06629 4.97857 8.61858 5.3099 9.07828C5.64124 9.53798 6.1088 9.88179 6.64637 10.061C7.18395 10.2402 7.76428 10.2458 8.30519 10.0769C8.84609 9.90799 9.32015 9.5732 9.66023 9.11992C9.70824 9.05694 9.77921 9.01549 9.85767 9.00463C9.93612 8.99377 10.0157 9.01437 10.079 9.06194C10.1423 9.10951 10.1843 9.18019 10.1957 9.25856C10.2071 9.33694 10.1871 9.41664 10.1399 9.4803C9.72425 10.0342 9.14485 10.4433 8.48378 10.6497C7.8227 10.856 7.11345 10.8492 6.45649 10.6301C5.79952 10.411 5.22813 9.99079 4.82323 9.42895C4.41834 8.86711 4.20046 8.19212 4.20046 7.49959C4.20046 6.80705 4.41834 6.13206 4.82323 5.57022C5.22813 5.00838 5.79952 4.58816 6.45649 4.36907C7.11345 4.14998 7.8227 4.14313 8.48378 4.34949C9.14485 4.55585 9.72425 4.96496 10.1399 5.51887C10.1877 5.58249 10.2083 5.66248 10.1971 5.74127C10.186 5.82006 10.1439 5.89118 10.0803 5.93899C10.0167 5.98679 9.93673 6.00737 9.85794 5.9962C9.77916 5.98503 9.70803 5.94301 9.66023 5.8794C9.32016 5.42613 8.8461 5.09134 8.30521 4.92244C7.76431 4.75353 7.18398 4.75908 6.64641 4.9383C6.10884 5.11751 5.64127 5.46131 5.30993 5.921C4.97859 6.38069 4.80027 6.93297 4.80023 7.49962Z" fill="#DBE4E9"/>
</svg>
