<svg width="81" height="126" viewBox="0 0 81 126" fill="none" xmlns="http://www.w3.org/2000/svg">
<g opacity="0.1">
<path d="M60.3579 110.308C54.7679 102.785 42.3188 79.3731 42.3188 79.3731C39.5187 74.5033 35.0795 68.6143 31.9831 66.8525C45.8708 66.8525 56.5148 51.6648 56.5148 34.4389C56.5148 13.7063 45.7903 0.999962 28.289 0.999962L1 1.00208V6.545C3.01405 6.61462 20.4948 6.19263 27.7683 6.68214C38.5202 7.40797 45.3279 17.7152 45.6824 33.8059C45.7697 37.7073 45.4015 40.4566 44.7644 42.9485C40.6661 58.9717 29.7156 61.1724 22.2246 61.4235C17.8779 61.5691 14.5931 61.4826 14.5931 61.4826V63.1283C19.868 63.1283 24.0811 69.2916 27.8574 75.1341C28.9655 76.8496 45.2406 107.535 46.8795 109.949C51.4214 116.629 58.6573 124.944 72.0979 124.944H79.9983L80 123.763C71.5139 123.678 66.1688 118.125 60.3579 110.308Z" fill="#FD7615" stroke="#DBE4E9" stroke-width="0.295628" stroke-miterlimit="10"/>
</g>
</svg>
