<svg width="14" height="17" viewBox="0 0 14 17" fill="none" xmlns="http://www.w3.org/2000/svg">
<path d="M13.2727 7.13636C13.2727 11.9091 7.13636 16 7.13636 16C7.13636 16 1 11.9091 1 7.13636C1 5.5089 1.64651 3.94809 2.7973 2.7973C3.94809 1.64651 5.5089 1 7.13636 1C8.76383 1 10.3246 1.64651 11.4754 2.7973C12.6262 3.94809 13.2727 5.5089 13.2727 7.13636Z" stroke="#F1FAFC" stroke-linecap="round" stroke-linejoin="round"/>
<path d="M7.13627 9.18173C8.26595 9.18173 9.18173 8.26595 9.18173 7.13627C9.18173 6.0066 8.26595 5.09082 7.13627 5.09082C6.0066 5.09082 5.09082 6.0066 5.09082 7.13627C5.09082 8.26595 6.0066 9.18173 7.13627 9.18173Z" stroke="#F1FAFC" stroke-linecap="round" stroke-linejoin="round"/>
</svg>
