<svg width="328" height="419" viewBox="0 0 328 419" fill="none" xmlns="http://www.w3.org/2000/svg">
<path d="M246.44 369.436C223.204 344.006 171.569 264.892 171.569 264.892C159.951 248.41 141.527 228.513 128.618 222.627C186.238 222.627 230.48 171.297 230.48 113.021C230.48 42.9713 186.004 0 113.245 0H0V18.719C8.33202 18.9545 80.9733 17.5417 111.133 19.1899C155.727 21.6623 184.009 56.5103 185.534 110.901C185.886 124.087 184.361 133.388 181.779 141.747C164.763 195.902 119.347 203.319 88.2491 204.143C70.1768 204.614 56.5639 204.379 56.5639 204.379V209.912C78.5088 209.912 95.9943 230.75 111.602 250.529C116.179 256.298 183.774 360.017 190.58 368.258C209.474 390.863 239.516 419 295.259 419H328V414.997C292.794 414.644 270.615 395.925 246.44 369.436Z" fill="white" fill-opacity="0.2"/>
</svg>
