<svg width="180" height="72" viewBox="0 0 180 72" fill="none" xmlns="http://www.w3.org/2000/svg">
<path d="M9.00164 58.9256C9.07137 58.8821 9.13435 58.8011 9.19283 58.6826C9.25056 58.5642 9.2798 58.3887 9.2798 58.157V56.1859H6.0109V58.157C6.0109 58.3887 6.04014 58.5642 6.09787 58.6826C6.15561 58.8011 6.22008 58.8806 6.28906 58.9211C6.35879 58.9615 6.39327 58.9765 6.39327 58.9645H5.01074C5.01074 58.9825 5.04673 58.969 5.11571 58.9256C5.18543 58.8821 5.24766 58.8011 5.30239 58.6826C5.35713 58.5642 5.38487 58.3887 5.38487 58.157V53.7986C5.38487 53.5669 5.35713 53.3923 5.30239 53.273C5.24766 53.1546 5.18543 53.0751 5.11571 53.0346C5.04673 52.9941 5.01074 52.9799 5.01074 52.9911H6.39327C6.39327 52.9799 6.35879 52.9941 6.28906 53.0346C6.22008 53.0751 6.15561 53.1546 6.09787 53.273C6.04014 53.3923 6.0109 53.5669 6.0109 53.7986V55.8043H9.2798V53.7986C9.2798 53.5669 9.25056 53.3923 9.19283 53.273C9.13435 53.1546 9.07137 53.0751 9.00164 53.0346C8.93192 52.9941 8.89743 52.9799 8.89743 52.9911H10.2792C10.2792 52.9739 10.2447 52.9866 10.175 53.0301C10.106 53.0736 10.043 53.1546 9.98831 53.273C9.93283 53.3923 9.90584 53.5669 9.90584 53.7986V58.157C9.90584 58.3887 9.93433 58.5642 9.99281 58.6826C10.0505 58.8011 10.1143 58.8806 10.184 58.9211C10.253 58.9615 10.2882 58.9765 10.2882 58.9645H8.89743C8.89743 58.9825 8.93192 58.969 9.00164 58.9256Z" fill="#D64E00"/>
<path d="M9.00164 58.9256C9.07137 58.8821 9.13435 58.8011 9.19283 58.6826C9.25056 58.5642 9.2798 58.3887 9.2798 58.157V56.1859H6.0109V58.157C6.0109 58.3887 6.04014 58.5642 6.09787 58.6826C6.15561 58.8011 6.22008 58.8806 6.28906 58.9211C6.35879 58.9615 6.39327 58.9765 6.39327 58.9645H5.01074C5.01074 58.9825 5.04673 58.969 5.11571 58.9256C5.18543 58.8821 5.24766 58.8011 5.30239 58.6826C5.35713 58.5642 5.38487 58.3887 5.38487 58.157V53.7986C5.38487 53.5669 5.35713 53.3923 5.30239 53.273C5.24766 53.1546 5.18543 53.0751 5.11571 53.0346C5.04673 52.9941 5.01074 52.9799 5.01074 52.9911H6.39327C6.39327 52.9799 6.35879 52.9941 6.28906 53.0346C6.22008 53.0751 6.15561 53.1546 6.09787 53.273C6.04014 53.3923 6.0109 53.5669 6.0109 53.7986V55.8043H9.2798V53.7986C9.2798 53.5669 9.25056 53.3923 9.19283 53.273C9.13435 53.1546 9.07137 53.0751 9.00164 53.0346C8.93192 52.9941 8.89743 52.9799 8.89743 52.9911H10.2792C10.2792 52.9739 10.2447 52.9866 10.175 53.0301C10.106 53.0736 10.043 53.1546 9.98831 53.273C9.93283 53.3923 9.90584 53.5669 9.90584 53.7986V58.157C9.90584 58.3887 9.93433 58.5642 9.99281 58.6826C10.0505 58.8011 10.1143 58.8806 10.184 58.9211C10.253 58.9615 10.2882 58.9765 10.2882 58.9645H8.89743C8.89743 58.9825 8.93192 58.969 9.00164 58.9256Z" stroke="#D64E00" stroke-width="0.109008" stroke-miterlimit="10" stroke-linejoin="round"/>
<path d="M16.1841 56.8898C16.1841 57.3471 16.0972 57.7393 15.9232 58.0662C15.7493 58.3931 15.5041 58.642 15.1885 58.8129C14.8721 58.9831 14.5054 59.0686 14.0878 59.0686C13.398 59.0686 12.8642 58.8782 12.4871 58.4958C12.11 58.1141 11.9218 57.5848 11.9218 56.907V53.7992C11.9218 53.5683 11.894 53.3928 11.8393 53.2736C11.7838 53.1559 11.7231 53.0757 11.6564 53.0352C11.5904 52.9947 11.5566 52.9805 11.5566 52.9917H12.9137C12.9137 52.9805 12.88 52.9947 12.8132 53.0352C12.7465 53.0757 12.6858 53.1537 12.631 53.2699C12.5763 53.3853 12.5478 53.5533 12.5478 53.773V56.907C12.5478 57.4686 12.6828 57.9027 12.9519 58.2094C13.2226 58.516 13.6185 58.6697 14.1396 58.6697C14.6209 58.6697 15.001 58.5235 15.2792 58.2311C15.5581 57.9387 15.6968 57.5061 15.6968 56.9333V53.7992C15.6968 53.5683 15.6683 53.3928 15.6098 53.2736C15.5521 53.1559 15.4884 53.0757 15.4186 53.0352C15.3489 52.9947 15.3144 52.9805 15.3144 52.9917H16.5673C16.5673 52.9805 16.532 52.9947 16.4623 53.0352C16.3926 53.0757 16.3288 53.1559 16.2711 53.2736C16.2134 53.3928 16.1841 53.5683 16.1841 53.7992V56.8898Z" fill="#D64E00"/>
<path d="M16.1841 56.8898C16.1841 57.3471 16.0972 57.7393 15.9232 58.0662C15.7493 58.3931 15.5041 58.642 15.1885 58.8129C14.8721 58.9831 14.5054 59.0686 14.0878 59.0686C13.398 59.0686 12.8642 58.8782 12.4871 58.4958C12.11 58.1141 11.9218 57.5848 11.9218 56.907V53.7992C11.9218 53.5683 11.894 53.3928 11.8393 53.2736C11.7838 53.1559 11.7231 53.0757 11.6564 53.0352C11.5904 52.9947 11.5566 52.9805 11.5566 52.9917H12.9137C12.9137 52.9805 12.88 52.9947 12.8132 53.0352C12.7465 53.0757 12.6858 53.1537 12.631 53.2699C12.5763 53.3853 12.5478 53.5533 12.5478 53.773V56.907C12.5478 57.4686 12.6828 57.9027 12.9519 58.2094C13.2226 58.516 13.6185 58.6697 14.1396 58.6697C14.6209 58.6697 15.001 58.5235 15.2792 58.2311C15.5581 57.9387 15.6968 57.5061 15.6968 56.9333V53.7992C15.6968 53.5683 15.6683 53.3928 15.6098 53.2736C15.5521 53.1559 15.4884 53.0757 15.4186 53.0352C15.3489 52.9947 15.3144 52.9805 15.3144 52.9917H16.5673C16.5673 52.9805 16.532 52.9947 16.4623 53.0352C16.3926 53.0757 16.3288 53.1559 16.2711 53.2736C16.2134 53.3928 16.1841 53.5683 16.1841 53.7992V56.8898Z" stroke="#D64E00" stroke-width="0.109008" stroke-miterlimit="10" stroke-linejoin="round"/>
<path d="M23.2678 52.9915C23.1868 53.0087 23.1074 53.0739 23.0294 53.1864C22.9507 53.2996 22.9117 53.4983 22.9117 53.7817V59.2063L18.4656 54.0246V58.1821C18.4656 58.4595 18.5151 58.6545 18.6133 58.7677C18.7115 58.8801 18.8075 58.9454 18.9005 58.9634H17.6753C17.7563 58.9454 17.8395 58.8801 17.9235 58.7677C18.0075 58.6545 18.0495 58.4573 18.0495 58.1731V53.8335C18.0495 53.637 17.9827 53.4571 17.8493 53.2959C17.7166 53.1332 17.5486 53.0319 17.3462 52.9915H18.4229L22.4948 57.7398V53.7817C22.4948 53.3356 22.3449 53.0724 22.0435 52.9915H23.2678Z" fill="#D64E00"/>
<path d="M23.2678 52.9915C23.1868 53.0087 23.1074 53.0739 23.0294 53.1864C22.9507 53.2996 22.9117 53.4983 22.9117 53.7817V59.2063L18.4656 54.0246V58.1821C18.4656 58.4595 18.5151 58.6545 18.6133 58.7677C18.7115 58.8801 18.8075 58.9454 18.9005 58.9634H17.6753C17.7563 58.9454 17.8395 58.8801 17.9235 58.7677C18.0075 58.6545 18.0495 58.4573 18.0495 58.1731V53.8335C18.0495 53.637 17.9827 53.4571 17.8493 53.2959C17.7166 53.1332 17.5486 53.0319 17.3462 52.9915H18.4229L22.4948 57.7398V53.7817C22.4948 53.3356 22.3449 53.0724 22.0435 52.9915H23.2678Z" stroke="#D64E00" stroke-width="0.109008" stroke-miterlimit="10" stroke-linejoin="round"/>
<path d="M24.4718 53.4863C24.3031 53.5846 24.1817 53.709 24.106 53.8597L24.2274 52.9915H28.3578L28.48 53.8597C28.4043 53.709 28.282 53.5846 28.1141 53.4863C27.9454 53.3881 27.7332 53.3386 27.4776 53.3386H26.6064V58.1574C26.6064 58.3891 26.6356 58.5653 26.6933 58.6875C26.7518 58.809 26.8155 58.8899 26.8853 58.9304C26.955 58.9702 26.9895 58.9829 26.9895 58.9649H25.6047C25.6047 58.9829 25.6392 58.9702 25.7089 58.9304C25.7786 58.8899 25.8416 58.8105 25.8964 58.6912C25.9518 58.5728 25.9788 58.3951 25.9788 58.1574V53.3386H25.1076C24.852 53.3386 24.6405 53.3881 24.4718 53.4863Z" fill="#D64E00"/>
<path d="M24.4718 53.4863C24.3031 53.5846 24.1817 53.709 24.106 53.8597L24.2274 52.9915H28.3578L28.48 53.8597C28.4043 53.709 28.282 53.5846 28.1141 53.4863C27.9454 53.3881 27.7332 53.3386 27.4776 53.3386H26.6064V58.1574C26.6064 58.3891 26.6356 58.5653 26.6933 58.6875C26.7518 58.809 26.8155 58.8899 26.8853 58.9304C26.955 58.9702 26.9895 58.9829 26.9895 58.9649H25.6047C25.6047 58.9829 25.6392 58.9702 25.7089 58.9304C25.7786 58.8899 25.8416 58.8105 25.8964 58.6912C25.9518 58.5728 25.9788 58.3951 25.9788 58.1574V53.3386H25.1076C24.852 53.3386 24.6405 53.3881 24.4718 53.4863Z" stroke="#D64E00" stroke-width="0.109008" stroke-miterlimit="10" stroke-linejoin="round"/>
<path d="M29.3013 58.9655C29.3013 58.9827 29.3358 58.97 29.4062 58.9265C29.4752 58.883 29.5382 58.796 29.5937 58.6656C29.6491 58.5359 29.6769 58.3462 29.6769 58.0972V53.8341C29.6769 53.5971 29.6491 53.4157 29.5937 53.2912C29.5382 53.1668 29.4752 53.082 29.4062 53.0356C29.3358 52.9891 29.3013 52.9748 29.3013 52.9913H32.4659V53.8603C32.3609 53.5132 32.046 53.3392 31.5212 53.3392H30.3067V55.8052H31.8106C31.9268 55.8052 32.0258 55.7865 32.1075 55.749C32.1892 55.7107 32.2499 55.6717 32.2912 55.6313C32.3317 55.5908 32.3549 55.5653 32.3609 55.5533V56.3953C32.3549 56.384 32.3317 56.3578 32.2912 56.3173C32.2499 56.2768 32.1907 56.2393 32.112 56.2048C32.0333 56.1696 31.9358 56.1524 31.8189 56.1524H30.3067V58.6183H31.6704C31.9328 58.6183 32.1585 58.5644 32.3474 58.4579C32.5371 58.3507 32.6728 58.2135 32.7545 58.0448L32.5971 58.9655H29.3013Z" fill="#D64E00"/>
<path d="M29.3013 58.9655C29.3013 58.9827 29.3358 58.97 29.4062 58.9265C29.4752 58.883 29.5382 58.796 29.5937 58.6656C29.6491 58.5359 29.6769 58.3462 29.6769 58.0972V53.8341C29.6769 53.5971 29.6491 53.4157 29.5937 53.2912C29.5382 53.1668 29.4752 53.082 29.4062 53.0356C29.3358 52.9891 29.3013 52.9748 29.3013 52.9913H32.4659V53.8603C32.3609 53.5132 32.046 53.3392 31.5212 53.3392H30.3067V55.8052H31.8106C31.9268 55.8052 32.0258 55.7865 32.1075 55.749C32.1892 55.7107 32.2499 55.6717 32.2912 55.6313C32.3317 55.5908 32.3549 55.5653 32.3609 55.5533V56.3953C32.3549 56.384 32.3317 56.3578 32.2912 56.3173C32.2499 56.2768 32.1907 56.2393 32.112 56.2048C32.0333 56.1696 31.9358 56.1524 31.8189 56.1524H30.3067V58.6183H31.6704C31.9328 58.6183 32.1585 58.5644 32.3474 58.4579C32.5371 58.3507 32.6728 58.2135 32.7545 58.0448L32.5971 58.9655H29.3013Z" stroke="#D64E00" stroke-width="0.109008" stroke-miterlimit="10" stroke-linejoin="round"/>
<path d="M36.2899 55.775C36.4871 55.6506 36.6363 55.4886 36.7382 55.2892C36.8395 55.089 36.8897 54.879 36.8897 54.6594C36.8897 54.4337 36.8425 54.2207 36.7465 54.0213C36.6505 53.8219 36.5043 53.6577 36.3071 53.531C36.1092 53.4028 35.8686 53.339 35.5844 53.339H34.8444V58.1668C34.8444 58.3985 34.8729 58.5739 34.9314 58.6924C34.9899 58.8108 35.0536 58.8896 35.1233 58.927C35.1923 58.9645 35.2275 58.9773 35.2275 58.966H33.8428C33.8428 58.9773 33.8773 58.963 33.947 58.9225C34.0175 58.8821 34.0797 58.8041 34.1344 58.6879C34.1899 58.5724 34.2169 58.3985 34.2169 58.1668V53.8256C34.2169 53.5879 34.1899 53.4072 34.1344 53.2835C34.0797 53.1583 34.0175 53.0744 33.947 53.0309C33.8773 52.9881 33.8428 52.9746 33.8428 52.9919H35.5672C36.0192 52.9919 36.3926 53.0661 36.6858 53.2131C36.9789 53.3615 37.1911 53.552 37.3215 53.7866C37.452 54.0213 37.5172 54.277 37.5172 54.5551C37.5172 54.7868 37.4617 55.014 37.3515 55.2367C37.2413 55.4594 37.0831 55.6536 36.8777 55.8185C36.6708 55.9835 36.4316 56.0974 36.1587 56.1611L36.0192 56.1874L37.5525 58.1323C37.7556 58.358 37.9236 58.5319 38.057 58.6534C38.1905 58.7748 38.2879 58.8558 38.3487 58.8963C38.4101 58.9368 38.4454 58.96 38.4581 58.966H37.4385L35.0708 55.9617H35.5934C35.8603 55.9617 36.092 55.8995 36.2899 55.775Z" fill="#D64E00"/>
<path d="M36.2899 55.775C36.4871 55.6506 36.6363 55.4886 36.7382 55.2892C36.8395 55.089 36.8897 54.879 36.8897 54.6594C36.8897 54.4337 36.8425 54.2207 36.7465 54.0213C36.6505 53.8219 36.5043 53.6577 36.3071 53.531C36.1092 53.4028 35.8686 53.339 35.5844 53.339H34.8444V58.1668C34.8444 58.3985 34.8729 58.5739 34.9314 58.6924C34.9899 58.8108 35.0536 58.8896 35.1233 58.927C35.1923 58.9645 35.2275 58.9773 35.2275 58.966H33.8428C33.8428 58.9773 33.8773 58.963 33.947 58.9225C34.0175 58.8821 34.0797 58.8041 34.1344 58.6879C34.1899 58.5724 34.2169 58.3985 34.2169 58.1668V53.8256C34.2169 53.5879 34.1899 53.4072 34.1344 53.2835C34.0797 53.1583 34.0175 53.0744 33.947 53.0309C33.8773 52.9881 33.8428 52.9746 33.8428 52.9919H35.5672C36.0192 52.9919 36.3926 53.0661 36.6858 53.2131C36.9789 53.3615 37.1911 53.552 37.3215 53.7866C37.452 54.0213 37.5172 54.277 37.5172 54.5551C37.5172 54.7868 37.4617 55.014 37.3515 55.2367C37.2413 55.4594 37.0831 55.6536 36.8777 55.8185C36.6708 55.9835 36.4316 56.0974 36.1587 56.1611L36.0192 56.1874L37.5525 58.1323C37.7556 58.358 37.9236 58.5319 38.057 58.6534C38.1905 58.7748 38.2879 58.8558 38.3487 58.8963C38.4101 58.9368 38.4454 58.96 38.4581 58.966H37.4385L35.0708 55.9617H35.5934C35.8603 55.9617 36.092 55.8995 36.2899 55.775V55.775Z" stroke="#D64E00" stroke-width="0.109008" stroke-miterlimit="10" stroke-linejoin="round"/>
<path d="M41.6582 60.1124H42.0706V51.8634H41.6582V60.1124Z" fill="#B4B9BC"/>
<path d="M87.2251 60.1124H87.6383V51.8634H87.2251V60.1124Z" fill="#B4B9BC"/>
<path d="M125.946 60.1124H126.359V51.8634H125.946V60.1124Z" fill="#B4B9BC"/>
<path d="M48.7945 55.5058C48.6348 55.7689 48.4061 55.9759 48.1092 56.1266C47.8123 56.2773 47.4637 56.3523 47.0611 56.3523C46.8174 56.3523 46.5558 56.3268 46.2761 56.2743V58.1675C46.2761 58.3931 46.3054 58.5656 46.3631 58.684C46.4208 58.8025 46.4853 58.882 46.5558 58.9225C46.6248 58.963 46.66 58.978 46.66 58.966H45.2715C45.2715 58.978 45.3067 58.963 45.3764 58.9225C45.4462 58.882 45.5092 58.804 45.5639 58.6885C45.6201 58.5723 45.6471 58.3991 45.6471 58.1675V53.8173C45.6471 53.5856 45.6201 53.4094 45.5639 53.2872C45.5092 53.1657 45.4462 53.0833 45.3764 53.0398C45.3067 52.997 45.2715 52.9805 45.2715 52.9918H46.9831C47.28 52.9918 47.5244 53.0113 47.7164 53.0488C47.9083 53.0863 48.0778 53.1432 48.2225 53.2182C48.4841 53.3509 48.685 53.5436 48.8252 53.7955C48.9654 54.0475 49.0344 54.3181 49.0344 54.6075C49.0344 54.9427 48.955 55.2426 48.7945 55.5058ZM47.978 53.7213C47.7216 53.4671 47.382 53.3397 46.9569 53.3397H46.2761V55.9354C46.5265 55.9819 46.7882 56.0051 47.0611 56.0051C47.4682 56.0051 47.7884 55.8881 48.017 55.6535C48.2479 55.4195 48.3627 55.1076 48.3627 54.72C48.3627 54.3091 48.2345 53.9762 47.978 53.7213Z" fill="#D64E00"/>
<path d="M48.7945 55.5058C48.6348 55.7689 48.4061 55.9759 48.1092 56.1266C47.8123 56.2773 47.4637 56.3523 47.0611 56.3523C46.8174 56.3523 46.5558 56.3268 46.2761 56.2743V58.1675C46.2761 58.3931 46.3054 58.5656 46.3631 58.684C46.4208 58.8025 46.4853 58.882 46.5558 58.9225C46.6248 58.963 46.66 58.978 46.66 58.966H45.2715C45.2715 58.978 45.3067 58.963 45.3764 58.9225C45.4462 58.882 45.5092 58.804 45.5639 58.6885C45.6201 58.5723 45.6471 58.3991 45.6471 58.1675V53.8173C45.6471 53.5856 45.6201 53.4094 45.5639 53.2872C45.5092 53.1657 45.4462 53.0833 45.3764 53.0398C45.3067 52.997 45.2715 52.9805 45.2715 52.9918H46.9831C47.28 52.9918 47.5244 53.0113 47.7164 53.0488C47.9083 53.0863 48.0778 53.1432 48.2225 53.2182C48.4841 53.3509 48.685 53.5436 48.8252 53.7955C48.9654 54.0475 49.0344 54.3181 49.0344 54.6075C49.0344 54.9427 48.955 55.2426 48.7945 55.5058ZM47.978 53.7213C47.7216 53.4671 47.382 53.3397 46.9569 53.3397H46.2761V55.9354C46.5265 55.9819 46.7882 56.0051 47.0611 56.0051C47.4682 56.0051 47.7884 55.8881 48.017 55.6535C48.2479 55.4195 48.3627 55.1076 48.3627 54.72C48.3627 54.3091 48.2345 53.9762 47.978 53.7213V53.7213Z" stroke="#D64E00" stroke-width="0.109008" stroke-miterlimit="10" stroke-linejoin="round"/>
<path d="M50.0848 58.926C50.1567 58.8826 50.222 58.8016 50.2819 58.6831C50.3412 58.5647 50.3712 58.3892 50.3712 58.1575V53.7991C50.3712 53.5674 50.3427 53.3927 50.2857 53.2735C50.2287 53.1551 50.165 53.0756 50.0937 53.0351C50.0225 52.9946 49.9865 52.9804 49.9865 52.9916H51.4095C51.4095 52.9804 51.3736 52.9946 51.3023 53.0351C51.2304 53.0756 51.1644 53.1551 51.1052 53.2735C51.0452 53.3927 51.0152 53.5674 51.0152 53.7991V58.1575C51.0152 58.3892 51.0452 58.5647 51.1052 58.6831C51.1644 58.8016 51.2304 58.8811 51.3023 58.9215C51.3736 58.962 51.4095 58.977 51.4095 58.965H49.9775C49.9775 58.983 50.0128 58.9695 50.0848 58.926Z" fill="#D64E00"/>
<path d="M50.0848 58.926C50.1567 58.8826 50.222 58.8016 50.2819 58.6831C50.3412 58.5647 50.3712 58.3892 50.3712 58.1575V53.7991C50.3712 53.5674 50.3427 53.3927 50.2857 53.2735C50.2287 53.1551 50.165 53.0756 50.0937 53.0351C50.0225 52.9946 49.9865 52.9804 49.9865 52.9916H51.4095C51.4095 52.9804 51.3736 52.9946 51.3023 53.0351C51.2304 53.0756 51.1644 53.1551 51.1052 53.2735C51.0452 53.3927 51.0152 53.5674 51.0152 53.7991V58.1575C51.0152 58.3892 51.0452 58.5647 51.1052 58.6831C51.1644 58.8016 51.2304 58.8811 51.3023 58.9215C51.3736 58.962 51.4095 58.977 51.4095 58.965H49.9775C49.9775 58.983 50.0128 58.9695 50.0848 58.926Z" stroke="#D64E00" stroke-width="0.109008" stroke-miterlimit="10" stroke-linejoin="round"/>
<path d="M58.2642 52.9913C58.1832 53.0086 58.1037 53.0738 58.0257 53.1863C57.947 53.2995 57.908 53.4982 57.908 53.7816V59.2062L53.4627 54.0245V58.182C53.4627 58.4594 53.5114 58.6543 53.6096 58.7676C53.7079 58.88 53.8038 58.9453 53.8968 58.9633H52.6717C52.7527 58.9453 52.8351 58.88 52.9191 58.7676C53.0031 58.6543 53.0451 58.4572 53.0451 58.173V53.8333C53.0451 53.6369 52.9783 53.4569 52.8456 53.2957C52.7122 53.133 52.5442 53.0318 52.3418 52.9913H53.4185L57.4912 57.7396V53.7816C57.4912 53.3355 57.3405 53.0723 57.0398 52.9913H58.2642Z" fill="#D64E00"/>
<path d="M58.2642 52.9913C58.1832 53.0086 58.1037 53.0738 58.0257 53.1863C57.947 53.2995 57.908 53.4982 57.908 53.7816V59.2062L53.4627 54.0245V58.182C53.4627 58.4594 53.5114 58.6543 53.6096 58.7676C53.7079 58.88 53.8038 58.9453 53.8968 58.9633H52.6717C52.7527 58.9453 52.8351 58.88 52.9191 58.7676C53.0031 58.6543 53.0451 58.4572 53.0451 58.173V53.8333C53.0451 53.6369 52.9783 53.4569 52.8456 53.2957C52.7122 53.133 52.5442 53.0318 52.3418 52.9913H53.4185L57.4912 57.7396V53.7816C57.4912 53.3355 57.3405 53.0723 57.0398 52.9913H58.2642Z" stroke="#D64E00" stroke-width="0.109008" stroke-miterlimit="10" stroke-linejoin="round"/>
<path d="M63.4838 58.8874C63.1299 59.0088 62.7738 59.0696 62.4139 59.0696C61.8748 59.0696 61.3732 58.9451 60.9084 58.6962C60.4443 58.448 60.0724 58.0889 59.7912 57.6203C59.5093 57.1509 59.3691 56.6013 59.3691 55.9708C59.3691 55.3807 59.4981 54.8506 59.756 54.382C60.0147 53.9134 60.3821 53.5475 60.8611 53.2844C61.3395 53.0212 61.8973 52.8892 62.5353 52.8892C63.2146 52.8892 63.8167 53.0369 64.3445 53.3316V54.2951C64.1653 53.9771 63.9044 53.7245 63.5617 53.5363C63.2199 53.3481 62.8547 53.2536 62.4656 53.2536C61.9723 53.2536 61.5457 53.3698 61.1828 53.6008C60.8199 53.8324 60.5432 54.1496 60.3521 54.5515C60.1601 54.9541 60.0649 55.404 60.0649 55.9018C60.0649 56.4626 60.1736 56.9515 60.391 57.3684C60.6092 57.7852 60.9031 58.1046 61.2743 58.3273C61.6454 58.5507 62.06 58.6617 62.5181 58.6617C63.2543 58.6617 63.8639 58.448 64.3445 58.0192V58.436C64.1248 58.6152 63.8369 58.7659 63.4838 58.8874Z" fill="#D64E00"/>
<path d="M63.4838 58.8874C63.1299 59.0088 62.7738 59.0696 62.4139 59.0696C61.8748 59.0696 61.3732 58.9451 60.9084 58.6962C60.4443 58.448 60.0724 58.0889 59.7912 57.6203C59.5093 57.1509 59.3691 56.6013 59.3691 55.9708C59.3691 55.3807 59.4981 54.8506 59.756 54.382C60.0147 53.9134 60.3821 53.5475 60.8611 53.2844C61.3395 53.0212 61.8973 52.8892 62.5353 52.8892C63.2146 52.8892 63.8167 53.0369 64.3445 53.3316V54.2951C64.1653 53.9771 63.9044 53.7245 63.5617 53.5363C63.2199 53.3481 62.8547 53.2536 62.4656 53.2536C61.9723 53.2536 61.5457 53.3698 61.1828 53.6008C60.8199 53.8324 60.5432 54.1496 60.3521 54.5515C60.1601 54.9541 60.0649 55.404 60.0649 55.9018C60.0649 56.4626 60.1736 56.9515 60.391 57.3684C60.6092 57.7852 60.9031 58.1046 61.2743 58.3273C61.6454 58.5507 62.06 58.6617 62.5181 58.6617C63.2543 58.6617 63.8639 58.448 64.3445 58.0192V58.436C64.1248 58.6152 63.8369 58.7659 63.4838 58.8874Z" stroke="#D64E00" stroke-width="0.109008" stroke-miterlimit="10" stroke-linejoin="round"/>
<path d="M69.5951 58.926C69.6649 58.8826 69.7286 58.8016 69.7863 58.6831C69.8441 58.5647 69.8733 58.3892 69.8733 58.1575V56.1864H66.6044V58.1575C66.6044 58.3892 66.6336 58.5647 66.6914 58.6831C66.7498 58.8016 66.8136 58.8811 66.8826 58.9215C66.9523 58.962 66.9868 58.977 66.9868 58.965H65.605C65.605 58.983 65.6402 58.9695 65.7092 58.926C65.7789 58.8826 65.8412 58.8016 65.8959 58.6831C65.9506 58.5647 65.9784 58.3892 65.9784 58.1575V53.7991C65.9784 53.5674 65.9506 53.3928 65.8959 53.2735C65.8412 53.1551 65.7789 53.0756 65.7092 53.0351C65.6402 52.9946 65.605 52.9804 65.605 52.9916H66.9868C66.9868 52.9804 66.9523 52.9946 66.8826 53.0351C66.8136 53.0756 66.7498 53.1551 66.6914 53.2735C66.6336 53.3928 66.6044 53.5674 66.6044 53.7991V55.8048H69.8733V53.7991C69.8733 53.5674 69.8441 53.3928 69.7863 53.2735C69.7286 53.1551 69.6649 53.0756 69.5951 53.0351C69.5254 52.9946 69.4909 52.9804 69.4909 52.9916H70.8727C70.8727 52.9744 70.8382 52.9871 70.7685 53.0306C70.6995 53.0741 70.6373 53.1551 70.5818 53.2735C70.5271 53.3928 70.4993 53.5674 70.4993 53.7991V58.1575C70.4993 58.3892 70.5278 58.5647 70.5863 58.6831C70.644 58.8016 70.7078 58.8811 70.7775 58.9215C70.8472 58.962 70.8817 58.977 70.8817 58.965H69.4909C69.4909 58.983 69.5254 58.9695 69.5951 58.926Z" fill="#D64E00"/>
<path d="M69.5951 58.926C69.6649 58.8826 69.7286 58.8016 69.7863 58.6831C69.8441 58.5647 69.8733 58.3892 69.8733 58.1575V56.1864H66.6044V58.1575C66.6044 58.3892 66.6336 58.5647 66.6914 58.6831C66.7498 58.8016 66.8136 58.8811 66.8826 58.9215C66.9523 58.962 66.9868 58.977 66.9868 58.965H65.605C65.605 58.983 65.6402 58.9695 65.7092 58.926C65.7789 58.8826 65.8412 58.8016 65.8959 58.6831C65.9506 58.5647 65.9784 58.3892 65.9784 58.1575V53.7991C65.9784 53.5674 65.9506 53.3928 65.8959 53.2735C65.8412 53.1551 65.7789 53.0756 65.7092 53.0351C65.6402 52.9946 65.605 52.9804 65.605 52.9916H66.9868C66.9868 52.9804 66.9523 52.9946 66.8826 53.0351C66.8136 53.0756 66.7498 53.1551 66.6914 53.2735C66.6336 53.3928 66.6044 53.5674 66.6044 53.7991V55.8048H69.8733V53.7991C69.8733 53.5674 69.8441 53.3928 69.7863 53.2735C69.7286 53.1551 69.6649 53.0756 69.5951 53.0351C69.5254 52.9946 69.4909 52.9804 69.4909 52.9916H70.8727C70.8727 52.9744 70.8382 52.9871 70.7685 53.0306C70.6995 53.0741 70.6373 53.1551 70.5818 53.2735C70.5271 53.3928 70.4993 53.5674 70.4993 53.7991V58.1575C70.4993 58.3892 70.5278 58.5647 70.5863 58.6831C70.644 58.8016 70.7078 58.8811 70.7775 58.9215C70.8472 58.962 70.8817 58.977 70.8817 58.965H69.4909C69.4909 58.983 69.5254 58.9695 69.5951 58.926Z" stroke="#D64E00" stroke-width="0.109008" stroke-miterlimit="10" stroke-linejoin="round"/>
<path d="M73.2419 56.6479L72.6863 58.0282C72.5993 58.2419 72.5559 58.4189 72.5559 58.5576C72.5559 58.7488 72.6428 58.8845 72.8168 58.9655H71.5752C71.6329 58.9655 71.7161 58.9077 71.8264 58.7915C71.9366 58.676 72.064 58.4474 72.2087 58.1062L74.4752 52.7161L76.7252 58.1317C76.8519 58.4444 76.9756 58.6588 77.0941 58.7743C77.2125 58.8897 77.307 58.9535 77.3767 58.9655H75.9342C76.0797 58.8957 76.1516 58.7893 76.1516 58.6446C76.1516 58.5231 76.1051 58.3491 76.0122 58.1235L75.4049 56.6479H73.2419ZM75.2662 56.2925L74.3193 53.975L73.3896 56.2925H75.2662Z" fill="#D64E00"/>
<path d="M73.2419 56.6479L72.6863 58.0282C72.5993 58.2419 72.5559 58.4189 72.5559 58.5576C72.5559 58.7488 72.6428 58.8845 72.8168 58.9655H71.5752C71.6329 58.9655 71.7161 58.9077 71.8264 58.7915C71.9366 58.676 72.064 58.4474 72.2087 58.1062L74.4752 52.7161L76.7252 58.1317C76.8519 58.4444 76.9756 58.6588 77.0941 58.7743C77.2125 58.8897 77.307 58.9535 77.3767 58.9655H75.9342C76.0797 58.8957 76.1516 58.7893 76.1516 58.6446C76.1516 58.5231 76.1051 58.3491 76.0122 58.1235L75.4049 56.6479H73.2419ZM75.2662 56.2925L74.3193 53.975L73.3896 56.2925H75.2662Z" stroke="#D64E00" stroke-width="0.109008" stroke-miterlimit="10" stroke-linejoin="round"/>
<path d="M78.7769 58.9436C78.4972 58.8596 78.2461 58.7419 78.0249 58.592V57.5416C78.1764 57.9292 78.408 58.2231 78.7199 58.4225C79.0318 58.6227 79.3564 58.7224 79.6946 58.7224C80.0327 58.7224 80.3161 58.6107 80.5433 58.388C80.7705 58.1654 80.8844 57.8887 80.8844 57.5588C80.8844 57.3391 80.8387 57.1509 80.748 56.995C80.658 56.8383 80.5133 56.6928 80.3161 56.5564C80.1174 56.4206 79.8378 56.2684 79.4764 56.1005C78.9688 55.8696 78.6 55.6281 78.3705 55.3762C78.1396 55.1243 78.0249 54.8191 78.0249 54.4607C78.0249 54.1533 78.0991 53.8804 78.2476 53.6398C78.3968 53.3998 78.597 53.2146 78.8511 53.0842C79.1045 52.9545 79.3827 52.8892 79.6863 52.8892C79.948 52.8892 80.2044 52.9252 80.4548 52.998C80.706 53.0699 80.9392 53.1726 81.1543 53.3061V54.2433C81.0149 53.9254 80.8034 53.678 80.5215 53.501C80.2381 53.3248 79.951 53.2364 79.6601 53.2364C79.3272 53.2364 79.0595 53.3436 78.8556 53.5573C78.6517 53.7717 78.5497 54.0266 78.5497 54.3213C78.5497 54.5357 78.6105 54.7187 78.7327 54.8724C78.8556 55.0261 79.0056 55.155 79.1833 55.2585C79.3609 55.3627 79.6106 55.4902 79.9315 55.6409C80.2576 55.7968 80.5253 55.9415 80.7352 56.0743C80.9452 56.2077 81.1198 56.3817 81.26 56.5953C81.3995 56.8098 81.47 57.0699 81.47 57.3766C81.47 57.7237 81.386 58.0252 81.2203 58.2801C81.0546 58.5342 80.8327 58.7299 80.556 58.8656C80.2794 59.0014 79.978 59.0696 79.6511 59.0696C79.3482 59.0696 79.0565 59.0276 78.7769 58.9436Z" fill="#D64E00"/>
<path d="M78.7769 58.9436C78.4972 58.8596 78.2461 58.7419 78.0249 58.592V57.5416C78.1764 57.9292 78.408 58.2231 78.7199 58.4225C79.0318 58.6227 79.3564 58.7224 79.6946 58.7224C80.0327 58.7224 80.3161 58.6107 80.5433 58.388C80.7705 58.1654 80.8844 57.8887 80.8844 57.5588C80.8844 57.3391 80.8387 57.1509 80.748 56.995C80.658 56.8383 80.5133 56.6928 80.3161 56.5564C80.1174 56.4206 79.8378 56.2684 79.4764 56.1005C78.9688 55.8696 78.6 55.6281 78.3705 55.3762C78.1396 55.1243 78.0249 54.8191 78.0249 54.4607C78.0249 54.1533 78.0991 53.8804 78.2476 53.6398C78.3968 53.3998 78.597 53.2146 78.8511 53.0842C79.1045 52.9545 79.3827 52.8892 79.6863 52.8892C79.948 52.8892 80.2044 52.9252 80.4548 52.998C80.706 53.0699 80.9392 53.1726 81.1543 53.3061V54.2433C81.0149 53.9254 80.8034 53.678 80.5215 53.501C80.2381 53.3248 79.951 53.2364 79.6601 53.2364C79.3272 53.2364 79.0595 53.3436 78.8556 53.5573C78.6517 53.7717 78.5497 54.0266 78.5497 54.3213C78.5497 54.5357 78.6105 54.7187 78.7327 54.8724C78.8556 55.0261 79.0056 55.155 79.1833 55.2585C79.3609 55.3627 79.6106 55.4902 79.9315 55.6409C80.2576 55.7968 80.5253 55.9415 80.7352 56.0743C80.9452 56.2077 81.1198 56.3817 81.26 56.5953C81.3995 56.8098 81.47 57.0699 81.47 57.3766C81.47 57.7237 81.386 58.0252 81.2203 58.2801C81.0546 58.5342 80.8327 58.7299 80.556 58.8656C80.2794 59.0014 79.978 59.0696 79.6511 59.0696C79.3482 59.0696 79.0565 59.0276 78.7769 58.9436Z" stroke="#D64E00" stroke-width="0.109008" stroke-miterlimit="10" stroke-linejoin="round"/>
<path d="M82.6998 58.926C82.7717 58.8826 82.837 58.8016 82.8969 58.6831C82.9562 58.5647 82.9862 58.3892 82.9862 58.1575V53.7991C82.9862 53.5674 82.9584 53.3927 82.9014 53.2735C82.8445 53.1551 82.78 53.0756 82.7088 53.0351C82.6375 52.9946 82.6015 52.9804 82.6015 52.9916H84.0245C84.0245 52.9804 83.9885 52.9946 83.9173 53.0351C83.8453 53.0756 83.7794 53.1551 83.7201 53.2735C83.6609 53.3927 83.6309 53.5674 83.6309 53.7991V58.1575C83.6309 58.3892 83.6609 58.5647 83.7201 58.6831C83.7794 58.8016 83.8453 58.8811 83.9173 58.9215C83.9885 58.962 84.0245 58.977 84.0245 58.965H82.5918C82.5918 58.983 82.6285 58.9695 82.6998 58.926Z" fill="#D64E00"/>
<path d="M82.6998 58.926C82.7717 58.8826 82.837 58.8016 82.8969 58.6831C82.9562 58.5647 82.9862 58.3892 82.9862 58.1575V53.7991C82.9862 53.5674 82.9584 53.3927 82.9014 53.2735C82.8445 53.1551 82.78 53.0756 82.7088 53.0351C82.6375 52.9946 82.6015 52.9804 82.6015 52.9916H84.0245C84.0245 52.9804 83.9885 52.9946 83.9173 53.0351C83.8453 53.0756 83.7794 53.1551 83.7201 53.2735C83.6609 53.3927 83.6309 53.5674 83.6309 53.7991V58.1575C83.6309 58.3892 83.6609 58.5647 83.7201 58.6831C83.7794 58.8016 83.8453 58.8811 83.9173 58.9215C83.9885 58.962 84.0245 58.977 84.0245 58.965H82.5918C82.5918 58.983 82.6285 58.9695 82.6998 58.926Z" stroke="#D64E00" stroke-width="0.109008" stroke-miterlimit="10" stroke-linejoin="round"/>
<path d="M91.0301 53.8608V52.9925H95.4521L91.8308 58.6188H94.5119C94.7728 58.6188 94.9978 58.5655 95.186 58.4583C95.3749 58.3511 95.5098 58.2139 95.5908 58.046L95.4341 58.9667H90.8389L94.4684 53.3397H91.9702C91.4484 53.3397 91.1343 53.5136 91.0301 53.8608Z" fill="#D64E00"/>
<path d="M91.0301 53.8608V52.9925H95.4521L91.8308 58.6188H94.5119C94.7728 58.6188 94.9978 58.5655 95.186 58.4583C95.3749 58.3511 95.5098 58.2139 95.5908 58.046L95.4341 58.9667H90.8389L94.4684 53.3397H91.9702C91.4484 53.3397 91.1343 53.5136 91.0301 53.8608Z" stroke="#D64E00" stroke-width="0.109008" stroke-miterlimit="10" stroke-linejoin="round"/>
<path d="M99.1259 55.775C99.3223 55.6505 99.4723 55.4886 99.5743 55.2892C99.6755 55.089 99.7257 54.879 99.7257 54.6594C99.7257 54.4337 99.6777 54.2207 99.5825 54.0213C99.4865 53.8219 99.3403 53.6577 99.1432 53.531C98.9452 53.4027 98.7046 53.339 98.4204 53.339H97.6804V58.1668C97.6804 58.3985 97.7089 58.5739 97.7674 58.6924C97.8251 58.8108 97.8896 58.8896 97.9593 58.927C98.0283 58.9645 98.0635 58.9773 98.0635 58.966H96.6787C96.6787 58.9773 96.7139 58.963 96.7829 58.9225C96.8534 58.8821 96.9149 58.8041 96.9704 58.6879C97.0258 58.5724 97.0528 58.3985 97.0528 58.1668V53.8256C97.0528 53.5879 97.0258 53.4072 96.9704 53.2835C96.9149 53.1583 96.8534 53.0743 96.7829 53.0309C96.7139 52.9881 96.6787 52.9746 96.6787 52.9919H98.4024C98.856 52.9919 99.2286 53.0661 99.5218 53.2131C99.8142 53.3615 100.026 53.5519 100.157 53.7866C100.288 54.0213 100.353 54.277 100.353 54.5551C100.353 54.7868 100.298 55.014 100.188 55.2367C100.077 55.4594 99.9192 55.6535 99.7137 55.8185C99.5068 55.9834 99.2676 56.0974 98.9947 56.1611L98.856 56.1874L100.389 58.1323C100.592 58.358 100.76 58.5319 100.892 58.6534C101.027 58.7748 101.124 58.8558 101.185 58.8963C101.246 58.9368 101.281 58.96 101.293 58.966H100.275L97.9068 55.9617H98.4286C98.6963 55.9617 98.928 55.8995 99.1259 55.775Z" fill="#D64E00"/>
<path d="M99.1259 55.775C99.3223 55.6505 99.4723 55.4886 99.5743 55.2892C99.6755 55.089 99.7257 54.879 99.7257 54.6594C99.7257 54.4337 99.6777 54.2207 99.5825 54.0213C99.4865 53.8219 99.3403 53.6577 99.1432 53.531C98.9452 53.4027 98.7046 53.339 98.4204 53.339H97.6804V58.1668C97.6804 58.3985 97.7089 58.5739 97.7674 58.6924C97.8251 58.8108 97.8896 58.8896 97.9593 58.927C98.0283 58.9645 98.0635 58.9773 98.0635 58.966H96.6787C96.6787 58.9773 96.7139 58.963 96.7829 58.9225C96.8534 58.8821 96.9149 58.8041 96.9704 58.6879C97.0258 58.5724 97.0528 58.3985 97.0528 58.1668V53.8256C97.0528 53.5879 97.0258 53.4072 96.9704 53.2835C96.9149 53.1583 96.8534 53.0743 96.7829 53.0309C96.7139 52.9881 96.6787 52.9746 96.6787 52.9919H98.4024C98.856 52.9919 99.2286 53.0661 99.5218 53.2131C99.8142 53.3615 100.026 53.5519 100.157 53.7866C100.288 54.0213 100.353 54.277 100.353 54.5551C100.353 54.7868 100.298 55.014 100.188 55.2367C100.077 55.4594 99.9192 55.6535 99.7137 55.8185C99.5068 55.9834 99.2676 56.0974 98.9947 56.1611L98.856 56.1874L100.389 58.1323C100.592 58.358 100.76 58.5319 100.892 58.6534C101.027 58.7748 101.124 58.8558 101.185 58.8963C101.246 58.9368 101.281 58.96 101.293 58.966H100.275L97.9068 55.9617H98.4286C98.6963 55.9617 98.928 55.8995 99.1259 55.775V55.775Z" stroke="#D64E00" stroke-width="0.109008" stroke-miterlimit="10" stroke-linejoin="round"/>
<path d="M102.111 58.926C102.182 58.8826 102.248 58.8016 102.308 58.6831C102.367 58.5647 102.397 58.3892 102.397 58.1575V53.7991C102.397 53.5674 102.369 53.3927 102.312 53.2735C102.255 53.1551 102.191 53.0756 102.119 53.0351C102.049 52.9946 102.012 52.9804 102.012 52.9916H103.436C103.436 52.9804 103.4 52.9946 103.328 53.0351C103.256 53.0756 103.191 53.1551 103.131 53.2735C103.071 53.3927 103.042 53.5674 103.042 53.7991V58.1575C103.042 58.3892 103.071 58.5647 103.131 58.6831C103.191 58.8016 103.256 58.8811 103.328 58.9215C103.4 58.962 103.436 58.977 103.436 58.965H102.003C102.003 58.983 102.039 58.9695 102.111 58.926Z" fill="#D64E00"/>
<path d="M102.111 58.926C102.182 58.8826 102.248 58.8016 102.308 58.6831C102.367 58.5647 102.397 58.3892 102.397 58.1575V53.7991C102.397 53.5674 102.369 53.3927 102.312 53.2735C102.255 53.1551 102.191 53.0756 102.119 53.0351C102.049 52.9946 102.012 52.9804 102.012 52.9916H103.436C103.436 52.9804 103.4 52.9946 103.328 53.0351C103.256 53.0756 103.191 53.1551 103.131 53.2735C103.071 53.3927 103.042 53.5674 103.042 53.7991V58.1575C103.042 58.3892 103.071 58.5647 103.131 58.6831C103.191 58.8016 103.256 58.8811 103.328 58.9215C103.4 58.962 103.436 58.977 103.436 58.965H102.003C102.003 58.983 102.039 58.9695 102.111 58.926Z" stroke="#D64E00" stroke-width="0.109008" stroke-miterlimit="10" stroke-linejoin="round"/>
<path d="M108.686 58.926C108.755 58.8826 108.819 58.8016 108.877 58.6831C108.935 58.5647 108.964 58.3892 108.964 58.1575V56.1864H105.695V58.1575C105.695 58.3892 105.724 58.5647 105.782 58.6831C105.84 58.8016 105.904 58.8811 105.973 58.9215C106.043 58.962 106.078 58.977 106.078 58.965H104.696C104.696 58.983 104.73 58.9695 104.8 58.926C104.87 58.8826 104.932 58.8016 104.987 58.6831C105.042 58.5647 105.069 58.3892 105.069 58.1575V53.7991C105.069 53.5674 105.042 53.3928 104.987 53.2735C104.932 53.1551 104.87 53.0756 104.8 53.0351C104.73 52.9946 104.696 52.9804 104.696 52.9916H106.078C106.078 52.9804 106.043 52.9946 105.973 53.0351C105.904 53.0756 105.84 53.1551 105.782 53.2735C105.724 53.3928 105.695 53.5674 105.695 53.7991V55.8048H108.964V53.7991C108.964 53.5674 108.935 53.3928 108.877 53.2735C108.819 53.1551 108.755 53.0756 108.686 53.0351C108.616 52.9946 108.581 52.9804 108.581 52.9916H109.964C109.964 52.9744 109.93 52.9871 109.859 53.0306C109.79 53.0741 109.728 53.1551 109.673 53.2735C109.617 53.3928 109.59 53.5674 109.59 53.7991V58.1575C109.59 58.3892 109.619 58.5647 109.677 58.6831C109.735 58.8016 109.799 58.8811 109.868 58.9215C109.937 58.962 109.973 58.977 109.973 58.965H108.581C108.581 58.983 108.616 58.9695 108.686 58.926Z" fill="#D64E00"/>
<path d="M108.686 58.926C108.755 58.8826 108.819 58.8016 108.877 58.6831C108.935 58.5647 108.964 58.3892 108.964 58.1575V56.1864H105.695V58.1575C105.695 58.3892 105.724 58.5647 105.782 58.6831C105.84 58.8016 105.904 58.8811 105.973 58.9215C106.043 58.962 106.078 58.977 106.078 58.965H104.696C104.696 58.983 104.73 58.9695 104.8 58.926C104.87 58.8826 104.932 58.8016 104.987 58.6831C105.042 58.5647 105.069 58.3892 105.069 58.1575V53.7991C105.069 53.5674 105.042 53.3928 104.987 53.2735C104.932 53.1551 104.87 53.0756 104.8 53.0351C104.73 52.9946 104.696 52.9804 104.696 52.9916H106.078C106.078 52.9804 106.043 52.9946 105.973 53.0351C105.904 53.0756 105.84 53.1551 105.782 53.2735C105.724 53.3928 105.695 53.5674 105.695 53.7991V55.8048H108.964V53.7991C108.964 53.5674 108.935 53.3928 108.877 53.2735C108.819 53.1551 108.755 53.0756 108.686 53.0351C108.616 52.9946 108.581 52.9804 108.581 52.9916H109.964C109.964 52.9744 109.93 52.9871 109.859 53.0306C109.79 53.0741 109.728 53.1551 109.673 53.2735C109.617 53.3928 109.59 53.5674 109.59 53.7991V58.1575C109.59 58.3892 109.619 58.5647 109.677 58.6831C109.735 58.8016 109.799 58.8811 109.868 58.9215C109.937 58.962 109.973 58.977 109.973 58.965H108.581C108.581 58.983 108.616 58.9695 108.686 58.926Z" stroke="#D64E00" stroke-width="0.109008" stroke-miterlimit="10" stroke-linejoin="round"/>
<path d="M112.332 56.6479L111.776 58.0282C111.69 58.2419 111.645 58.4189 111.645 58.5576C111.645 58.7488 111.732 58.8845 111.906 58.9655H110.664C110.723 58.9655 110.807 58.9077 110.916 58.7915C111.026 58.676 111.154 58.4474 111.298 58.1062L113.566 52.7161L115.815 58.1317C115.942 58.4444 116.065 58.6588 116.184 58.7743C116.302 58.8897 116.397 58.9535 116.466 58.9655H115.024C115.169 58.8957 115.241 58.7893 115.241 58.6446C115.241 58.5231 115.195 58.3491 115.103 58.1235L114.495 56.6479H112.332ZM114.356 56.2925L113.409 53.975L112.48 56.2925H114.356Z" fill="#D64E00"/>
<path d="M112.332 56.6479L111.776 58.0282C111.69 58.2419 111.645 58.4189 111.645 58.5576C111.645 58.7488 111.732 58.8845 111.906 58.9655H110.664C110.723 58.9655 110.807 58.9077 110.916 58.7915C111.026 58.676 111.154 58.4474 111.298 58.1062L113.566 52.7161L115.815 58.1317C115.942 58.4444 116.065 58.6588 116.184 58.7743C116.302 58.8897 116.397 58.9535 116.466 58.9655H115.024C115.169 58.8957 115.241 58.7893 115.241 58.6446C115.241 58.5231 115.195 58.3491 115.103 58.1235L114.495 56.6479H112.332ZM114.356 56.2925L113.409 53.975L112.48 56.2925H114.356Z" stroke="#D64E00" stroke-width="0.109008" stroke-miterlimit="10" stroke-linejoin="round"/>
<path d="M122.745 52.9913C122.664 53.0086 122.585 53.0738 122.507 53.1863C122.429 53.2995 122.389 53.4982 122.389 53.7816V59.2062L117.943 54.0245V58.182C117.943 58.4594 117.993 58.6543 118.091 58.7676C118.189 58.88 118.285 58.9453 118.377 58.9633H117.154C117.234 58.9453 117.317 58.88 117.401 58.7676C117.484 58.6543 117.527 58.4572 117.527 58.173V53.8333C117.527 53.6369 117.46 53.4569 117.327 53.2957C117.194 53.133 117.026 53.0318 116.824 52.9913H117.9L121.972 57.7396V53.7816C121.972 53.3355 121.822 53.0723 121.521 52.9913H122.745Z" fill="#D64E00"/>
<path d="M122.745 52.9913C122.664 53.0086 122.585 53.0738 122.507 53.1863C122.429 53.2995 122.389 53.4982 122.389 53.7816V59.2062L117.943 54.0245V58.182C117.943 58.4594 117.993 58.6543 118.091 58.7676C118.189 58.88 118.285 58.9453 118.377 58.9633H117.154C117.234 58.9453 117.317 58.88 117.401 58.7676C117.484 58.6543 117.527 58.4572 117.527 58.173V53.8333C117.527 53.6369 117.46 53.4569 117.327 53.2957C117.194 53.133 117.026 53.0318 116.824 52.9913H117.9L121.972 57.7396V53.7816C121.972 53.3355 121.822 53.0723 121.521 52.9913H122.745Z" stroke="#D64E00" stroke-width="0.109008" stroke-miterlimit="10" stroke-linejoin="round"/>
<path d="M131.806 58.931C131.611 58.9542 131.341 58.9655 130.999 58.9655H129.559C129.634 58.9482 129.715 58.883 129.803 58.7705C129.891 58.6573 129.933 58.4391 129.933 58.1145V53.8168C129.933 53.5154 129.893 53.3092 129.812 53.196C129.73 53.0828 129.649 53.0153 129.568 52.9921H130.999C131.371 52.9921 131.655 53.0078 131.85 53.04C132.044 53.0715 132.215 53.1195 132.36 53.1825C132.616 53.3047 132.814 53.4749 132.953 53.6953C133.093 53.915 133.163 54.1527 133.163 54.4076C133.163 54.7952 133.045 55.1296 132.81 55.4101C132.574 55.6905 132.264 55.8719 131.881 55.9529C132.142 55.9821 132.39 56.0571 132.627 56.1786C132.862 56.3 133.054 56.465 133.202 56.6734C133.351 56.8818 133.425 57.1195 133.425 57.3857C133.425 57.7561 133.326 58.0582 133.128 58.2929C132.931 58.5268 132.663 58.7023 132.325 58.8185C132.174 58.8702 132.001 58.9077 131.806 58.931ZM131.706 53.4044C131.572 53.3609 131.391 53.3392 131.165 53.3392H130.562V55.8052H131.27C131.479 55.8052 131.653 55.7737 131.793 55.71C131.932 55.6462 132.055 55.5623 132.159 55.458C132.27 55.3478 132.357 55.2144 132.421 55.0584C132.486 54.9025 132.517 54.7428 132.517 54.5808C132.517 54.3844 132.481 54.1992 132.408 54.0252C132.336 53.8513 132.226 53.7096 132.081 53.5994C131.965 53.5131 131.839 53.4479 131.706 53.4044ZM131.854 56.2131C131.691 56.1726 131.47 56.1523 131.191 56.1523H130.562V58.6183H131.391C131.81 58.6183 132.138 58.5193 132.373 58.3229C132.609 58.1265 132.726 57.8138 132.726 57.3857C132.726 56.9861 132.572 56.6592 132.264 56.4042C132.153 56.3173 132.016 56.2535 131.854 56.2131Z" fill="#D64E00"/>
<path d="M131.806 58.931C131.611 58.9542 131.341 58.9655 130.999 58.9655H129.559C129.634 58.9482 129.715 58.883 129.803 58.7705C129.891 58.6573 129.933 58.4391 129.933 58.1145V53.8168C129.933 53.5154 129.893 53.3092 129.812 53.196C129.73 53.0828 129.649 53.0153 129.568 52.9921H130.999C131.371 52.9921 131.655 53.0078 131.85 53.04C132.044 53.0715 132.215 53.1195 132.36 53.1825C132.616 53.3047 132.814 53.4749 132.953 53.6953C133.093 53.915 133.163 54.1527 133.163 54.4076C133.163 54.7952 133.045 55.1296 132.81 55.4101C132.574 55.6905 132.264 55.8719 131.881 55.9529C132.142 55.9821 132.39 56.0571 132.627 56.1786C132.862 56.3 133.054 56.465 133.202 56.6734C133.351 56.8818 133.425 57.1195 133.425 57.3857C133.425 57.7561 133.326 58.0582 133.128 58.2929C132.931 58.5268 132.663 58.7023 132.325 58.8185C132.174 58.8702 132.001 58.9077 131.806 58.931ZM131.706 53.4044C131.572 53.3609 131.391 53.3392 131.165 53.3392H130.562V55.8052H131.27C131.479 55.8052 131.653 55.7737 131.793 55.71C131.932 55.6462 132.055 55.5623 132.159 55.458C132.27 55.3478 132.357 55.2144 132.421 55.0584C132.486 54.9025 132.517 54.7428 132.517 54.5808C132.517 54.3844 132.481 54.1992 132.408 54.0252C132.336 53.8513 132.226 53.7096 132.081 53.5994C131.965 53.5131 131.839 53.4479 131.706 53.4044ZM131.854 56.2131C131.691 56.1726 131.47 56.1523 131.191 56.1523H130.562V58.6183H131.391C131.81 58.6183 132.138 58.5193 132.373 58.3229C132.609 58.1265 132.726 57.8138 132.726 57.3857C132.726 56.9861 132.572 56.6592 132.264 56.4042C132.153 56.3173 132.016 56.2535 131.854 56.2131Z" stroke="#D64E00" stroke-width="0.109008" stroke-miterlimit="10" stroke-linejoin="round"/>
<path d="M134.651 58.9654C134.651 58.9826 134.686 58.9699 134.756 58.9264C134.825 58.8829 134.888 58.7959 134.944 58.6655C134.999 58.5357 135.027 58.3461 135.027 58.0971V53.8339C135.027 53.597 134.999 53.4156 134.944 53.2911C134.888 53.1667 134.825 53.0819 134.756 53.0354C134.686 52.989 134.651 52.9747 134.651 52.9912H137.816V53.8602C137.711 53.513 137.396 53.3391 136.871 53.3391H135.657V55.8051H137.161C137.277 55.8051 137.376 55.7863 137.458 55.7489C137.539 55.7106 137.6 55.6716 137.641 55.6311C137.682 55.5907 137.705 55.5652 137.711 55.5532V56.3952C137.705 56.3839 137.682 56.3577 137.641 56.3172C137.6 56.2767 137.541 56.2392 137.462 56.2047C137.383 56.1695 137.286 56.1522 137.169 56.1522H135.657V58.6182H137.021C137.283 58.6182 137.509 58.5642 137.698 58.4578C137.887 58.3505 138.023 58.2133 138.105 58.0446L137.947 58.9654H134.651Z" fill="#D64E00"/>
<path d="M134.651 58.9654C134.651 58.9826 134.686 58.9699 134.756 58.9264C134.825 58.8829 134.888 58.7959 134.944 58.6655C134.999 58.5357 135.027 58.3461 135.027 58.0971V53.8339C135.027 53.597 134.999 53.4156 134.944 53.2911C134.888 53.1667 134.825 53.0819 134.756 53.0354C134.686 52.989 134.651 52.9747 134.651 52.9912H137.816V53.8602C137.711 53.513 137.396 53.3391 136.871 53.3391H135.657V55.8051H137.161C137.277 55.8051 137.376 55.7863 137.458 55.7489C137.539 55.7106 137.6 55.6716 137.641 55.6311C137.682 55.5907 137.705 55.5652 137.711 55.5532V56.3952C137.705 56.3839 137.682 56.3577 137.641 56.3172C137.6 56.2767 137.541 56.2392 137.462 56.2047C137.383 56.1695 137.286 56.1522 137.169 56.1522H135.657V58.6182H137.021C137.283 58.6182 137.509 58.5642 137.698 58.4578C137.887 58.3505 138.023 58.2133 138.105 58.0446L137.947 58.9654H134.651Z" stroke="#D64E00" stroke-width="0.109008" stroke-miterlimit="10" stroke-linejoin="round"/>
<path d="M144.787 52.9913C144.707 53.0086 144.627 53.0738 144.549 53.1863C144.47 53.2995 144.431 53.4982 144.431 53.7816V59.2062L139.985 54.0245V58.182C139.985 58.4594 140.035 58.6543 140.133 58.7676C140.231 58.88 140.327 58.9453 140.419 58.9633H139.195C139.276 58.9453 139.359 58.88 139.443 58.7676C139.527 58.6543 139.568 58.4572 139.568 58.173V53.8333C139.568 53.6369 139.502 53.4569 139.369 53.2957C139.236 53.133 139.068 53.0318 138.865 52.9913H139.942L144.014 57.7396V53.7816C144.014 53.3355 143.864 53.0723 143.563 52.9913H144.787Z" fill="#D64E00"/>
<path d="M144.787 52.9913C144.707 53.0086 144.627 53.0738 144.549 53.1863C144.47 53.2995 144.431 53.4982 144.431 53.7816V59.2062L139.985 54.0245V58.182C139.985 58.4594 140.035 58.6543 140.133 58.7676C140.231 58.88 140.327 58.9453 140.419 58.9633H139.195C139.276 58.9453 139.359 58.88 139.443 58.7676C139.527 58.6543 139.568 58.4572 139.568 58.173V53.8333C139.568 53.6369 139.502 53.4569 139.369 53.2957C139.236 53.133 139.068 53.0318 138.865 52.9913H139.942L144.014 57.7396V53.7816C144.014 53.3355 143.864 53.0723 143.563 52.9913H144.787Z" stroke="#D64E00" stroke-width="0.109008" stroke-miterlimit="10" stroke-linejoin="round"/>
<path d="M148.275 58.9654C148.275 58.9826 148.31 58.9699 148.38 58.9264C148.45 58.8829 148.513 58.7959 148.568 58.6655C148.623 58.5357 148.651 58.3461 148.651 58.0971V53.8339C148.651 53.597 148.623 53.4156 148.568 53.2911C148.513 53.1667 148.45 53.0819 148.38 53.0354C148.31 52.989 148.275 52.9747 148.275 52.9912H151.44V53.8602C151.335 53.513 151.02 53.3391 150.495 53.3391H149.281V55.8051H150.785C150.901 55.8051 151 55.7863 151.082 55.7489C151.163 55.7106 151.224 55.6716 151.265 55.6311C151.306 55.5907 151.329 55.5652 151.335 55.5532V56.3952C151.329 56.3839 151.306 56.3577 151.265 56.3172C151.224 56.2767 151.165 56.2392 151.086 56.2047C151.007 56.1695 150.91 56.1522 150.793 56.1522H149.281V58.6182H150.645C150.907 58.6182 151.133 58.5642 151.322 58.4578C151.511 58.3505 151.647 58.2133 151.728 58.0446L151.571 58.9654H148.275Z" fill="#D64E00"/>
<path d="M148.275 58.9654C148.275 58.9826 148.31 58.9699 148.38 58.9264C148.45 58.8829 148.513 58.7959 148.568 58.6655C148.623 58.5357 148.651 58.3461 148.651 58.0971V53.8339C148.651 53.597 148.623 53.4156 148.568 53.2911C148.513 53.1667 148.45 53.0819 148.38 53.0354C148.31 52.989 148.275 52.9747 148.275 52.9912H151.44V53.8602C151.335 53.513 151.02 53.3391 150.495 53.3391H149.281V55.8051H150.785C150.901 55.8051 151 55.7863 151.082 55.7489C151.163 55.7106 151.224 55.6716 151.265 55.6311C151.306 55.5907 151.329 55.5652 151.335 55.5532V56.3952C151.329 56.3839 151.306 56.3577 151.265 56.3172C151.224 56.2767 151.165 56.2392 151.086 56.2047C151.007 56.1695 150.91 56.1522 150.793 56.1522H149.281V58.6182H150.645C150.907 58.6182 151.133 58.5642 151.322 58.4578C151.511 58.3505 151.647 58.2133 151.728 58.0446L151.571 58.9654H148.275Z" stroke="#D64E00" stroke-width="0.109008" stroke-miterlimit="10" stroke-linejoin="round"/>
<path d="M152.776 53.8608V52.9925H157.197L153.577 58.6188H156.258C156.519 58.6188 156.743 58.5655 156.932 58.4583C157.12 58.3511 157.256 58.2139 157.337 58.046L157.18 58.9667H152.584L156.214 53.3397H153.715C153.194 53.3397 152.88 53.5136 152.776 53.8608Z" fill="#D64E00"/>
<path d="M152.776 53.8608V52.9925H157.197L153.577 58.6188H156.258C156.519 58.6188 156.743 58.5655 156.932 58.4583C157.12 58.3511 157.256 58.2139 157.337 58.046L157.18 58.9667H152.584L156.214 53.3397H153.715C153.194 53.3397 152.88 53.5136 152.776 53.8608Z" stroke="#D64E00" stroke-width="0.109008" stroke-miterlimit="10" stroke-linejoin="round"/>
<path d="M160.871 55.775C161.068 55.6505 161.218 55.4886 161.32 55.2892C161.422 55.089 161.472 54.879 161.472 54.6594C161.472 54.4337 161.424 54.2207 161.329 54.0213C161.233 53.8219 161.086 53.6577 160.889 53.531C160.691 53.4027 160.45 53.339 160.166 53.339H159.426V58.1668C159.426 58.3985 159.455 58.5739 159.513 58.6924C159.571 58.8108 159.635 58.8896 159.705 58.927C159.774 58.9645 159.809 58.9773 159.809 58.966H158.425C158.425 58.9773 158.459 58.963 158.529 58.9225C158.599 58.8821 158.661 58.8041 158.716 58.6879C158.771 58.5724 158.799 58.3985 158.799 58.1668V53.8256C158.799 53.5879 158.771 53.4072 158.716 53.2835C158.661 53.1583 158.599 53.0743 158.529 53.0309C158.459 52.9881 158.425 52.9746 158.425 52.9919H160.148C160.601 52.9919 160.975 53.0661 161.267 53.2131C161.56 53.3615 161.772 53.5519 161.903 53.7866C162.034 54.0213 162.099 54.277 162.099 54.5551C162.099 54.7868 162.043 55.014 161.934 55.2367C161.823 55.4594 161.664 55.6535 161.459 55.8185C161.253 55.9834 161.013 56.0974 160.74 56.1611L160.601 56.1874L162.134 58.1323C162.337 58.358 162.505 58.5319 162.638 58.6534C162.772 58.7748 162.869 58.8558 162.93 58.8963C162.992 58.9368 163.028 58.96 163.04 58.966H162.021L159.652 55.9617H160.175C160.442 55.9617 160.674 55.8995 160.871 55.775Z" fill="#D64E00"/>
<path d="M160.871 55.775C161.068 55.6505 161.218 55.4886 161.32 55.2892C161.422 55.089 161.472 54.879 161.472 54.6594C161.472 54.4337 161.424 54.2207 161.329 54.0213C161.233 53.8219 161.086 53.6577 160.889 53.531C160.691 53.4027 160.45 53.339 160.166 53.339H159.426V58.1668C159.426 58.3985 159.455 58.5739 159.513 58.6924C159.571 58.8108 159.635 58.8896 159.705 58.927C159.774 58.9645 159.809 58.9773 159.809 58.966H158.425C158.425 58.9773 158.459 58.963 158.529 58.9225C158.599 58.8821 158.661 58.8041 158.716 58.6879C158.771 58.5724 158.799 58.3985 158.799 58.1668V53.8256C158.799 53.5879 158.771 53.4072 158.716 53.2835C158.661 53.1583 158.599 53.0743 158.529 53.0309C158.459 52.9881 158.425 52.9746 158.425 52.9919H160.148C160.601 52.9919 160.975 53.0661 161.267 53.2131C161.56 53.3615 161.772 53.5519 161.903 53.7866C162.034 54.0213 162.099 54.277 162.099 54.5551C162.099 54.7868 162.043 55.014 161.934 55.2367C161.823 55.4594 161.664 55.6535 161.459 55.8185C161.253 55.9834 161.013 56.0974 160.74 56.1611L160.601 56.1874L162.134 58.1323C162.337 58.358 162.505 58.5319 162.638 58.6534C162.772 58.7748 162.869 58.8558 162.93 58.8963C162.992 58.9368 163.028 58.96 163.04 58.966H162.021L159.652 55.9617H160.175C160.442 55.9617 160.674 55.8995 160.871 55.775V55.775Z" stroke="#D64E00" stroke-width="0.109008" stroke-miterlimit="10" stroke-linejoin="round"/>
<path d="M164.857 56.6479L164.301 58.0282C164.214 58.2419 164.171 58.4189 164.171 58.5576C164.171 58.7488 164.258 58.8845 164.432 58.9655H163.189C163.248 58.9655 163.331 58.9077 163.441 58.7915C163.552 58.676 163.679 58.4474 163.824 58.1062L166.09 52.7161L168.34 58.1317C168.467 58.4444 168.59 58.6588 168.709 58.7743C168.828 58.8897 168.922 58.9535 168.992 58.9655H167.549C167.695 58.8957 167.767 58.7893 167.767 58.6446C167.767 58.5231 167.72 58.3491 167.628 58.1235L167.02 56.6479H164.857ZM166.881 56.2925L165.934 53.975L165.005 56.2925H166.881Z" fill="#D64E00"/>
<path d="M164.857 56.6479L164.301 58.0282C164.214 58.2419 164.171 58.4189 164.171 58.5576C164.171 58.7488 164.258 58.8845 164.432 58.9655H163.189C163.248 58.9655 163.331 58.9077 163.441 58.7915C163.552 58.676 163.679 58.4474 163.824 58.1062L166.09 52.7161L168.34 58.1317C168.467 58.4444 168.59 58.6588 168.709 58.7743C168.828 58.8897 168.922 58.9535 168.992 58.9655H167.549C167.695 58.8957 167.767 58.7893 167.767 58.6446C167.767 58.5231 167.72 58.3491 167.628 58.1235L167.02 56.6479H164.857ZM166.881 56.2925L165.934 53.975L165.005 56.2925H166.881Z" stroke="#D64E00" stroke-width="0.109008" stroke-miterlimit="10" stroke-linejoin="round"/>
<path d="M63.3113 65.7593C63.2611 65.6498 63.2041 65.5771 63.1404 65.5403C63.0774 65.5028 63.0459 65.4893 63.0459 65.4998H64.31C64.31 65.4893 64.2777 65.5028 64.214 65.5403C64.1503 65.5771 64.0925 65.6498 64.0393 65.7593C63.9853 65.8687 63.9598 66.0292 63.9598 66.2421V70.6695H65.2636C65.502 70.6695 65.7067 70.6208 65.8792 70.5225C66.0516 70.4236 66.1753 70.2976 66.2488 70.1432L66.1063 70.9889H63.0459C63.0459 71.0046 63.0774 70.9927 63.1404 70.9529C63.2041 70.9132 63.2611 70.833 63.3113 70.7137C63.3615 70.5938 63.387 70.4198 63.387 70.1904V66.2421C63.387 66.0292 63.3615 65.8687 63.3113 65.7593Z" fill="#517B95"/>
<path d="M63.3113 65.7593C63.2611 65.6498 63.2041 65.5771 63.1404 65.5403C63.0774 65.5028 63.0459 65.4893 63.0459 65.4998H64.31C64.31 65.4893 64.2777 65.5028 64.214 65.5403C64.1503 65.5771 64.0925 65.6498 64.0393 65.7593C63.9853 65.8687 63.9598 66.0292 63.9598 66.2421V70.6695H65.2636C65.502 70.6695 65.7067 70.6208 65.8792 70.5225C66.0516 70.4236 66.1753 70.2976 66.2488 70.1432L66.1063 70.9889H63.0459C63.0459 71.0046 63.0774 70.9927 63.1404 70.9529C63.2041 70.9132 63.2611 70.833 63.3113 70.7137C63.3615 70.5938 63.387 70.4198 63.387 70.1904V66.2421C63.387 66.0292 63.3615 65.8687 63.3113 65.7593Z" stroke="#517B95" stroke-width="0.170392" stroke-miterlimit="10" stroke-linejoin="round"/>
<path d="M69.5361 68.8583L69.0256 70.1269C68.9453 70.3234 68.9056 70.4861 68.9056 70.6135C68.9056 70.789 68.9858 70.9142 69.1455 70.9884H68.0044C68.0576 70.9884 68.1349 70.9359 68.2361 70.8287C68.3365 70.723 68.4535 70.513 68.5862 70.1989L70.669 65.2429L72.7338 70.2221C72.8508 70.5101 72.964 70.7072 73.0735 70.813C73.1822 70.9194 73.2692 70.9779 73.3329 70.9884H72.0081C72.1415 70.9247 72.2075 70.8265 72.2075 70.693C72.2075 70.582 72.1648 70.4223 72.08 70.2146L71.5215 68.8583H69.5361ZM71.394 68.5307L70.5243 66.4006L69.6718 68.5307H71.394Z" fill="#517B95"/>
<path d="M69.5361 68.8583L69.0256 70.1269C68.9453 70.3234 68.9056 70.4861 68.9056 70.6135C68.9056 70.789 68.9858 70.9142 69.1455 70.9884H68.0044C68.0576 70.9884 68.1349 70.9359 68.2361 70.8287C68.3365 70.723 68.4535 70.513 68.5862 70.1989L70.669 65.2429L72.7338 70.2221C72.8508 70.5101 72.964 70.7072 73.0735 70.813C73.1822 70.9194 73.2692 70.9779 73.3329 70.9884H72.0081C72.1415 70.9247 72.2075 70.8265 72.2075 70.693C72.2075 70.582 72.1648 70.4223 72.08 70.2146L71.5215 68.8583H69.5361ZM71.394 68.5307L70.5243 66.4006L69.6718 68.5307H71.394Z" stroke="#517B95" stroke-width="0.170392" stroke-miterlimit="10" stroke-linejoin="round"/>
<path d="M80.3392 65.8504C80.3392 65.6322 80.2433 65.5152 80.0521 65.4995H81.2899C81.2097 65.5152 81.107 65.576 80.9825 65.6824C80.8566 65.7889 80.7418 65.9966 80.6354 66.3055L78.9087 71.1813L77.3672 66.7599L75.7777 71.1813L74.2032 66.2815C74.0645 65.8347 73.8628 65.5737 73.5967 65.4995H74.9222C74.773 65.5257 74.6988 65.6135 74.6988 65.7627C74.6988 65.8369 74.7311 65.9704 74.7948 66.1616L74.8825 66.4405L75.8894 69.7687L77.5112 65.3473L79.0534 69.7365L80.2433 66.2973C80.3077 66.1053 80.3392 65.9569 80.3392 65.8504Z" fill="#517B95"/>
<path d="M80.3392 65.8504C80.3392 65.6322 80.2433 65.5152 80.0521 65.4995H81.2899C81.2097 65.5152 81.107 65.576 80.9825 65.6824C80.8566 65.7889 80.7418 65.9966 80.6354 66.3055L78.9087 71.1813L77.3672 66.7599L75.7777 71.1813L74.2032 66.2815C74.0645 65.8347 73.8628 65.5737 73.5967 65.4995H74.9222C74.773 65.5257 74.6988 65.6135 74.6988 65.7627C74.6988 65.8369 74.7311 65.9704 74.7948 66.1616L74.8825 66.4405L75.8894 69.7687L77.5112 65.3473L79.0534 69.7365L80.2433 66.2973C80.3077 66.1053 80.3392 65.9569 80.3392 65.8504Z" stroke="#517B95" stroke-width="0.170392" stroke-miterlimit="10" stroke-linejoin="round"/>
<path d="M86.794 65.8189V68.0847H88.1683C88.364 68.0847 88.4952 68.0554 88.5612 67.9969C88.6279 67.9385 88.6609 67.8905 88.6609 67.853V68.635C88.6609 68.6193 88.6481 68.5938 88.6249 68.5593C88.6009 68.5248 88.5537 68.4903 88.4817 68.4558C88.4105 68.4213 88.3063 68.4041 88.1683 68.4041H86.794V70.247C86.794 70.4539 86.821 70.6121 86.8735 70.7216C86.926 70.8303 86.9845 70.9046 87.0482 70.9443C87.1119 70.9848 87.1434 70.999 87.1434 70.9885H85.8809C85.8809 70.999 85.9123 70.9863 85.9761 70.9488C86.0406 70.9113 86.0968 70.8386 86.147 70.7291C86.1972 70.6204 86.2227 70.4592 86.2227 70.247V66.2815C86.2227 66.0633 86.1972 65.8968 86.147 65.7829C86.0968 65.6689 86.0406 65.5887 85.9761 65.5437C85.9123 65.4987 85.8809 65.4837 85.8809 65.4995H88.7561V66.313C88.7291 66.1863 88.6549 66.0715 88.5334 65.9703C88.4112 65.8699 88.2395 65.8189 88.0169 65.8189H86.794Z" fill="#517B95"/>
<path d="M86.794 65.8189V68.0847H88.1683C88.364 68.0847 88.4952 68.0554 88.5612 67.9969C88.6279 67.9385 88.6609 67.8905 88.6609 67.853V68.635C88.6609 68.6193 88.6481 68.5938 88.6249 68.5593C88.6009 68.5248 88.5537 68.4903 88.4817 68.4558C88.4105 68.4213 88.3063 68.4041 88.1683 68.4041H86.794V70.247C86.794 70.4539 86.821 70.6121 86.8735 70.7216C86.926 70.8303 86.9845 70.9046 87.0482 70.9443C87.1119 70.9848 87.1434 70.999 87.1434 70.9885H85.8809C85.8809 70.999 85.9123 70.9863 85.9761 70.9488C86.0406 70.9113 86.0968 70.8386 86.147 70.7291C86.1972 70.6204 86.2227 70.4592 86.2227 70.247V66.2815C86.2227 66.0633 86.1972 65.8968 86.147 65.7829C86.0968 65.6689 86.0406 65.5887 85.9761 65.5437C85.9123 65.4987 85.8809 65.4837 85.8809 65.4995H88.7561V66.313C88.7291 66.1863 88.6549 66.0715 88.5334 65.9703C88.4112 65.8699 88.2395 65.8189 88.0169 65.8189H86.794Z" stroke="#517B95" stroke-width="0.170392" stroke-miterlimit="10" stroke-linejoin="round"/>
<path d="M91.6282 70.9529C91.6904 70.9132 91.7481 70.8382 91.8006 70.7295C91.8523 70.6208 91.8786 70.4596 91.8786 70.2474V66.2421C91.8786 66.0292 91.8546 65.8687 91.8044 65.7593C91.7549 65.6498 91.6986 65.5771 91.6364 65.5403C91.5727 65.5028 91.5419 65.4893 91.5419 65.4998H92.7896C92.7896 65.4893 92.7581 65.5028 92.6951 65.5403C92.6321 65.5771 92.5744 65.6498 92.5226 65.7593C92.4702 65.8687 92.4439 66.0292 92.4439 66.2421V70.2474C92.4439 70.4596 92.4702 70.6208 92.5226 70.7295C92.5744 70.8382 92.6321 70.9117 92.6951 70.9492C92.7581 70.9867 92.7896 70.9994 92.7896 70.9889H91.5337C91.5337 71.0046 91.5659 70.9927 91.6282 70.9529Z" fill="#517B95"/>
<path d="M91.6282 70.9529C91.6904 70.9132 91.7481 70.8382 91.8006 70.7295C91.8523 70.6208 91.8786 70.4596 91.8786 70.2474V66.2421C91.8786 66.0292 91.8546 65.8687 91.8044 65.7593C91.7549 65.6498 91.6986 65.5771 91.6364 65.5403C91.5727 65.5028 91.5419 65.4893 91.5419 65.4998H92.7896C92.7896 65.4893 92.7581 65.5028 92.6951 65.5403C92.6321 65.5771 92.5744 65.6498 92.5226 65.7593C92.4702 65.8687 92.4439 66.0292 92.4439 66.2421V70.2474C92.4439 70.4596 92.4702 70.6208 92.5226 70.7295C92.5744 70.8382 92.6321 70.9117 92.6951 70.9492C92.7581 70.9867 92.7896 70.9994 92.7896 70.9889H91.5337C91.5337 71.0046 91.5659 70.9927 91.6282 70.9529Z" stroke="#517B95" stroke-width="0.170392" stroke-miterlimit="10" stroke-linejoin="round"/>
<path d="M97.966 68.0564C98.1467 67.9417 98.2832 67.7932 98.3761 67.6095C98.4691 67.4266 98.5156 67.2331 98.5156 67.0314C98.5156 66.8237 98.4713 66.6288 98.3836 66.4444C98.2959 66.2614 98.1617 66.1115 97.9818 65.9945C97.8011 65.8775 97.5806 65.8183 97.3205 65.8183H96.6435V70.2547C96.6435 70.4669 96.6697 70.6281 96.7229 70.7368C96.7762 70.8463 96.8339 70.9182 96.8984 70.9527C96.9629 70.9872 96.9936 70.9992 96.9936 70.988H95.728C95.728 70.9992 95.7595 70.9857 95.8232 70.9482C95.887 70.9107 95.944 70.8395 95.9949 70.7331C96.0444 70.6266 96.0707 70.4669 96.0707 70.2547V66.2652C96.0707 66.0477 96.0444 65.8813 95.9949 65.7666C95.944 65.6526 95.887 65.5754 95.8232 65.5349C95.7595 65.4959 95.728 65.4839 95.728 65.4997H97.304C97.7186 65.4997 98.0597 65.5671 98.3281 65.7028C98.5966 65.8386 98.79 66.014 98.9099 66.2292C99.0284 66.4444 99.0891 66.6798 99.0891 66.9355C99.0891 67.1484 99.0389 67.3568 98.9377 67.5615C98.8365 67.767 98.6918 67.9447 98.5036 68.0961C98.3147 68.2476 98.0957 68.3533 97.8461 68.411L97.7186 68.435L99.1214 70.2225C99.3073 70.4301 99.4603 70.5891 99.5832 70.7016C99.7047 70.8125 99.7939 70.8875 99.8494 70.9242C99.9049 70.9617 99.9386 70.9827 99.9491 70.988H99.0172L96.8511 68.2281H97.3287C97.5732 68.2281 97.7846 68.1711 97.966 68.0564Z" fill="#517B95"/>
<path d="M97.966 68.0564C98.1467 67.9417 98.2832 67.7932 98.3761 67.6095C98.4691 67.4266 98.5156 67.2331 98.5156 67.0314C98.5156 66.8237 98.4713 66.6288 98.3836 66.4444C98.2959 66.2614 98.1617 66.1115 97.9818 65.9945C97.8011 65.8775 97.5806 65.8183 97.3205 65.8183H96.6435V70.2547C96.6435 70.4669 96.6697 70.6281 96.7229 70.7368C96.7762 70.8463 96.8339 70.9182 96.8984 70.9527C96.9629 70.9872 96.9936 70.9992 96.9936 70.988H95.728C95.728 70.9992 95.7595 70.9857 95.8232 70.9482C95.887 70.9107 95.944 70.8395 95.9949 70.7331C96.0444 70.6266 96.0707 70.4669 96.0707 70.2547V66.2652C96.0707 66.0477 96.0444 65.8813 95.9949 65.7666C95.944 65.6526 95.887 65.5754 95.8232 65.5349C95.7595 65.4959 95.728 65.4839 95.728 65.4997H97.304C97.7186 65.4997 98.0597 65.5671 98.3281 65.7028C98.5966 65.8386 98.79 66.014 98.9099 66.2292C99.0284 66.4444 99.0891 66.6798 99.0891 66.9355C99.0891 67.1484 99.0389 67.3568 98.9377 67.5615C98.8365 67.767 98.6918 67.9447 98.5036 68.0961C98.3147 68.2476 98.0957 68.3533 97.8461 68.411L97.7186 68.435L99.1214 70.2225C99.3073 70.4301 99.4603 70.5891 99.5832 70.7016C99.7047 70.8125 99.7939 70.8875 99.8494 70.9242C99.9049 70.9617 99.9386 70.9827 99.9491 70.988H99.0172L96.8511 68.2281H97.3287C97.5732 68.2281 97.7846 68.1711 97.966 68.0564V68.0564Z" stroke="#517B95" stroke-width="0.170392" stroke-miterlimit="10" stroke-linejoin="round"/>
<path d="M107.004 70.9884C107.067 70.978 107.136 70.9202 107.211 70.8168C107.286 70.7133 107.323 70.5198 107.323 70.2387V66.2492L105.232 71.0762L103.11 66.2574V70.1982C103.11 70.4861 103.155 70.687 103.249 70.801C103.341 70.9157 103.426 70.978 103.5 70.9884H102.319C102.399 70.978 102.487 70.918 102.582 70.8085C102.678 70.6998 102.726 70.4966 102.726 70.1982V66.2012C102.726 65.9455 102.681 65.7708 102.591 65.6748C102.5 65.5789 102.41 65.5204 102.319 65.4987H103.396L105.351 69.959L107.275 65.4987H108.241C108.172 65.5099 108.097 65.5654 108.017 65.6666C107.937 65.7678 107.897 65.9538 107.897 66.2252V70.2702C107.897 70.5363 107.937 70.72 108.017 70.8205C108.097 70.9217 108.172 70.978 108.241 70.9884H107.004Z" fill="#517B95"/>
<path d="M107.004 70.9884C107.067 70.978 107.136 70.9202 107.211 70.8168C107.286 70.7133 107.323 70.5198 107.323 70.2387V66.2492L105.232 71.0762L103.11 66.2574V70.1982C103.11 70.4861 103.155 70.687 103.249 70.801C103.341 70.9157 103.426 70.978 103.5 70.9884H102.319C102.399 70.978 102.487 70.918 102.582 70.8085C102.678 70.6998 102.726 70.4966 102.726 70.1982V66.2012C102.726 65.9455 102.681 65.7708 102.591 65.6748C102.5 65.5789 102.41 65.5204 102.319 65.4987H103.396L105.351 69.959L107.275 65.4987H108.241C108.172 65.5099 108.097 65.5654 108.017 65.6666C107.937 65.7678 107.897 65.9538 107.897 66.2252V70.2702C107.897 70.5363 107.937 70.72 108.017 70.8205C108.097 70.9217 108.172 70.978 108.241 70.9884H107.004Z" stroke="#517B95" stroke-width="0.170392" stroke-miterlimit="10" stroke-linejoin="round"/>
<path d="M9.67683 4.77747C9.73681 2.66612 11.465 0.970894 13.592 0.970894H14.365L14.3755 0.361332H1.00225L1.01125 0.970894H1.78499C3.91577 0.970894 5.64619 2.67287 5.69942 4.79022V39.491C5.65968 41.6196 3.92252 43.3344 1.78349 43.3344H1.00975L1 43.9462H14.3755L14.3658 43.3344H13.5928C11.453 43.3344 9.71657 41.6196 9.67683 39.491V22.9196H31.3311V21.0857H9.67683V4.77747Z" fill="#517B95"/>
<path d="M9.67683 4.77747C9.73681 2.66612 11.465 0.970895 13.592 0.970895H14.365L14.3755 0.361333H1.00225L1.01125 0.970895H1.78499C3.91577 0.970895 5.64619 2.67287 5.69942 4.79022V39.491C5.65968 41.6196 3.92252 43.3344 1.78349 43.3344H1.00975L1 43.9462H14.3755L14.3658 43.3344H13.5928C11.453 43.3344 9.71657 41.6196 9.67683 39.491V22.9196H31.3311V21.0857H9.67683V4.77747Z" stroke="#517B95" stroke-width="0.295628" stroke-miterlimit="10"/>
<path d="M100.138 35.9141L66.8524 0.370571L59.822 0.363819V0.975632H60.8184C62.5555 0.975632 63.9711 2.20451 64.0468 3.91848V28.0348C64.0333 36.4675 58.5886 42.09 50.4216 42.09C42.6339 42.09 37.4419 36.1526 37.4419 27.2461V3.91098C37.5161 2.20001 38.9294 0.974884 40.6643 0.974884H41.6608V0.363819H29.2441V0.974884H30.2398C32.0062 0.974884 33.4397 2.24424 33.472 4.00245V28.1443C33.472 37.6664 40.2535 44.0146 50.4261 44.0146C60.313 44.0146 66.9041 37.6236 66.9041 28.0378L66.8644 6.47369L101.992 43.9449H102.916L102.918 3.56084H100.108L100.138 35.9141Z" fill="#517B95"/>
<path d="M100.138 35.9141L66.8524 0.370569L59.822 0.36382V0.975633H60.8184C62.5555 0.975633 63.9711 2.2045 64.0468 3.91848V28.0348C64.0333 36.4675 58.5886 42.09 50.4216 42.09C42.6339 42.09 37.4419 36.1526 37.4419 27.2461V3.91098C37.5161 2.20001 38.9294 0.974883 40.6643 0.974883H41.6608V0.36382H29.2441V0.974883H30.2398C32.0062 0.974883 33.4397 2.24424 33.472 4.00245V28.1443C33.472 37.6664 40.2535 44.0146 50.4261 44.0146C60.313 44.0146 66.9041 37.6236 66.9041 28.0378L66.8644 6.47369L101.992 43.9449H102.916L102.918 3.56084H100.108L100.138 35.9141Z" stroke="#517B95" stroke-width="0.295628" stroke-miterlimit="10"/>
<path d="M86.8027 6.87744L87.4175 6.86844V5.77903C87.4175 3.81838 88.9643 2.22212 90.9031 2.1374H111.757C113.696 2.22212 115.242 3.81838 115.242 5.77903V6.86844L115.857 6.87744V0.301214L86.8027 0.310211V6.87744Z" fill="#517B95"/>
<path d="M86.8027 6.87744L87.4175 6.86844V5.77903C87.4175 3.81838 88.9643 2.22212 90.9031 2.1374H111.757C113.696 2.22212 115.242 3.81838 115.242 5.77903V6.86844L115.857 6.87744V0.301214L86.8027 0.310211V6.87744Z" stroke="#517B95" stroke-width="0.295628" stroke-miterlimit="10"/>
<path d="M140.332 5.9696V7.07926L140.961 7.08826V0.359072H119.21V2.26349H136.846C138.791 2.38195 140.332 3.99471 140.332 5.9696Z" fill="#517B95"/>
<path d="M140.332 5.9696V7.07926L140.961 7.08826V0.359072H119.21V2.26349H136.846C138.791 2.38195 140.332 3.99471 140.332 5.9696Z" stroke="#517B95" stroke-width="0.295628" stroke-miterlimit="10"/>
<path d="M133.083 42.0403H119.211V43.9462H141.134L144.758 33.8865H144.136C142.213 38.6273 139.68 42.0403 133.083 42.0403Z" fill="#517B95"/>
<path d="M133.083 42.0403H119.211V43.9462H141.134L144.758 33.8865H144.136C142.213 38.6273 139.68 42.0403 133.083 42.0403Z" stroke="#517B95" stroke-width="0.295628" stroke-miterlimit="10"/>
<path d="M140.432 26.0118V26.9288L141.04 26.9363V17.0828L140.432 17.0911V18.008C140.432 19.6845 139.089 20.7529 137.421 20.7837H119.21V23.3801H137.485C139.123 23.4446 140.432 24.3571 140.432 26.0118Z" fill="#517B95"/>
<path d="M140.432 26.0118V26.9288L141.04 26.9363V17.0828L140.432 17.0911V18.008C140.432 19.6845 139.089 20.7529 137.421 20.7837H119.21V23.3801H137.485C139.123 23.4446 140.432 24.3571 140.432 26.0118Z" stroke="#517B95" stroke-width="0.295628" stroke-miterlimit="10"/>
<path d="M170.401 39.2058C167.954 36.5329 162.504 28.2135 162.504 28.2135C161.278 26.483 159.335 24.3904 157.979 23.7643C164.059 23.7643 168.719 18.3675 168.719 12.2464C168.719 4.87915 164.024 0.364037 156.362 0.364037L144.416 0.364784V2.33443C145.297 2.35917 152.95 2.20922 156.134 2.38316C160.841 2.64109 163.821 6.30371 163.977 12.0215C164.015 13.4078 163.854 14.3847 163.575 15.2702C161.78 20.9639 156.987 21.746 153.707 21.8352C151.804 21.8869 150.366 21.8562 150.366 21.8562V22.441C152.676 22.441 154.52 24.6311 156.173 26.7072C156.658 27.3167 163.783 38.2206 164.501 39.0784C166.489 41.4521 169.657 44.407 175.541 44.407H178.999L179 43.9871C175.285 43.9571 172.945 41.9837 170.401 39.2058Z" fill="#D64E00"/>
<path d="M170.401 39.2058C167.954 36.5329 162.504 28.2135 162.504 28.2135C161.278 26.483 159.335 24.3904 157.979 23.7643C164.059 23.7643 168.719 18.3675 168.719 12.2464C168.719 4.87915 164.024 0.364036 156.362 0.364036L144.416 0.364785V2.33443C145.297 2.35917 152.95 2.20922 156.134 2.38316C160.841 2.64109 163.821 6.30371 163.977 12.0214C164.015 13.4078 163.854 14.3847 163.575 15.2702C161.78 20.9639 156.987 21.746 153.707 21.8352C151.804 21.8869 150.366 21.8562 150.366 21.8562V22.441C152.676 22.441 154.52 24.6311 156.173 26.7072C156.658 27.3167 163.783 38.2206 164.501 39.0784C166.489 41.4521 169.657 44.407 175.541 44.407H178.999L179 43.9871C175.285 43.9571 172.945 41.9837 170.401 39.2058Z" stroke="#D64E00" stroke-width="0.295628" stroke-miterlimit="10"/>
</svg>
