<svg width="179" height="72" viewBox="0 0 179 72" fill="none" xmlns="http://www.w3.org/2000/svg">
<path d="M9.00166 59.6226C9.07138 59.5791 9.13436 59.4981 9.19284 59.3797C9.25057 59.2612 9.27981 59.0858 9.27981 58.8541V56.883H6.01091V58.8541C6.01091 59.0858 6.04015 59.2612 6.09788 59.3797C6.15561 59.4981 6.22009 59.5776 6.28906 59.6181C6.35879 59.6586 6.39328 59.6736 6.39328 59.6616H5.01074C5.01074 59.6796 5.04673 59.6661 5.11571 59.6226C5.18543 59.5791 5.24766 59.4981 5.30239 59.3797C5.35713 59.2612 5.38487 59.0858 5.38487 58.8541V54.4958C5.38487 54.2641 5.35713 54.0894 5.30239 53.9702C5.24766 53.8518 5.18543 53.7723 5.11571 53.7318C5.04673 53.6913 5.01074 53.6771 5.01074 53.6883H6.39328C6.39328 53.6771 6.35879 53.6913 6.28906 53.7318C6.22009 53.7723 6.15561 53.8518 6.09788 53.9702C6.04015 54.0894 6.01091 54.2641 6.01091 54.4958V56.5014H9.27981V54.4958C9.27981 54.2641 9.25057 54.0894 9.19284 53.9702C9.13436 53.8518 9.07138 53.7723 9.00166 53.7318C8.93193 53.6913 8.89744 53.6771 8.89744 53.6883H10.2792C10.2792 53.6711 10.2447 53.6838 10.175 53.7273C10.106 53.7708 10.0431 53.8518 9.98833 53.9702C9.93285 54.0894 9.90585 54.2641 9.90585 54.4958V58.8541C9.90585 59.0858 9.93435 59.2612 9.99283 59.3797C10.0506 59.4981 10.1143 59.5776 10.184 59.6181C10.253 59.6586 10.2882 59.6736 10.2882 59.6616H8.89744C8.89744 59.6796 8.93193 59.6661 9.00166 59.6226Z" fill="white"/>
<path d="M9.00166 59.6226C9.07138 59.5791 9.13436 59.4981 9.19284 59.3797C9.25057 59.2612 9.27981 59.0858 9.27981 58.8541V56.883H6.01091V58.8541C6.01091 59.0858 6.04015 59.2612 6.09788 59.3797C6.15561 59.4981 6.22009 59.5776 6.28906 59.6181C6.35879 59.6586 6.39328 59.6736 6.39328 59.6616H5.01074C5.01074 59.6796 5.04673 59.6661 5.11571 59.6226C5.18543 59.5791 5.24766 59.4981 5.30239 59.3797C5.35713 59.2612 5.38487 59.0858 5.38487 58.8541V54.4958C5.38487 54.2641 5.35713 54.0894 5.30239 53.9702C5.24766 53.8518 5.18543 53.7723 5.11571 53.7318C5.04673 53.6913 5.01074 53.6771 5.01074 53.6883H6.39328C6.39328 53.6771 6.35879 53.6913 6.28906 53.7318C6.22009 53.7723 6.15561 53.8518 6.09788 53.9702C6.04015 54.0894 6.01091 54.2641 6.01091 54.4958V56.5014H9.27981V54.4958C9.27981 54.2641 9.25057 54.0894 9.19284 53.9702C9.13436 53.8518 9.07138 53.7723 9.00166 53.7318C8.93193 53.6913 8.89744 53.6771 8.89744 53.6883H10.2792C10.2792 53.6711 10.2447 53.6838 10.175 53.7273C10.106 53.7708 10.0431 53.8518 9.98833 53.9702C9.93285 54.0894 9.90585 54.2641 9.90585 54.4958V58.8541C9.90585 59.0858 9.93435 59.2612 9.99283 59.3797C10.0506 59.4981 10.1143 59.5776 10.184 59.6181C10.253 59.6586 10.2882 59.6736 10.2882 59.6616H8.89744C8.89744 59.6796 8.93193 59.6661 9.00166 59.6226Z" stroke="white" stroke-width="0.109008" stroke-miterlimit="10" stroke-linejoin="round"/>
<path d="M16.1841 57.5867C16.1841 58.0441 16.0971 58.4362 15.9232 58.7631C15.7492 59.09 15.5041 59.3389 15.1884 59.5098C14.872 59.68 14.5054 59.7655 14.0878 59.7655C13.398 59.7655 12.8642 59.5751 12.4871 59.1927C12.11 58.8111 11.9218 58.2817 11.9218 57.604V54.4963C11.9218 54.2653 11.894 54.0899 11.8393 53.9707C11.7838 53.853 11.7231 53.7728 11.6564 53.7323C11.5904 53.6918 11.5566 53.6775 11.5566 53.6888H12.9137C12.9137 53.6775 12.8799 53.6918 12.8132 53.7323C12.7465 53.7728 12.6858 53.8507 12.631 53.9669C12.5763 54.0824 12.5478 54.2503 12.5478 54.47V57.604C12.5478 58.1655 12.6828 58.5996 12.9519 58.9063C13.2226 59.2129 13.6185 59.3666 14.1395 59.3666C14.6209 59.3666 15.001 59.2204 15.2791 58.928C15.5581 58.6356 15.6968 58.203 15.6968 57.6302V54.4963C15.6968 54.2653 15.6683 54.0899 15.6098 53.9707C15.5521 53.853 15.4883 53.7728 15.4186 53.7323C15.3489 53.6918 15.3144 53.6775 15.3144 53.6888H16.5672C16.5672 53.6775 16.532 53.6918 16.4622 53.7323C16.3925 53.7728 16.3288 53.853 16.2711 53.9707C16.2133 54.0899 16.1841 54.2653 16.1841 54.4963V57.5867Z" fill="white"/>
<path d="M16.1841 57.5867C16.1841 58.0441 16.0971 58.4362 15.9232 58.7631C15.7492 59.09 15.5041 59.3389 15.1884 59.5098C14.872 59.68 14.5054 59.7655 14.0878 59.7655C13.398 59.7655 12.8642 59.5751 12.4871 59.1927C12.11 58.8111 11.9218 58.2817 11.9218 57.604V54.4963C11.9218 54.2653 11.894 54.0899 11.8393 53.9707C11.7838 53.853 11.7231 53.7728 11.6564 53.7323C11.5904 53.6918 11.5566 53.6775 11.5566 53.6888H12.9137C12.9137 53.6775 12.8799 53.6918 12.8132 53.7323C12.7465 53.7728 12.6858 53.8507 12.631 53.9669C12.5763 54.0824 12.5478 54.2503 12.5478 54.47V57.604C12.5478 58.1655 12.6828 58.5996 12.9519 58.9063C13.2226 59.2129 13.6185 59.3666 14.1395 59.3666C14.6209 59.3666 15.001 59.2204 15.2791 58.928C15.5581 58.6356 15.6968 58.203 15.6968 57.6302V54.4963C15.6968 54.2653 15.6683 54.0899 15.6098 53.9707C15.5521 53.853 15.4883 53.7728 15.4186 53.7323C15.3489 53.6918 15.3144 53.6775 15.3144 53.6888H16.5672C16.5672 53.6775 16.532 53.6918 16.4622 53.7323C16.3925 53.7728 16.3288 53.853 16.2711 53.9707C16.2133 54.0899 16.1841 54.2653 16.1841 54.4963V57.5867Z" stroke="white" stroke-width="0.109008" stroke-miterlimit="10" stroke-linejoin="round"/>
<path d="M23.2672 53.6889C23.1862 53.7061 23.1068 53.7714 23.0288 53.8838C22.9501 53.997 22.9111 54.1957 22.9111 54.4791V59.9036L18.4651 54.722V58.8794C18.4651 59.1568 18.5146 59.3517 18.6128 59.465C18.711 59.5774 18.807 59.6427 18.8999 59.6606H17.6748C17.7558 59.6427 17.839 59.5774 17.923 59.465C18.007 59.3517 18.049 59.1546 18.049 58.8704V54.5309C18.049 54.3344 17.9822 54.1545 17.8488 53.9933C17.7161 53.8306 17.5481 53.7294 17.3457 53.6889H18.4223L22.4942 58.4371V54.4791C22.4942 54.033 22.3443 53.7699 22.0429 53.6889H23.2672Z" fill="white"/>
<path d="M23.2672 53.6889C23.1862 53.7061 23.1068 53.7714 23.0288 53.8838C22.9501 53.997 22.9111 54.1957 22.9111 54.4791V59.9036L18.4651 54.722V58.8794C18.4651 59.1568 18.5146 59.3517 18.6128 59.465C18.711 59.5774 18.807 59.6427 18.8999 59.6606H17.6748C17.7558 59.6427 17.839 59.5774 17.923 59.465C18.007 59.3517 18.049 59.1546 18.049 58.8704V54.5309C18.049 54.3344 17.9822 54.1545 17.8488 53.9933C17.7161 53.8306 17.5481 53.7294 17.3457 53.6889H18.4223L22.4942 58.4371V54.4791C22.4942 54.033 22.3443 53.7699 22.0429 53.6889H23.2672Z" stroke="white" stroke-width="0.109008" stroke-miterlimit="10" stroke-linejoin="round"/>
<path d="M24.4718 54.1836C24.3031 54.2818 24.1817 54.4063 24.106 54.557L24.2274 53.6888H28.3578L28.48 54.557C28.4043 54.4063 28.2821 54.2818 28.1141 54.1836C27.9454 54.0854 27.7332 54.0359 27.4776 54.0359H26.6064V58.8546C26.6064 59.0862 26.6356 59.2624 26.6933 59.3846C26.7518 59.5061 26.8156 59.5871 26.8853 59.6276C26.955 59.6673 26.9895 59.68 26.9895 59.662H25.6047C25.6047 59.68 25.6392 59.6673 25.7089 59.6276C25.7786 59.5871 25.8416 59.5076 25.8964 59.3884C25.9518 59.2699 25.9788 59.0922 25.9788 58.8546V54.0359H25.1076C24.852 54.0359 24.6405 54.0854 24.4718 54.1836Z" fill="white"/>
<path d="M24.4718 54.1836C24.3031 54.2818 24.1817 54.4063 24.106 54.557L24.2274 53.6888H28.3578L28.48 54.557C28.4043 54.4063 28.2821 54.2818 28.1141 54.1836C27.9454 54.0854 27.7332 54.0359 27.4776 54.0359H26.6064V58.8546C26.6064 59.0862 26.6356 59.2624 26.6933 59.3846C26.7518 59.5061 26.8156 59.5871 26.8853 59.6276C26.955 59.6673 26.9895 59.68 26.9895 59.662H25.6047C25.6047 59.68 25.6392 59.6673 25.7089 59.6276C25.7786 59.5871 25.8416 59.5076 25.8964 59.3884C25.9518 59.2699 25.9788 59.0922 25.9788 58.8546V54.0359H25.1076C24.852 54.0359 24.6405 54.0854 24.4718 54.1836Z" stroke="white" stroke-width="0.109008" stroke-miterlimit="10" stroke-linejoin="round"/>
<path d="M29.3013 59.6626C29.3013 59.6799 29.3358 59.6671 29.4062 59.6236C29.4752 59.5802 29.5382 59.4932 29.5937 59.3627C29.6492 59.233 29.6769 59.0433 29.6769 58.7944V54.5313C29.6769 54.2944 29.6492 54.113 29.5937 53.9885C29.5382 53.8641 29.4752 53.7793 29.4062 53.7329C29.3358 53.6864 29.3013 53.6721 29.3013 53.6886H32.466V54.5576C32.361 54.2104 32.0461 54.0365 31.5213 54.0365H30.3067V56.5024H31.8107C31.9269 56.5024 32.0259 56.4837 32.1076 56.4462C32.1893 56.408 32.25 56.369 32.2913 56.3285C32.3318 56.288 32.355 56.2625 32.361 56.2505V57.0925C32.355 57.0812 32.3318 57.055 32.2913 57.0145C32.25 56.974 32.1908 56.9365 32.1121 56.902C32.0334 56.8668 31.9359 56.8496 31.8189 56.8496H30.3067V59.3155H31.6705C31.9329 59.3155 32.1586 59.2615 32.3475 59.155C32.5372 59.0478 32.6729 58.9106 32.7546 58.7419L32.5972 59.6626H29.3013Z" fill="white"/>
<path d="M29.3013 59.6626C29.3013 59.6799 29.3358 59.6671 29.4062 59.6236C29.4752 59.5802 29.5382 59.4932 29.5937 59.3627C29.6492 59.233 29.6769 59.0433 29.6769 58.7944V54.5313C29.6769 54.2944 29.6492 54.113 29.5937 53.9885C29.5382 53.8641 29.4752 53.7793 29.4062 53.7329C29.3358 53.6864 29.3013 53.6721 29.3013 53.6886H32.466V54.5576C32.361 54.2104 32.0461 54.0365 31.5213 54.0365H30.3067V56.5024H31.8107C31.9269 56.5024 32.0259 56.4837 32.1076 56.4462C32.1893 56.408 32.25 56.369 32.2913 56.3285C32.3318 56.288 32.355 56.2625 32.361 56.2505V57.0925C32.355 57.0812 32.3318 57.055 32.2913 57.0145C32.25 56.974 32.1908 56.9365 32.1121 56.902C32.0334 56.8668 31.9359 56.8496 31.8189 56.8496H30.3067V59.3155H31.6705C31.9329 59.3155 32.1586 59.2615 32.3475 59.155C32.5372 59.0478 32.6729 58.9106 32.7546 58.7419L32.5972 59.6626H29.3013Z" stroke="white" stroke-width="0.109008" stroke-miterlimit="10" stroke-linejoin="round"/>
<path d="M36.29 56.4724C36.4871 56.3479 36.6363 56.186 36.7383 55.9865C36.8395 55.7863 36.8898 55.5764 36.8898 55.3567C36.8898 55.1311 36.8425 54.9181 36.7466 54.7187C36.6506 54.5193 36.5044 54.3551 36.3072 54.2284C36.1093 54.1002 35.8686 54.0364 35.5844 54.0364H34.8444V58.8641C34.8444 59.0957 34.8729 59.2712 34.9314 59.3896C34.9899 59.5081 35.0536 59.5868 35.1233 59.6243C35.1923 59.6618 35.2276 59.6745 35.2276 59.6633H33.8428C33.8428 59.6745 33.8773 59.6603 33.947 59.6198C34.0175 59.5793 34.0797 59.5013 34.1344 59.3851C34.1899 59.2697 34.2169 59.0957 34.2169 58.8641V54.523C34.2169 54.2853 34.1899 54.1047 34.1344 53.9809C34.0797 53.8557 34.0175 53.7718 33.947 53.7283C33.8773 53.6855 33.8428 53.672 33.8428 53.6893H35.5672C36.0193 53.6893 36.3927 53.7635 36.6858 53.9105C36.979 54.0589 37.1912 54.2494 37.3216 54.484C37.4521 54.7187 37.5173 54.9744 37.5173 55.2525C37.5173 55.4842 37.4618 55.7114 37.3516 55.934C37.2414 56.1567 37.0832 56.3509 36.8778 56.5158C36.6708 56.6808 36.4317 56.7948 36.1587 56.8585L36.0193 56.8847L37.5525 58.8296C37.7557 59.0552 37.9237 59.2292 38.0571 59.3506C38.1906 59.4721 38.288 59.5531 38.3488 59.5936C38.4102 59.6341 38.4455 59.6573 38.4582 59.6633H37.4386L35.0709 56.659H35.5934C35.8603 56.659 36.092 56.5968 36.29 56.4724Z" fill="white"/>
<path d="M36.29 56.4724C36.4871 56.3479 36.6363 56.186 36.7383 55.9865C36.8395 55.7863 36.8898 55.5764 36.8898 55.3567C36.8898 55.1311 36.8425 54.9181 36.7466 54.7187C36.6506 54.5193 36.5044 54.3551 36.3072 54.2284C36.1093 54.1002 35.8686 54.0364 35.5844 54.0364H34.8444V58.8641C34.8444 59.0957 34.8729 59.2712 34.9314 59.3896C34.9899 59.5081 35.0536 59.5868 35.1233 59.6243C35.1923 59.6618 35.2276 59.6745 35.2276 59.6633H33.8428C33.8428 59.6745 33.8773 59.6603 33.947 59.6198C34.0175 59.5793 34.0797 59.5013 34.1344 59.3851C34.1899 59.2697 34.2169 59.0957 34.2169 58.8641V54.523C34.2169 54.2853 34.1899 54.1047 34.1344 53.9809C34.0797 53.8557 34.0175 53.7718 33.947 53.7283C33.8773 53.6855 33.8428 53.672 33.8428 53.6893H35.5672C36.0193 53.6893 36.3927 53.7635 36.6858 53.9105C36.979 54.0589 37.1912 54.2494 37.3216 54.484C37.4521 54.7187 37.5173 54.9744 37.5173 55.2525C37.5173 55.4842 37.4618 55.7114 37.3516 55.934C37.2414 56.1567 37.0832 56.3509 36.8778 56.5158C36.6708 56.6808 36.4317 56.7948 36.1587 56.8585L36.0193 56.8847L37.5525 58.8296C37.7557 59.0552 37.9237 59.2292 38.0571 59.3506C38.1906 59.4721 38.288 59.5531 38.3488 59.5936C38.4102 59.6341 38.4455 59.6573 38.4582 59.6633H37.4386L35.0709 56.659H35.5934C35.8603 56.659 36.092 56.5968 36.29 56.4724V56.4724Z" stroke="white" stroke-width="0.109008" stroke-miterlimit="10" stroke-linejoin="round"/>
<path d="M41.6582 60.8096H42.0706V52.5608H41.6582V60.8096Z" fill="#B4B9BC"/>
<path d="M87.2251 60.8096H87.6382V52.5608H87.2251V60.8096Z" fill="#B4B9BC"/>
<path d="M125.946 60.8096H126.359V52.5608H125.946V60.8096Z" fill="#B4B9BC"/>
<path d="M48.7946 56.203C48.6349 56.4662 48.4062 56.6731 48.1093 56.8238C47.8124 56.9745 47.4638 57.0495 47.0611 57.0495C46.8175 57.0495 46.5558 57.024 46.2761 56.9715V58.8646C46.2761 59.0903 46.3054 59.2627 46.3631 59.3812C46.4208 59.4997 46.4853 59.5791 46.5558 59.6196C46.6248 59.6601 46.66 59.6751 46.66 59.6631H45.2715C45.2715 59.6751 45.3067 59.6601 45.3764 59.6196C45.4462 59.5791 45.5092 59.5012 45.5639 59.3857C45.6201 59.2695 45.6471 59.0963 45.6471 58.8646V54.5146C45.6471 54.2829 45.6201 54.1067 45.5639 53.9845C45.5092 53.863 45.4462 53.7806 45.3764 53.7371C45.3067 53.6943 45.2715 53.6779 45.2715 53.6891H46.9832C47.2801 53.6891 47.5245 53.7086 47.7164 53.7461C47.9084 53.7836 48.0778 53.8405 48.2225 53.9155C48.4842 54.0482 48.6851 54.2409 48.8253 54.4928C48.9655 54.7447 49.0345 55.0154 49.0345 55.3048C49.0345 55.6399 48.955 55.9398 48.7946 56.203ZM47.9781 54.4186C47.7217 54.1644 47.382 54.037 46.9569 54.037H46.2761V56.6326C46.5266 56.6791 46.7882 56.7023 47.0611 56.7023C47.4682 56.7023 47.7884 56.5854 48.0171 56.3507C48.248 56.1168 48.3627 55.8049 48.3627 55.4173C48.3627 55.0064 48.2345 54.6735 47.9781 54.4186Z" fill="white"/>
<path d="M48.7946 56.203C48.6349 56.4662 48.4062 56.6731 48.1093 56.8238C47.8124 56.9745 47.4638 57.0495 47.0611 57.0495C46.8175 57.0495 46.5558 57.024 46.2761 56.9715V58.8646C46.2761 59.0903 46.3054 59.2627 46.3631 59.3812C46.4208 59.4997 46.4853 59.5791 46.5558 59.6196C46.6248 59.6601 46.66 59.6751 46.66 59.6631H45.2715C45.2715 59.6751 45.3067 59.6601 45.3764 59.6196C45.4462 59.5791 45.5092 59.5012 45.5639 59.3857C45.6201 59.2695 45.6471 59.0963 45.6471 58.8646V54.5146C45.6471 54.2829 45.6201 54.1067 45.5639 53.9845C45.5092 53.863 45.4462 53.7806 45.3764 53.7371C45.3067 53.6943 45.2715 53.6779 45.2715 53.6891H46.9832C47.2801 53.6891 47.5245 53.7086 47.7164 53.7461C47.9084 53.7836 48.0778 53.8405 48.2225 53.9155C48.4842 54.0482 48.6851 54.2409 48.8253 54.4928C48.9655 54.7447 49.0345 55.0154 49.0345 55.3048C49.0345 55.6399 48.955 55.9398 48.7946 56.203ZM47.9781 54.4186C47.7217 54.1644 47.382 54.037 46.9569 54.037H46.2761V56.6326C46.5266 56.6791 46.7882 56.7023 47.0611 56.7023C47.4682 56.7023 47.7884 56.5854 48.0171 56.3507C48.248 56.1168 48.3627 55.8049 48.3627 55.4173C48.3627 55.0064 48.2345 54.6735 47.9781 54.4186V54.4186Z" stroke="white" stroke-width="0.109008" stroke-miterlimit="10" stroke-linejoin="round"/>
<path d="M50.0848 59.6233C50.1567 59.5798 50.222 59.4989 50.2819 59.3804C50.3412 59.2619 50.3712 59.0865 50.3712 58.8548V54.4965C50.3712 54.2649 50.3427 54.0902 50.2857 53.971C50.2287 53.8525 50.165 53.773 50.0938 53.7325C50.0225 53.692 49.9865 53.6778 49.9865 53.689H51.4096C51.4096 53.6778 51.3736 53.692 51.3023 53.7325C51.2304 53.773 51.1644 53.8525 51.1052 53.971C51.0452 54.0902 51.0152 54.2649 51.0152 54.4965V58.8548C51.0152 59.0865 51.0452 59.2619 51.1052 59.3804C51.1644 59.4989 51.2304 59.5783 51.3023 59.6188C51.3736 59.6593 51.4096 59.6743 51.4096 59.6623H49.9775C49.9775 59.6803 50.0128 59.6668 50.0848 59.6233Z" fill="white"/>
<path d="M50.0848 59.6233C50.1567 59.5798 50.222 59.4989 50.2819 59.3804C50.3412 59.2619 50.3712 59.0865 50.3712 58.8548V54.4965C50.3712 54.2649 50.3427 54.0902 50.2857 53.971C50.2287 53.8525 50.165 53.773 50.0938 53.7325C50.0225 53.692 49.9865 53.6778 49.9865 53.689H51.4096C51.4096 53.6778 51.3736 53.692 51.3023 53.7325C51.2304 53.773 51.1644 53.8525 51.1052 53.971C51.0452 54.0902 51.0152 54.2649 51.0152 54.4965V58.8548C51.0152 59.0865 51.0452 59.2619 51.1052 59.3804C51.1644 59.4989 51.2304 59.5783 51.3023 59.6188C51.3736 59.6593 51.4096 59.6743 51.4096 59.6623H49.9775C49.9775 59.6803 50.0128 59.6668 50.0848 59.6233Z" stroke="white" stroke-width="0.109008" stroke-miterlimit="10" stroke-linejoin="round"/>
<path d="M58.2641 53.6886C58.1831 53.7059 58.1036 53.7711 58.0256 53.8836C57.9469 53.9968 57.9079 54.1955 57.9079 54.4789V59.9033L53.4627 54.7218V58.8792C53.4627 59.1566 53.5114 59.3515 53.6096 59.4647C53.7078 59.5772 53.8038 59.6424 53.8968 59.6604H52.6717C52.7527 59.6424 52.8351 59.5772 52.9191 59.4647C53.0031 59.3515 53.0451 59.1543 53.0451 58.8702V54.5306C53.0451 54.3342 52.9783 54.1542 52.8456 53.993C52.7122 53.8304 52.5442 53.7291 52.3418 53.6886H53.4184L57.4911 58.4368V54.4789C57.4911 54.0328 57.3404 53.7696 57.0397 53.6886H58.2641Z" fill="white"/>
<path d="M58.2641 53.6886C58.1831 53.7059 58.1036 53.7711 58.0256 53.8836C57.9469 53.9968 57.9079 54.1955 57.9079 54.4789V59.9033L53.4627 54.7218V58.8792C53.4627 59.1566 53.5114 59.3515 53.6096 59.4647C53.7078 59.5772 53.8038 59.6424 53.8968 59.6604H52.6717C52.7527 59.6424 52.8351 59.5772 52.9191 59.4647C53.0031 59.3515 53.0451 59.1543 53.0451 58.8702V54.5306C53.0451 54.3342 52.9783 54.1542 52.8456 53.993C52.7122 53.8304 52.5442 53.7291 52.3418 53.6886H53.4184L57.4911 58.4368V54.4789C57.4911 54.0328 57.3404 53.7696 57.0397 53.6886H58.2641Z" stroke="white" stroke-width="0.109008" stroke-miterlimit="10" stroke-linejoin="round"/>
<path d="M63.4838 59.5845C63.1299 59.706 62.7738 59.7667 62.4139 59.7667C61.8748 59.7667 61.3732 59.6423 60.9084 59.3933C60.4443 59.1452 60.0724 58.7861 59.7912 58.3175C59.5093 57.8481 59.3691 57.2985 59.3691 56.668C59.3691 56.078 59.4981 55.5479 59.756 55.0793C60.0147 54.6107 60.3821 54.2448 60.8611 53.9817C61.3395 53.7185 61.8973 53.5865 62.5353 53.5865C63.2146 53.5865 63.8167 53.7342 64.3445 54.0289V54.9923C64.1653 54.6744 63.9044 54.4218 63.5617 54.2336C63.2199 54.0454 62.8547 53.9509 62.4656 53.9509C61.9723 53.9509 61.5457 54.0671 61.1828 54.2981C60.8199 54.5297 60.5432 54.8469 60.3521 55.2487C60.1601 55.6514 60.0649 56.1012 60.0649 56.599C60.0649 57.1598 60.1736 57.6487 60.391 58.0655C60.6092 58.4824 60.9031 58.8018 61.2743 59.0245C61.6454 59.2479 62.06 59.3589 62.5181 59.3589C63.2543 59.3589 63.8639 59.1452 64.3445 58.7163V59.1332C64.1248 59.3124 63.8369 59.4631 63.4838 59.5845Z" fill="white"/>
<path d="M63.4838 59.5845C63.1299 59.706 62.7738 59.7667 62.4139 59.7667C61.8748 59.7667 61.3732 59.6423 60.9084 59.3933C60.4443 59.1452 60.0724 58.7861 59.7912 58.3175C59.5093 57.8481 59.3691 57.2985 59.3691 56.668C59.3691 56.078 59.4981 55.5479 59.756 55.0793C60.0147 54.6107 60.3821 54.2448 60.8611 53.9817C61.3395 53.7185 61.8973 53.5865 62.5353 53.5865C63.2146 53.5865 63.8167 53.7342 64.3445 54.0289V54.9923C64.1653 54.6744 63.9044 54.4218 63.5617 54.2336C63.2199 54.0454 62.8547 53.9509 62.4656 53.9509C61.9723 53.9509 61.5457 54.0671 61.1828 54.2981C60.8199 54.5297 60.5432 54.8469 60.3521 55.2487C60.1601 55.6514 60.0649 56.1012 60.0649 56.599C60.0649 57.1598 60.1736 57.6487 60.391 58.0655C60.6092 58.4824 60.9031 58.8018 61.2743 59.0245C61.6454 59.2479 62.06 59.3589 62.5181 59.3589C63.2543 59.3589 63.8639 59.1452 64.3445 58.7163V59.1332C64.1248 59.3124 63.8369 59.4631 63.4838 59.5845Z" stroke="white" stroke-width="0.109008" stroke-miterlimit="10" stroke-linejoin="round"/>
<path d="M69.5951 59.6233C69.6649 59.5798 69.7286 59.4989 69.7863 59.3804C69.8441 59.2619 69.8733 59.0865 69.8733 58.8548V56.8837H66.6044V58.8548C66.6044 59.0865 66.6336 59.2619 66.6914 59.3804C66.7498 59.4989 66.8136 59.5783 66.8826 59.6188C66.9523 59.6593 66.9868 59.6743 66.9868 59.6623H65.605C65.605 59.6803 65.6402 59.6668 65.7092 59.6233C65.7789 59.5798 65.8412 59.4989 65.8959 59.3804C65.9506 59.2619 65.9784 59.0865 65.9784 58.8548V54.4965C65.9784 54.2649 65.9506 54.0902 65.8959 53.971C65.8412 53.8525 65.7789 53.773 65.7092 53.7325C65.6402 53.692 65.605 53.6778 65.605 53.689H66.9868C66.9868 53.6778 66.9523 53.692 66.8826 53.7325C66.8136 53.773 66.7498 53.8525 66.6914 53.971C66.6336 54.0902 66.6044 54.2649 66.6044 54.4965V56.5021H69.8733V54.4965C69.8733 54.2649 69.8441 54.0902 69.7863 53.971C69.7286 53.8525 69.6649 53.773 69.5951 53.7325C69.5254 53.692 69.4909 53.6778 69.4909 53.689H70.8727C70.8727 53.6718 70.8382 53.6845 70.7685 53.728C70.6995 53.7715 70.6373 53.8525 70.5818 53.971C70.5271 54.0902 70.4993 54.2649 70.4993 54.4965V58.8548C70.4993 59.0865 70.5278 59.2619 70.5863 59.3804C70.644 59.4989 70.7078 59.5783 70.7775 59.6188C70.8472 59.6593 70.8817 59.6743 70.8817 59.6623H69.4909C69.4909 59.6803 69.5254 59.6668 69.5951 59.6233Z" fill="white"/>
<path d="M69.5951 59.6233C69.6649 59.5798 69.7286 59.4989 69.7863 59.3804C69.8441 59.2619 69.8733 59.0865 69.8733 58.8548V56.8837H66.6044V58.8548C66.6044 59.0865 66.6336 59.2619 66.6914 59.3804C66.7498 59.4989 66.8136 59.5783 66.8826 59.6188C66.9523 59.6593 66.9868 59.6743 66.9868 59.6623H65.605C65.605 59.6803 65.6402 59.6668 65.7092 59.6233C65.7789 59.5798 65.8412 59.4989 65.8959 59.3804C65.9506 59.2619 65.9784 59.0865 65.9784 58.8548V54.4965C65.9784 54.2649 65.9506 54.0902 65.8959 53.971C65.8412 53.8525 65.7789 53.773 65.7092 53.7325C65.6402 53.692 65.605 53.6778 65.605 53.689H66.9868C66.9868 53.6778 66.9523 53.692 66.8826 53.7325C66.8136 53.773 66.7498 53.8525 66.6914 53.971C66.6336 54.0902 66.6044 54.2649 66.6044 54.4965V56.5021H69.8733V54.4965C69.8733 54.2649 69.8441 54.0902 69.7863 53.971C69.7286 53.8525 69.6649 53.773 69.5951 53.7325C69.5254 53.692 69.4909 53.6778 69.4909 53.689H70.8727C70.8727 53.6718 70.8382 53.6845 70.7685 53.728C70.6995 53.7715 70.6373 53.8525 70.5818 53.971C70.5271 54.0902 70.4993 54.2649 70.4993 54.4965V58.8548C70.4993 59.0865 70.5278 59.2619 70.5863 59.3804C70.644 59.4989 70.7078 59.5783 70.7775 59.6188C70.8472 59.6593 70.8817 59.6743 70.8817 59.6623H69.4909C69.4909 59.6803 69.5254 59.6668 69.5951 59.6233Z" stroke="white" stroke-width="0.109008" stroke-miterlimit="10" stroke-linejoin="round"/>
<path d="M73.2419 57.3451L72.6863 58.7254C72.5994 58.9391 72.5559 59.116 72.5559 59.2547C72.5559 59.4459 72.6428 59.5816 72.8168 59.6626H71.5752C71.6329 59.6626 71.7161 59.6049 71.8264 59.4887C71.9366 59.3732 72.064 59.1445 72.2087 58.8034L74.4752 53.4134L76.7252 58.8289C76.8519 59.1415 76.9756 59.356 77.0941 59.4714C77.2126 59.5869 77.307 59.6506 77.3768 59.6626H75.9342C76.0797 59.5929 76.1517 59.4864 76.1517 59.3417C76.1517 59.2202 76.1052 59.0463 76.0122 58.8206L75.4049 57.3451H73.2419ZM75.2662 56.9897L74.3193 54.6723L73.3896 56.9897H75.2662Z" fill="white"/>
<path d="M73.2419 57.3451L72.6863 58.7254C72.5994 58.9391 72.5559 59.116 72.5559 59.2547C72.5559 59.4459 72.6428 59.5816 72.8168 59.6626H71.5752C71.6329 59.6626 71.7161 59.6049 71.8264 59.4887C71.9366 59.3732 72.064 59.1445 72.2087 58.8034L74.4752 53.4134L76.7252 58.8289C76.8519 59.1415 76.9756 59.356 77.0941 59.4714C77.2126 59.5869 77.307 59.6506 77.3768 59.6626H75.9342C76.0797 59.5929 76.1517 59.4864 76.1517 59.3417C76.1517 59.2202 76.1052 59.0463 76.0122 58.8206L75.4049 57.3451H73.2419ZM75.2662 56.9897L74.3193 54.6723L73.3896 56.9897H75.2662Z" stroke="white" stroke-width="0.109008" stroke-miterlimit="10" stroke-linejoin="round"/>
<path d="M78.7769 59.6408C78.4972 59.5568 78.2461 59.4391 78.0249 59.2891V58.2387C78.1764 58.6264 78.408 58.9203 78.7199 59.1197C79.0318 59.3199 79.3565 59.4196 79.6946 59.4196C80.0327 59.4196 80.3161 59.3079 80.5433 59.0852C80.7705 58.8625 80.8844 58.5859 80.8844 58.256C80.8844 58.0363 80.8387 57.8481 80.748 57.6922C80.658 57.5355 80.5133 57.39 80.3161 57.2536C80.1175 57.1179 79.8378 56.9657 79.4764 56.7977C78.9688 56.5668 78.6 56.3254 78.3705 56.0735C78.1396 55.8215 78.0249 55.5164 78.0249 55.158C78.0249 54.8506 78.0991 54.5777 78.2476 54.337C78.3968 54.0971 78.597 53.9119 78.8511 53.7815C79.1045 53.6518 79.3827 53.5865 79.6863 53.5865C79.948 53.5865 80.2044 53.6225 80.4548 53.6953C80.706 53.7672 80.9392 53.8699 81.1544 54.0034V54.9406C81.0149 54.6227 80.8035 54.3753 80.5216 54.1983C80.2382 54.0221 79.951 53.9337 79.6601 53.9337C79.3272 53.9337 79.0596 54.0409 78.8556 54.2546C78.6517 54.469 78.5497 54.7239 78.5497 55.0186C78.5497 55.233 78.6105 55.4159 78.7327 55.5696C78.8556 55.7233 79.0056 55.8523 79.1833 55.9557C79.361 56.06 79.6106 56.1874 79.9315 56.3381C80.2577 56.4941 80.5253 56.6388 80.7352 56.7715C80.9452 56.9049 81.1199 57.0789 81.2601 57.2926C81.3995 57.507 81.47 57.7671 81.47 58.0738C81.47 58.4209 81.386 58.7223 81.2203 58.9772C81.0546 59.2314 80.8327 59.4271 80.5561 59.5628C80.2794 59.6985 79.978 59.7667 79.6511 59.7667C79.3482 59.7667 79.0566 59.7247 78.7769 59.6408Z" fill="white"/>
<path d="M78.7769 59.6408C78.4972 59.5568 78.2461 59.4391 78.0249 59.2891V58.2387C78.1764 58.6264 78.408 58.9203 78.7199 59.1197C79.0318 59.3199 79.3565 59.4196 79.6946 59.4196C80.0327 59.4196 80.3161 59.3079 80.5433 59.0852C80.7705 58.8625 80.8844 58.5859 80.8844 58.256C80.8844 58.0363 80.8387 57.8481 80.748 57.6922C80.658 57.5355 80.5133 57.39 80.3161 57.2536C80.1175 57.1179 79.8378 56.9657 79.4764 56.7977C78.9688 56.5668 78.6 56.3254 78.3705 56.0735C78.1396 55.8215 78.0249 55.5164 78.0249 55.158C78.0249 54.8506 78.0991 54.5777 78.2476 54.337C78.3968 54.0971 78.597 53.9119 78.8511 53.7815C79.1045 53.6518 79.3827 53.5865 79.6863 53.5865C79.948 53.5865 80.2044 53.6225 80.4548 53.6953C80.706 53.7672 80.9392 53.8699 81.1544 54.0034V54.9406C81.0149 54.6227 80.8035 54.3753 80.5216 54.1983C80.2382 54.0221 79.951 53.9337 79.6601 53.9337C79.3272 53.9337 79.0596 54.0409 78.8556 54.2546C78.6517 54.469 78.5497 54.7239 78.5497 55.0186C78.5497 55.233 78.6105 55.4159 78.7327 55.5696C78.8556 55.7233 79.0056 55.8523 79.1833 55.9557C79.361 56.06 79.6106 56.1874 79.9315 56.3381C80.2577 56.4941 80.5253 56.6388 80.7352 56.7715C80.9452 56.9049 81.1199 57.0789 81.2601 57.2926C81.3995 57.507 81.47 57.7671 81.47 58.0738C81.47 58.4209 81.386 58.7223 81.2203 58.9772C81.0546 59.2314 80.8327 59.4271 80.5561 59.5628C80.2794 59.6985 79.978 59.7667 79.6511 59.7667C79.3482 59.7667 79.0566 59.7247 78.7769 59.6408Z" stroke="white" stroke-width="0.109008" stroke-miterlimit="10" stroke-linejoin="round"/>
<path d="M82.6998 59.6233C82.7717 59.5798 82.837 59.4989 82.8969 59.3804C82.9562 59.2619 82.9862 59.0865 82.9862 58.8548V54.4965C82.9862 54.2649 82.9584 54.0902 82.9014 53.971C82.8445 53.8525 82.78 53.773 82.7088 53.7325C82.6375 53.692 82.6015 53.6778 82.6015 53.689H84.0246C84.0246 53.6778 83.9886 53.692 83.9174 53.7325C83.8454 53.773 83.7794 53.8525 83.7202 53.971C83.6609 54.0902 83.6309 54.2649 83.6309 54.4965V58.8548C83.6309 59.0865 83.6609 59.2619 83.7202 59.3804C83.7794 59.4989 83.8454 59.5783 83.9174 59.6188C83.9886 59.6593 84.0246 59.6743 84.0246 59.6623H82.5918C82.5918 59.6803 82.6285 59.6668 82.6998 59.6233Z" fill="white"/>
<path d="M82.6998 59.6233C82.7717 59.5798 82.837 59.4989 82.8969 59.3804C82.9562 59.2619 82.9862 59.0865 82.9862 58.8548V54.4965C82.9862 54.2649 82.9584 54.0902 82.9014 53.971C82.8445 53.8525 82.78 53.773 82.7088 53.7325C82.6375 53.692 82.6015 53.6778 82.6015 53.689H84.0246C84.0246 53.6778 83.9886 53.692 83.9174 53.7325C83.8454 53.773 83.7794 53.8525 83.7202 53.971C83.6609 54.0902 83.6309 54.2649 83.6309 54.4965V58.8548C83.6309 59.0865 83.6609 59.2619 83.7202 59.3804C83.7794 59.4989 83.8454 59.5783 83.9174 59.6188C83.9886 59.6593 84.0246 59.6743 84.0246 59.6623H82.5918C82.5918 59.6803 82.6285 59.6668 82.6998 59.6233Z" stroke="white" stroke-width="0.109008" stroke-miterlimit="10" stroke-linejoin="round"/>
<path d="M91.0301 54.558V53.6898H95.4521L91.8308 59.3159H94.5119C94.7728 59.3159 94.9977 59.2627 95.1859 59.1555C95.3749 59.0483 95.5098 58.9111 95.5908 58.7431L95.4341 59.6638H90.8389L94.4684 54.0369H91.9702C91.4484 54.0369 91.1343 54.2109 91.0301 54.558Z" fill="white"/>
<path d="M91.0301 54.558V53.6898H95.4521L91.8308 59.3159H94.5119C94.7728 59.3159 94.9977 59.2627 95.1859 59.1555C95.3749 59.0483 95.5098 58.9111 95.5908 58.7431L95.4341 59.6638H90.8389L94.4684 54.0369H91.9702C91.4484 54.0369 91.1343 54.2109 91.0301 54.558Z" stroke="white" stroke-width="0.109008" stroke-miterlimit="10" stroke-linejoin="round"/>
<path d="M99.1259 56.4722C99.3223 56.3478 99.4723 56.1858 99.5742 55.9864C99.6755 55.7862 99.7257 55.5763 99.7257 55.3566C99.7257 55.1309 99.6777 54.918 99.5825 54.7186C99.4865 54.5191 99.3403 54.3549 99.1431 54.2282C98.9452 54.1 98.7045 54.0363 98.4204 54.0363H97.6804V58.8639C97.6804 59.0956 97.7089 59.2711 97.7673 59.3895C97.8251 59.508 97.8896 59.5867 97.9593 59.6242C98.0283 59.6617 98.0635 59.6744 98.0635 59.6632H96.6787C96.6787 59.6744 96.7139 59.6602 96.7829 59.6197C96.8534 59.5792 96.9149 59.5012 96.9704 59.385C97.0258 59.2696 97.0528 59.0956 97.0528 58.8639V54.5229C97.0528 54.2852 97.0258 54.1045 96.9704 53.9808C96.9149 53.8556 96.8534 53.7716 96.7829 53.7282C96.7139 53.6854 96.6787 53.6719 96.6787 53.6892H98.4024C98.856 53.6892 99.2286 53.7634 99.5218 53.9103C99.8142 54.0588 100.026 54.2492 100.157 54.4839C100.288 54.7186 100.353 54.9742 100.353 55.2524C100.353 55.4841 100.298 55.7112 100.188 55.9339C100.077 56.1566 99.9191 56.3508 99.7137 56.5157C99.5068 56.6807 99.2676 56.7946 98.9947 56.8584L98.856 56.8846L100.388 58.8294C100.592 59.0551 100.76 59.2291 100.892 59.3505C101.027 59.472 101.124 59.553 101.185 59.5934C101.246 59.6339 101.281 59.6572 101.293 59.6632H100.275L97.9068 56.6589H98.4286C98.6963 56.6589 98.928 56.5967 99.1259 56.4722Z" fill="white"/>
<path d="M99.1259 56.4722C99.3223 56.3478 99.4723 56.1858 99.5742 55.9864C99.6755 55.7862 99.7257 55.5763 99.7257 55.3566C99.7257 55.1309 99.6777 54.918 99.5825 54.7186C99.4865 54.5191 99.3403 54.3549 99.1431 54.2282C98.9452 54.1 98.7045 54.0363 98.4204 54.0363H97.6804V58.8639C97.6804 59.0956 97.7089 59.2711 97.7673 59.3895C97.8251 59.508 97.8896 59.5867 97.9593 59.6242C98.0283 59.6617 98.0635 59.6744 98.0635 59.6632H96.6787C96.6787 59.6744 96.7139 59.6602 96.7829 59.6197C96.8534 59.5792 96.9149 59.5012 96.9704 59.385C97.0258 59.2696 97.0528 59.0956 97.0528 58.8639V54.5229C97.0528 54.2852 97.0258 54.1045 96.9704 53.9808C96.9149 53.8556 96.8534 53.7716 96.7829 53.7282C96.7139 53.6854 96.6787 53.6719 96.6787 53.6892H98.4024C98.856 53.6892 99.2286 53.7634 99.5218 53.9103C99.8142 54.0588 100.026 54.2492 100.157 54.4839C100.288 54.7186 100.353 54.9742 100.353 55.2524C100.353 55.4841 100.298 55.7112 100.188 55.9339C100.077 56.1566 99.9191 56.3508 99.7137 56.5157C99.5068 56.6807 99.2676 56.7946 98.9947 56.8584L98.856 56.8846L100.388 58.8294C100.592 59.0551 100.76 59.2291 100.892 59.3505C101.027 59.472 101.124 59.553 101.185 59.5934C101.246 59.6339 101.281 59.6572 101.293 59.6632H100.275L97.9068 56.6589H98.4286C98.6963 56.6589 98.928 56.5967 99.1259 56.4722V56.4722Z" stroke="white" stroke-width="0.109008" stroke-miterlimit="10" stroke-linejoin="round"/>
<path d="M102.111 59.6233C102.182 59.5798 102.248 59.4989 102.308 59.3804C102.367 59.2619 102.397 59.0865 102.397 58.8548V54.4965C102.397 54.2649 102.369 54.0902 102.312 53.971C102.255 53.8525 102.191 53.773 102.119 53.7325C102.049 53.692 102.012 53.6778 102.012 53.689H103.436C103.436 53.6778 103.4 53.692 103.328 53.7325C103.257 53.773 103.191 53.8525 103.131 53.971C103.071 54.0902 103.042 54.2649 103.042 54.4965V58.8548C103.042 59.0865 103.071 59.2619 103.131 59.3804C103.191 59.4989 103.257 59.5783 103.328 59.6188C103.4 59.6593 103.436 59.6743 103.436 59.6623H102.003C102.003 59.6803 102.039 59.6668 102.111 59.6233Z" fill="white"/>
<path d="M102.111 59.6233C102.182 59.5798 102.248 59.4989 102.308 59.3804C102.367 59.2619 102.397 59.0865 102.397 58.8548V54.4965C102.397 54.2649 102.369 54.0902 102.312 53.971C102.255 53.8525 102.191 53.773 102.119 53.7325C102.049 53.692 102.012 53.6778 102.012 53.689H103.436C103.436 53.6778 103.4 53.692 103.328 53.7325C103.257 53.773 103.191 53.8525 103.131 53.971C103.071 54.0902 103.042 54.2649 103.042 54.4965V58.8548C103.042 59.0865 103.071 59.2619 103.131 59.3804C103.191 59.4989 103.257 59.5783 103.328 59.6188C103.4 59.6593 103.436 59.6743 103.436 59.6623H102.003C102.003 59.6803 102.039 59.6668 102.111 59.6233Z" stroke="white" stroke-width="0.109008" stroke-miterlimit="10" stroke-linejoin="round"/>
<path d="M108.686 59.6233C108.755 59.5798 108.819 59.4989 108.877 59.3804C108.935 59.2619 108.964 59.0865 108.964 58.8548V56.8837H105.695V58.8548C105.695 59.0865 105.724 59.2619 105.782 59.3804C105.84 59.4989 105.904 59.5783 105.973 59.6188C106.043 59.6593 106.078 59.6743 106.078 59.6623H104.696C104.696 59.6803 104.73 59.6668 104.8 59.6233C104.87 59.5798 104.932 59.4989 104.987 59.3804C105.042 59.2619 105.069 59.0865 105.069 58.8548V54.4965C105.069 54.2649 105.042 54.0902 104.987 53.971C104.932 53.8525 104.87 53.773 104.8 53.7325C104.73 53.692 104.696 53.6778 104.696 53.689H106.078C106.078 53.6778 106.043 53.692 105.973 53.7325C105.904 53.773 105.84 53.8525 105.782 53.971C105.724 54.0902 105.695 54.2649 105.695 54.4965V56.5021H108.964V54.4965C108.964 54.2649 108.935 54.0902 108.877 53.971C108.819 53.8525 108.755 53.773 108.686 53.7325C108.616 53.692 108.581 53.6778 108.581 53.689H109.964C109.964 53.6718 109.93 53.6845 109.859 53.728C109.79 53.7715 109.728 53.8525 109.673 53.971C109.617 54.0902 109.59 54.2649 109.59 54.4965V58.8548C109.59 59.0865 109.619 59.2619 109.677 59.3804C109.735 59.4989 109.799 59.5783 109.868 59.6188C109.937 59.6593 109.973 59.6743 109.973 59.6623H108.581C108.581 59.6803 108.616 59.6668 108.686 59.6233Z" fill="white"/>
<path d="M108.686 59.6233C108.755 59.5798 108.819 59.4989 108.877 59.3804C108.935 59.2619 108.964 59.0865 108.964 58.8548V56.8837H105.695V58.8548C105.695 59.0865 105.724 59.2619 105.782 59.3804C105.84 59.4989 105.904 59.5783 105.973 59.6188C106.043 59.6593 106.078 59.6743 106.078 59.6623H104.696C104.696 59.6803 104.73 59.6668 104.8 59.6233C104.87 59.5798 104.932 59.4989 104.987 59.3804C105.042 59.2619 105.069 59.0865 105.069 58.8548V54.4965C105.069 54.2649 105.042 54.0902 104.987 53.971C104.932 53.8525 104.87 53.773 104.8 53.7325C104.73 53.692 104.696 53.6778 104.696 53.689H106.078C106.078 53.6778 106.043 53.692 105.973 53.7325C105.904 53.773 105.84 53.8525 105.782 53.971C105.724 54.0902 105.695 54.2649 105.695 54.4965V56.5021H108.964V54.4965C108.964 54.2649 108.935 54.0902 108.877 53.971C108.819 53.8525 108.755 53.773 108.686 53.7325C108.616 53.692 108.581 53.6778 108.581 53.689H109.964C109.964 53.6718 109.93 53.6845 109.859 53.728C109.79 53.7715 109.728 53.8525 109.673 53.971C109.617 54.0902 109.59 54.2649 109.59 54.4965V58.8548C109.59 59.0865 109.619 59.2619 109.677 59.3804C109.735 59.4989 109.799 59.5783 109.868 59.6188C109.937 59.6593 109.973 59.6743 109.973 59.6623H108.581C108.581 59.6803 108.616 59.6668 108.686 59.6233Z" stroke="white" stroke-width="0.109008" stroke-miterlimit="10" stroke-linejoin="round"/>
<path d="M112.332 57.3451L111.776 58.7254C111.69 58.9391 111.645 59.116 111.645 59.2547C111.645 59.4459 111.732 59.5816 111.906 59.6626H110.664C110.723 59.6626 110.807 59.6049 110.916 59.4887C111.026 59.3732 111.154 59.1445 111.298 58.8034L113.566 53.4134L115.815 58.8289C115.942 59.1415 116.065 59.356 116.184 59.4714C116.302 59.5869 116.397 59.6506 116.466 59.6626H115.024C115.169 59.5929 115.241 59.4864 115.241 59.3417C115.241 59.2202 115.195 59.0463 115.103 58.8206L114.495 57.3451H112.332ZM114.356 56.9897L113.409 54.6723L112.48 56.9897H114.356Z" fill="white"/>
<path d="M112.332 57.3451L111.776 58.7254C111.69 58.9391 111.645 59.116 111.645 59.2547C111.645 59.4459 111.732 59.5816 111.906 59.6626H110.664C110.723 59.6626 110.807 59.6049 110.916 59.4887C111.026 59.3732 111.154 59.1445 111.298 58.8034L113.566 53.4134L115.815 58.8289C115.942 59.1415 116.065 59.356 116.184 59.4714C116.302 59.5869 116.397 59.6506 116.466 59.6626H115.024C115.169 59.5929 115.241 59.4864 115.241 59.3417C115.241 59.2202 115.195 59.0463 115.103 58.8206L114.495 57.3451H112.332ZM114.356 56.9897L113.409 54.6723L112.48 56.9897H114.356Z" stroke="white" stroke-width="0.109008" stroke-miterlimit="10" stroke-linejoin="round"/>
<path d="M122.745 53.6886C122.664 53.7059 122.585 53.7711 122.507 53.8836C122.429 53.9968 122.389 54.1955 122.389 54.4789V59.9033L117.943 54.7218V58.8792C117.943 59.1566 117.993 59.3515 118.091 59.4647C118.189 59.5772 118.285 59.6424 118.377 59.6604H117.154C117.234 59.6424 117.317 59.5772 117.401 59.4647C117.484 59.3515 117.527 59.1543 117.527 58.8702V54.5306C117.527 54.3342 117.46 54.1542 117.327 53.993C117.194 53.8304 117.026 53.7291 116.824 53.6886H117.9L121.972 58.4368V54.4789C121.972 54.0328 121.822 53.7696 121.521 53.6886H122.745Z" fill="white"/>
<path d="M122.745 53.6886C122.664 53.7059 122.585 53.7711 122.507 53.8836C122.429 53.9968 122.389 54.1955 122.389 54.4789V59.9033L117.943 54.7218V58.8792C117.943 59.1566 117.993 59.3515 118.091 59.4647C118.189 59.5772 118.285 59.6424 118.377 59.6604H117.154C117.234 59.6424 117.317 59.5772 117.401 59.4647C117.484 59.3515 117.527 59.1543 117.527 58.8702V54.5306C117.527 54.3342 117.46 54.1542 117.327 53.993C117.194 53.8304 117.026 53.7291 116.824 53.6886H117.9L121.972 58.4368V54.4789C121.972 54.0328 121.822 53.7696 121.521 53.6886H122.745Z" stroke="white" stroke-width="0.109008" stroke-miterlimit="10" stroke-linejoin="round"/>
<path d="M131.806 59.6281C131.611 59.6514 131.341 59.6626 130.999 59.6626H129.559C129.634 59.6454 129.715 59.5801 129.803 59.4677C129.891 59.3545 129.933 59.1363 129.933 58.8116V54.5141C129.933 54.2127 129.893 54.0065 129.812 53.8933C129.73 53.7801 129.649 53.7126 129.568 53.6893H130.999C131.371 53.6893 131.655 53.7051 131.85 53.7373C132.044 53.7688 132.215 53.8168 132.36 53.8798C132.616 54.002 132.814 54.1722 132.953 54.3926C133.093 54.6123 133.163 54.85 133.163 55.1049C133.163 55.4925 133.045 55.8269 132.81 56.1073C132.574 56.3877 132.264 56.5691 131.881 56.6501C132.142 56.6793 132.39 56.7543 132.627 56.8758C132.862 56.9972 133.054 57.1622 133.202 57.3706C133.351 57.579 133.425 57.8167 133.425 58.0829C133.425 58.4533 133.326 58.7554 133.128 58.9901C132.931 59.224 132.663 59.3994 132.325 59.5156C132.174 59.5674 132.001 59.6049 131.806 59.6281ZM131.706 54.1017C131.572 54.0582 131.391 54.0365 131.165 54.0365H130.562V56.5024H131.27C131.479 56.5024 131.653 56.4709 131.793 56.4072C131.932 56.3435 132.055 56.2595 132.159 56.1553C132.27 56.0451 132.357 55.9116 132.421 55.7557C132.486 55.5997 132.517 55.44 132.517 55.2781C132.517 55.0816 132.481 54.8964 132.408 54.7225C132.336 54.5486 132.226 54.4069 132.081 54.2966C131.965 54.2104 131.839 54.1452 131.706 54.1017ZM131.854 56.9103C131.691 56.8698 131.47 56.8495 131.191 56.8495H130.562V59.3155H131.391C131.81 59.3155 132.138 59.2165 132.373 59.0201C132.609 58.8236 132.726 58.511 132.726 58.0829C132.726 57.6833 132.572 57.3564 132.264 57.1015C132.153 57.0145 132.016 56.9508 131.854 56.9103Z" fill="white"/>
<path d="M131.806 59.6281C131.611 59.6514 131.341 59.6626 130.999 59.6626H129.559C129.634 59.6454 129.715 59.5801 129.803 59.4677C129.891 59.3545 129.933 59.1363 129.933 58.8116V54.5141C129.933 54.2127 129.893 54.0065 129.812 53.8933C129.73 53.7801 129.649 53.7126 129.568 53.6893H130.999C131.371 53.6893 131.655 53.7051 131.85 53.7373C132.044 53.7688 132.215 53.8168 132.36 53.8798C132.616 54.002 132.814 54.1722 132.953 54.3926C133.093 54.6123 133.163 54.85 133.163 55.1049C133.163 55.4925 133.045 55.8269 132.81 56.1073C132.574 56.3877 132.264 56.5691 131.881 56.6501C132.142 56.6793 132.39 56.7543 132.627 56.8758C132.862 56.9972 133.054 57.1622 133.202 57.3706C133.351 57.579 133.425 57.8167 133.425 58.0829C133.425 58.4533 133.326 58.7554 133.128 58.9901C132.931 59.224 132.663 59.3994 132.325 59.5156C132.174 59.5674 132.001 59.6049 131.806 59.6281ZM131.706 54.1017C131.572 54.0582 131.391 54.0365 131.165 54.0365H130.562V56.5024H131.27C131.479 56.5024 131.653 56.4709 131.793 56.4072C131.932 56.3435 132.055 56.2595 132.159 56.1553C132.27 56.0451 132.357 55.9116 132.421 55.7557C132.486 55.5997 132.517 55.44 132.517 55.2781C132.517 55.0816 132.481 54.8964 132.408 54.7225C132.336 54.5486 132.226 54.4069 132.081 54.2966C131.965 54.2104 131.839 54.1452 131.706 54.1017ZM131.854 56.9103C131.691 56.8698 131.47 56.8495 131.191 56.8495H130.562V59.3155H131.391C131.81 59.3155 132.138 59.2165 132.373 59.0201C132.609 58.8236 132.726 58.511 132.726 58.0829C132.726 57.6833 132.572 57.3564 132.264 57.1015C132.153 57.0145 132.016 56.9508 131.854 56.9103Z" stroke="white" stroke-width="0.109008" stroke-miterlimit="10" stroke-linejoin="round"/>
<path d="M134.651 59.6626C134.651 59.6799 134.686 59.6671 134.756 59.6236C134.825 59.5802 134.888 59.4932 134.944 59.3627C134.999 59.233 135.027 59.0433 135.027 58.7944V54.5313C135.027 54.2944 134.999 54.113 134.944 53.9885C134.888 53.8641 134.825 53.7793 134.756 53.7329C134.686 53.6864 134.651 53.6721 134.651 53.6886H137.816V54.5576C137.711 54.2104 137.396 54.0365 136.871 54.0365H135.657V56.5024H137.161C137.277 56.5024 137.376 56.4837 137.458 56.4462C137.539 56.408 137.6 56.369 137.641 56.3285C137.682 56.288 137.705 56.2625 137.711 56.2505V57.0925C137.705 57.0812 137.682 57.055 137.641 57.0145C137.6 56.974 137.541 56.9365 137.462 56.902C137.383 56.8668 137.286 56.8496 137.169 56.8496H135.657V59.3155H137.021C137.283 59.3155 137.509 59.2615 137.698 59.155C137.887 59.0478 138.023 58.9106 138.105 58.7419L137.947 59.6626H134.651Z" fill="white"/>
<path d="M134.651 59.6626C134.651 59.6799 134.686 59.6671 134.756 59.6236C134.825 59.5802 134.888 59.4932 134.944 59.3627C134.999 59.233 135.027 59.0433 135.027 58.7944V54.5313C135.027 54.2944 134.999 54.113 134.944 53.9885C134.888 53.8641 134.825 53.7793 134.756 53.7329C134.686 53.6864 134.651 53.6721 134.651 53.6886H137.816V54.5576C137.711 54.2104 137.396 54.0365 136.871 54.0365H135.657V56.5024H137.161C137.277 56.5024 137.376 56.4837 137.458 56.4462C137.539 56.408 137.6 56.369 137.641 56.3285C137.682 56.288 137.705 56.2625 137.711 56.2505V57.0925C137.705 57.0812 137.682 57.055 137.641 57.0145C137.6 56.974 137.541 56.9365 137.462 56.902C137.383 56.8668 137.286 56.8496 137.169 56.8496H135.657V59.3155H137.021C137.283 59.3155 137.509 59.2615 137.698 59.155C137.887 59.0478 138.023 58.9106 138.105 58.7419L137.947 59.6626H134.651Z" stroke="white" stroke-width="0.109008" stroke-miterlimit="10" stroke-linejoin="round"/>
<path d="M144.788 53.6886C144.707 53.7059 144.627 53.7711 144.549 53.8836C144.47 53.9968 144.431 54.1955 144.431 54.4789V59.9033L139.985 54.7218V58.8792C139.985 59.1566 140.035 59.3515 140.133 59.4647C140.231 59.5772 140.327 59.6424 140.419 59.6604H139.195C139.276 59.6424 139.359 59.5772 139.443 59.4647C139.527 59.3515 139.568 59.1543 139.568 58.8702V54.5306C139.568 54.3342 139.502 54.1542 139.369 53.993C139.236 53.8304 139.068 53.7291 138.865 53.6886H139.942L144.015 58.4368V54.4789C144.015 54.0328 143.864 53.7696 143.563 53.6886H144.788Z" fill="white"/>
<path d="M144.788 53.6886C144.707 53.7059 144.627 53.7711 144.549 53.8836C144.47 53.9968 144.431 54.1955 144.431 54.4789V59.9033L139.985 54.7218V58.8792C139.985 59.1566 140.035 59.3515 140.133 59.4647C140.231 59.5772 140.327 59.6424 140.419 59.6604H139.195C139.276 59.6424 139.359 59.5772 139.443 59.4647C139.527 59.3515 139.568 59.1543 139.568 58.8702V54.5306C139.568 54.3342 139.502 54.1542 139.369 53.993C139.236 53.8304 139.068 53.7291 138.865 53.6886H139.942L144.015 58.4368V54.4789C144.015 54.0328 143.864 53.7696 143.563 53.6886H144.788Z" stroke="white" stroke-width="0.109008" stroke-miterlimit="10" stroke-linejoin="round"/>
<path d="M148.275 59.6626C148.275 59.6799 148.31 59.6671 148.38 59.6236C148.45 59.5802 148.513 59.4932 148.568 59.3627C148.623 59.233 148.651 59.0433 148.651 58.7944V54.5313C148.651 54.2944 148.623 54.113 148.568 53.9885C148.513 53.8641 148.45 53.7793 148.38 53.7329C148.31 53.6864 148.275 53.6721 148.275 53.6886H151.44V54.5576C151.335 54.2104 151.02 54.0365 150.495 54.0365H149.281V56.5024H150.785C150.901 56.5024 151 56.4837 151.082 56.4462C151.163 56.408 151.224 56.369 151.265 56.3285C151.306 56.288 151.329 56.2625 151.335 56.2505V57.0925C151.329 57.0812 151.306 57.055 151.265 57.0145C151.224 56.974 151.165 56.9365 151.086 56.902C151.007 56.8668 150.91 56.8496 150.793 56.8496H149.281V59.3155H150.645C150.907 59.3155 151.133 59.2615 151.322 59.155C151.511 59.0478 151.647 58.9106 151.728 58.7419L151.571 59.6626H148.275Z" fill="white"/>
<path d="M148.275 59.6626C148.275 59.6799 148.31 59.6671 148.38 59.6236C148.45 59.5802 148.513 59.4932 148.568 59.3627C148.623 59.233 148.651 59.0433 148.651 58.7944V54.5313C148.651 54.2944 148.623 54.113 148.568 53.9885C148.513 53.8641 148.45 53.7793 148.38 53.7329C148.31 53.6864 148.275 53.6721 148.275 53.6886H151.44V54.5576C151.335 54.2104 151.02 54.0365 150.495 54.0365H149.281V56.5024H150.785C150.901 56.5024 151 56.4837 151.082 56.4462C151.163 56.408 151.224 56.369 151.265 56.3285C151.306 56.288 151.329 56.2625 151.335 56.2505V57.0925C151.329 57.0812 151.306 57.055 151.265 57.0145C151.224 56.974 151.165 56.9365 151.086 56.902C151.007 56.8668 150.91 56.8496 150.793 56.8496H149.281V59.3155H150.645C150.907 59.3155 151.133 59.2615 151.322 59.155C151.511 59.0478 151.647 58.9106 151.728 58.7419L151.571 59.6626H148.275Z" stroke="white" stroke-width="0.109008" stroke-miterlimit="10" stroke-linejoin="round"/>
<path d="M152.776 54.558V53.6898H157.197L153.577 59.3159H156.258C156.519 59.3159 156.743 59.2627 156.932 59.1555C157.12 59.0483 157.256 58.9111 157.337 58.7431L157.18 59.6638H152.584L156.214 54.0369H153.715C153.194 54.0369 152.88 54.2109 152.776 54.558Z" fill="white"/>
<path d="M152.776 54.558V53.6898H157.197L153.577 59.3159H156.258C156.519 59.3159 156.743 59.2627 156.932 59.1555C157.12 59.0483 157.256 58.9111 157.337 58.7431L157.18 59.6638H152.584L156.214 54.0369H153.715C153.194 54.0369 152.88 54.2109 152.776 54.558Z" stroke="white" stroke-width="0.109008" stroke-miterlimit="10" stroke-linejoin="round"/>
<path d="M160.871 56.4722C161.068 56.3478 161.218 56.1858 161.32 55.9864C161.422 55.7862 161.472 55.5763 161.472 55.3566C161.472 55.1309 161.424 54.918 161.329 54.7186C161.233 54.5191 161.086 54.3549 160.888 54.2282C160.691 54.1 160.45 54.0363 160.166 54.0363H159.426V58.8639C159.426 59.0956 159.455 59.2711 159.513 59.3895C159.571 59.508 159.635 59.5867 159.705 59.6242C159.774 59.6617 159.809 59.6744 159.809 59.6632H158.425C158.425 59.6744 158.459 59.6602 158.529 59.6197C158.599 59.5792 158.661 59.5012 158.716 59.385C158.771 59.2696 158.799 59.0956 158.799 58.8639V54.5229C158.799 54.2852 158.771 54.1045 158.716 53.9808C158.661 53.8556 158.599 53.7716 158.529 53.7282C158.459 53.6854 158.425 53.6719 158.425 53.6892H160.148C160.601 53.6892 160.975 53.7634 161.267 53.9103C161.56 54.0588 161.772 54.2492 161.903 54.4839C162.034 54.7186 162.099 54.9742 162.099 55.2524C162.099 55.4841 162.043 55.7112 161.934 55.9339C161.823 56.1566 161.664 56.3508 161.459 56.5157C161.253 56.6807 161.013 56.7946 160.74 56.8584L160.601 56.8846L162.134 58.8294C162.337 59.0551 162.505 59.2291 162.638 59.3505C162.772 59.472 162.869 59.553 162.93 59.5934C162.992 59.6339 163.028 59.6572 163.04 59.6632H162.021L159.652 56.6589H160.175C160.442 56.6589 160.674 56.5967 160.871 56.4722Z" fill="white"/>
<path d="M160.871 56.4722C161.068 56.3478 161.218 56.1858 161.32 55.9864C161.422 55.7862 161.472 55.5763 161.472 55.3566C161.472 55.1309 161.424 54.918 161.329 54.7186C161.233 54.5191 161.086 54.3549 160.888 54.2282C160.691 54.1 160.45 54.0363 160.166 54.0363H159.426V58.8639C159.426 59.0956 159.455 59.2711 159.513 59.3895C159.571 59.508 159.635 59.5867 159.705 59.6242C159.774 59.6617 159.809 59.6744 159.809 59.6632H158.425C158.425 59.6744 158.459 59.6602 158.529 59.6197C158.599 59.5792 158.661 59.5012 158.716 59.385C158.771 59.2696 158.799 59.0956 158.799 58.8639V54.5229C158.799 54.2852 158.771 54.1045 158.716 53.9808C158.661 53.8556 158.599 53.7716 158.529 53.7282C158.459 53.6854 158.425 53.6719 158.425 53.6892H160.148C160.601 53.6892 160.975 53.7634 161.267 53.9103C161.56 54.0588 161.772 54.2492 161.903 54.4839C162.034 54.7186 162.099 54.9742 162.099 55.2524C162.099 55.4841 162.043 55.7112 161.934 55.9339C161.823 56.1566 161.664 56.3508 161.459 56.5157C161.253 56.6807 161.013 56.7946 160.74 56.8584L160.601 56.8846L162.134 58.8294C162.337 59.0551 162.505 59.2291 162.638 59.3505C162.772 59.472 162.869 59.553 162.93 59.5934C162.992 59.6339 163.028 59.6572 163.04 59.6632H162.021L159.652 56.6589H160.175C160.442 56.6589 160.674 56.5967 160.871 56.4722V56.4722Z" stroke="white" stroke-width="0.109008" stroke-miterlimit="10" stroke-linejoin="round"/>
<path d="M164.857 57.3451L164.301 58.7254C164.214 58.9391 164.171 59.116 164.171 59.2547C164.171 59.4459 164.258 59.5816 164.432 59.6626H163.189C163.248 59.6626 163.331 59.6049 163.441 59.4887C163.552 59.3732 163.679 59.1445 163.824 58.8034L166.09 53.4134L168.34 58.8289C168.467 59.1415 168.59 59.356 168.709 59.4714C168.828 59.5869 168.922 59.6506 168.992 59.6626H167.549C167.695 59.5929 167.767 59.4864 167.767 59.3417C167.767 59.2202 167.72 59.0463 167.628 58.8206L167.02 57.3451H164.857ZM166.881 56.9897L165.934 54.6723L165.005 56.9897H166.881Z" fill="white"/>
<path d="M164.857 57.3451L164.301 58.7254C164.214 58.9391 164.171 59.116 164.171 59.2547C164.171 59.4459 164.258 59.5816 164.432 59.6626H163.189C163.248 59.6626 163.331 59.6049 163.441 59.4887C163.552 59.3732 163.679 59.1445 163.824 58.8034L166.09 53.4134L168.34 58.8289C168.467 59.1415 168.59 59.356 168.709 59.4714C168.828 59.5869 168.922 59.6506 168.992 59.6626H167.549C167.695 59.5929 167.767 59.4864 167.767 59.3417C167.767 59.2202 167.72 59.0463 167.628 58.8206L167.02 57.3451H164.857ZM166.881 56.9897L165.934 54.6723L165.005 56.9897H166.881Z" stroke="white" stroke-width="0.109008" stroke-miterlimit="10" stroke-linejoin="round"/>
<path d="M63.3113 66.4562C63.2611 66.3467 63.2041 66.274 63.1404 66.2373C63.0774 66.1998 63.0459 66.1863 63.0459 66.1968H64.31C64.31 66.1863 64.2777 66.1998 64.214 66.2373C64.1503 66.274 64.0925 66.3467 64.0393 66.4562C63.9853 66.5656 63.9598 66.7261 63.9598 66.939V71.3663H65.2637C65.5021 71.3663 65.7068 71.3176 65.8792 71.2193C66.0516 71.1204 66.1754 70.9944 66.2488 70.84L66.1064 71.6857H63.0459C63.0459 71.7014 63.0774 71.6894 63.1404 71.6497C63.2041 71.61 63.2611 71.5297 63.3113 71.4105C63.3615 71.2906 63.387 71.1166 63.387 70.8872V66.939C63.387 66.7261 63.3615 66.5656 63.3113 66.4562Z" fill="white"/>
<path d="M63.3113 66.4562C63.2611 66.3467 63.2041 66.274 63.1404 66.2373C63.0774 66.1998 63.0459 66.1863 63.0459 66.1968H64.31C64.31 66.1863 64.2777 66.1998 64.214 66.2373C64.1503 66.274 64.0925 66.3467 64.0393 66.4562C63.9853 66.5656 63.9598 66.7261 63.9598 66.939V71.3663H65.2637C65.5021 71.3663 65.7068 71.3176 65.8792 71.2193C66.0516 71.1204 66.1754 70.9944 66.2488 70.84L66.1064 71.6857H63.0459C63.0459 71.7014 63.0774 71.6894 63.1404 71.6497C63.2041 71.61 63.2611 71.5297 63.3113 71.4105C63.3615 71.2906 63.387 71.1166 63.387 70.8872V66.939C63.387 66.7261 63.3615 66.5656 63.3113 66.4562Z" stroke="white" stroke-width="0.170392" stroke-miterlimit="10" stroke-linejoin="round"/>
<path d="M69.5361 69.5551L69.0256 70.8237C68.9453 71.0202 68.9056 71.1828 68.9056 71.3103C68.9056 71.4857 68.9858 71.611 69.1455 71.6852H68.0044C68.0576 71.6852 68.1349 71.6327 68.2361 71.5255C68.3365 71.4198 68.4535 71.2098 68.5862 70.8957L70.669 65.9399L72.7338 70.9189C72.8508 71.2068 72.964 71.404 73.0734 71.5097C73.1822 71.6162 73.2691 71.6747 73.3329 71.6852H72.0081C72.1415 71.6215 72.2075 71.5232 72.2075 71.3898C72.2075 71.2788 72.1648 71.1191 72.08 70.9114L71.5215 69.5551H69.5361ZM71.394 69.2275L70.5243 67.0975L69.6718 69.2275H71.394Z" fill="white"/>
<path d="M69.5361 69.5551L69.0256 70.8237C68.9453 71.0202 68.9056 71.1828 68.9056 71.3103C68.9056 71.4857 68.9858 71.611 69.1455 71.6852H68.0044C68.0576 71.6852 68.1349 71.6327 68.2361 71.5255C68.3365 71.4198 68.4535 71.2098 68.5862 70.8957L70.669 65.9399L72.7338 70.9189C72.8508 71.2068 72.964 71.404 73.0734 71.5097C73.1822 71.6162 73.2691 71.6747 73.3329 71.6852H72.0081C72.1415 71.6215 72.2075 71.5232 72.2075 71.3898C72.2075 71.2788 72.1648 71.1191 72.08 70.9114L71.5215 69.5551H69.5361ZM71.394 69.2275L70.5243 67.0975L69.6718 69.2275H71.394Z" stroke="white" stroke-width="0.170392" stroke-miterlimit="10" stroke-linejoin="round"/>
<path d="M80.3392 66.5473C80.3392 66.3292 80.2432 66.2122 80.052 66.1965H81.2899C81.2096 66.2122 81.1069 66.2729 80.9825 66.3794C80.8565 66.4859 80.7418 66.6935 80.6353 67.0024L78.9087 71.8781L77.3672 67.4568L75.7777 71.8781L74.2032 66.9784C74.0645 66.5316 73.8628 66.2707 73.5967 66.1965H74.9222C74.773 66.2227 74.6988 66.3104 74.6988 66.4596C74.6988 66.5338 74.7311 66.6673 74.7948 66.8585L74.8825 67.1374L75.8894 70.4655L77.5111 66.0443L79.0534 70.4333L80.2432 66.9942C80.3077 66.8022 80.3392 66.6538 80.3392 66.5473Z" fill="white"/>
<path d="M80.3392 66.5473C80.3392 66.3292 80.2432 66.2122 80.052 66.1965H81.2899C81.2096 66.2122 81.1069 66.2729 80.9825 66.3794C80.8565 66.4859 80.7418 66.6935 80.6353 67.0024L78.9087 71.8781L77.3672 67.4568L75.7777 71.8781L74.2032 66.9784C74.0645 66.5316 73.8628 66.2707 73.5967 66.1965H74.9222C74.773 66.2227 74.6988 66.3104 74.6988 66.4596C74.6988 66.5338 74.7311 66.6673 74.7948 66.8585L74.8825 67.1374L75.8894 70.4655L77.5111 66.0443L79.0534 70.4333L80.2432 66.9942C80.3077 66.8022 80.3392 66.6538 80.3392 66.5473Z" stroke="white" stroke-width="0.170392" stroke-miterlimit="10" stroke-linejoin="round"/>
<path d="M86.7941 66.5159V68.7816H88.1683C88.364 68.7816 88.4952 68.7524 88.5612 68.6939C88.6279 68.6354 88.6609 68.5875 88.6609 68.55V69.332C88.6609 69.3162 88.6482 69.2907 88.6249 69.2562C88.6009 69.2218 88.5537 69.1873 88.4817 69.1528C88.4105 69.1183 88.3063 69.101 88.1683 69.101H86.7941V70.9439C86.7941 71.1509 86.821 71.3091 86.8735 71.4185C86.926 71.5272 86.9845 71.6015 87.0482 71.6412C87.1119 71.6817 87.1434 71.6959 87.1434 71.6854H85.8809C85.8809 71.6959 85.9123 71.6832 85.9761 71.6457C86.0406 71.6082 86.0968 71.5355 86.147 71.426C86.1973 71.3173 86.2227 71.1561 86.2227 70.9439V66.9785C86.2227 66.7603 86.1973 66.5939 86.147 66.4799C86.0968 66.366 86.0406 66.2857 85.9761 66.2407C85.9123 66.1958 85.8809 66.1808 85.8809 66.1965H88.7561V67.01C88.7292 66.8833 88.6549 66.7686 88.5335 66.6674C88.4113 66.5669 88.2396 66.5159 88.0169 66.5159H86.7941Z" fill="white"/>
<path d="M86.7941 66.5159V68.7816H88.1683C88.364 68.7816 88.4952 68.7524 88.5612 68.6939C88.6279 68.6354 88.6609 68.5875 88.6609 68.55V69.332C88.6609 69.3162 88.6482 69.2907 88.6249 69.2562C88.6009 69.2218 88.5537 69.1873 88.4817 69.1528C88.4105 69.1183 88.3063 69.101 88.1683 69.101H86.7941V70.9439C86.7941 71.1509 86.821 71.3091 86.8735 71.4185C86.926 71.5272 86.9845 71.6015 87.0482 71.6412C87.1119 71.6817 87.1434 71.6959 87.1434 71.6854H85.8809C85.8809 71.6959 85.9123 71.6832 85.9761 71.6457C86.0406 71.6082 86.0968 71.5355 86.147 71.426C86.1973 71.3173 86.2227 71.1561 86.2227 70.9439V66.9785C86.2227 66.7603 86.1973 66.5939 86.147 66.4799C86.0968 66.366 86.0406 66.2857 85.9761 66.2407C85.9123 66.1958 85.8809 66.1808 85.8809 66.1965H88.7561V67.01C88.7292 66.8833 88.6549 66.7686 88.5335 66.6674C88.4113 66.5669 88.2396 66.5159 88.0169 66.5159H86.7941Z" stroke="white" stroke-width="0.170392" stroke-miterlimit="10" stroke-linejoin="round"/>
<path d="M91.6282 71.6497C91.6904 71.61 91.7481 71.535 91.8006 71.4263C91.8523 71.3176 91.8786 71.1564 91.8786 70.9442V66.939C91.8786 66.7261 91.8546 66.5656 91.8044 66.4562C91.7549 66.3467 91.6986 66.274 91.6364 66.2373C91.5727 66.1998 91.5419 66.1863 91.5419 66.1968H92.7895C92.7895 66.1863 92.758 66.1998 92.6951 66.2373C92.6321 66.274 92.5743 66.3467 92.5226 66.4562C92.4701 66.5656 92.4439 66.7261 92.4439 66.939V70.9442C92.4439 71.1564 92.4701 71.3176 92.5226 71.4263C92.5743 71.535 92.6321 71.6085 92.6951 71.6459C92.758 71.6834 92.7895 71.6962 92.7895 71.6857H91.5337C91.5337 71.7014 91.5659 71.6894 91.6282 71.6497Z" fill="white"/>
<path d="M91.6282 71.6497C91.6904 71.61 91.7481 71.535 91.8006 71.4263C91.8523 71.3176 91.8786 71.1564 91.8786 70.9442V66.939C91.8786 66.7261 91.8546 66.5656 91.8044 66.4562C91.7549 66.3467 91.6986 66.274 91.6364 66.2373C91.5727 66.1998 91.5419 66.1863 91.5419 66.1968H92.7895C92.7895 66.1863 92.758 66.1998 92.6951 66.2373C92.6321 66.274 92.5743 66.3467 92.5226 66.4562C92.4701 66.5656 92.4439 66.7261 92.4439 66.939V70.9442C92.4439 71.1564 92.4701 71.3176 92.5226 71.4263C92.5743 71.535 92.6321 71.6085 92.6951 71.6459C92.758 71.6834 92.7895 71.6962 92.7895 71.6857H91.5337C91.5337 71.7014 91.5659 71.6894 91.6282 71.6497Z" stroke="white" stroke-width="0.170392" stroke-miterlimit="10" stroke-linejoin="round"/>
<path d="M97.966 68.7534C98.1467 68.6386 98.2832 68.4902 98.3761 68.3065C98.4691 68.1236 98.5156 67.9301 98.5156 67.7284C98.5156 67.5208 98.4714 67.3258 98.3836 67.1414C98.2959 66.9585 98.1617 66.8085 97.9818 66.6915C97.8011 66.5746 97.5807 66.5154 97.3205 66.5154H96.6435V70.9516C96.6435 71.1638 96.6697 71.325 96.7229 71.4337C96.7762 71.5432 96.8339 71.6151 96.8984 71.6496C96.9629 71.6841 96.9936 71.6961 96.9936 71.6849H95.728C95.728 71.6961 95.7595 71.6826 95.8232 71.6451C95.887 71.6076 95.944 71.5364 95.9949 71.43C96.0444 71.3235 96.0707 71.1638 96.0707 70.9516V66.9622C96.0707 66.7448 96.0444 66.5783 95.9949 66.4636C95.944 66.3497 95.887 66.2724 95.8232 66.2319C95.7595 66.193 95.728 66.181 95.728 66.1967H97.304C97.7186 66.1967 98.0597 66.2642 98.3282 66.3999C98.5966 66.5356 98.79 66.711 98.91 66.9262C99.0284 67.1414 99.0892 67.3768 99.0892 67.6325C99.0892 67.8454 99.0389 68.0538 98.9377 68.2585C98.8365 68.4639 98.6918 68.6416 98.5036 68.7931C98.3147 68.9445 98.0957 69.0503 97.8461 69.108L97.7186 69.132L99.1214 70.9194C99.3073 71.1271 99.4603 71.286 99.5832 71.3985C99.7047 71.5094 99.7939 71.5844 99.8494 71.6211C99.9049 71.6586 99.9386 71.6796 99.9491 71.6849H99.0172L96.8512 68.925H97.3287C97.5732 68.925 97.7846 68.8681 97.966 68.7534Z" fill="white"/>
<path d="M97.966 68.7534C98.1467 68.6386 98.2832 68.4902 98.3761 68.3065C98.4691 68.1236 98.5156 67.9301 98.5156 67.7284C98.5156 67.5208 98.4714 67.3258 98.3836 67.1414C98.2959 66.9585 98.1617 66.8085 97.9818 66.6915C97.8011 66.5746 97.5807 66.5154 97.3205 66.5154H96.6435V70.9516C96.6435 71.1638 96.6697 71.325 96.7229 71.4337C96.7762 71.5432 96.8339 71.6151 96.8984 71.6496C96.9629 71.6841 96.9936 71.6961 96.9936 71.6849H95.728C95.728 71.6961 95.7595 71.6826 95.8232 71.6451C95.887 71.6076 95.944 71.5364 95.9949 71.43C96.0444 71.3235 96.0707 71.1638 96.0707 70.9516V66.9622C96.0707 66.7448 96.0444 66.5783 95.9949 66.4636C95.944 66.3497 95.887 66.2724 95.8232 66.2319C95.7595 66.193 95.728 66.181 95.728 66.1967H97.304C97.7186 66.1967 98.0597 66.2642 98.3282 66.3999C98.5966 66.5356 98.79 66.711 98.91 66.9262C99.0284 67.1414 99.0892 67.3768 99.0892 67.6325C99.0892 67.8454 99.0389 68.0538 98.9377 68.2585C98.8365 68.4639 98.6918 68.6416 98.5036 68.7931C98.3147 68.9445 98.0957 69.0503 97.8461 69.108L97.7186 69.132L99.1214 70.9194C99.3073 71.1271 99.4603 71.286 99.5832 71.3985C99.7047 71.5094 99.7939 71.5844 99.8494 71.6211C99.9049 71.6586 99.9386 71.6796 99.9491 71.6849H99.0172L96.8512 68.925H97.3287C97.5732 68.925 97.7846 68.8681 97.966 68.7534V68.7534Z" stroke="white" stroke-width="0.170392" stroke-miterlimit="10" stroke-linejoin="round"/>
<path d="M107.004 71.6854C107.067 71.6749 107.136 71.6171 107.211 71.5137C107.286 71.4102 107.323 71.2168 107.323 70.9356V66.9462L105.232 71.7731L103.11 66.9544V70.8951C103.11 71.183 103.155 71.384 103.249 71.4979C103.341 71.6126 103.426 71.6749 103.5 71.6854H102.319C102.399 71.6749 102.487 71.6149 102.582 71.5054C102.678 71.3967 102.726 71.1935 102.726 70.8951V66.8982C102.726 66.6425 102.681 66.4678 102.591 66.3719C102.5 66.2759 102.41 66.2174 102.319 66.1957H103.396L105.351 70.6559L107.275 66.1957H108.241C108.172 66.2069 108.097 66.2624 108.017 66.3636C107.937 66.4648 107.897 66.6508 107.897 66.9222V70.9671C107.897 71.2333 107.937 71.4169 108.017 71.5174C108.097 71.6186 108.172 71.6749 108.241 71.6854H107.004Z" fill="white"/>
<path d="M107.004 71.6854C107.067 71.6749 107.136 71.6171 107.211 71.5137C107.286 71.4102 107.323 71.2168 107.323 70.9356V66.9462L105.232 71.7731L103.11 66.9544V70.8951C103.11 71.183 103.155 71.384 103.249 71.4979C103.341 71.6126 103.426 71.6749 103.5 71.6854H102.319C102.399 71.6749 102.487 71.6149 102.582 71.5054C102.678 71.3967 102.726 71.1935 102.726 70.8951V66.8982C102.726 66.6425 102.681 66.4678 102.591 66.3719C102.5 66.2759 102.41 66.2174 102.319 66.1957H103.396L105.351 70.6559L107.275 66.1957H108.241C108.172 66.2069 108.097 66.2624 108.017 66.3636C107.937 66.4648 107.897 66.6508 107.897 66.9222V70.9671C107.897 71.2333 107.937 71.4169 108.017 71.5174C108.097 71.6186 108.172 71.6749 108.241 71.6854H107.004Z" stroke="white" stroke-width="0.170392" stroke-miterlimit="10" stroke-linejoin="round"/>
<path d="M9.67685 5.47602C9.73683 3.36473 11.465 1.66954 13.592 1.66954H14.365L14.3755 1.06H1.00225L1.01125 1.66954H1.78499C3.91577 1.66954 5.6462 3.37148 5.69943 5.48877V40.1887C5.65969 42.3172 3.92252 44.0319 1.78349 44.0319H1.00975L1 44.6437H14.3755L14.3658 44.0319H13.5928C11.453 44.0319 9.71658 42.3172 9.67685 40.1887V23.6177H31.3311V21.7838H9.67685V5.47602Z" fill="white"/>
<path d="M9.67685 5.47602C9.73683 3.36473 11.465 1.66954 13.592 1.66954H14.365L14.3755 1.06H1.00225L1.01125 1.66954H1.78499C3.91577 1.66954 5.6462 3.37148 5.69943 5.48877V40.1887C5.65969 42.3172 3.92252 44.0319 1.78349 44.0319H1.00975L1 44.6437H14.3755L14.3658 44.0319H13.5928C11.453 44.0319 9.71658 42.3172 9.67685 40.1887V23.6177H31.3311V21.7838H9.67685V5.47602Z" fill="white" stroke="white" stroke-width="0.295628" stroke-miterlimit="10"/>
<path d="M100.137 36.6119L66.8523 1.06925L59.8219 1.0625V1.6743H60.8183C62.5555 1.6743 63.971 2.90314 64.0468 4.61707V28.7328C64.0333 37.1652 58.5886 42.7876 50.4216 42.7876C42.6339 42.7876 37.4419 36.8503 37.4419 27.944V4.60957C37.5161 2.89864 38.9294 1.67355 40.6643 1.67355H41.6607V1.0625H29.2441V1.67355H30.2398C32.0062 1.67355 33.4397 2.94287 33.472 4.70103V28.8422C33.472 38.364 40.2535 44.7122 50.4261 44.7122C60.313 44.7122 66.904 38.3213 66.904 28.7358L66.8643 7.17221L101.992 44.6424H102.916L102.918 4.25943H100.107L100.137 36.6119Z" fill="white"/>
<path d="M100.137 36.6119L66.8523 1.06925L59.8219 1.0625V1.6743H60.8183C62.5555 1.6743 63.971 2.90314 64.0468 4.61706V28.7328C64.0333 37.1652 58.5886 42.7876 50.4216 42.7876C42.6339 42.7876 37.4419 36.8503 37.4419 27.944V4.60957C37.5161 2.89864 38.9294 1.67355 40.6643 1.67355H41.6607V1.0625H29.2441V1.67355H30.2398C32.0062 1.67355 33.4397 2.94287 33.472 4.70104V28.8422C33.472 38.364 40.2535 44.7122 50.4261 44.7122C60.313 44.7122 66.904 38.3213 66.904 28.7358L66.8643 7.17221L101.992 44.6424H102.916L102.918 4.25943H100.107L100.137 36.6119Z" stroke="white" stroke-width="0.295628" stroke-miterlimit="10"/>
<path d="M86.8027 7.57617L87.4175 7.56717V6.47779C87.4175 4.5172 88.9643 2.92098 90.9031 2.83626H111.757C113.695 2.92098 115.242 4.5172 115.242 6.47779V7.56717L115.857 7.57617V1.00012L86.8027 1.00912V7.57617Z" fill="white"/>
<path d="M86.8027 7.57617L87.4175 7.56717V6.47779C87.4175 4.5172 88.9643 2.92098 90.9031 2.83626H111.757C113.695 2.92098 115.242 4.5172 115.242 6.47779V7.56717L115.857 7.57617V1.00012L86.8027 1.00912V7.57617Z" fill="white"/>
<path d="M140.332 6.66824V7.77787L140.961 7.78687V1.05787H119.21V2.96223H136.846C138.791 3.08069 140.332 4.6934 140.332 6.66824Z" fill="white"/>
<path d="M140.332 6.66824V7.77787L140.961 7.78687V1.05787H119.21V2.96223H136.846C138.791 3.08069 140.332 4.6934 140.332 6.66824Z" fill="white" stroke="white" stroke-width="0.295628" stroke-miterlimit="10"/>
<path d="M133.083 42.7378H119.211V44.6437H141.134L144.758 34.5843H144.136C142.213 39.325 139.68 42.7378 133.083 42.7378Z" fill="white"/>
<path d="M133.083 42.7378H119.211V44.6437H141.134L144.758 34.5843H144.136C142.213 39.325 139.68 42.7378 133.083 42.7378Z" fill="white" stroke="white" stroke-width="0.295628" stroke-miterlimit="10"/>
<path d="M140.432 26.7098V27.6268L141.04 27.6343V17.7811L140.432 17.7893V18.7063C140.432 20.3827 139.089 21.4511 137.421 21.4818H119.21V24.0782H137.485C139.123 24.1427 140.432 25.0551 140.432 26.7098Z" fill="white"/>
<path d="M140.432 26.7098V27.6268L141.04 27.6343V17.7811L140.432 17.7893V18.7063C140.432 20.3827 139.089 21.4511 137.421 21.4818H119.21V24.0782H137.485C139.123 24.1427 140.432 25.0551 140.432 26.7098Z" fill="white" stroke="white" stroke-width="0.295628" stroke-miterlimit="10"/>
<path d="M170.401 39.9035C167.954 37.2306 162.504 28.9114 162.504 28.9114C161.278 27.181 159.335 25.0884 157.979 24.4624C164.059 24.4624 168.719 19.0657 168.719 12.9447C168.719 5.57771 164.024 1.06272 156.362 1.06272L144.416 1.06347V3.03307C145.297 3.05781 152.95 2.90786 156.134 3.0818C160.841 3.33971 163.821 7.00224 163.976 12.7198C164.015 14.1061 163.854 15.083 163.575 15.9685C161.78 21.6621 156.987 22.4441 153.707 22.5333C151.804 22.585 150.366 22.5543 150.366 22.5543V23.1391C152.676 23.1391 154.52 25.3291 156.173 27.4052C156.658 28.0147 163.783 38.9183 164.501 39.776C166.489 42.1497 169.657 45.1045 175.541 45.1045H178.999L179 44.6846C175.285 44.6546 172.945 42.6813 170.401 39.9035Z" fill="#747679"/>
<path d="M170.401 39.9035C167.954 37.2306 162.504 28.9114 162.504 28.9114C161.278 27.181 159.335 25.0884 157.979 24.4624C164.059 24.4624 168.719 19.0657 168.719 12.9447C168.719 5.57771 164.024 1.06272 156.362 1.06272L144.416 1.06347V3.03307C145.297 3.05781 152.95 2.90786 156.134 3.0818C160.841 3.33971 163.821 7.00224 163.976 12.7198C164.015 14.1061 163.854 15.083 163.575 15.9685C161.78 21.6621 156.987 22.4441 153.707 22.5333C151.804 22.585 150.366 22.5543 150.366 22.5543V23.1391C152.676 23.1391 154.52 25.3291 156.173 27.4052C156.658 28.0147 163.783 38.9183 164.501 39.776C166.489 42.1497 169.657 45.1045 175.541 45.1045H178.999L179 44.6846C175.285 44.6546 172.945 42.6813 170.401 39.9035Z" fill="#FD7615"/>
</svg>
