<svg width="280" height="112" viewBox="0 0 280 112" fill="none" xmlns="http://www.w3.org/2000/svg">
<path d="M13.5012 92.5867C13.6101 92.5187 13.7085 92.3922 13.7998 92.2071C13.89 92.0221 13.9357 91.748 13.9357 91.386V88.3066H8.82868V91.386C8.82868 91.748 8.87436 92.0221 8.96456 92.2071C9.05475 92.3922 9.15548 92.5164 9.26325 92.5796C9.37218 92.6429 9.42606 92.6663 9.42606 92.6476H7.26611C7.26611 92.6757 7.32234 92.6546 7.4301 92.5867C7.53904 92.5187 7.63626 92.3922 7.72176 92.2071C7.80727 92.0221 7.85061 91.748 7.85061 91.386V84.577C7.85061 84.2151 7.80727 83.9422 7.72176 83.7559C7.63626 83.5709 7.53904 83.4467 7.4301 83.3834C7.32234 83.3202 7.26611 83.2979 7.26611 83.3155H9.42606C9.42606 83.2979 9.37218 83.3202 9.26325 83.3834C9.15548 83.4467 9.05475 83.5709 8.96456 83.7559C8.87436 83.9422 8.82868 84.2151 8.82868 84.577V87.7104H13.9357V84.577C13.9357 84.2151 13.89 83.9422 13.7998 83.7559C13.7085 83.5709 13.6101 83.4467 13.5012 83.3834C13.3922 83.3202 13.3383 83.2979 13.3383 83.3155H15.4971C15.4971 83.2886 15.4432 83.3085 15.3343 83.3764C15.2265 83.4443 15.1281 83.5709 15.0426 83.7559C14.956 83.9422 14.9138 84.2151 14.9138 84.577V91.386C14.9138 91.748 14.9583 92.0221 15.0497 92.2071C15.1399 92.3922 15.2394 92.5164 15.3484 92.5796C15.4561 92.6429 15.5112 92.6663 15.5112 92.6476H13.3383C13.3383 92.6757 13.3922 92.6546 13.5012 92.5867Z" fill="white"/>
<path d="M13.5012 92.5867C13.6101 92.5187 13.7085 92.3922 13.7998 92.2071C13.89 92.0221 13.9357 91.748 13.9357 91.386V88.3066H8.82868V91.386C8.82868 91.748 8.87436 92.0221 8.96456 92.2071C9.05475 92.3922 9.15548 92.5164 9.26325 92.5796C9.37218 92.6429 9.42606 92.6663 9.42606 92.6476H7.26611C7.26611 92.6757 7.32234 92.6546 7.4301 92.5867C7.53904 92.5187 7.63626 92.3922 7.72176 92.2071C7.80727 92.0221 7.85061 91.748 7.85061 91.386V84.577C7.85061 84.2151 7.80727 83.9422 7.72176 83.7559C7.63626 83.5709 7.53904 83.4467 7.4301 83.3834C7.32234 83.3202 7.26611 83.2979 7.26611 83.3155H9.42606C9.42606 83.2979 9.37218 83.3202 9.26325 83.3834C9.15548 83.4467 9.05475 83.5709 8.96456 83.7559C8.87436 83.9422 8.82868 84.2151 8.82868 84.577V87.7104H13.9357V84.577C13.9357 84.2151 13.89 83.9422 13.7998 83.7559C13.7085 83.5709 13.6101 83.4467 13.5012 83.3834C13.3922 83.3202 13.3383 83.2979 13.3383 83.3155H15.4971C15.4971 83.2886 15.4432 83.3085 15.3343 83.3764C15.2265 83.4443 15.1281 83.5709 15.0426 83.7559C14.956 83.9422 14.9138 84.2151 14.9138 84.577V91.386C14.9138 91.748 14.9583 92.0221 15.0497 92.2071C15.1399 92.3922 15.2394 92.5164 15.3484 92.5796C15.4561 92.6429 15.5112 92.6663 15.5112 92.6476H13.3383C13.3383 92.6757 13.3922 92.6546 13.5012 92.5867Z" stroke="white" stroke-width="0.109008" stroke-miterlimit="10" stroke-linejoin="round"/>
<path d="M24.7227 89.4057C24.7227 90.1202 24.5868 90.7328 24.315 91.2435C24.0433 91.7542 23.6603 92.1431 23.1671 92.4101C22.6728 92.676 22.1 92.8096 21.4476 92.8096C20.37 92.8096 19.536 92.5121 18.9468 91.9147C18.3576 91.3185 18.0636 90.4915 18.0636 89.4326V84.5774C18.0636 84.2166 18.0203 83.9425 17.9348 83.7563C17.8481 83.5724 17.7532 83.4471 17.649 83.3838C17.5459 83.3205 17.4932 83.2983 17.4932 83.3159H19.6133C19.6133 83.2983 19.5606 83.3205 19.4563 83.3838C19.3521 83.4471 19.2572 83.5689 19.1717 83.7504C19.0862 83.9308 19.0417 84.1932 19.0417 84.5364V89.4326C19.0417 90.3099 19.2525 90.9881 19.673 91.4672C20.0959 91.9463 20.7143 92.1864 21.5284 92.1864C22.2804 92.1864 22.8743 91.958 23.3089 91.5012C23.7446 91.0444 23.9613 90.3685 23.9613 89.4736V84.5774C23.9613 84.2166 23.9168 83.9425 23.8254 83.7563C23.7352 83.5724 23.6357 83.4471 23.5267 83.3838C23.4178 83.3205 23.3639 83.2983 23.3639 83.3159H25.3212C25.3212 83.2983 25.2662 83.3205 25.1572 83.3838C25.0483 83.4471 24.9487 83.5724 24.8585 83.7563C24.7684 83.9425 24.7227 84.2166 24.7227 84.5774V89.4057Z" fill="white"/>
<path d="M24.7227 89.4057C24.7227 90.1202 24.5868 90.7328 24.315 91.2435C24.0433 91.7542 23.6603 92.1431 23.1671 92.4101C22.6728 92.676 22.1 92.8096 21.4476 92.8096C20.37 92.8096 19.536 92.5121 18.9468 91.9147C18.3576 91.3185 18.0636 90.4915 18.0636 89.4326V84.5774C18.0636 84.2166 18.0203 83.9425 17.9348 83.7563C17.8481 83.5724 17.7532 83.4471 17.649 83.3838C17.5459 83.3205 17.4932 83.2983 17.4932 83.3159H19.6133C19.6133 83.2983 19.5606 83.3205 19.4563 83.3838C19.3521 83.4471 19.2572 83.5689 19.1717 83.7504C19.0862 83.9308 19.0417 84.1932 19.0417 84.5364V89.4326C19.0417 90.3099 19.2525 90.9881 19.673 91.4672C20.0959 91.9463 20.7143 92.1864 21.5284 92.1864C22.2804 92.1864 22.8743 91.958 23.3089 91.5012C23.7446 91.0444 23.9613 90.3685 23.9613 89.4736V84.5774C23.9613 84.2166 23.9168 83.9425 23.8254 83.7563C23.7352 83.5724 23.6357 83.4471 23.5267 83.3838C23.4178 83.3205 23.3639 83.2983 23.3639 83.3159H25.3212C25.3212 83.2983 25.2662 83.3205 25.1572 83.3838C25.0483 83.4471 24.9487 83.5724 24.8585 83.7563C24.7684 83.9425 24.7227 84.2166 24.7227 84.5774V89.4057Z" stroke="white" stroke-width="0.109008" stroke-miterlimit="10" stroke-linejoin="round"/>
<path d="M35.7884 83.3162C35.6618 83.3431 35.5377 83.445 35.4159 83.6207C35.2929 83.7976 35.232 84.108 35.232 84.5507V93.0254L28.2859 84.9303V91.4253C28.2859 91.8587 28.3632 92.1633 28.5167 92.3402C28.6701 92.5159 28.8201 92.6178 28.9653 92.6459H27.0513C27.1778 92.6178 27.3079 92.5159 27.439 92.3402C27.5702 92.1633 27.6358 91.8552 27.6358 91.4113V84.6316C27.6358 84.3247 27.5316 84.0436 27.3231 83.7917C27.1158 83.5375 26.8534 83.3794 26.5371 83.3162H28.2192L34.5807 90.7343V84.5507C34.5807 83.8538 34.3464 83.4427 33.8756 83.3162H35.7884Z" fill="white"/>
<path d="M35.7884 83.3162C35.6618 83.3431 35.5377 83.445 35.4159 83.6207C35.2929 83.7976 35.232 84.108 35.232 84.5507V93.0254L28.2859 84.9303V91.4253C28.2859 91.8587 28.3632 92.1633 28.5167 92.3402C28.6701 92.5159 28.8201 92.6178 28.9653 92.6459H27.0513C27.1778 92.6178 27.3079 92.5159 27.439 92.3402C27.5702 92.1633 27.6358 91.8552 27.6358 91.4113V84.6316C27.6358 84.3247 27.5316 84.0436 27.3231 83.7917C27.1158 83.5375 26.8534 83.3794 26.5371 83.3162H28.2192L34.5807 90.7343V84.5507C34.5807 83.8538 34.3464 83.4427 33.8756 83.3162H35.7884Z" stroke="white" stroke-width="0.109008" stroke-miterlimit="10" stroke-linejoin="round"/>
<path d="M37.6707 84.0892C37.4072 84.2426 37.2174 84.4371 37.0991 84.6725L37.2889 83.3161H43.7418L43.9327 84.6725C43.8144 84.4371 43.6235 84.2426 43.3611 84.0892C43.0976 83.9357 42.7661 83.8584 42.3666 83.8584H41.0055V91.3866C41.0055 91.7486 41.0512 92.0238 41.1414 92.2148C41.2328 92.4045 41.3323 92.531 41.4413 92.5943C41.5502 92.6564 41.6041 92.6763 41.6041 92.6482H39.4406C39.4406 92.6763 39.4945 92.6564 39.6034 92.5943C39.7124 92.531 39.8108 92.4069 39.8963 92.2206C39.983 92.0355 40.0251 91.7579 40.0251 91.3866V83.8584H38.664C38.2646 83.8584 37.9343 83.9357 37.6707 84.0892Z" fill="white"/>
<path d="M37.6707 84.0892C37.4072 84.2426 37.2174 84.4371 37.0991 84.6725L37.2889 83.3161H43.7418L43.9327 84.6725C43.8144 84.4371 43.6235 84.2426 43.3611 84.0892C43.0976 83.9357 42.7661 83.8584 42.3666 83.8584H41.0055V91.3866C41.0055 91.7486 41.0512 92.0238 41.1414 92.2148C41.2328 92.4045 41.3323 92.531 41.4413 92.5943C41.5502 92.6564 41.6041 92.6763 41.6041 92.6482H39.4406C39.4406 92.6763 39.4945 92.6564 39.6034 92.5943C39.7124 92.531 39.8108 92.4069 39.8963 92.2206C39.983 92.0355 40.0251 91.7579 40.0251 91.3866V83.8584H38.664C38.2646 83.8584 37.9343 83.9357 37.6707 84.0892Z" stroke="white" stroke-width="0.109008" stroke-miterlimit="10" stroke-linejoin="round"/>
<path d="M45.2158 92.6491C45.2158 92.676 45.2697 92.6561 45.3798 92.5881C45.4876 92.5202 45.586 92.3843 45.6726 92.1805C45.7593 91.9779 45.8027 91.6815 45.8027 91.2926V84.6324C45.8027 84.2623 45.7593 83.9788 45.6726 83.7844C45.586 83.5899 45.4876 83.4575 45.3798 83.3849C45.2697 83.3123 45.2158 83.29 45.2158 83.3158H50.16V84.6734C49.9961 84.1311 49.5041 83.8593 48.6842 83.8593H46.7866V87.7119H49.1363C49.3179 87.7119 49.4725 87.6826 49.6001 87.624C49.7278 87.5643 49.8227 87.5034 49.8871 87.4401C49.9504 87.3769 49.9867 87.337 49.9961 87.3183V88.6337C49.9867 88.6161 49.9504 88.5751 49.8871 88.5119C49.8227 88.4486 49.7302 88.3901 49.6072 88.3362C49.4842 88.2811 49.3319 88.2542 49.1492 88.2542H46.7866V92.1067H48.9173C49.3272 92.1067 49.6798 92.0224 49.975 91.8561C50.2713 91.6886 50.4833 91.4742 50.611 91.2106L50.365 92.6491H45.2158Z" fill="white"/>
<path d="M45.2158 92.6491C45.2158 92.676 45.2697 92.6561 45.3798 92.5881C45.4876 92.5202 45.586 92.3843 45.6726 92.1805C45.7593 91.9779 45.8027 91.6815 45.8027 91.2926V84.6324C45.8027 84.2623 45.7593 83.9788 45.6726 83.7844C45.586 83.5899 45.4876 83.4575 45.3798 83.3849C45.2697 83.3123 45.2158 83.29 45.2158 83.3158H50.16V84.6734C49.9961 84.1311 49.5041 83.8593 48.6842 83.8593H46.7866V87.7119H49.1363C49.3179 87.7119 49.4725 87.6826 49.6001 87.624C49.7278 87.5643 49.8227 87.5034 49.8871 87.4401C49.9504 87.3769 49.9867 87.337 49.9961 87.3183V88.6337C49.9867 88.6161 49.9504 88.5751 49.8871 88.5119C49.8227 88.4486 49.7302 88.3901 49.6072 88.3362C49.4842 88.2811 49.3319 88.2542 49.1492 88.2542H46.7866V92.1067H48.9173C49.3272 92.1067 49.6798 92.0224 49.975 91.8561C50.2713 91.6886 50.4833 91.4742 50.611 91.2106L50.365 92.6491H45.2158Z" stroke="white" stroke-width="0.109008" stroke-miterlimit="10" stroke-linejoin="round"/>
<path d="M56.1338 87.6646C56.4419 87.4702 56.675 87.2172 56.8343 86.9056C56.9924 86.5928 57.0709 86.2649 57.0709 85.9217C57.0709 85.5691 56.9971 85.2364 56.8471 84.9249C56.6972 84.6133 56.4688 84.3568 56.1607 84.1588C55.8515 83.9585 55.4755 83.8589 55.0316 83.8589H53.8755V91.4012C53.8755 91.7631 53.92 92.0372 54.0113 92.2223C54.1027 92.4074 54.2023 92.5304 54.3112 92.5889C54.419 92.6475 54.474 92.6674 54.474 92.6498H52.3105C52.3105 92.6674 52.3644 92.6452 52.4734 92.5819C52.5835 92.5187 52.6807 92.3968 52.7662 92.2153C52.8529 92.0349 52.895 91.7631 52.895 91.4012V84.6191C52.895 84.2478 52.8529 83.9655 52.7662 83.7723C52.6807 83.5766 52.5835 83.4455 52.4734 83.3775C52.3644 83.3108 52.3105 83.2897 52.3105 83.3166H55.0046C55.7109 83.3166 56.2943 83.4326 56.7523 83.6622C57.2103 83.8941 57.5418 84.1916 57.7456 84.5582C57.9494 84.9249 58.0513 85.3243 58.0513 85.7589C58.0513 86.1208 57.9646 86.4757 57.7924 86.8236C57.6202 87.1715 57.3731 87.4749 57.0521 87.7326C56.7288 87.9903 56.3552 88.1683 55.9288 88.2679L55.7109 88.3089L58.1063 91.3473C58.4238 91.6999 58.6862 91.9716 58.8946 92.1614C59.1031 92.3512 59.2554 92.4777 59.3503 92.5409C59.4463 92.6042 59.5014 92.6405 59.5213 92.6498H57.9283L54.2292 87.9563H55.0456C55.4626 87.9563 55.8246 87.8591 56.1338 87.6646Z" fill="white"/>
<path d="M56.1338 87.6646C56.4419 87.4702 56.675 87.2172 56.8343 86.9056C56.9924 86.5928 57.0709 86.2649 57.0709 85.9217C57.0709 85.5691 56.9971 85.2364 56.8471 84.9249C56.6972 84.6133 56.4688 84.3568 56.1607 84.1588C55.8515 83.9585 55.4755 83.8589 55.0316 83.8589H53.8755V91.4012C53.8755 91.7631 53.92 92.0372 54.0113 92.2223C54.1027 92.4074 54.2023 92.5304 54.3112 92.5889C54.419 92.6475 54.474 92.6674 54.474 92.6498H52.3105C52.3105 92.6674 52.3644 92.6452 52.4734 92.5819C52.5835 92.5187 52.6807 92.3968 52.7662 92.2153C52.8529 92.0349 52.895 91.7631 52.895 91.4012V84.6191C52.895 84.2478 52.8529 83.9655 52.7662 83.7723C52.6807 83.5766 52.5835 83.4455 52.4734 83.3775C52.3644 83.3108 52.3105 83.2897 52.3105 83.3166H55.0046C55.7109 83.3166 56.2943 83.4326 56.7523 83.6622C57.2103 83.8941 57.5418 84.1916 57.7456 84.5582C57.9494 84.9249 58.0513 85.3243 58.0513 85.7589C58.0513 86.1208 57.9646 86.4757 57.7924 86.8236C57.6202 87.1715 57.3731 87.4749 57.0521 87.7326C56.7288 87.9903 56.3552 88.1683 55.9288 88.2679L55.7109 88.3089L58.1063 91.3473C58.4238 91.6999 58.6862 91.9716 58.8946 92.1614C59.1031 92.3512 59.2554 92.4777 59.3503 92.5409C59.4463 92.6042 59.5014 92.6405 59.5213 92.6498H57.9283L54.2292 87.9563H55.0456C55.4626 87.9563 55.8246 87.8591 56.1338 87.6646V87.6646Z" stroke="white" stroke-width="0.109008" stroke-miterlimit="10" stroke-linejoin="round"/>
<path d="M64.5205 94.4413H65.1647V81.5542H64.5205V94.4413Z" fill="#B4B9BC"/>
<path d="M135.71 94.4413H136.356V81.5542H135.71V94.4413Z" fill="#B4B9BC"/>
<path d="M196.204 94.4413H196.848V81.5542H196.204V94.4413Z" fill="#B4B9BC"/>
<path d="M75.6697 87.244C75.4202 87.6551 75.0629 87.9784 74.599 88.2139C74.1352 88.4493 73.5905 88.5664 72.9615 88.5664C72.5808 88.5664 72.172 88.5266 71.7351 88.4446V91.4023C71.7351 91.7548 71.7808 92.0242 71.871 92.2093C71.9612 92.3944 72.0619 92.5185 72.172 92.5818C72.2798 92.645 72.3348 92.6685 72.3348 92.6497H70.1655C70.1655 92.6685 70.2206 92.645 70.3295 92.5818C70.4384 92.5185 70.5368 92.3967 70.6223 92.2163C70.7102 92.0348 70.7524 91.7642 70.7524 91.4023V84.6061C70.7524 84.2442 70.7102 83.9689 70.6223 83.778C70.5368 83.5882 70.4384 83.4594 70.3295 83.3915C70.2206 83.3247 70.1655 83.2989 70.1655 83.3165H72.8397C73.3035 83.3165 73.6854 83.347 73.9853 83.4055C74.2851 83.4641 74.5499 83.5531 74.7759 83.6702C75.1847 83.8776 75.4986 84.1786 75.7177 84.5722C75.9367 84.9657 76.0445 85.3886 76.0445 85.8407C76.0445 86.3643 75.9203 86.8329 75.6697 87.244ZM74.3941 84.4562C73.9935 84.0591 73.4628 83.86 72.7987 83.86H71.7351V87.9152C72.1263 87.9878 72.5351 88.0241 72.9615 88.0241C73.5976 88.0241 74.0977 87.8414 74.455 87.4748C74.8157 87.1093 74.995 86.622 74.995 86.0164C74.995 85.3745 74.7947 84.8545 74.3941 84.4562Z" fill="white"/>
<path d="M75.6697 87.244C75.4202 87.6551 75.0629 87.9784 74.599 88.2139C74.1352 88.4493 73.5905 88.5664 72.9615 88.5664C72.5808 88.5664 72.172 88.5266 71.7351 88.4446V91.4023C71.7351 91.7548 71.7808 92.0242 71.871 92.2093C71.9612 92.3944 72.0619 92.5185 72.172 92.5818C72.2798 92.645 72.3348 92.6685 72.3348 92.6497H70.1655C70.1655 92.6685 70.2206 92.645 70.3295 92.5818C70.4384 92.5185 70.5368 92.3967 70.6223 92.2163C70.7102 92.0348 70.7524 91.7642 70.7524 91.4023V84.6061C70.7524 84.2442 70.7102 83.9689 70.6223 83.778C70.5368 83.5882 70.4384 83.4594 70.3295 83.3915C70.2206 83.3247 70.1655 83.2989 70.1655 83.3165H72.8397C73.3035 83.3165 73.6854 83.347 73.9853 83.4055C74.2851 83.4641 74.5499 83.5531 74.7759 83.6702C75.1847 83.8776 75.4986 84.1786 75.7177 84.5722C75.9367 84.9657 76.0445 85.3886 76.0445 85.8407C76.0445 86.3643 75.9203 86.8329 75.6697 87.244ZM74.3941 84.4562C73.9935 84.0591 73.4628 83.86 72.7987 83.86H71.7351V87.9152C72.1263 87.9878 72.5351 88.0241 72.9615 88.0241C73.5976 88.0241 74.0977 87.8414 74.455 87.4748C74.8157 87.1093 74.995 86.622 74.995 86.0164C74.995 85.3745 74.7947 84.8545 74.3941 84.4562V84.4562Z" stroke="white" stroke-width="0.109008" stroke-miterlimit="10" stroke-linejoin="round"/>
<path d="M77.6851 92.5876C77.7975 92.5197 77.8994 92.3932 77.9931 92.2081C78.0857 92.023 78.1325 91.749 78.1325 91.387V84.578C78.1325 84.2161 78.088 83.9431 77.999 83.7569C77.91 83.5718 77.8104 83.4477 77.6991 83.3844C77.5879 83.3212 77.5316 83.2989 77.5316 83.3165H79.7548C79.7548 83.2989 79.6986 83.3212 79.5873 83.3844C79.4749 83.4477 79.3718 83.5718 79.2793 83.7569C79.1856 83.9431 79.1387 84.2161 79.1387 84.578V91.387C79.1387 91.749 79.1856 92.023 79.2793 92.2081C79.3718 92.3932 79.4749 92.5174 79.5873 92.5806C79.6986 92.6439 79.7548 92.6673 79.7548 92.6485H77.5176C77.5176 92.6767 77.5726 92.6556 77.6851 92.5876Z" fill="white"/>
<path d="M77.6851 92.5876C77.7975 92.5197 77.8994 92.3932 77.9931 92.2081C78.0857 92.023 78.1325 91.749 78.1325 91.387V84.578C78.1325 84.2161 78.088 83.9431 77.999 83.7569C77.91 83.5718 77.8104 83.4477 77.6991 83.3844C77.5879 83.3212 77.5316 83.2989 77.5316 83.3165H79.7548C79.7548 83.2989 79.6986 83.3212 79.5873 83.3844C79.4749 83.4477 79.3718 83.5718 79.2793 83.7569C79.1856 83.9431 79.1387 84.2161 79.1387 84.578V91.387C79.1387 91.749 79.1856 92.023 79.2793 92.2081C79.3718 92.3932 79.4749 92.5174 79.5873 92.5806C79.6986 92.6439 79.7548 92.6673 79.7548 92.6485H77.5176C77.5176 92.6767 77.5726 92.6556 77.6851 92.5876Z" stroke="white" stroke-width="0.109008" stroke-miterlimit="10" stroke-linejoin="round"/>
<path d="M90.4643 83.3162C90.3378 83.3431 90.2137 83.445 90.0918 83.6207C89.9689 83.7976 89.9079 84.108 89.9079 84.5507V93.0254L82.9631 84.9303V91.4253C82.9631 91.8587 83.0392 92.1633 83.1926 92.3402C83.3461 92.5159 83.496 92.6178 83.6413 92.6459H81.7273C81.8538 92.6178 81.9827 92.5159 82.1138 92.3402C82.245 92.1633 82.3106 91.8552 82.3106 91.4113V84.6316C82.3106 84.3247 82.2064 84.0436 81.9991 83.7917C81.7906 83.5375 81.5282 83.3794 81.2119 83.3162H82.894L89.2567 90.7343V84.5507C89.2567 83.8538 89.0212 83.4427 88.5515 83.3162H90.4643Z" fill="white"/>
<path d="M90.4643 83.3162C90.3378 83.3431 90.2137 83.445 90.0918 83.6207C89.9689 83.7976 89.9079 84.108 89.9079 84.5507V93.0254L82.9631 84.9303V91.4253C82.9631 91.8587 83.0392 92.1633 83.1926 92.3402C83.3461 92.5159 83.496 92.6178 83.6413 92.6459H81.7273C81.8538 92.6178 81.9827 92.5159 82.1138 92.3402C82.245 92.1633 82.3106 91.8552 82.3106 91.4113V84.6316C82.3106 84.3247 82.2064 84.0436 81.9991 83.7917C81.7906 83.5375 81.5282 83.3794 81.2119 83.3162H82.894L89.2567 90.7343V84.5507C89.2567 83.8538 89.0212 83.4427 88.5515 83.3162H90.4643Z" stroke="white" stroke-width="0.109008" stroke-miterlimit="10" stroke-linejoin="round"/>
<path d="M98.6192 92.5271C98.0664 92.7169 97.51 92.8118 96.9477 92.8118C96.1055 92.8118 95.3219 92.6173 94.5957 92.2284C93.8706 91.8407 93.2896 91.2797 92.8504 90.5476C92.41 89.8143 92.1909 88.9557 92.1909 87.9706C92.1909 87.0488 92.3924 86.2206 92.7953 85.4886C93.1994 84.7565 93.7734 84.1849 94.5219 83.7737C95.2692 83.3626 96.1407 83.1564 97.1375 83.1564C98.1987 83.1564 99.1393 83.3872 99.9639 83.8475V85.3527C99.684 84.856 99.2764 84.4613 98.7411 84.1673C98.2069 83.8733 97.6365 83.7257 97.0286 83.7257C96.2578 83.7257 95.5913 83.9072 95.0244 84.268C94.4575 84.63 94.0252 85.1254 93.7265 85.7533C93.4267 86.3823 93.2779 87.0851 93.2779 87.8629C93.2779 88.739 93.4478 89.5027 93.7875 90.154C94.1283 90.8053 94.5875 91.3043 95.1673 91.6521C95.7471 92.0012 96.3949 92.1746 97.1105 92.1746C98.2608 92.1746 99.2131 91.8407 99.9639 91.1707V91.822C99.6207 92.1019 99.1709 92.3374 98.6192 92.5271Z" fill="white"/>
<path d="M98.6192 92.5271C98.0664 92.7169 97.51 92.8118 96.9477 92.8118C96.1055 92.8118 95.3219 92.6173 94.5957 92.2284C93.8706 91.8407 93.2896 91.2797 92.8504 90.5476C92.41 89.8143 92.1909 88.9557 92.1909 87.9706C92.1909 87.0488 92.3924 86.2206 92.7953 85.4886C93.1994 84.7565 93.7734 84.1849 94.5219 83.7737C95.2692 83.3626 96.1407 83.1564 97.1375 83.1564C98.1987 83.1564 99.1393 83.3872 99.9639 83.8475V85.3527C99.684 84.856 99.2764 84.4613 98.7411 84.1673C98.2069 83.8733 97.6365 83.7257 97.0286 83.7257C96.2578 83.7257 95.5913 83.9072 95.0244 84.268C94.4575 84.63 94.0252 85.1254 93.7265 85.7533C93.4267 86.3823 93.2779 87.0851 93.2779 87.8629C93.2779 88.739 93.4478 89.5027 93.7875 90.154C94.1283 90.8053 94.5875 91.3043 95.1673 91.6521C95.7471 92.0012 96.3949 92.1746 97.1105 92.1746C98.2608 92.1746 99.2131 91.8407 99.9639 91.1707V91.822C99.6207 92.1019 99.1709 92.3374 98.6192 92.5271Z" stroke="white" stroke-width="0.109008" stroke-miterlimit="10" stroke-linejoin="round"/>
<path d="M108.166 92.5876C108.275 92.5197 108.375 92.3932 108.465 92.2081C108.555 92.023 108.601 91.749 108.601 91.387V88.3076H103.494V91.387C103.494 91.749 103.54 92.023 103.63 92.2081C103.721 92.3932 103.821 92.5174 103.929 92.5806C104.038 92.6439 104.091 92.6673 104.091 92.6485H101.933C101.933 92.6767 101.988 92.6556 102.095 92.5876C102.204 92.5197 102.302 92.3932 102.387 92.2081C102.473 92.023 102.516 91.749 102.516 91.387V84.578C102.516 84.2161 102.473 83.9431 102.387 83.7569C102.302 83.5718 102.204 83.4477 102.095 83.3844C101.988 83.3212 101.933 83.2989 101.933 83.3165H104.091C104.091 83.2989 104.038 83.3212 103.929 83.3844C103.821 83.4477 103.721 83.5718 103.63 83.7569C103.54 83.9431 103.494 84.2161 103.494 84.578V87.7113H108.601V84.578C108.601 84.2161 108.555 83.9431 108.465 83.7569C108.375 83.5718 108.275 83.4477 108.166 83.3844C108.058 83.3212 108.004 83.2989 108.004 83.3165H110.162C110.162 83.2895 110.109 83.3095 110 83.3774C109.892 83.4453 109.795 83.5718 109.708 83.7569C109.622 83.9431 109.579 84.2161 109.579 84.578V91.387C109.579 91.749 109.624 92.023 109.715 92.2081C109.805 92.3932 109.905 92.5174 110.014 92.5806C110.123 92.6439 110.177 92.6673 110.177 92.6485H108.004C108.004 92.6767 108.058 92.6556 108.166 92.5876Z" fill="white"/>
<path d="M108.166 92.5876C108.275 92.5197 108.375 92.3932 108.465 92.2081C108.555 92.023 108.601 91.749 108.601 91.387V88.3076H103.494V91.387C103.494 91.749 103.54 92.023 103.63 92.2081C103.721 92.3932 103.821 92.5174 103.929 92.5806C104.038 92.6439 104.091 92.6673 104.091 92.6485H101.933C101.933 92.6767 101.988 92.6556 102.095 92.5876C102.204 92.5197 102.302 92.3932 102.387 92.2081C102.473 92.023 102.516 91.749 102.516 91.387V84.578C102.516 84.2161 102.473 83.9431 102.387 83.7569C102.302 83.5718 102.204 83.4477 102.095 83.3844C101.988 83.3212 101.933 83.2989 101.933 83.3165H104.091C104.091 83.2989 104.038 83.3212 103.929 83.3844C103.821 83.4477 103.721 83.5718 103.63 83.7569C103.54 83.9431 103.494 84.2161 103.494 84.578V87.7113H108.601V84.578C108.601 84.2161 108.555 83.9431 108.465 83.7569C108.375 83.5718 108.275 83.4477 108.166 83.3844C108.058 83.3212 108.004 83.2989 108.004 83.3165H110.162C110.162 83.2895 110.109 83.3094 110 83.3774C109.892 83.4453 109.795 83.5718 109.708 83.7569C109.622 83.9431 109.579 84.2161 109.579 84.578V91.387C109.579 91.749 109.624 92.023 109.715 92.2081C109.805 92.3932 109.905 92.5174 110.014 92.5806C110.123 92.6439 110.177 92.6673 110.177 92.6485H108.004C108.004 92.6767 108.058 92.6556 108.166 92.5876Z" stroke="white" stroke-width="0.109008" stroke-miterlimit="10" stroke-linejoin="round"/>
<path d="M113.864 89.029L112.996 91.1855C112.86 91.5193 112.792 91.7958 112.792 92.0124C112.792 92.3111 112.928 92.5232 113.2 92.6497H111.26C111.35 92.6497 111.48 92.5595 111.652 92.3779C111.824 92.1975 112.023 91.8403 112.25 91.3073L115.791 82.8865L119.306 91.3471C119.504 91.8356 119.697 92.1706 119.882 92.351C120.067 92.5314 120.215 92.6309 120.324 92.6497H118.07C118.297 92.5407 118.41 92.3744 118.41 92.1483C118.41 91.9586 118.337 91.6868 118.192 91.3342L117.243 89.029H113.864ZM117.026 88.4738L115.547 84.8532L114.094 88.4738H117.026Z" fill="white"/>
<path d="M113.864 89.029L112.996 91.1855C112.86 91.5193 112.792 91.7958 112.792 92.0124C112.792 92.3111 112.928 92.5232 113.2 92.6497H111.26C111.35 92.6497 111.48 92.5595 111.652 92.3779C111.824 92.1975 112.023 91.8403 112.25 91.3073L115.791 82.8865L119.306 91.3471C119.504 91.8356 119.697 92.1706 119.882 92.351C120.067 92.5314 120.215 92.6309 120.324 92.6497H118.07C118.297 92.5407 118.41 92.3744 118.41 92.1483C118.41 91.9586 118.337 91.6868 118.192 91.3342L117.243 89.029H113.864ZM117.026 88.4738L115.547 84.8532L114.094 88.4738H117.026Z" stroke="white" stroke-width="0.109008" stroke-miterlimit="10" stroke-linejoin="round"/>
<path d="M122.512 92.615C122.075 92.4838 121.682 92.2999 121.337 92.0656V90.4246C121.574 91.0302 121.935 91.4893 122.423 91.8009C122.91 92.1136 123.417 92.2694 123.945 92.2694C124.474 92.2694 124.917 92.0949 125.271 91.747C125.626 91.3991 125.804 90.9669 125.804 90.4515C125.804 90.1083 125.733 89.8143 125.591 89.5707C125.451 89.3259 125.225 89.0986 124.917 88.8854C124.606 88.6734 124.169 88.4356 123.605 88.1733C122.812 87.8125 122.235 87.4353 121.877 87.0417C121.516 86.6482 121.337 86.1714 121.337 85.6115C121.337 85.1313 121.453 84.7049 121.685 84.3289C121.918 83.9541 122.231 83.6648 122.628 83.461C123.024 83.2583 123.458 83.1564 123.933 83.1564C124.341 83.1564 124.742 83.2126 125.133 83.3263C125.526 83.4387 125.89 83.5992 126.226 83.8077V85.2719C126.008 84.7752 125.678 84.3887 125.237 84.1122C124.795 83.837 124.346 83.6987 123.892 83.6987C123.372 83.6987 122.953 83.8662 122.635 84.2001C122.316 84.5351 122.157 84.9333 122.157 85.3937C122.157 85.7287 122.252 86.0145 122.443 86.2546C122.635 86.4947 122.869 86.6962 123.147 86.8578C123.424 87.0207 123.814 87.2198 124.316 87.4552C124.825 87.6989 125.243 87.9249 125.571 88.1323C125.899 88.3408 126.172 88.6125 126.391 88.9463C126.609 89.2813 126.719 89.6878 126.719 90.1669C126.719 90.7092 126.588 91.1801 126.329 91.5783C126.07 91.9754 125.724 92.2812 125.291 92.4932C124.859 92.7052 124.388 92.8118 123.878 92.8118C123.404 92.8118 122.949 92.7462 122.512 92.615Z" fill="white"/>
<path d="M122.512 92.615C122.075 92.4838 121.682 92.2999 121.337 92.0656V90.4246C121.574 91.0302 121.935 91.4893 122.423 91.8009C122.91 92.1136 123.417 92.2694 123.945 92.2694C124.474 92.2694 124.917 92.0949 125.271 91.747C125.626 91.3991 125.804 90.9669 125.804 90.4515C125.804 90.1083 125.733 89.8143 125.591 89.5707C125.451 89.3259 125.225 89.0986 124.917 88.8854C124.606 88.6734 124.169 88.4356 123.605 88.1733C122.812 87.8125 122.235 87.4353 121.877 87.0417C121.516 86.6482 121.337 86.1714 121.337 85.6115C121.337 85.1313 121.453 84.7049 121.685 84.3289C121.918 83.9541 122.231 83.6648 122.628 83.461C123.024 83.2583 123.458 83.1564 123.933 83.1564C124.341 83.1564 124.742 83.2126 125.133 83.3263C125.526 83.4387 125.89 83.5992 126.226 83.8077V85.2719C126.008 84.7752 125.678 84.3887 125.237 84.1122C124.795 83.837 124.346 83.6987 123.892 83.6987C123.372 83.6987 122.953 83.8662 122.635 84.2001C122.316 84.5351 122.157 84.9333 122.157 85.3937C122.157 85.7287 122.252 86.0145 122.443 86.2546C122.635 86.4947 122.869 86.6962 123.147 86.8578C123.424 87.0207 123.814 87.2198 124.316 87.4552C124.825 87.6989 125.243 87.9249 125.571 88.1323C125.899 88.3408 126.172 88.6125 126.391 88.9463C126.609 89.2813 126.719 89.6878 126.719 90.1669C126.719 90.7092 126.588 91.1801 126.329 91.5783C126.07 91.9754 125.724 92.2812 125.291 92.4932C124.859 92.7052 124.388 92.8118 123.878 92.8118C123.404 92.8118 122.949 92.7462 122.512 92.615Z" stroke="white" stroke-width="0.109008" stroke-miterlimit="10" stroke-linejoin="round"/>
<path d="M128.64 92.5876C128.752 92.5197 128.854 92.3932 128.948 92.2081C129.04 92.023 129.087 91.749 129.087 91.387V84.578C129.087 84.2161 129.044 83.9431 128.955 83.7569C128.866 83.5718 128.765 83.4477 128.654 83.3844C128.543 83.3212 128.486 83.2989 128.486 83.3165H130.71C130.71 83.2989 130.653 83.3212 130.542 83.3844C130.43 83.4477 130.327 83.5718 130.234 83.7569C130.142 83.9431 130.095 84.2161 130.095 84.578V91.387C130.095 91.749 130.142 92.023 130.234 92.2081C130.327 92.3932 130.43 92.5174 130.542 92.5806C130.653 92.6439 130.71 92.6673 130.71 92.6485H128.471C128.471 92.6767 128.529 92.6556 128.64 92.5876Z" fill="white"/>
<path d="M128.64 92.5876C128.752 92.5197 128.854 92.3932 128.948 92.2081C129.04 92.023 129.087 91.749 129.087 91.387V84.578C129.087 84.2161 129.044 83.9431 128.955 83.7569C128.866 83.5718 128.765 83.4477 128.654 83.3844C128.543 83.3212 128.486 83.2989 128.486 83.3165H130.71C130.71 83.2989 130.653 83.3212 130.542 83.3844C130.43 83.4477 130.327 83.5718 130.234 83.7569C130.142 83.9431 130.095 84.2161 130.095 84.578V91.387C130.095 91.749 130.142 92.023 130.234 92.2081C130.327 92.3932 130.43 92.5174 130.542 92.5806C130.653 92.6439 130.71 92.6673 130.71 92.6485H128.471C128.471 92.6767 128.529 92.6556 128.64 92.5876Z" stroke="white" stroke-width="0.109008" stroke-miterlimit="10" stroke-linejoin="round"/>
<path d="M141.655 84.6745V83.3181H148.563L142.906 92.1079H147.094C147.502 92.1079 147.853 92.0247 148.147 91.8572C148.443 91.6897 148.653 91.4753 148.78 91.213L148.535 92.6514H141.356L147.026 83.8605H143.124C142.308 83.8605 141.817 84.1322 141.655 84.6745Z" fill="white"/>
<path d="M141.655 84.6745V83.3181H148.563L142.906 92.1079H147.094C147.502 92.1079 147.853 92.0247 148.147 91.8572C148.443 91.6897 148.653 91.4753 148.78 91.213L148.535 92.6514H141.356L147.026 83.8605H143.124C142.308 83.8605 141.817 84.1322 141.655 84.6745Z" stroke="white" stroke-width="0.109008" stroke-miterlimit="10" stroke-linejoin="round"/>
<path d="M154.303 87.6646C154.61 87.4702 154.844 87.2172 155.003 86.9056C155.161 86.5928 155.24 86.2649 155.24 85.9217C155.24 85.5691 155.165 85.2364 155.016 84.9249C154.866 84.6133 154.638 84.3568 154.33 84.1588C154.02 83.9585 153.644 83.8589 153.201 83.8589H152.044V91.4012C152.044 91.7631 152.089 92.0372 152.18 92.2223C152.27 92.4074 152.371 92.5304 152.48 92.5889C152.588 92.6475 152.643 92.6674 152.643 92.6498H150.479C150.479 92.6674 150.535 92.6452 150.642 92.5819C150.752 92.5187 150.848 92.3968 150.935 92.2153C151.022 92.0349 151.064 91.7631 151.064 91.4012V84.6191C151.064 84.2478 151.022 83.9655 150.935 83.7723C150.848 83.5766 150.752 83.4455 150.642 83.3775C150.535 83.3108 150.479 83.2897 150.479 83.3166H153.172C153.881 83.3166 154.463 83.4326 154.921 83.6622C155.378 83.8941 155.71 84.1916 155.913 84.5582C156.118 84.9249 156.22 85.3243 156.22 85.7589C156.22 86.1208 156.134 86.4757 155.961 86.8236C155.789 87.1715 155.542 87.4749 155.221 87.7326C154.898 87.9903 154.524 88.1683 154.098 88.2679L153.881 88.3089L156.275 91.3473C156.593 91.6999 156.855 91.9716 157.062 92.1614C157.272 92.3512 157.424 92.4777 157.519 92.5409C157.615 92.6042 157.67 92.6405 157.689 92.6498H156.097L152.398 87.9563H153.213C153.632 87.9563 153.994 87.8591 154.303 87.6646Z" fill="white"/>
<path d="M154.303 87.6646C154.61 87.4702 154.844 87.2172 155.003 86.9056C155.161 86.5928 155.24 86.2649 155.24 85.9217C155.24 85.5691 155.165 85.2364 155.016 84.9249C154.866 84.6133 154.638 84.3568 154.33 84.1588C154.02 83.9585 153.644 83.8589 153.201 83.8589H152.044V91.4012C152.044 91.7631 152.089 92.0372 152.18 92.2223C152.27 92.4074 152.371 92.5304 152.48 92.5889C152.588 92.6475 152.643 92.6674 152.643 92.6498H150.479C150.479 92.6674 150.535 92.6452 150.642 92.5819C150.752 92.5187 150.848 92.3968 150.935 92.2153C151.022 92.0349 151.064 91.7631 151.064 91.4012V84.6191C151.064 84.2478 151.022 83.9655 150.935 83.7723C150.848 83.5766 150.752 83.4455 150.642 83.3775C150.535 83.3108 150.479 83.2897 150.479 83.3166H153.172C153.881 83.3166 154.463 83.4326 154.921 83.6622C155.378 83.8941 155.71 84.1916 155.913 84.5582C156.118 84.9249 156.22 85.3243 156.22 85.7589C156.22 86.1208 156.134 86.4757 155.961 86.8236C155.789 87.1715 155.542 87.4749 155.221 87.7326C154.898 87.9903 154.524 88.1683 154.098 88.2679L153.881 88.3089L156.275 91.3473C156.593 91.6999 156.855 91.9716 157.062 92.1614C157.272 92.3512 157.424 92.4777 157.519 92.5409C157.615 92.6042 157.67 92.6405 157.689 92.6498H156.097L152.398 87.9563H153.213C153.632 87.9563 153.994 87.8591 154.303 87.6646V87.6646Z" stroke="white" stroke-width="0.109008" stroke-miterlimit="10" stroke-linejoin="round"/>
<path d="M158.967 92.5876C159.078 92.5197 159.181 92.3932 159.275 92.2081C159.367 92.023 159.414 91.749 159.414 91.387V84.578C159.414 84.2161 159.369 83.9431 159.28 83.7569C159.191 83.5718 159.092 83.4477 158.979 83.3844C158.869 83.3212 158.812 83.2989 158.812 83.3165H161.036C161.036 83.2989 160.98 83.3212 160.869 83.3844C160.756 83.4477 160.653 83.5718 160.561 83.7569C160.467 83.9431 160.421 84.2161 160.421 84.578V91.387C160.421 91.749 160.467 92.023 160.561 92.2081C160.653 92.3932 160.756 92.5174 160.869 92.5806C160.98 92.6439 161.036 92.6673 161.036 92.6485H158.798C158.798 92.6767 158.854 92.6556 158.967 92.5876Z" fill="white"/>
<path d="M158.967 92.5876C159.078 92.5197 159.181 92.3932 159.275 92.2081C159.367 92.023 159.414 91.749 159.414 91.387V84.578C159.414 84.2161 159.369 83.9431 159.28 83.7569C159.191 83.5718 159.092 83.4477 158.979 83.3844C158.869 83.3212 158.812 83.2989 158.812 83.3165H161.036C161.036 83.2989 160.98 83.3212 160.869 83.3844C160.756 83.4477 160.653 83.5718 160.561 83.7569C160.467 83.9431 160.421 84.2161 160.421 84.578V91.387C160.421 91.749 160.467 92.023 160.561 92.2081C160.653 92.3932 160.756 92.5174 160.869 92.5806C160.98 92.6439 161.036 92.6673 161.036 92.6485H158.798C158.798 92.6767 158.854 92.6556 158.967 92.5876Z" stroke="white" stroke-width="0.109008" stroke-miterlimit="10" stroke-linejoin="round"/>
<path d="M169.239 92.5876C169.347 92.5197 169.447 92.3932 169.537 92.2081C169.628 92.023 169.673 91.749 169.673 91.387V88.3076H164.566V91.387C164.566 91.749 164.612 92.023 164.702 92.2081C164.792 92.3932 164.893 92.5174 165.001 92.5806C165.11 92.6439 165.164 92.6673 165.164 92.6485H163.005C163.005 92.6767 163.059 92.6556 163.168 92.5876C163.277 92.5197 163.374 92.3932 163.459 92.2081C163.546 92.023 163.588 91.749 163.588 91.387V84.578C163.588 84.2161 163.546 83.9431 163.459 83.7569C163.374 83.5718 163.277 83.4477 163.168 83.3844C163.059 83.3212 163.005 83.2989 163.005 83.3165H165.164C165.164 83.2989 165.11 83.3212 165.001 83.3844C164.893 83.4477 164.792 83.5718 164.702 83.7569C164.612 83.9431 164.566 84.2161 164.566 84.578V87.7113H169.673V84.578C169.673 84.2161 169.628 83.9431 169.537 83.7569C169.447 83.5718 169.347 83.4477 169.239 83.3844C169.13 83.3212 169.075 83.2989 169.075 83.3165H171.236C171.236 83.2895 171.182 83.3095 171.072 83.3774C170.964 83.4453 170.867 83.5718 170.78 83.7569C170.694 83.9431 170.651 84.2161 170.651 84.578V91.387C170.651 91.749 170.697 92.023 170.787 92.2081C170.877 92.3932 170.977 92.5174 171.086 92.5806C171.194 92.6439 171.249 92.6673 171.249 92.6485H169.075C169.075 92.6767 169.13 92.6556 169.239 92.5876Z" fill="white"/>
<path d="M169.239 92.5876C169.347 92.5197 169.447 92.3932 169.537 92.2081C169.628 92.023 169.673 91.749 169.673 91.387V88.3076H164.566V91.387C164.566 91.749 164.612 92.023 164.702 92.2081C164.792 92.3932 164.893 92.5174 165.001 92.5806C165.11 92.6439 165.164 92.6673 165.164 92.6485H163.005C163.005 92.6767 163.059 92.6556 163.168 92.5876C163.277 92.5197 163.374 92.3932 163.459 92.2081C163.546 92.023 163.588 91.749 163.588 91.387V84.578C163.588 84.2161 163.546 83.9431 163.459 83.7569C163.374 83.5718 163.277 83.4477 163.168 83.3844C163.059 83.3212 163.005 83.2989 163.005 83.3165H165.164C165.164 83.2989 165.11 83.3212 165.001 83.3844C164.893 83.4477 164.792 83.5718 164.702 83.7569C164.612 83.9431 164.566 84.2161 164.566 84.578V87.7113H169.673V84.578C169.673 84.2161 169.628 83.9431 169.537 83.7569C169.447 83.5718 169.347 83.4477 169.239 83.3844C169.13 83.3212 169.075 83.2989 169.075 83.3165H171.236C171.236 83.2895 171.182 83.3094 171.072 83.3774C170.964 83.4453 170.867 83.5718 170.78 83.7569C170.694 83.9431 170.651 84.2161 170.651 84.578V91.387C170.651 91.749 170.697 92.023 170.787 92.2081C170.877 92.3932 170.977 92.5174 171.086 92.5806C171.194 92.6439 171.249 92.6673 171.249 92.6485H169.075C169.075 92.6767 169.13 92.6556 169.239 92.5876Z" stroke="white" stroke-width="0.109008" stroke-miterlimit="10" stroke-linejoin="round"/>
<path d="M174.936 89.029L174.067 91.1855C173.932 91.5193 173.863 91.7958 173.863 92.0124C173.863 92.3111 173.999 92.5232 174.27 92.6497H172.33C172.421 92.6497 172.552 92.5595 172.723 92.3779C172.895 92.1975 173.094 91.8403 173.321 91.3073L176.863 82.8865L180.377 91.3471C180.575 91.8356 180.768 92.1706 180.953 92.351C181.138 92.5314 181.286 92.6309 181.395 92.6497H179.141C179.368 92.5407 179.481 92.3744 179.481 92.1483C179.481 91.9586 179.408 91.6868 179.264 91.3342L178.314 89.029H174.936ZM178.097 88.4738L176.618 84.8532L175.167 88.4738H178.097Z" fill="white"/>
<path d="M174.936 89.029L174.067 91.1855C173.932 91.5193 173.863 91.7958 173.863 92.0124C173.863 92.3111 173.999 92.5232 174.27 92.6497H172.33C172.421 92.6497 172.552 92.5595 172.723 92.3779C172.895 92.1975 173.094 91.8403 173.321 91.3073L176.863 82.8865L180.377 91.3471C180.575 91.8356 180.768 92.1706 180.953 92.351C181.138 92.5314 181.286 92.6309 181.395 92.6497H179.141C179.368 92.5407 179.481 92.3744 179.481 92.1483C179.481 91.9586 179.408 91.6868 179.264 91.3342L178.314 89.029H174.936ZM178.097 88.4738L176.618 84.8532L175.167 88.4738H178.097Z" stroke="white" stroke-width="0.109008" stroke-miterlimit="10" stroke-linejoin="round"/>
<path d="M191.204 83.3162C191.077 83.3431 190.953 83.445 190.831 83.6207C190.71 83.7976 190.647 84.108 190.647 84.5507V93.0254L183.701 84.9303V91.4253C183.701 91.8587 183.779 92.1633 183.932 92.3402C184.086 92.5159 184.236 92.6178 184.38 92.6459H182.468C182.593 92.6178 182.723 92.5159 182.855 92.3402C182.985 92.1633 183.051 91.8552 183.051 91.4113V84.6316C183.051 84.3247 182.947 84.0436 182.739 83.7917C182.531 83.5375 182.269 83.3794 181.953 83.3162H183.635L189.996 90.7343V84.5507C189.996 83.8538 189.762 83.4427 189.291 83.3162H191.204Z" fill="white"/>
<path d="M191.204 83.3162C191.077 83.3431 190.953 83.445 190.831 83.6207C190.71 83.7976 190.647 84.108 190.647 84.5507V93.0254L183.701 84.9303V91.4253C183.701 91.8587 183.779 92.1633 183.932 92.3402C184.086 92.5159 184.236 92.6178 184.38 92.6459H182.468C182.593 92.6178 182.723 92.5159 182.855 92.3402C182.985 92.1633 183.051 91.8552 183.051 91.4113V84.6316C183.051 84.3247 182.947 84.0436 182.739 83.7917C182.531 83.5375 182.269 83.3794 181.953 83.3162H183.635L189.996 90.7343V84.5507C189.996 83.8538 189.762 83.4427 189.291 83.3162H191.204Z" stroke="white" stroke-width="0.109008" stroke-miterlimit="10" stroke-linejoin="round"/>
<path d="M205.36 92.5958C205.055 92.6321 204.634 92.6497 204.099 92.6497H201.849C201.967 92.6227 202.093 92.5208 202.23 92.3451C202.368 92.1682 202.434 91.8274 202.434 91.3202V84.6061C202.434 84.1352 202.371 83.8131 202.245 83.6362C202.117 83.4593 201.989 83.3539 201.863 83.3176H204.099C204.68 83.3176 205.124 83.3422 205.428 83.3926C205.732 83.4418 205.999 83.5167 206.226 83.6151C206.625 83.806 206.935 84.0719 207.152 84.4163C207.37 84.7595 207.48 85.1308 207.48 85.5291C207.48 86.1347 207.295 86.6571 206.928 87.0952C206.56 87.5332 206.075 87.8167 205.476 87.9432C205.885 87.9889 206.273 88.106 206.642 88.2958C207.01 88.4855 207.309 88.7432 207.541 89.0689C207.773 89.3945 207.889 89.7658 207.889 90.1816C207.889 90.7603 207.735 91.2323 207.425 91.599C207.117 91.9644 206.698 92.2385 206.171 92.4201C205.934 92.5009 205.665 92.5595 205.36 92.5958ZM205.203 83.9618C204.994 83.8939 204.711 83.8599 204.358 83.8599H203.416V87.7125H204.522C204.848 87.7125 205.121 87.6633 205.339 87.5637C205.557 87.4641 205.749 87.3329 205.912 87.1701C206.084 86.9979 206.221 86.7894 206.321 86.5458C206.422 86.3022 206.471 86.0527 206.471 85.7997C206.471 85.4928 206.415 85.2035 206.301 84.9317C206.187 84.6599 206.016 84.4386 205.789 84.2664C205.607 84.1317 205.412 84.0298 205.203 83.9618ZM205.435 88.3497C205.18 88.2864 204.834 88.2548 204.399 88.2548H203.416V92.1073H204.711C205.366 92.1073 205.878 91.9527 206.246 91.6458C206.615 91.3389 206.798 90.8505 206.798 90.1816C206.798 89.5573 206.556 89.0466 206.075 88.6484C205.903 88.5125 205.688 88.4129 205.435 88.3497Z" fill="white"/>
<path d="M205.36 92.5958C205.055 92.6321 204.634 92.6497 204.099 92.6497H201.849C201.967 92.6227 202.093 92.5208 202.23 92.3451C202.368 92.1682 202.434 91.8274 202.434 91.3202V84.6061C202.434 84.1352 202.371 83.8131 202.245 83.6362C202.117 83.4593 201.989 83.3539 201.863 83.3176H204.099C204.68 83.3176 205.124 83.3422 205.428 83.3926C205.732 83.4418 205.999 83.5167 206.226 83.6151C206.625 83.806 206.935 84.0719 207.152 84.4163C207.37 84.7595 207.48 85.1308 207.48 85.5291C207.48 86.1347 207.295 86.6571 206.928 87.0952C206.56 87.5332 206.075 87.8167 205.476 87.9432C205.885 87.9889 206.273 88.106 206.642 88.2958C207.01 88.4855 207.309 88.7432 207.541 89.0689C207.773 89.3945 207.889 89.7658 207.889 90.1816C207.889 90.7603 207.735 91.2323 207.425 91.599C207.117 91.9644 206.698 92.2385 206.171 92.4201C205.934 92.5009 205.665 92.5595 205.36 92.5958ZM205.203 83.9618C204.994 83.8939 204.711 83.8599 204.358 83.8599H203.416V87.7125H204.522C204.848 87.7125 205.121 87.6633 205.339 87.5637C205.557 87.4641 205.749 87.3329 205.912 87.1701C206.084 86.9979 206.221 86.7894 206.321 86.5458C206.422 86.3022 206.471 86.0527 206.471 85.7997C206.471 85.4928 206.415 85.2035 206.301 84.9317C206.187 84.6599 206.016 84.4386 205.789 84.2664C205.607 84.1317 205.412 84.0298 205.203 83.9618ZM205.435 88.3497C205.18 88.2864 204.834 88.2548 204.399 88.2548H203.416V92.1073H204.711C205.366 92.1073 205.878 91.9527 206.246 91.6458C206.615 91.3389 206.798 90.8505 206.798 90.1816C206.798 89.5573 206.556 89.0466 206.075 88.6484C205.903 88.5125 205.688 88.4129 205.435 88.3497Z" stroke="white" stroke-width="0.109008" stroke-miterlimit="10" stroke-linejoin="round"/>
<path d="M209.804 92.6491C209.804 92.676 209.858 92.6561 209.968 92.5881C210.075 92.5202 210.174 92.3843 210.261 92.1805C210.347 91.9779 210.391 91.6815 210.391 91.2926V84.6324C210.391 84.2623 210.347 83.9788 210.261 83.7844C210.174 83.5899 210.075 83.4575 209.968 83.3849C209.858 83.3123 209.804 83.29 209.804 83.3158H214.748V84.6734C214.584 84.1311 214.092 83.8593 213.272 83.8593H211.374V87.7119H213.724C213.906 87.7119 214.06 87.6826 214.188 87.624C214.316 87.5643 214.411 87.5034 214.475 87.4401C214.538 87.3769 214.575 87.337 214.584 87.3183V88.6337C214.575 88.6161 214.538 88.5751 214.475 88.5119C214.411 88.4486 214.318 88.3901 214.195 88.3362C214.072 88.2811 213.92 88.2542 213.737 88.2542H211.374V92.1067H213.505C213.915 92.1067 214.268 92.0224 214.563 91.8561C214.859 91.6886 215.071 91.4742 215.199 91.2106L214.953 92.6491H209.804Z" fill="white"/>
<path d="M209.804 92.6491C209.804 92.676 209.858 92.6561 209.968 92.5881C210.075 92.5202 210.174 92.3843 210.261 92.1805C210.347 91.9779 210.391 91.6815 210.391 91.2926V84.6324C210.391 84.2623 210.347 83.9788 210.261 83.7844C210.174 83.5899 210.075 83.4575 209.968 83.3849C209.858 83.3123 209.804 83.29 209.804 83.3158H214.748V84.6734C214.584 84.1311 214.092 83.8593 213.272 83.8593H211.374V87.7119H213.724C213.906 87.7119 214.06 87.6826 214.188 87.624C214.316 87.5643 214.411 87.5034 214.475 87.4401C214.538 87.3769 214.575 87.337 214.584 87.3183V88.6337C214.575 88.6161 214.538 88.5751 214.475 88.5119C214.411 88.4486 214.318 88.3901 214.195 88.3362C214.072 88.2811 213.92 88.2542 213.737 88.2542H211.374V92.1067H213.505C213.915 92.1067 214.268 92.0224 214.563 91.8561C214.859 91.6886 215.071 91.4742 215.199 91.2106L214.953 92.6491H209.804Z" stroke="white" stroke-width="0.109008" stroke-miterlimit="10" stroke-linejoin="round"/>
<path d="M225.641 83.3162C225.514 83.3431 225.39 83.445 225.268 83.6207C225.145 83.7976 225.084 84.108 225.084 84.5507V93.0254L218.138 84.9303V91.4253C218.138 91.8587 218.215 92.1633 218.369 92.3402C218.522 92.5159 218.672 92.6178 218.816 92.6459H216.904C217.03 92.6178 217.159 92.5159 217.29 92.3402C217.421 92.1633 217.487 91.8552 217.487 91.4113V84.6316C217.487 84.3247 217.383 84.0436 217.175 83.7917C216.967 83.5375 216.704 83.3794 216.388 83.3162H218.07L224.433 90.7343V84.5507C224.433 83.8538 224.198 83.4427 223.728 83.3162H225.641Z" fill="white"/>
<path d="M225.641 83.3162C225.514 83.3431 225.39 83.445 225.268 83.6207C225.145 83.7976 225.084 84.108 225.084 84.5507V93.0254L218.138 84.9303V91.4253C218.138 91.8587 218.215 92.1633 218.369 92.3402C218.522 92.5159 218.672 92.6178 218.816 92.6459H216.904C217.03 92.6178 217.159 92.5159 217.29 92.3402C217.421 92.1633 217.487 91.8552 217.487 91.4113V84.6316C217.487 84.3247 217.383 84.0436 217.175 83.7917C216.967 83.5375 216.704 83.3794 216.388 83.3162H218.07L224.433 90.7343V84.5507C224.433 83.8538 224.198 83.4427 223.728 83.3162H225.641Z" stroke="white" stroke-width="0.109008" stroke-miterlimit="10" stroke-linejoin="round"/>
<path d="M231.089 92.6491C231.089 92.676 231.143 92.6561 231.253 92.5881C231.362 92.5202 231.461 92.3843 231.546 92.1805C231.633 91.9779 231.676 91.6815 231.676 91.2926V84.6324C231.676 84.2623 231.633 83.9788 231.546 83.7844C231.461 83.5899 231.362 83.4575 231.253 83.3849C231.143 83.3123 231.089 83.29 231.089 83.3158H236.034V84.6734C235.87 84.1311 235.378 83.8593 234.558 83.8593H232.66V87.7119H235.01C235.191 87.7119 235.346 87.6826 235.474 87.624C235.601 87.5643 235.696 87.5034 235.761 87.4401C235.824 87.3769 235.86 87.337 235.87 87.3183V88.6337C235.86 88.6161 235.824 88.5751 235.761 88.5119C235.696 88.4486 235.604 88.3901 235.481 88.3362C235.358 88.2811 235.205 88.2542 235.023 88.2542H232.66V92.1067H234.791C235.201 92.1067 235.553 92.0224 235.849 91.8561C236.145 91.6886 236.357 91.4742 236.483 91.2106L236.239 92.6491H231.089Z" fill="white"/>
<path d="M231.089 92.6491C231.089 92.676 231.143 92.6561 231.253 92.5881C231.362 92.5202 231.461 92.3843 231.546 92.1805C231.633 91.9779 231.676 91.6815 231.676 91.2926V84.6324C231.676 84.2623 231.633 83.9788 231.546 83.7844C231.461 83.5899 231.362 83.4575 231.253 83.3849C231.143 83.3123 231.089 83.29 231.089 83.3158H236.034V84.6734C235.87 84.1311 235.378 83.8593 234.558 83.8593H232.66V87.7119H235.01C235.191 87.7119 235.346 87.6826 235.474 87.624C235.601 87.5643 235.696 87.5034 235.761 87.4401C235.824 87.3769 235.86 87.337 235.87 87.3183V88.6337C235.86 88.6161 235.824 88.5751 235.761 88.5119C235.696 88.4486 235.604 88.3901 235.481 88.3362C235.358 88.2811 235.205 88.2542 235.023 88.2542H232.66V92.1067H234.791C235.201 92.1067 235.553 92.0224 235.849 91.8561C236.145 91.6886 236.357 91.4742 236.483 91.2106L236.239 92.6491H231.089Z" stroke="white" stroke-width="0.109008" stroke-miterlimit="10" stroke-linejoin="round"/>
<path d="M238.121 84.6745V83.3181H245.028L239.372 92.1079H243.56C243.968 92.1079 244.318 92.0247 244.613 91.8572C244.907 91.6897 245.119 91.4753 245.246 91.213L245.001 92.6514H237.821L243.491 83.8605H239.588C238.773 83.8605 238.283 84.1322 238.121 84.6745Z" fill="white"/>
<path d="M238.121 84.6745V83.3181H245.028L239.372 92.1079H243.56C243.968 92.1079 244.318 92.0247 244.613 91.8572C244.907 91.6897 245.119 91.4753 245.246 91.213L245.001 92.6514H237.821L243.491 83.8605H239.588C238.773 83.8605 238.283 84.1322 238.121 84.6745Z" stroke="white" stroke-width="0.109008" stroke-miterlimit="10" stroke-linejoin="round"/>
<path d="M250.768 87.6646C251.076 87.4702 251.31 87.2172 251.469 86.9056C251.628 86.5928 251.707 86.2649 251.707 85.9217C251.707 85.5691 251.632 85.2364 251.483 84.9249C251.333 84.6133 251.103 84.3568 250.795 84.1588C250.487 83.9585 250.11 83.8589 249.666 83.8589H248.51V91.4012C248.51 91.7631 248.556 92.0372 248.646 92.2223C248.737 92.4074 248.837 92.5304 248.946 92.5889C249.055 92.6475 249.109 92.6674 249.109 92.6498H246.946C246.946 92.6674 247 92.6452 247.109 92.5819C247.218 92.5187 247.315 92.3968 247.402 92.2153C247.487 92.0349 247.531 91.7631 247.531 91.4012V84.6191C247.531 84.2478 247.487 83.9655 247.402 83.7723C247.315 83.5766 247.218 83.4455 247.109 83.3775C247 83.3108 246.946 83.2897 246.946 83.3166H249.639C250.347 83.3166 250.93 83.4326 251.387 83.6622C251.845 83.8941 252.176 84.1916 252.38 84.5582C252.585 84.9249 252.686 85.3243 252.686 85.7589C252.686 86.1208 252.599 86.4757 252.428 86.8236C252.256 87.1715 252.008 87.4749 251.687 87.7326C251.365 87.9903 250.99 88.1683 250.563 88.2679L250.347 88.3089L252.741 91.3473C253.058 91.6999 253.321 91.9716 253.529 92.1614C253.738 92.3512 253.89 92.4777 253.985 92.5409C254.081 92.6042 254.137 92.6405 254.156 92.6498H252.564L248.864 87.9563H249.68C250.097 87.9563 250.46 87.8591 250.768 87.6646Z" fill="white"/>
<path d="M250.768 87.6646C251.076 87.4702 251.31 87.2172 251.469 86.9056C251.628 86.5928 251.707 86.2649 251.707 85.9217C251.707 85.5691 251.632 85.2364 251.483 84.9249C251.333 84.6133 251.103 84.3568 250.795 84.1588C250.487 83.9585 250.11 83.8589 249.666 83.8589H248.51V91.4012C248.51 91.7631 248.556 92.0372 248.646 92.2223C248.737 92.4074 248.837 92.5304 248.946 92.5889C249.055 92.6475 249.109 92.6674 249.109 92.6498H246.946C246.946 92.6674 247 92.6452 247.109 92.5819C247.218 92.5187 247.315 92.3968 247.402 92.2153C247.487 92.0349 247.531 91.7631 247.531 91.4012V84.6191C247.531 84.2478 247.487 83.9655 247.402 83.7723C247.315 83.5766 247.218 83.4455 247.109 83.3775C247 83.3108 246.946 83.2897 246.946 83.3166H249.639C250.347 83.3166 250.93 83.4326 251.387 83.6622C251.845 83.8941 252.176 84.1916 252.38 84.5582C252.585 84.9249 252.686 85.3243 252.686 85.7589C252.686 86.1208 252.599 86.4757 252.428 86.8236C252.256 87.1715 252.008 87.4749 251.687 87.7326C251.365 87.9903 250.99 88.1683 250.563 88.2679L250.347 88.3089L252.741 91.3473C253.058 91.6999 253.321 91.9716 253.529 92.1614C253.738 92.3512 253.89 92.4777 253.985 92.5409C254.081 92.6042 254.137 92.6405 254.156 92.6498H252.564L248.864 87.9563H249.68C250.097 87.9563 250.46 87.8591 250.768 87.6646V87.6646Z" stroke="white" stroke-width="0.109008" stroke-miterlimit="10" stroke-linejoin="round"/>
<path d="M256.995 89.029L256.127 91.1855C255.991 91.5193 255.923 91.7958 255.923 92.0124C255.923 92.3111 256.059 92.5232 256.331 92.6497H254.39C254.482 92.6497 254.612 92.5595 254.784 92.3779C254.956 92.1975 255.155 91.8403 255.381 91.3073L258.922 82.8865L262.437 91.3471C262.635 91.8356 262.827 92.1706 263.014 92.351C263.199 92.5314 263.346 92.6309 263.455 92.6497H261.201C261.429 92.5407 261.541 92.3744 261.541 92.1483C261.541 91.9586 261.469 91.6868 261.324 91.3342L260.375 89.029H256.995ZM260.158 88.4738L258.678 84.8532L257.226 88.4738H260.158Z" fill="white"/>
<path d="M256.995 89.029L256.127 91.1855C255.991 91.5193 255.923 91.7958 255.923 92.0124C255.923 92.3111 256.059 92.5232 256.331 92.6497H254.39C254.482 92.6497 254.612 92.5595 254.784 92.3779C254.956 92.1975 255.155 91.8403 255.381 91.3073L258.922 82.8865L262.437 91.3471C262.635 91.8356 262.827 92.1706 263.014 92.351C263.199 92.5314 263.346 92.6309 263.455 92.6497H261.201C261.429 92.5407 261.541 92.3744 261.541 92.1483C261.541 91.9586 261.469 91.6868 261.324 91.3342L260.375 89.029H256.995ZM260.158 88.4738L258.678 84.8532L257.226 88.4738H260.158Z" stroke="white" stroke-width="0.109008" stroke-miterlimit="10" stroke-linejoin="round"/>
<path d="M98.3497 103.263C98.2712 103.092 98.1822 102.978 98.0826 102.921C97.9843 102.862 97.9351 102.841 97.9351 102.858H99.9099C99.9099 102.841 99.8596 102.862 99.76 102.921C99.6604 102.978 99.5702 103.092 99.4871 103.263C99.4027 103.434 99.3629 103.684 99.3629 104.017V110.934H101.4C101.772 110.934 102.092 110.858 102.362 110.704C102.631 110.55 102.824 110.353 102.939 110.112L102.716 111.433H97.9351C97.9351 111.457 97.9843 111.439 98.0826 111.377C98.1822 111.315 98.2712 111.189 98.3497 111.003C98.4282 110.816 98.468 110.544 98.468 110.185V104.017C98.468 103.684 98.4282 103.434 98.3497 103.263Z" fill="white"/>
<path d="M108.074 108.104L107.277 110.086C107.151 110.393 107.089 110.647 107.089 110.846C107.089 111.12 107.214 111.316 107.464 111.432H105.681C105.764 111.432 105.885 111.35 106.043 111.182C106.2 111.017 106.383 110.689 106.59 110.198L109.844 102.456L113.07 110.235C113.253 110.685 113.43 110.993 113.601 111.158C113.77 111.324 113.906 111.415 114.006 111.432H111.936C112.145 111.332 112.248 111.179 112.248 110.97C112.248 110.797 112.181 110.548 112.049 110.223L111.176 108.104H108.074ZM110.977 107.592L109.618 104.264L108.286 107.592H110.977Z" fill="white"/>
<path d="M124.952 103.405C124.952 103.064 124.802 102.882 124.504 102.857H126.438C126.312 102.882 126.152 102.976 125.957 103.143C125.761 103.309 125.581 103.634 125.415 104.116L122.717 111.733L120.309 104.826L117.826 111.733L115.366 104.079C115.149 103.381 114.834 102.973 114.418 102.857H116.489C116.256 102.898 116.14 103.035 116.14 103.268C116.14 103.384 116.191 103.593 116.29 103.891L116.427 104.327L118 109.527L120.534 102.619L122.943 109.476L124.802 104.103C124.903 103.803 124.952 103.572 124.952 103.405Z" fill="white"/>
<path d="M135.037 103.356V106.896H137.184C137.489 106.896 137.694 106.85 137.797 106.759C137.902 106.668 137.953 106.593 137.953 106.534V107.756C137.953 107.731 137.933 107.691 137.897 107.638C137.859 107.584 137.786 107.53 137.673 107.476C137.562 107.422 137.399 107.395 137.184 107.395H135.037V110.274C135.037 110.598 135.079 110.845 135.161 111.016C135.243 111.186 135.334 111.302 135.434 111.364C135.533 111.427 135.582 111.449 135.582 111.433H133.61C133.61 111.449 133.659 111.429 133.759 111.371C133.859 111.312 133.947 111.198 134.026 111.027C134.104 110.858 134.144 110.606 134.144 110.274V104.079C134.144 103.738 134.104 103.478 134.026 103.3C133.947 103.122 133.859 102.997 133.759 102.926C133.659 102.856 133.61 102.833 133.61 102.857H138.102V104.128C138.06 103.93 137.944 103.751 137.754 103.593C137.563 103.436 137.295 103.356 136.947 103.356H135.037Z" fill="white"/>
<path d="M142.589 111.377C142.687 111.315 142.777 111.197 142.859 111.028C142.94 110.858 142.981 110.606 142.981 110.274V104.017C142.981 103.684 142.943 103.434 142.865 103.263C142.787 103.092 142.7 102.978 142.602 102.921C142.503 102.862 142.455 102.841 142.455 102.858H144.404C144.404 102.841 144.355 102.862 144.256 102.921C144.158 102.978 144.068 103.092 143.987 103.263C143.905 103.434 143.864 103.684 143.864 104.017V110.274C143.864 110.606 143.905 110.858 143.987 111.028C144.068 111.197 144.158 111.312 144.256 111.371C144.355 111.429 144.404 111.449 144.404 111.433H142.442C142.442 111.457 142.492 111.439 142.589 111.377Z" fill="white"/>
<path d="M152.491 106.852C152.773 106.673 152.987 106.441 153.132 106.154C153.277 105.868 153.35 105.566 153.35 105.251C153.35 104.926 153.281 104.622 153.144 104.334C153.006 104.048 152.797 103.813 152.516 103.631C152.233 103.448 151.889 103.355 151.483 103.355H150.425V110.286C150.425 110.618 150.466 110.87 150.549 111.039C150.632 111.21 150.722 111.323 150.823 111.377C150.924 111.431 150.972 111.449 150.972 111.432H148.995C148.995 111.449 149.044 111.428 149.143 111.37C149.243 111.311 149.332 111.2 149.412 111.034C149.489 110.867 149.53 110.618 149.53 110.286V104.054C149.53 103.714 149.489 103.454 149.412 103.275C149.332 103.097 149.243 102.976 149.143 102.913C149.044 102.852 148.995 102.833 148.995 102.858H151.457C152.105 102.858 152.637 102.963 153.057 103.175C153.476 103.387 153.778 103.661 153.966 103.997C154.151 104.334 154.246 104.701 154.246 105.101C154.246 105.433 154.167 105.759 154.009 106.079C153.851 106.4 153.625 106.677 153.331 106.914C153.036 107.151 152.694 107.316 152.304 107.406L152.105 107.443L154.296 110.236C154.587 110.56 154.826 110.809 155.018 110.984C155.207 111.158 155.347 111.275 155.433 111.332C155.52 111.391 155.573 111.424 155.589 111.432H154.133L150.749 107.12H151.495C151.877 107.12 152.208 107.031 152.491 106.852Z" fill="white"/>
<path d="M166.61 111.432C166.71 111.416 166.817 111.326 166.934 111.164C167.05 111.002 167.109 110.7 167.109 110.261V104.028L163.842 111.569L160.526 104.041V110.198C160.526 110.647 160.598 110.961 160.744 111.139C160.888 111.319 161.02 111.416 161.136 111.432H159.292C159.416 111.416 159.554 111.322 159.703 111.151C159.851 110.981 159.926 110.664 159.926 110.198V103.953C159.926 103.554 159.856 103.281 159.716 103.131C159.574 102.981 159.433 102.89 159.292 102.856H160.974L164.028 109.824L167.034 102.856H168.543C168.435 102.873 168.318 102.96 168.194 103.118C168.068 103.276 168.006 103.567 168.006 103.991V110.31C168.006 110.726 168.068 111.013 168.194 111.17C168.318 111.328 168.435 111.416 168.543 111.432H166.61Z" fill="white"/>
<path d="M98.3497 103.263C98.2712 103.092 98.1822 102.978 98.0826 102.921C97.9843 102.862 97.9351 102.841 97.9351 102.858H99.9099C99.9099 102.841 99.8596 102.862 99.76 102.921C99.6604 102.978 99.5702 103.092 99.4871 103.263C99.4027 103.434 99.3629 103.684 99.3629 104.017V110.934H101.4C101.772 110.934 102.092 110.858 102.362 110.704C102.631 110.55 102.824 110.353 102.939 110.112L102.716 111.433H97.9351C97.9351 111.457 97.9843 111.439 98.0826 111.377C98.1822 111.315 98.2712 111.189 98.3497 111.003C98.4282 110.816 98.468 110.544 98.468 110.185V104.017C98.468 103.684 98.4282 103.434 98.3497 103.263Z" fill="#FD7615" stroke="#FD7615" stroke-width="0.170392" stroke-miterlimit="10" stroke-linejoin="round"/>
<path d="M108.075 108.104L107.277 110.086C107.152 110.393 107.09 110.647 107.09 110.846C107.09 111.12 107.215 111.316 107.464 111.432H105.682C105.765 111.432 105.885 111.35 106.044 111.182C106.201 111.017 106.383 110.689 106.591 110.198L109.845 102.456L113.07 110.235C113.253 110.685 113.43 110.993 113.601 111.158C113.771 111.324 113.907 111.415 114.006 111.432H111.937C112.145 111.332 112.248 111.179 112.248 110.97C112.248 110.797 112.181 110.548 112.049 110.223L111.176 108.104H108.075ZM110.977 107.592L109.619 104.264L108.287 107.592H110.977Z" fill="#FD7615" stroke="#FD7615" stroke-width="0.170392" stroke-miterlimit="10" stroke-linejoin="round"/>
<path d="M124.952 103.405C124.952 103.064 124.802 102.882 124.504 102.857H126.438C126.312 102.882 126.152 102.976 125.957 103.143C125.761 103.309 125.581 103.634 125.415 104.116L122.717 111.733L120.309 104.826L117.826 111.733L115.366 104.079C115.149 103.381 114.834 102.973 114.418 102.857H116.489C116.256 102.898 116.14 103.035 116.14 103.268C116.14 103.384 116.191 103.593 116.29 103.891L116.427 104.327L118 109.527L120.534 102.619L122.943 109.476L124.802 104.103C124.903 103.803 124.952 103.572 124.952 103.405Z" fill="#FD7615" stroke="#FD7615" stroke-width="0.170392" stroke-miterlimit="10" stroke-linejoin="round"/>
<path d="M135.037 103.356V106.896H137.184C137.49 106.896 137.695 106.85 137.798 106.759C137.902 106.667 137.954 106.592 137.954 106.534V107.756C137.954 107.731 137.934 107.691 137.897 107.637C137.86 107.583 137.786 107.53 137.674 107.476C137.562 107.422 137.4 107.395 137.184 107.395H135.037V110.274C135.037 110.597 135.079 110.844 135.161 111.015C135.243 111.185 135.335 111.301 135.434 111.363C135.534 111.427 135.583 111.449 135.583 111.432H133.61C133.61 111.449 133.66 111.429 133.759 111.37C133.86 111.312 133.948 111.198 134.026 111.027C134.105 110.857 134.144 110.605 134.144 110.274V104.079C134.144 103.738 134.105 103.478 134.026 103.3C133.948 103.122 133.86 102.996 133.759 102.926C133.66 102.856 133.61 102.832 133.61 102.857H138.102V104.128C138.06 103.93 137.944 103.751 137.755 103.593C137.564 103.436 137.295 103.356 136.947 103.356H135.037Z" fill="#FD7615" stroke="#FD7615" stroke-width="0.170392" stroke-miterlimit="10" stroke-linejoin="round"/>
<path d="M142.589 111.377C142.687 111.315 142.777 111.197 142.859 111.028C142.94 110.858 142.981 110.606 142.981 110.274V104.017C142.981 103.684 142.943 103.434 142.865 103.263C142.787 103.092 142.7 102.978 142.602 102.921C142.503 102.862 142.455 102.841 142.455 102.858H144.404C144.404 102.841 144.355 102.862 144.256 102.921C144.158 102.978 144.068 103.092 143.987 103.263C143.905 103.434 143.864 103.684 143.864 104.017V110.274C143.864 110.606 143.905 110.858 143.987 111.028C144.068 111.197 144.158 111.312 144.256 111.371C144.355 111.429 144.404 111.449 144.404 111.433H142.442C142.442 111.457 142.492 111.439 142.589 111.377Z" fill="#FD7615" stroke="#FD7615" stroke-width="0.170392" stroke-miterlimit="10" stroke-linejoin="round"/>
<path d="M152.492 106.852C152.774 106.672 152.987 106.441 153.132 106.154C153.278 105.868 153.35 105.566 153.35 105.25C153.35 104.926 153.281 104.621 153.144 104.333C153.007 104.047 152.797 103.813 152.516 103.63C152.234 103.448 151.889 103.355 151.483 103.355H150.425V110.286C150.425 110.618 150.466 110.869 150.549 111.039C150.633 111.21 150.723 111.323 150.824 111.377C150.924 111.43 150.972 111.449 150.972 111.432H148.995C148.995 111.449 149.044 111.428 149.144 111.37C149.243 111.311 149.332 111.2 149.412 111.033C149.489 110.867 149.53 110.618 149.53 110.286V104.053C149.53 103.714 149.489 103.454 149.412 103.274C149.332 103.096 149.243 102.976 149.144 102.912C149.044 102.852 148.995 102.833 148.995 102.857H151.457C152.105 102.857 152.638 102.963 153.057 103.175C153.477 103.387 153.779 103.661 153.966 103.997C154.151 104.333 154.246 104.701 154.246 105.101C154.246 105.433 154.168 105.759 154.01 106.079C153.851 106.4 153.625 106.677 153.331 106.914C153.036 107.15 152.694 107.316 152.304 107.406L152.105 107.443L154.297 110.236C154.587 110.56 154.826 110.808 155.018 110.984C155.208 111.158 155.347 111.275 155.434 111.332C155.521 111.391 155.573 111.423 155.59 111.432H154.134L150.75 107.12H151.496C151.878 107.12 152.208 107.031 152.492 106.852Z" fill="#FD7615" stroke="#FD7615" stroke-width="0.170392" stroke-miterlimit="10" stroke-linejoin="round"/>
<path d="M166.611 111.432C166.71 111.416 166.818 111.325 166.935 111.164C167.051 111.002 167.11 110.7 167.11 110.261V104.028L163.843 111.569L160.527 104.041V110.197C160.527 110.647 160.598 110.961 160.744 111.139C160.889 111.318 161.021 111.416 161.137 111.432H159.292C159.416 111.416 159.554 111.322 159.703 111.151C159.852 110.981 159.927 110.664 159.927 110.197V103.953C159.927 103.554 159.857 103.281 159.716 103.131C159.574 102.981 159.434 102.889 159.292 102.855H160.974L164.029 109.824L167.035 102.855H168.543C168.435 102.873 168.318 102.96 168.194 103.118C168.069 103.276 168.007 103.566 168.007 103.991V110.31C168.007 110.726 168.069 111.013 168.194 111.17C168.318 111.328 168.435 111.416 168.543 111.432H166.611Z" fill="#FD7615" stroke="#FD7615" stroke-width="0.170392" stroke-miterlimit="10" stroke-linejoin="round"/>
<path d="M14.5559 7.99285C14.6496 4.69435 17.3496 2.04595 20.6727 2.04595H21.8803L21.8967 1.09366H1.00351L1.01757 2.04595H2.22639C5.55534 2.04595 8.25879 4.7049 8.34196 8.01276V62.2247C8.27988 65.5501 5.56588 68.229 2.22405 68.229H1.01523L1 69.1848H21.8967L21.8815 68.229H20.6738C17.3308 68.229 14.618 65.5501 14.5559 62.2247V36.3358H48.3866V33.4707H14.5559V7.99285Z" fill="white"/>
<path d="M14.5559 7.99285C14.6496 4.69435 17.3496 2.04595 20.6727 2.04595H21.8803L21.8967 1.09366H1.00351L1.01757 2.04595H2.22639C5.55534 2.04595 8.25879 4.70489 8.34196 8.01276V62.2247C8.27988 65.5501 5.56588 68.229 2.22405 68.229H1.01523L1 69.1848H21.8967L21.8815 68.229H20.6738C17.3308 68.229 14.618 65.5501 14.5559 62.2247V36.3358H48.3866V33.4707H14.5559V7.99285Z" stroke="white" stroke-width="0.295628" stroke-miterlimit="10"/>
<path d="M155.883 56.6371L103.882 1.10854L92.8979 1.098V2.05382H94.4546C97.1686 2.05382 99.3801 3.97364 99.4984 6.65132V44.3275C99.4773 57.5015 90.971 66.2854 78.2116 66.2854C66.0449 66.2854 57.9334 57.0096 57.9334 43.0952V6.63961C58.0494 3.96661 60.2573 2.05264 62.9678 2.05264H64.5245V1.098H45.126V2.05264H46.6815C49.4412 2.05264 51.6808 4.03572 51.7312 6.78251V44.4985C51.7312 59.3745 62.3259 69.2922 78.2187 69.2922C93.6651 69.2922 103.962 59.3077 103.962 44.3322L103.9 10.6432L158.781 69.1833H160.224L160.227 6.09259H155.836L155.883 56.6371Z" fill="white"/>
<path d="M155.883 56.6371L103.882 1.10854L92.8979 1.098V2.05381H94.4546C97.1686 2.05381 99.3801 3.97364 99.4984 6.65132V44.3275C99.4773 57.5015 90.971 66.2854 78.2116 66.2854C66.0449 66.2854 57.9334 57.0096 57.9334 43.0952V6.63961C58.0494 3.96661 60.2573 2.05264 62.9678 2.05264H64.5245V1.098H45.126V2.05264H46.6815C49.4412 2.05264 51.6808 4.03572 51.7312 6.78251V44.4985C51.7312 59.3745 62.3259 69.2922 78.2187 69.2922C93.6651 69.2922 103.962 59.3077 103.962 44.3322L103.9 10.6432L158.781 69.1833H160.224L160.227 6.09259H155.836L155.883 56.6371Z" stroke="white" stroke-width="0.295628" stroke-miterlimit="10"/>
<path d="M135.05 11.2742L136.011 11.2601V9.55816C136.011 6.4951 138.427 4.00132 141.456 3.86896H174.036C177.065 4.00132 179.482 6.4951 179.482 9.55816V11.2601L180.442 11.2742V1.00035L135.05 1.01441V11.2742Z" fill="white"/>
<path d="M135.05 11.2742L136.011 11.2601V9.55816C136.011 6.4951 138.427 4.00132 141.456 3.86896H174.036C177.065 4.00132 179.482 6.4951 179.482 9.55816V11.2601L180.442 11.2742V1.00035L135.05 1.01441V11.2742Z" stroke="white" stroke-width="0.295628" stroke-miterlimit="10"/>
<path d="M218.68 9.85588V11.5895L219.663 11.6035V1.09074H185.681V4.06594H213.233C216.272 4.25102 218.68 6.77057 218.68 9.85588Z" fill="white"/>
<path d="M218.68 9.85588V11.5895L219.663 11.6035V1.09074H185.681V4.06594H213.233C216.272 4.25102 218.68 6.77057 218.68 9.85588Z" stroke="white" stroke-width="0.295628" stroke-miterlimit="10"/>
<path d="M207.354 66.2073H185.682V69.1848H219.932L225.594 53.4689H224.622C221.619 60.8753 217.661 66.2073 207.354 66.2073Z" fill="white"/>
<path d="M207.354 66.2073H185.682V69.1848H219.932L225.594 53.4689H224.622C221.619 60.8753 217.661 66.2073 207.354 66.2073Z" stroke="white" stroke-width="0.295628" stroke-miterlimit="10"/>
<path d="M218.837 41.1671V42.5996L219.787 42.6113V27.2176L218.837 27.2305V28.663C218.837 31.2821 216.738 32.9513 214.131 32.9993H185.681V37.0557H214.232C216.791 37.1564 218.837 38.5819 218.837 41.1671Z" fill="white"/>
<path d="M218.837 41.1671V42.5996L219.787 42.6113V27.2176L218.837 27.2305V28.663C218.837 31.2821 216.738 32.9513 214.131 32.9993H185.681V37.0557H214.232C216.791 37.1564 218.837 38.5819 218.837 41.1671Z" stroke="white" stroke-width="0.295628" stroke-miterlimit="10"/>
<path d="M265.657 61.7792C261.834 57.6034 253.319 44.6062 253.319 44.6062C251.404 41.9027 248.368 38.6335 246.25 37.6555C255.749 37.6555 263.029 29.2242 263.029 19.6613C263.029 8.15174 255.694 1.09794 243.724 1.09794L225.06 1.09911V4.17622C226.437 4.21487 238.393 3.98061 243.368 4.25236C250.721 4.6553 255.377 10.3773 255.62 19.3099C255.68 21.4757 255.428 23.002 254.992 24.3853C252.189 33.2805 244.699 34.5022 239.576 34.6416C236.603 34.7224 234.356 34.6744 234.356 34.6744V35.588C237.964 35.588 240.846 39.0095 243.429 42.253C244.186 43.2053 255.318 60.2401 256.439 61.5801C259.545 65.2885 264.494 69.9048 273.687 69.9048H279.09L279.091 69.2488C273.287 69.202 269.631 66.119 265.657 61.7792Z" fill="#747679"/>
<path d="M265.657 61.7792C261.834 57.6034 253.319 44.6062 253.319 44.6062C251.404 41.9027 248.368 38.6335 246.25 37.6555C255.749 37.6555 263.029 29.2242 263.029 19.6613C263.029 8.15175 255.694 1.09794 243.724 1.09794L225.06 1.09911V4.17622C226.437 4.21488 238.393 3.98061 243.368 4.25236C250.721 4.6553 255.377 10.3773 255.62 19.3099C255.68 21.4757 255.428 23.002 254.992 24.3853C252.189 33.2805 244.699 34.5022 239.576 34.6416C236.603 34.7224 234.356 34.6744 234.356 34.6744V35.588C237.964 35.588 240.846 39.0095 243.429 42.253C244.186 43.2053 255.318 60.2401 256.439 61.5801C259.545 65.2885 264.494 69.9048 273.687 69.9048H279.09L279.091 69.2488C273.287 69.202 269.631 66.119 265.657 61.7792Z" fill="#FD7615" stroke="#FD7615" stroke-width="0.295628" stroke-miterlimit="10"/>
</svg>
