<svg width="46" height="41" viewBox="0 0 46 41" fill="none" xmlns="http://www.w3.org/2000/svg">
<path d="M32.416 40.9503C32.2435 40.9503 32.0781 40.8803 31.9562 40.7557C31.8343 40.6311 31.7658 40.462 31.7658 40.2858V4.98264L23.5251 1.44913L16.6051 4.23168V40.2858C16.6051 40.462 16.5366 40.6311 16.4146 40.7557C16.2927 40.8803 16.1273 40.9503 15.9549 40.9503C15.7824 40.9503 15.6171 40.8803 15.4951 40.7557C15.3732 40.6311 15.3047 40.462 15.3047 40.2858V3.77844C15.3046 3.64492 15.3439 3.51448 15.4175 3.40412C15.491 3.29376 15.5953 3.2086 15.7169 3.15973L23.295 0.11269C23.4526 0.0491886 23.6283 0.0510962 23.7846 0.118006L32.6676 3.92797C32.7857 3.97863 32.8865 4.0638 32.9574 4.17281C33.0283 4.28182 33.0662 4.4098 33.0662 4.5407V40.2858C33.0662 40.462 32.9977 40.6311 32.8757 40.7557C32.7538 40.8803 32.5884 40.9503 32.416 40.9503Z" fill="#D64E00"/>
<path d="M23.533 40.9504C23.3606 40.9504 23.1952 40.8804 23.0733 40.7557C22.9513 40.6311 22.8828 40.4621 22.8828 40.2858V0.731446C22.8828 0.555192 22.9513 0.386157 23.0733 0.261526C23.1952 0.136896 23.3606 0.0668793 23.533 0.0668793C23.7055 0.0668793 23.8708 0.136896 23.9928 0.261526C24.1147 0.386157 24.1832 0.555192 24.1832 0.731446V40.2858C24.1832 40.4621 24.1147 40.6311 23.9928 40.7557C23.8708 40.8804 23.7055 40.9504 23.533 40.9504Z" fill="#D64E00"/>
<path d="M42.9132 40.9503C42.7408 40.9503 42.5754 40.8803 42.4535 40.7557C42.3315 40.631 42.263 40.462 42.263 40.2857V19.3984L35.9054 15.6177H32.4158C32.2434 15.6177 32.078 15.5477 31.9561 15.423C31.8341 15.2984 31.7656 15.1294 31.7656 14.9531C31.7656 14.7769 31.8341 14.6078 31.9561 14.4832C32.078 14.3586 32.2434 14.2885 32.4158 14.2885H36.081C36.1952 14.289 36.3074 14.3201 36.4061 14.3789L43.239 18.4421C43.3376 18.5003 43.4196 18.584 43.4766 18.6848C43.5337 18.7855 43.5638 18.8998 43.5641 19.0163V40.2824C43.5645 40.37 43.548 40.4569 43.5155 40.5379C43.4829 40.619 43.4351 40.6926 43.3746 40.7547C43.3141 40.8168 43.2422 40.866 43.163 40.8996C43.0838 40.9332 42.9989 40.9504 42.9132 40.9503Z" fill="#D64E00"/>
<path d="M36.0818 40.9503C35.9094 40.9503 35.744 40.8803 35.6221 40.7557C35.5001 40.631 35.4316 40.462 35.4316 40.2857V14.9531C35.4316 14.7769 35.5001 14.6078 35.6221 14.4832C35.744 14.3586 35.9094 14.2885 36.0818 14.2885C36.2543 14.2885 36.4197 14.3586 36.5416 14.4832C36.6636 14.6078 36.7321 14.7769 36.7321 14.9531V40.2857C36.7321 40.462 36.6636 40.631 36.5416 40.7557C36.4197 40.8803 36.2543 40.9503 36.0818 40.9503Z" fill="#D64E00"/>
<path d="M2.59942 40.9504C2.42697 40.9504 2.26159 40.8804 2.13966 40.7557C2.01772 40.6311 1.94922 40.4621 1.94922 40.2858V19.5879C1.94922 19.4116 2.01772 19.2426 2.13966 19.118C2.26159 18.9933 2.42697 18.9233 2.59942 18.9233H15.9551C16.1276 18.9233 16.293 18.9933 16.4149 19.118C16.5368 19.2426 16.6053 19.4116 16.6053 19.5879C16.6053 19.7641 16.5368 19.9332 16.4149 20.0578C16.293 20.1824 16.1276 20.2524 15.9551 20.2524H3.24962V40.2858C3.24962 40.4621 3.18111 40.6311 3.05918 40.7557C2.93724 40.8804 2.77186 40.9504 2.59942 40.9504Z" fill="#D64E00"/>
<path d="M6.1784 22.805H4.7967C4.62425 22.805 4.45887 22.7349 4.33693 22.6103C4.21499 22.4857 4.14648 22.3166 4.14648 22.1404C4.14648 21.9641 4.21499 21.7951 4.33693 21.6705C4.45887 21.5458 4.62425 21.4758 4.7967 21.4758H6.1784C6.35085 21.4758 6.51623 21.5458 6.63817 21.6705C6.76011 21.7951 6.82861 21.9641 6.82861 22.1404C6.82861 22.3166 6.76011 22.4857 6.63817 22.6103C6.51623 22.7349 6.35085 22.805 6.1784 22.805Z" fill="#D64E00"/>
<path d="M9.96906 22.805H8.58673C8.41428 22.805 8.2489 22.7349 8.12696 22.6103C8.00503 22.4857 7.93652 22.3166 7.93652 22.1404C7.93652 21.9641 8.00503 21.7951 8.12696 21.6705C8.2489 21.5458 8.41428 21.4758 8.58673 21.4758H9.96906C10.1415 21.4758 10.3069 21.5458 10.4288 21.6705C10.5508 21.7951 10.6193 21.9641 10.6193 22.1404C10.6193 22.3166 10.5508 22.4857 10.4288 22.6103C10.3069 22.7349 10.1415 22.805 9.96906 22.805Z" fill="#D64E00"/>
<path d="M13.7574 22.805H12.3758C12.2033 22.805 12.038 22.7349 11.916 22.6103C11.7941 22.4857 11.7256 22.3166 11.7256 22.1404C11.7256 21.9641 11.7941 21.7951 11.916 21.6705C12.038 21.5458 12.2033 21.4758 12.3758 21.4758H13.7574C13.9298 21.4758 14.0952 21.5458 14.2172 21.6705C14.3391 21.7951 14.4076 21.9641 14.4076 22.1404C14.4076 22.3166 14.3391 22.4857 14.2172 22.6103C14.0952 22.7349 13.9298 22.805 13.7574 22.805Z" fill="#D64E00"/>
<path d="M6.1784 25.9238H4.7967C4.62425 25.9238 4.45887 25.8538 4.33693 25.7291C4.21499 25.6045 4.14648 25.4355 4.14648 25.2592C4.14648 25.0829 4.21499 24.9139 4.33693 24.7893C4.45887 24.6647 4.62425 24.5946 4.7967 24.5946H6.1784C6.35085 24.5946 6.51623 24.6647 6.63817 24.7893C6.76011 24.9139 6.82861 25.0829 6.82861 25.2592C6.82861 25.4355 6.76011 25.6045 6.63817 25.7291C6.51623 25.8538 6.35085 25.9238 6.1784 25.9238Z" fill="#D64E00"/>
<path d="M9.96906 25.9238H8.58673C8.41428 25.9238 8.2489 25.8538 8.12696 25.7291C8.00503 25.6045 7.93652 25.4355 7.93652 25.2592C7.93652 25.0829 8.00503 24.9139 8.12696 24.7893C8.2489 24.6647 8.41428 24.5946 8.58673 24.5946H9.96906C10.1415 24.5946 10.3069 24.6647 10.4288 24.7893C10.5508 24.9139 10.6193 25.0829 10.6193 25.2592C10.6193 25.4355 10.5508 25.6045 10.4288 25.7291C10.3069 25.8538 10.1415 25.9238 9.96906 25.9238Z" fill="#D64E00"/>
<path d="M13.7574 25.9238H12.3758C12.2033 25.9238 12.038 25.8538 11.916 25.7291C11.7941 25.6045 11.7256 25.4355 11.7256 25.2592C11.7256 25.0829 11.7941 24.9139 11.916 24.7893C12.038 24.6647 12.2033 24.5946 12.3758 24.5946H13.7574C13.9298 24.5946 14.0952 24.6647 14.2172 24.7893C14.3391 24.9139 14.4076 25.0829 14.4076 25.2592C14.4076 25.4355 14.3391 25.6045 14.2172 25.7291C14.0952 25.8538 13.9298 25.9238 13.7574 25.9238Z" fill="#D64E00"/>
<path d="M6.1784 29.042H4.7967C4.62425 29.042 4.45887 28.9719 4.33693 28.8473C4.21499 28.7227 4.14648 28.5536 4.14648 28.3774C4.14648 28.2011 4.21499 28.0321 4.33693 27.9075C4.45887 27.7828 4.62425 27.7128 4.7967 27.7128H6.1784C6.35085 27.7128 6.51623 27.7828 6.63817 27.9075C6.76011 28.0321 6.82861 28.2011 6.82861 28.3774C6.82861 28.5536 6.76011 28.7227 6.63817 28.8473C6.51623 28.9719 6.35085 29.042 6.1784 29.042Z" fill="#D64E00"/>
<path d="M9.96906 29.042H8.58673C8.41428 29.042 8.2489 28.9719 8.12696 28.8473C8.00503 28.7227 7.93652 28.5536 7.93652 28.3774C7.93652 28.2011 8.00503 28.0321 8.12696 27.9075C8.2489 27.7828 8.41428 27.7128 8.58673 27.7128H9.96906C10.1415 27.7128 10.3069 27.7828 10.4288 27.9075C10.5508 28.0321 10.6193 28.2011 10.6193 28.3774C10.6193 28.5536 10.5508 28.7227 10.4288 28.8473C10.3069 28.9719 10.1415 29.042 9.96906 29.042Z" fill="#D64E00"/>
<path d="M13.7574 29.042H12.3758C12.2033 29.042 12.038 28.9719 11.916 28.8473C11.7941 28.7227 11.7256 28.5536 11.7256 28.3774C11.7256 28.2011 11.7941 28.0321 11.916 27.9075C12.038 27.7828 12.2033 27.7128 12.3758 27.7128H13.7574C13.9298 27.7128 14.0952 27.7828 14.2172 27.9075C14.3391 28.0321 14.4076 28.2011 14.4076 28.3774C14.4076 28.5536 14.3391 28.7227 14.2172 28.8473C14.0952 28.9719 13.9298 29.042 13.7574 29.042Z" fill="#D64E00"/>
<path d="M6.1784 32.1608H4.7967C4.62425 32.1608 4.45887 32.0907 4.33693 31.9661C4.21499 31.8415 4.14648 31.6724 4.14648 31.4962C4.14648 31.3199 4.21499 31.1509 4.33693 31.0263C4.45887 30.9016 4.62425 30.8316 4.7967 30.8316H6.1784C6.35085 30.8316 6.51623 30.9016 6.63817 31.0263C6.76011 31.1509 6.82861 31.3199 6.82861 31.4962C6.82861 31.6724 6.76011 31.8415 6.63817 31.9661C6.51623 32.0907 6.35085 32.1608 6.1784 32.1608Z" fill="#D64E00"/>
<path d="M9.96906 32.1608H8.58673C8.41428 32.1608 8.2489 32.0907 8.12696 31.9661C8.00503 31.8415 7.93652 31.6724 7.93652 31.4962C7.93652 31.3199 8.00503 31.1509 8.12696 31.0263C8.2489 30.9016 8.41428 30.8316 8.58673 30.8316H9.96906C10.1415 30.8316 10.3069 30.9016 10.4288 31.0263C10.5508 31.1509 10.6193 31.3199 10.6193 31.4962C10.6193 31.6724 10.5508 31.8415 10.4288 31.9661C10.3069 32.0907 10.1415 32.1608 9.96906 32.1608Z" fill="#D64E00"/>
<path d="M13.7574 32.1608H12.3758C12.2033 32.1608 12.038 32.0907 11.916 31.9661C11.7941 31.8415 11.7256 31.6724 11.7256 31.4962C11.7256 31.3199 11.7941 31.1509 11.916 31.0263C12.038 30.9016 12.2033 30.8316 12.3758 30.8316H13.7574C13.9298 30.8316 14.0952 30.9016 14.2172 31.0263C14.3391 31.1509 14.4076 31.3199 14.4076 31.4962C14.4076 31.6724 14.3391 31.8415 14.2172 31.9661C14.0952 32.0907 13.9298 32.1608 13.7574 32.1608Z" fill="#D64E00"/>
<path d="M6.1784 35.2796H4.7967C4.62425 35.2796 4.45887 35.2095 4.33693 35.0849C4.21499 34.9603 4.14648 34.7912 4.14648 34.615C4.14648 34.4387 4.21499 34.2697 4.33693 34.1451C4.45887 34.0204 4.62425 33.9504 4.7967 33.9504H6.1784C6.35085 33.9504 6.51623 34.0204 6.63817 34.1451C6.76011 34.2697 6.82861 34.4387 6.82861 34.615C6.82861 34.7912 6.76011 34.9603 6.63817 35.0849C6.51623 35.2095 6.35085 35.2796 6.1784 35.2796Z" fill="#D64E00"/>
<path d="M9.96906 35.2796H8.58673C8.41428 35.2796 8.2489 35.2095 8.12696 35.0849C8.00503 34.9603 7.93652 34.7912 7.93652 34.615C7.93652 34.4387 8.00503 34.2697 8.12696 34.1451C8.2489 34.0204 8.41428 33.9504 8.58673 33.9504H9.96906C10.1415 33.9504 10.3069 34.0204 10.4288 34.1451C10.5508 34.2697 10.6193 34.4387 10.6193 34.615C10.6193 34.7912 10.5508 34.9603 10.4288 35.0849C10.3069 35.2095 10.1415 35.2796 9.96906 35.2796Z" fill="#D64E00"/>
<path d="M13.7574 35.2796H12.3758C12.2033 35.2796 12.038 35.2095 11.916 35.0849C11.7941 34.9603 11.7256 34.7912 11.7256 34.615C11.7256 34.4387 11.7941 34.2697 11.916 34.1451C12.038 34.0204 12.2033 33.9504 12.3758 33.9504H13.7574C13.9298 33.9504 14.0952 34.0204 14.2172 34.1451C14.3391 34.2697 14.4076 34.4387 14.4076 34.615C14.4076 34.7912 14.3391 34.9603 14.2172 35.0849C14.0952 35.2095 13.9298 35.2796 13.7574 35.2796Z" fill="#D64E00"/>
<path d="M6.1784 38.3984H4.7967C4.62425 38.3984 4.45887 38.3284 4.33693 38.2038C4.21499 38.0792 4.14648 37.9101 4.14648 37.7339C4.14648 37.5576 4.21499 37.3886 4.33693 37.264C4.45887 37.1393 4.62425 37.0693 4.7967 37.0693H6.1784C6.35085 37.0693 6.51623 37.1393 6.63817 37.264C6.76011 37.3886 6.82861 37.5576 6.82861 37.7339C6.82861 37.9101 6.76011 38.0792 6.63817 38.2038C6.51623 38.3284 6.35085 38.3984 6.1784 38.3984Z" fill="#D64E00"/>
<path d="M9.96906 38.3984H8.58673C8.41428 38.3984 8.2489 38.3284 8.12696 38.2038C8.00503 38.0792 7.93652 37.9101 7.93652 37.7339C7.93652 37.5576 8.00503 37.3886 8.12696 37.264C8.2489 37.1393 8.41428 37.0693 8.58673 37.0693H9.96906C10.1415 37.0693 10.3069 37.1393 10.4288 37.264C10.5508 37.3886 10.6193 37.5576 10.6193 37.7339C10.6193 37.9101 10.5508 38.0792 10.4288 38.2038C10.3069 38.3284 10.1415 38.3984 9.96906 38.3984Z" fill="#D64E00"/>
<path d="M13.7574 38.3984H12.3758C12.2033 38.3984 12.038 38.3284 11.916 38.2038C11.7941 38.0792 11.7256 37.9101 11.7256 37.7339C11.7256 37.5576 11.7941 37.3886 11.916 37.264C12.038 37.1393 12.2033 37.0693 12.3758 37.0693H13.7574C13.9298 37.0693 14.0952 37.1393 14.2172 37.264C14.3391 37.3886 14.4076 37.5576 14.4076 37.7339C14.4076 37.9101 14.3391 38.0792 14.2172 38.2038C14.0952 38.3284 13.9298 38.3984 13.7574 38.3984Z" fill="#D64E00"/>
<path d="M21.241 7.23686C21.0686 7.23686 20.9032 7.16684 20.7813 7.04221C20.6593 6.91758 20.5908 6.74855 20.5908 6.57229V5.31825C20.5908 5.142 20.6593 4.97296 20.7813 4.84833C20.9032 4.7237 21.0686 4.65369 21.241 4.65369C21.4135 4.65369 21.5789 4.7237 21.7008 4.84833C21.8227 4.97296 21.8912 5.142 21.8912 5.31825V6.57229C21.8912 6.74855 21.8227 6.91758 21.7008 7.04221C21.5789 7.16684 21.4135 7.23686 21.241 7.23686Z" fill="#D64E00"/>
<path d="M18.2762 8.0097C18.1037 8.0097 17.9384 7.93968 17.8164 7.81505C17.6945 7.69042 17.626 7.52139 17.626 7.34513V6.0911C17.626 5.91484 17.6945 5.74581 17.8164 5.62118C17.9384 5.49655 18.1037 5.42653 18.2762 5.42653C18.4486 5.42653 18.614 5.49655 18.736 5.62118C18.8579 5.74581 18.9264 5.91484 18.9264 6.0911V7.34513C18.9264 7.52139 18.8579 7.69042 18.736 7.81505C18.614 7.93968 18.4486 8.0097 18.2762 8.0097Z" fill="#D64E00"/>
<path d="M21.241 12.2358C21.0686 12.2358 20.9032 12.1658 20.7813 12.0411C20.6593 11.9165 20.5908 11.7475 20.5908 11.5712V10.3172C20.5908 10.1409 20.6593 9.97188 20.7813 9.84725C20.9032 9.72262 21.0686 9.6526 21.241 9.6526C21.4135 9.6526 21.5789 9.72262 21.7008 9.84725C21.8227 9.97188 21.8912 10.1409 21.8912 10.3172V11.5712C21.8912 11.7475 21.8227 11.9165 21.7008 12.0411C21.5789 12.1658 21.4135 12.2358 21.241 12.2358Z" fill="#D64E00"/>
<path d="M18.2762 13.0086C18.1037 13.0086 17.9384 12.9386 17.8164 12.814C17.6945 12.6893 17.626 12.5203 17.626 12.344V11.09C17.626 10.9137 17.6945 10.7447 17.8164 10.6201C17.9384 10.4954 18.1037 10.4254 18.2762 10.4254C18.4486 10.4254 18.614 10.4954 18.736 10.6201C18.8579 10.7447 18.9264 10.9137 18.9264 11.09V12.344C18.9264 12.5203 18.8579 12.6893 18.736 12.814C18.614 12.9386 18.4486 13.0086 18.2762 13.0086Z" fill="#D64E00"/>
<path d="M21.241 17.2373C21.0686 17.2373 20.9032 17.1672 20.7813 17.0426C20.6593 16.918 20.5908 16.7489 20.5908 16.5727V15.316C20.5908 15.1397 20.6593 14.9707 20.7813 14.8461C20.9032 14.7214 21.0686 14.6514 21.241 14.6514C21.4135 14.6514 21.5789 14.7214 21.7008 14.8461C21.8227 14.9707 21.8912 15.1397 21.8912 15.316V16.5727C21.8912 16.7489 21.8227 16.918 21.7008 17.0426C21.5789 17.1672 21.4135 17.2373 21.241 17.2373Z" fill="#D64E00"/>
<path d="M18.2762 18.0075C18.1037 18.0075 17.9384 17.9375 17.8164 17.8129C17.6945 17.6882 17.626 17.5192 17.626 17.3429V16.0889C17.626 15.9126 17.6945 15.7436 17.8164 15.619C17.9384 15.4943 18.1037 15.4243 18.2762 15.4243C18.4486 15.4243 18.614 15.4943 18.736 15.619C18.8579 15.7436 18.9264 15.9126 18.9264 16.0889V17.3429C18.9264 17.5192 18.8579 17.6882 18.736 17.8129C18.614 17.9375 18.4486 18.0075 18.2762 18.0075Z" fill="#D64E00"/>
<path d="M21.241 22.2329C21.0686 22.2329 20.9032 22.1628 20.7813 22.0382C20.6593 21.9136 20.5908 21.7445 20.5908 21.5683V20.3143C20.5908 20.138 20.6593 19.969 20.7813 19.8443C20.9032 19.7197 21.0686 19.6497 21.241 19.6497C21.4135 19.6497 21.5789 19.7197 21.7008 19.8443C21.8227 19.969 21.8912 20.138 21.8912 20.3143V21.5683C21.8912 21.7445 21.8227 21.9136 21.7008 22.0382C21.5789 22.1628 21.4135 22.2329 21.241 22.2329Z" fill="#D64E00"/>
<path d="M18.2762 23.0057C18.1037 23.0057 17.9384 22.9357 17.8164 22.811C17.6945 22.6864 17.626 22.5174 17.626 22.3411V21.0871C17.626 20.9108 17.6945 20.7418 17.8164 20.6172C17.9384 20.4925 18.1037 20.4225 18.2762 20.4225C18.4486 20.4225 18.614 20.4925 18.736 20.6172C18.8579 20.7418 18.9264 20.9108 18.9264 21.0871V22.3411C18.9264 22.5174 18.8579 22.6864 18.736 22.811C18.614 22.9357 18.4486 23.0057 18.2762 23.0057Z" fill="#D64E00"/>
<path d="M21.241 27.2317C21.0686 27.2317 20.9032 27.1617 20.7813 27.037C20.6593 26.9124 20.5908 26.7434 20.5908 26.5671V25.3131C20.5908 25.1368 20.6593 24.9678 20.7813 24.8432C20.9032 24.7185 21.0686 24.6485 21.241 24.6485C21.4135 24.6485 21.5789 24.7185 21.7008 24.8432C21.8227 24.9678 21.8912 25.1368 21.8912 25.3131V26.5671C21.8912 26.7434 21.8227 26.9124 21.7008 27.037C21.5789 27.1617 21.4135 27.2317 21.241 27.2317Z" fill="#D64E00"/>
<path d="M18.2762 28.0032C18.1037 28.0032 17.9384 27.9332 17.8164 27.8085C17.6945 27.6839 17.626 27.5149 17.626 27.3386V26.0859C17.626 25.9097 17.6945 25.7406 17.8164 25.616C17.9384 25.4914 18.1037 25.4213 18.2762 25.4213C18.4486 25.4213 18.614 25.4914 18.736 25.616C18.8579 25.7406 18.9264 25.9097 18.9264 26.0859V27.3386C18.9264 27.5149 18.8579 27.6839 18.736 27.8085C18.614 27.9332 18.4486 28.0032 18.2762 28.0032Z" fill="#D64E00"/>
<path d="M21.241 32.2306C21.0686 32.2306 20.9032 32.1606 20.7813 32.0359C20.6593 31.9113 20.5908 31.7423 20.5908 31.566V30.312C20.5908 30.1357 20.6593 29.9667 20.7813 29.8421C20.9032 29.7174 21.0686 29.6474 21.241 29.6474C21.4135 29.6474 21.5789 29.7174 21.7008 29.8421C21.8227 29.9667 21.8912 30.1357 21.8912 30.312V31.566C21.8912 31.7423 21.8227 31.9113 21.7008 32.0359C21.5789 32.1606 21.4135 32.2306 21.241 32.2306Z" fill="#D64E00"/>
<path d="M18.2762 33.0034C18.1037 33.0034 17.9384 32.9334 17.8164 32.8088C17.6945 32.6841 17.626 32.5151 17.626 32.3388V31.0848C17.626 30.9086 17.6945 30.7395 17.8164 30.6149C17.9384 30.4903 18.1037 30.4202 18.2762 30.4202C18.4486 30.4202 18.614 30.4903 18.736 30.6149C18.8579 30.7395 18.9264 30.9086 18.9264 31.0848V32.3388C18.9264 32.5151 18.8579 32.6841 18.736 32.8088C18.614 32.9334 18.4486 33.0034 18.2762 33.0034Z" fill="#D64E00"/>
<path d="M21.241 37.2288C21.0686 37.2288 20.9032 37.1588 20.7813 37.0341C20.6593 36.9095 20.5908 36.7405 20.5908 36.5642V35.3135C20.5908 35.1372 20.6593 34.9682 20.7813 34.8436C20.9032 34.7189 21.0686 34.6489 21.241 34.6489C21.4135 34.6489 21.5789 34.7189 21.7008 34.8436C21.8227 34.9682 21.8912 35.1372 21.8912 35.3135V36.5675C21.8904 36.7432 21.8215 36.9114 21.6996 37.0353C21.5778 37.1592 21.4129 37.2288 21.241 37.2288Z" fill="#D64E00"/>
<path d="M18.2762 38.0023C18.1037 38.0023 17.9384 37.9322 17.8164 37.8076C17.6945 37.683 17.626 37.514 17.626 37.3377V36.083C17.626 35.9067 17.6945 35.7377 17.8164 35.6131C17.9384 35.4884 18.1037 35.4184 18.2762 35.4184C18.4486 35.4184 18.614 35.4884 18.736 35.6131C18.8579 35.7377 18.9264 35.9067 18.9264 36.083V37.337C18.9265 37.4244 18.9097 37.5109 18.8771 37.5916C18.8444 37.6723 18.7966 37.7456 18.7362 37.8074C18.6758 37.8692 18.6041 37.9182 18.5252 37.9516C18.4462 37.9851 18.3616 38.0023 18.2762 38.0023Z" fill="#D64E00"/>
<path d="M25.7274 6.60418C25.5549 6.60418 25.3895 6.53416 25.2676 6.40953C25.1457 6.2849 25.0771 6.11587 25.0771 5.93961V4.68691C25.0771 4.51065 25.1457 4.34162 25.2676 4.21699C25.3895 4.09236 25.5549 4.02234 25.7274 4.02234C25.8998 4.02234 26.0652 4.09236 26.1871 4.21699C26.3091 4.34162 26.3776 4.51065 26.3776 4.68691V5.93961C26.3776 6.11587 26.3091 6.2849 26.1871 6.40953C26.0652 6.53416 25.8998 6.60418 25.7274 6.60418Z" fill="#D64E00"/>
<path d="M27.9236 7.45153C27.7512 7.45153 27.5858 7.38151 27.4639 7.25688C27.3419 7.13225 27.2734 6.96321 27.2734 6.78696V5.53359C27.2734 5.35733 27.3419 5.1883 27.4639 5.06367C27.5858 4.93904 27.7512 4.86902 27.9236 4.86902C28.0961 4.86902 28.2615 4.93904 28.3834 5.06367C28.5053 5.1883 28.5739 5.35733 28.5739 5.53359V6.78762C28.5737 6.96376 28.5051 7.13263 28.3832 7.25711C28.2613 7.3816 28.096 7.45153 27.9236 7.45153Z" fill="#D64E00"/>
<path d="M30.1179 8.29821C29.9455 8.29821 29.7801 8.22819 29.6582 8.10356C29.5363 7.97893 29.4678 7.80989 29.4678 7.63364V6.38027C29.4678 6.20401 29.5363 6.03498 29.6582 5.91035C29.7801 5.78572 29.9455 5.7157 30.1179 5.7157C30.2903 5.7157 30.4557 5.78572 30.5776 5.91035C30.6996 6.03498 30.7681 6.20401 30.7681 6.38027V7.6343C30.7679 7.81044 30.6993 7.97931 30.5774 8.10379C30.4555 8.22828 30.2902 8.29821 30.1179 8.29821Z" fill="#D64E00"/>
<path d="M25.7274 11.5885C25.5549 11.5885 25.3895 11.5185 25.2676 11.3938C25.1457 11.2692 25.0771 11.1002 25.0771 10.9239V9.66788C25.0771 9.49162 25.1457 9.32259 25.2676 9.19796C25.3895 9.07333 25.5549 9.00331 25.7274 9.00331C25.8998 9.00331 26.0652 9.07333 26.1871 9.19796C26.3091 9.32259 26.3776 9.49162 26.3776 9.66788V10.9239C26.3776 11.1002 26.3091 11.2692 26.1871 11.3938C26.0652 11.5185 25.8998 11.5885 25.7274 11.5885Z" fill="#D64E00"/>
<path d="M27.9236 12.4325C27.7512 12.4325 27.5858 12.3625 27.4639 12.2379C27.3419 12.1132 27.2734 11.9442 27.2734 11.7679V10.5146C27.2734 10.3383 27.3419 10.1693 27.4639 10.0446C27.5858 9.92001 27.7512 9.84999 27.9236 9.84999C28.0961 9.84999 28.2615 9.92001 28.3834 10.0446C28.5053 10.1693 28.5739 10.3383 28.5739 10.5146V11.7679C28.5739 11.9442 28.5053 12.1132 28.3834 12.2379C28.2615 12.3625 28.0961 12.4325 27.9236 12.4325Z" fill="#D64E00"/>
<path d="M30.1179 13.2791C29.9455 13.2791 29.7801 13.2091 29.6582 13.0845C29.5363 12.9598 29.4678 12.7908 29.4678 12.6145V11.3612C29.4678 11.1849 29.5363 11.0159 29.6582 10.8912C29.7801 10.7666 29.9455 10.6966 30.1179 10.6966C30.2903 10.6966 30.4557 10.7666 30.5776 10.8912C30.6996 11.0159 30.7681 11.1849 30.7681 11.3612V12.6152C30.7679 12.7913 30.6993 12.9602 30.5774 13.0847C30.4555 13.2092 30.2902 13.2791 30.1179 13.2791Z" fill="#D64E00"/>
<path d="M25.7274 16.5674C25.5549 16.5674 25.3895 16.4974 25.2676 16.3727C25.1457 16.2481 25.0771 16.0791 25.0771 15.9028V14.6454C25.0771 14.4692 25.1457 14.3002 25.2676 14.1755C25.3895 14.0509 25.5549 13.9809 25.7274 13.9809C25.8998 13.9809 26.0652 14.0509 26.1871 14.1755C26.3091 14.3002 26.3776 14.4692 26.3776 14.6454V15.8995C26.378 15.987 26.3615 16.0738 26.329 16.1548C26.2965 16.2358 26.2487 16.3095 26.1883 16.3716C26.1278 16.4336 26.056 16.4829 25.9769 16.5165C25.8978 16.5501 25.813 16.5674 25.7274 16.5674Z" fill="#D64E00"/>
<path d="M27.9236 17.4141C27.7512 17.4141 27.5858 17.344 27.4639 17.2194C27.3419 17.0948 27.2734 16.9257 27.2734 16.7495V15.4955C27.2734 15.3192 27.3419 15.1502 27.4639 15.0255C27.5858 14.9009 27.7512 14.8309 27.9236 14.8309C28.0961 14.8309 28.2615 14.9009 28.3834 15.0255C28.5053 15.1502 28.5739 15.3192 28.5739 15.4955V16.7495C28.5739 16.9257 28.5053 17.0948 28.3834 17.2194C28.2615 17.344 28.0961 17.4141 27.9236 17.4141Z" fill="#D64E00"/>
<path d="M30.1179 18.2601C29.9455 18.2601 29.7801 18.1901 29.6582 18.0654C29.5363 17.9408 29.4678 17.7718 29.4678 17.5955V16.3421C29.4678 16.1659 29.5363 15.9968 29.6582 15.8722C29.7801 15.7476 29.9455 15.6776 30.1179 15.6776C30.2903 15.6776 30.4557 15.7476 30.5776 15.8722C30.6996 15.9968 30.7681 16.1659 30.7681 16.3421V17.5962C30.7679 17.7723 30.6993 17.9412 30.5774 18.0657C30.4555 18.1901 30.2902 18.2601 30.1179 18.2601Z" fill="#D64E00"/>
<path d="M25.7274 21.5484C25.5549 21.5484 25.3895 21.4783 25.2676 21.3537C25.1457 21.2291 25.0771 21.06 25.0771 20.8838V19.6297C25.0771 19.4535 25.1457 19.2845 25.2676 19.1598C25.3895 19.0352 25.5549 18.9652 25.7274 18.9652C25.8998 18.9652 26.0652 19.0352 26.1871 19.1598C26.3091 19.2845 26.3776 19.4535 26.3776 19.6297V20.8838C26.3776 21.06 26.3091 21.2291 26.1871 21.3537C26.0652 21.4783 25.8998 21.5484 25.7274 21.5484Z" fill="#D64E00"/>
<path d="M27.9236 22.3949C27.7512 22.3949 27.5858 22.3249 27.4639 22.2003C27.3419 22.0757 27.2734 21.9066 27.2734 21.7304V20.4763C27.2734 20.3001 27.3419 20.131 27.4639 20.0064C27.5858 19.8818 27.7512 19.8118 27.9236 19.8118C28.0961 19.8118 28.2615 19.8818 28.3834 20.0064C28.5053 20.131 28.5739 20.3001 28.5739 20.4763V21.7304C28.5739 21.9066 28.5053 22.0757 28.3834 22.2003C28.2615 22.3249 28.0961 22.3949 27.9236 22.3949Z" fill="#D64E00"/>
<path d="M30.1179 23.2416C29.9455 23.2416 29.7801 23.1716 29.6582 23.047C29.5363 22.9223 29.4678 22.7533 29.4678 22.5771V21.323C29.4678 21.1468 29.5363 20.9777 29.6582 20.8531C29.7801 20.7285 29.9455 20.6585 30.1179 20.6585C30.2903 20.6585 30.4557 20.7285 30.5776 20.8531C30.6996 20.9777 30.7681 21.1468 30.7681 21.323V22.5771C30.7681 22.7533 30.6996 22.9223 30.5776 23.047C30.4557 23.1716 30.2903 23.2416 30.1179 23.2416Z" fill="#D64E00"/>
<path d="M25.7274 26.5292C25.5549 26.5292 25.3895 26.4592 25.2676 26.3346C25.1457 26.21 25.0771 26.0409 25.0771 25.8647V24.614C25.0771 24.4377 25.1457 24.2687 25.2676 24.144C25.3895 24.0194 25.5549 23.9494 25.7274 23.9494C25.8998 23.9494 26.0652 24.0194 26.1871 24.144C26.3091 24.2687 26.3776 24.4377 26.3776 24.614V25.868C26.3767 26.0437 26.3078 26.2118 26.186 26.3358C26.0641 26.4597 25.8992 26.5292 25.7274 26.5292Z" fill="#D64E00"/>
<path d="M27.9236 27.3759C27.7512 27.3759 27.5858 27.3059 27.4639 27.1813C27.3419 27.0566 27.2734 26.8876 27.2734 26.7113V25.4573C27.2734 25.2811 27.3419 25.112 27.4639 24.9874C27.5858 24.8628 27.7512 24.7927 27.9236 24.7927C28.0961 24.7927 28.2615 24.8628 28.3834 24.9874C28.5053 25.112 28.5739 25.2811 28.5739 25.4573V26.7113C28.5739 26.8876 28.5053 27.0566 28.3834 27.1813C28.2615 27.3059 28.0961 27.3759 27.9236 27.3759Z" fill="#D64E00"/>
<path d="M30.1179 28.2226C29.9455 28.2226 29.7801 28.1526 29.6582 28.028C29.5363 27.9033 29.4678 27.7343 29.4678 27.558V26.304C29.4678 26.1277 29.5363 25.9587 29.6582 25.8341C29.7801 25.7095 29.9455 25.6394 30.1179 25.6394C30.2903 25.6394 30.4557 25.7095 30.5776 25.8341C30.6996 25.9587 30.7681 26.1277 30.7681 26.304V27.558C30.7681 27.7343 30.6996 27.9033 30.5776 28.028C30.4557 28.1526 30.2903 28.2226 30.1179 28.2226Z" fill="#D64E00"/>
<path d="M25.7274 31.5102C25.5549 31.5102 25.3895 31.4402 25.2676 31.3156C25.1457 31.1909 25.0771 31.0219 25.0771 30.8456V29.5916C25.0771 29.4153 25.1457 29.2463 25.2676 29.1217C25.3895 28.997 25.5549 28.927 25.7274 28.927C25.8998 28.927 26.0652 28.997 26.1871 29.1217C26.3091 29.2463 26.3776 29.4153 26.3776 29.5916V30.8456C26.3776 31.0219 26.3091 31.1909 26.1871 31.3156C26.0652 31.4402 25.8998 31.5102 25.7274 31.5102Z" fill="#D64E00"/>
<path d="M27.9236 32.3568C27.7512 32.3568 27.5858 32.2868 27.4639 32.1622C27.3419 32.0375 27.2734 31.8685 27.2734 31.6922V30.4382C27.2734 30.2619 27.3419 30.0929 27.4639 29.9683C27.5858 29.8437 27.7512 29.7736 27.9236 29.7736C28.0961 29.7736 28.2615 29.8437 28.3834 29.9683C28.5053 30.0929 28.5739 30.2619 28.5739 30.4382V31.6922C28.5739 31.8685 28.5053 32.0375 28.3834 32.1622C28.2615 32.2868 28.0961 32.3568 27.9236 32.3568Z" fill="#D64E00"/>
<path d="M30.1179 33.2035C29.9455 33.2035 29.7801 33.1335 29.6582 33.0088C29.5363 32.8842 29.4678 32.7152 29.4678 32.5389V31.2849C29.4678 31.1086 29.5363 30.9396 29.6582 30.815C29.7801 30.6903 29.9455 30.6203 30.1179 30.6203C30.2903 30.6203 30.4557 30.6903 30.5776 30.815C30.6996 30.9396 30.7681 31.1086 30.7681 31.2849V32.5389C30.7681 32.7152 30.6996 32.8842 30.5776 33.0088C30.4557 33.1335 30.2903 33.2035 30.1179 33.2035Z" fill="#D64E00"/>
<path d="M25.7274 36.4911C25.5549 36.4911 25.3895 36.4211 25.2676 36.2964C25.1457 36.1718 25.0771 36.0028 25.0771 35.8265V34.5725C25.0771 34.3962 25.1457 34.2272 25.2676 34.1026C25.3895 33.9779 25.5549 33.9079 25.7274 33.9079C25.8998 33.9079 26.0652 33.9779 26.1871 34.1026C26.3091 34.2272 26.3776 34.3962 26.3776 34.5725V35.8265C26.3776 36.0028 26.3091 36.1718 26.1871 36.2964C26.0652 36.4211 25.8998 36.4911 25.7274 36.4911Z" fill="#D64E00"/>
<path d="M27.9236 37.3378C27.7512 37.3378 27.5858 37.2678 27.4639 37.1431C27.3419 37.0185 27.2734 36.8495 27.2734 36.6732V35.4192C27.2734 35.2429 27.3419 35.0739 27.4639 34.9493C27.5858 34.8246 27.7512 34.7546 27.9236 34.7546C28.0961 34.7546 28.2615 34.8246 28.3834 34.9493C28.5053 35.0739 28.5739 35.2429 28.5739 35.4192V36.6732C28.5739 36.8495 28.5053 37.0185 28.3834 37.1431C28.2615 37.2678 28.0961 37.3378 27.9236 37.3378Z" fill="#D64E00"/>
<path d="M30.1179 38.1845C29.9455 38.1845 29.7801 38.1144 29.6582 37.9898C29.5363 37.8652 29.4678 37.6961 29.4678 37.5199V36.2659C29.4678 36.0896 29.5363 35.9206 29.6582 35.7959C29.7801 35.6713 29.9455 35.6013 30.1179 35.6013C30.2903 35.6013 30.4557 35.6713 30.5776 35.7959C30.6996 35.9206 30.7681 36.0896 30.7681 36.2659V37.5199C30.7681 37.6961 30.6996 37.8652 30.5776 37.9898C30.4557 38.1144 30.2903 38.1845 30.1179 38.1845Z" fill="#D64E00"/>
<path d="M38.3416 20.7262C38.1692 20.7262 38.0038 20.6562 37.8818 20.5316C37.7599 20.4069 37.6914 20.2379 37.6914 20.0617V19.3898C37.6914 19.2135 37.7599 19.0445 37.8818 18.9199C38.0038 18.7952 38.1692 18.7252 38.3416 18.7252C38.5141 18.7252 38.6794 18.7952 38.8014 18.9199C38.9233 19.0445 38.9918 19.2135 38.9918 19.3898V20.0617C38.9918 20.2379 38.9233 20.4069 38.8014 20.5316C38.6794 20.6562 38.5141 20.7262 38.3416 20.7262Z" fill="#D64E00"/>
<path d="M40.533 22.1338C40.3606 22.1338 40.1952 22.0638 40.0733 21.9392C39.9513 21.8145 39.8828 21.6455 39.8828 21.4692V20.7974C39.8828 20.6211 39.9513 20.4521 40.0733 20.3274C40.1952 20.2028 40.3606 20.1328 40.533 20.1328C40.7055 20.1328 40.8708 20.2028 40.9928 20.3274C41.1147 20.4521 41.1832 20.6211 41.1832 20.7974V21.4692C41.1832 21.6455 41.1147 21.8145 40.9928 21.9392C40.8708 22.0638 40.7055 22.1338 40.533 22.1338Z" fill="#D64E00"/>
<path d="M38.3416 24.0079C38.1692 24.0079 38.0038 23.9378 37.8818 23.8132C37.7599 23.6886 37.6914 23.5195 37.6914 23.3433V22.6721C37.6914 22.4958 37.7599 22.3268 37.8818 22.2022C38.0038 22.0775 38.1692 22.0075 38.3416 22.0075C38.5141 22.0075 38.6794 22.0775 38.8014 22.2022C38.9233 22.3268 38.9918 22.4958 38.9918 22.6721V23.344C38.9916 23.5201 38.9231 23.689 38.8011 23.8134C38.6792 23.9379 38.5139 24.0079 38.3416 24.0079Z" fill="#D64E00"/>
<path d="M40.533 25.4154C40.3606 25.4154 40.1952 25.3454 40.0733 25.2207C39.9513 25.0961 39.8828 24.9271 39.8828 24.7508V24.0823C39.8828 23.906 39.9513 23.737 40.0733 23.6124C40.1952 23.4877 40.3606 23.4177 40.533 23.4177C40.7055 23.4177 40.8708 23.4877 40.9928 23.6124C41.1147 23.737 41.1832 23.906 41.1832 24.0823V24.7542C41.1824 24.9298 41.1135 25.098 40.9916 25.2219C40.8698 25.3458 40.7049 25.4154 40.533 25.4154Z" fill="#D64E00"/>
<path d="M38.3416 27.2902C38.1692 27.2902 38.0038 27.2202 37.8818 27.0956C37.7599 26.9709 37.6914 26.8019 37.6914 26.6256V25.9538C37.6914 25.7775 37.7599 25.6085 37.8818 25.4838C38.0038 25.3592 38.1692 25.2892 38.3416 25.2892C38.5141 25.2892 38.6794 25.3592 38.8014 25.4838C38.9233 25.6085 38.9918 25.7775 38.9918 25.9538V26.6256C38.9918 26.8019 38.9233 26.9709 38.8014 27.0956C38.6794 27.2202 38.5141 27.2902 38.3416 27.2902Z" fill="#D64E00"/>
<path d="M40.533 28.6977C40.3606 28.6977 40.1952 28.6277 40.0733 28.5031C39.9513 28.3784 39.8828 28.2094 39.8828 28.0331V27.3613C39.8828 27.185 39.9513 27.016 40.0733 26.8913C40.1952 26.7667 40.3606 26.6967 40.533 26.6967C40.7055 26.6967 40.8708 26.7667 40.9928 26.8913C41.1147 27.016 41.1832 27.185 41.1832 27.3613V28.0331C41.1832 28.2094 41.1147 28.3784 40.9928 28.5031C40.8708 28.6277 40.7055 28.6977 40.533 28.6977Z" fill="#D64E00"/>
<path d="M38.3416 30.5724C38.1692 30.5724 38.0038 30.5024 37.8818 30.3778C37.7599 30.2532 37.6914 30.0841 37.6914 29.9079V29.236C37.6914 29.0597 37.7599 28.8907 37.8818 28.7661C38.0038 28.6414 38.1692 28.5714 38.3416 28.5714C38.5141 28.5714 38.6794 28.6414 38.8014 28.7661C38.9233 28.8907 38.9918 29.0597 38.9918 29.236V29.9079C38.9918 30.0841 38.9233 30.2532 38.8014 30.3778C38.6794 30.5024 38.5141 30.5724 38.3416 30.5724Z" fill="#D64E00"/>
<path d="M40.533 31.9794C40.3606 31.9794 40.1952 31.9094 40.0733 31.7847C39.9513 31.6601 39.8828 31.4911 39.8828 31.3148V30.6429C39.8828 30.4667 39.9513 30.2977 40.0733 30.173C40.1952 30.0484 40.3606 29.9784 40.533 29.9784C40.7055 29.9784 40.8708 30.0484 40.9928 30.173C41.1147 30.2977 41.1832 30.4667 41.1832 30.6429V31.3148C41.1832 31.4911 41.1147 31.6601 40.9928 31.7847C40.8708 31.9094 40.7055 31.9794 40.533 31.9794Z" fill="#D64E00"/>
<path d="M38.3416 33.8515C38.1692 33.8515 38.0038 33.7814 37.8818 33.6568C37.7599 33.5322 37.6914 33.3631 37.6914 33.1869V32.5177C37.6914 32.3414 37.7599 32.1724 37.8818 32.0478C38.0038 31.9231 38.1692 31.8531 38.3416 31.8531C38.5141 31.8531 38.6794 31.9231 38.8014 32.0478C38.9233 32.1724 38.9918 32.3414 38.9918 32.5177V33.1869C38.9918 33.3631 38.9233 33.5322 38.8014 33.6568C38.6794 33.7814 38.5141 33.8515 38.3416 33.8515Z" fill="#D64E00"/>
<path d="M40.533 35.2617C40.3606 35.2617 40.1952 35.1917 40.0733 35.067C39.9513 34.9424 39.8828 34.7734 39.8828 34.5971V33.9252C39.8828 33.749 39.9513 33.58 40.0733 33.4553C40.1952 33.3307 40.3606 33.2607 40.533 33.2607C40.7055 33.2607 40.8708 33.3307 40.9928 33.4553C41.1147 33.58 41.1832 33.749 41.1832 33.9252V34.5971C41.1832 34.7734 41.1147 34.9424 40.9928 35.067C40.8708 35.1917 40.7055 35.2617 40.533 35.2617Z" fill="#D64E00"/>
<path d="M38.3416 37.1364C38.1692 37.1364 38.0038 37.0663 37.8818 36.9417C37.7599 36.8171 37.6914 36.648 37.6914 36.4718V35.7999C37.6914 35.6237 37.7599 35.4546 37.8818 35.33C38.0038 35.2054 38.1692 35.1353 38.3416 35.1353C38.5141 35.1353 38.6794 35.2054 38.8014 35.33C38.9233 35.4546 38.9918 35.6237 38.9918 35.7999V36.4718C38.9918 36.648 38.9233 36.8171 38.8014 36.9417C38.6794 37.0663 38.5141 37.1364 38.3416 37.1364Z" fill="#D64E00"/>
<path d="M40.533 38.5433C40.3606 38.5433 40.1952 38.4733 40.0733 38.3487C39.9513 38.224 39.8828 38.055 39.8828 37.8787V37.2069C39.8828 37.0306 39.9513 36.8616 40.0733 36.7369C40.1952 36.6123 40.3606 36.5423 40.533 36.5423C40.7055 36.5423 40.8708 36.6123 40.9928 36.7369C41.1147 36.8616 41.1832 37.0306 41.1832 37.2069V37.8787C41.1832 38.055 41.1147 38.224 40.9928 38.3487C40.8708 38.4733 40.7055 38.5433 40.533 38.5433Z" fill="#D64E00"/>
<path d="M44.8637 40.9397H0.650199C0.477755 40.9397 0.312375 40.8697 0.190439 40.745C0.0685029 40.6204 0 40.4514 0 40.2751C0 40.0988 0.0685029 39.9298 0.190439 39.8052C0.312375 39.6806 0.477755 39.6105 0.650199 39.6105H44.8637C45.0362 39.6105 45.2015 39.6806 45.3235 39.8052C45.4454 39.9298 45.5139 40.0988 45.5139 40.2751C45.5139 40.4514 45.4454 40.6204 45.3235 40.745C45.2015 40.8697 45.0362 40.9397 44.8637 40.9397Z" fill="#D64E00"/>
</svg>
