<svg width="17" height="17" viewBox="0 0 17 17" fill="none" xmlns="http://www.w3.org/2000/svg">
<path d="M16.1558 12.495V14.7802C16.1566 14.9923 16.1132 15.2023 16.0281 15.3967C15.9431 15.5911 15.8184 15.7655 15.662 15.909C15.5056 16.0524 15.321 16.1616 15.12 16.2295C14.9189 16.2975 14.7059 16.3227 14.4945 16.3036C12.1495 16.0489 9.89705 15.248 7.918 13.9651C6.07675 12.7956 4.51569 11.2352 3.34569 9.39473C2.0578 7.40753 1.25632 5.14503 1.00619 2.79053C0.987142 2.57989 1.01219 2.36759 1.07972 2.16715C1.14726 1.96671 1.25581 1.78252 1.39846 1.62632C1.54112 1.47011 1.71475 1.34531 1.9083 1.25985C2.10185 1.17439 2.31108 1.13016 2.52267 1.12996H4.80883C5.17865 1.12632 5.53719 1.25723 5.8176 1.49828C6.09801 1.73933 6.28117 2.07408 6.33293 2.44013C6.42942 3.17145 6.60837 3.8895 6.86637 4.5806C6.96889 4.85324 6.99108 5.14954 6.93031 5.43441C6.86953 5.71927 6.72833 5.98074 6.52344 6.18785L5.55564 7.15525C6.64046 9.06227 8.22012 10.6413 10.1279 11.7256L11.0958 10.7582C11.3029 10.5534 11.5645 10.4123 11.8495 10.3515C12.1345 10.2908 12.4309 10.313 12.7037 10.4155C13.3951 10.6733 14.1134 10.8522 14.8451 10.9487C15.2152 11.0009 15.5533 11.1872 15.795 11.4724C16.0366 11.7575 16.1651 12.1214 16.1558 12.495Z" stroke="#D64E00" stroke-linecap="round" stroke-linejoin="round"/>
</svg>
