<svg width="270" height="639" viewBox="0 0 270 639" fill="none" xmlns="http://www.w3.org/2000/svg">
<path opacity="0.1" d="M157.607 562.862C125.586 524.127 54.4308 403.619 54.4308 403.619C38.4207 378.514 13.0311 348.208 -4.75783 339.241C74.6454 339.241 135.613 261.055 135.613 172.288C135.613 65.5886 74.322 0.134399 -25.9428 0.134399H-182V28.6473C-170.518 29.006 -70.4149 26.8541 -28.8536 29.3646C32.599 33.1305 71.5728 86.2112 73.6752 169.06C74.1603 189.145 72.0579 203.312 68.5001 216.044C45.0511 298.534 -17.5334 309.832 -60.3885 311.087C-85.293 311.804 -104.052 311.446 -104.052 311.446V319.874C-73.8111 319.874 -49.7152 351.615 -28.2068 381.742C-21.8998 390.529 71.2493 548.515 80.6289 561.068C106.665 595.499 148.065 638.358 224.881 638.358H270V632.261C221.485 631.723 190.92 603.21 157.607 562.862Z" fill="#9CB8CD"/>
</svg>
