<svg width="40" height="42" viewBox="0 0 40 42" fill="none" xmlns="http://www.w3.org/2000/svg">
<path d="M39.394 16.4076H24.1212V0.621466C24.1212 0.248537 23.8788 0 23.5152 0H2.48488C2.12122 0 1.87885 0.248619 1.87885 0.621466V17.9614C1.87885 18.3343 2.1213 18.5828 2.48488 18.5828C2.84855 18.5828 3.09091 18.3342 3.09091 17.9614V1.24301H22.9091V35.9849H5.87876V33.561C8.48479 33.2502 10.5454 30.9507 10.5454 28.2161C10.5454 25.4194 6.24235 19.2664 5.75754 18.5828C5.5151 18.272 5.03029 18.272 4.78785 18.5828C4.30304 19.2044 0 25.4194 0 28.1539C0 30.9507 2.06061 33.2502 4.66663 33.4988C4.66663 36.9793 4.66663 37.1657 4.66663 39.7138L0.606027 39.776C0.242363 39.776 0 40.0246 0 40.3974C0 40.7703 0.242443 41.0189 0.606027 41.0189C0.606027 41.0189 39.212 41.0189 39.3939 41.0189C39.7575 41.0189 39.9999 40.7703 39.9999 40.3974V17.0291C40 16.6562 39.7575 16.4076 39.394 16.4076ZM5.27274 28.0296C4.90907 28.0296 4.66671 28.2782 4.66671 28.6511V32.318C2.72732 32.0072 1.21214 30.267 1.21214 28.1539C1.21214 26.3516 3.81816 22.1254 5.27274 19.9501C6.72732 22.1254 9.33334 26.4138 9.33334 28.1539C9.33334 30.267 7.81815 31.945 5.87876 32.2558V28.6511C5.87876 28.2782 5.6364 28.0296 5.27274 28.0296ZM22.9091 39.776H5.87876V37.2278H22.909L22.9091 39.776ZM33.5757 39.776H29.3333V39.7138V30.267H33.5757V39.776ZM38.7878 39.776H34.7879V29.6456C34.7879 29.2726 34.5454 29.0241 34.1818 29.0241H28.7273C28.3636 29.0241 28.1212 29.2727 28.1212 29.6456V39.776H24.1212V17.6506H38.7879L38.7878 39.776Z" fill="white"/>
<path d="M6.30281 9.4469H10.9694C11.3331 9.4469 11.5755 9.19828 11.5755 8.82542V3.91542C11.5755 3.54249 11.333 3.29395 10.9694 3.29395H6.30281C5.93914 3.29395 5.69678 3.54257 5.69678 3.91542V8.82534C5.6967 9.19828 5.99975 9.4469 6.30281 9.4469ZM6.90883 4.53698H10.3634V8.20394H6.90883V4.53698Z" fill="white"/>
<path d="M14.9698 9.4469H19.6365C20.0002 9.4469 20.2426 9.19828 20.2426 8.82542V3.91542C20.2426 3.54249 20.0001 3.29395 19.6365 3.29395H14.9698C14.6061 3.29395 14.3638 3.54257 14.3638 3.91542V8.82534C14.3638 9.19828 14.6668 9.4469 14.9698 9.4469ZM15.5759 4.53698H19.0305V8.20394H15.5759V4.53698Z" fill="white"/>
<path d="M6.30281 17.5885H10.9694C11.3331 17.5885 11.5755 17.3399 11.5755 16.967V12.0571C11.5755 11.6842 11.333 11.4357 10.9694 11.4357H6.30281C5.93914 11.4357 5.69678 11.6843 5.69678 12.0571V16.967C5.6967 17.34 5.93914 17.5885 6.30281 17.5885ZM6.90883 12.7408H10.3634V16.4077H6.90883V12.7408Z" fill="white"/>
<path d="M14.3638 16.967C14.3638 17.34 14.6062 17.5885 14.9698 17.5885H19.6365C20.0002 17.5885 20.2426 17.3399 20.2426 16.967V12.0571C20.2426 11.6842 20.0001 11.4357 19.6365 11.4357H14.9698C14.6061 11.4357 14.3638 11.6843 14.3638 12.0571V16.967ZM15.5759 12.7408H19.0305V16.4077H15.5759V12.7408Z" fill="white"/>
<path d="M14.3638 24.9843C14.3638 25.3572 14.6062 25.6057 14.9698 25.6057H19.6365C20.0002 25.6057 20.2426 25.3571 20.2426 24.9843V20.0746C20.2426 19.7017 20.0001 19.4531 19.6365 19.4531H14.9698C14.6061 19.4531 14.3638 19.7017 14.3638 20.0746V24.9843ZM15.5759 20.696H19.0305V24.3628H15.5759V20.696Z" fill="white"/>
<path d="M14.3638 33.0018C14.3638 33.3748 14.6062 33.6233 14.9698 33.6233H19.6365C20.0002 33.6233 20.2426 33.3747 20.2426 33.0018V28.0919C20.2426 27.719 20.0001 27.4705 19.6365 27.4705H14.9698C14.6061 27.4705 14.3638 27.7191 14.3638 28.0919V33.0018ZM15.5759 28.7134H19.0305V32.3803H15.5759V28.7134Z" fill="white"/>
<path d="M26.3638 25.1708H30.3032C30.6669 25.1708 30.9093 24.9222 30.9093 24.5493V20.5096C30.9093 20.1367 30.6668 19.8882 30.3032 19.8882H26.3638C26.0002 19.8882 25.7578 20.1368 25.7578 20.5096V24.5493C25.7578 24.9222 26.0609 25.1708 26.3638 25.1708ZM26.97 21.1311H29.6972V23.9278H26.97V21.1311Z" fill="white"/>
<path d="M32.7271 25.1708H36.6665C37.0302 25.1708 37.2725 24.9222 37.2725 24.5493V20.5096C37.2725 20.1367 37.0301 19.8882 36.6665 19.8882H32.7271C32.3635 19.8882 32.1211 20.1368 32.1211 20.5096V24.5493C32.1211 24.9222 32.3635 25.1708 32.7271 25.1708ZM33.3332 21.1311H36.0605V23.9278H33.3332V21.1311Z" fill="white"/>
</svg>
