<svg width="34" height="42" viewBox="0 0 34 42" fill="none" xmlns="http://www.w3.org/2000/svg">
<path d="M32.9032 5.32464H25.1548C23.9542 3.68148 22.3969 2.3477 20.6062 1.429C18.8156 0.510301 16.8409 0.03195 14.8387 0.0318604C14.6676 0.0318604 14.5035 0.101564 14.3825 0.225638C14.2615 0.349711 14.1935 0.517991 14.1935 0.693458V5.32464H13.5484V2.67825C13.5484 2.50278 13.4804 2.3345 13.3594 2.21043C13.2384 2.08636 13.0743 2.01665 12.9032 2.01665C5.7887 2.01665 0 7.95284 0 15.2486C0.00126852 17.5705 0.598045 19.8513 1.73044 21.862C2.86284 23.8727 4.49102 25.5426 6.4516 26.7042V40.3893C6.4516 40.5648 6.51958 40.7331 6.64057 40.8571C6.76156 40.9812 6.92566 41.0509 7.09676 41.0509H29.0322C29.2034 41.051 29.3675 40.9814 29.4887 40.8574L33.3596 36.8878C33.4805 36.7636 33.5484 36.5952 33.5483 36.4197V5.98624C33.5483 5.81077 33.4804 5.64249 33.3594 5.51842C33.2384 5.39434 33.0743 5.32464 32.9032 5.32464ZM15.4838 1.37325C18.3352 1.53953 21.0271 2.77596 23.0465 4.84685C25.066 6.91774 26.2717 9.67826 26.4338 12.6022H15.4838V1.37325ZM1.29032 15.2486C1.29032 8.90388 6.15402 3.7029 12.258 3.35804V15.2486C12.258 15.4241 12.326 15.5924 12.447 15.7164C12.568 15.8405 12.7321 15.9102 12.9032 15.9102H24.4984C24.1621 22.1697 19.0903 27.1574 12.9032 27.1574C6.49999 27.1574 1.29032 21.815 1.29032 15.2486ZM29.6774 38.7924V37.0813H31.3459L29.6774 38.7924ZM32.258 35.7581H29.0322C28.8611 35.7581 28.697 35.8278 28.576 35.9519C28.455 36.076 28.3871 36.2443 28.3871 36.4197V39.7277H7.74192V27.3749C9.36918 28.1058 11.1267 28.4823 12.9032 28.4806C20.0177 28.4806 25.8064 22.5444 25.8064 15.2486C25.8064 15.0731 25.7384 14.9049 25.6175 14.7808C25.4965 14.6567 25.3324 14.587 25.1613 14.587H13.5484V6.64784H14.1935V13.2638C14.1935 13.4393 14.2615 13.6076 14.3825 13.7316C14.5035 13.8557 14.6676 13.9254 14.8387 13.9254H27.0967C27.2678 13.9254 27.4319 13.8557 27.5529 13.7316C27.6739 13.6076 27.7419 13.4393 27.7419 13.2638C27.7444 10.9403 27.1467 8.65757 26.0096 6.64784H32.258V35.7581Z" fill="white"/>
<path d="M18.7097 31.7886H9.67739C9.50628 31.7886 9.34218 31.8583 9.22119 31.9823C9.1002 32.1064 9.03223 32.2747 9.03223 32.4501C9.03223 32.6256 9.1002 32.7939 9.22119 32.9179C9.34218 33.042 9.50628 33.1117 9.67739 33.1117H18.7097C18.8808 33.1117 19.0449 33.042 19.1659 32.9179C19.2869 32.7939 19.3549 32.6256 19.3549 32.4501C19.3549 32.2747 19.2869 32.1064 19.1659 31.9823C19.0449 31.8583 18.8808 31.7886 18.7097 31.7886Z" fill="white"/>
<path d="M14.8387 33.7734H9.67739C9.50628 33.7734 9.34218 33.8431 9.22119 33.9672C9.1002 34.0913 9.03223 34.2596 9.03223 34.4351C9.03223 34.6105 9.1002 34.7788 9.22119 34.9029C9.34218 35.027 9.50628 35.0967 9.67739 35.0967H14.8387C15.0098 35.0967 15.1739 35.027 15.2949 34.9029C15.4159 34.7788 15.4839 34.6105 15.4839 34.4351C15.4839 34.2596 15.4159 34.0913 15.2949 33.9672C15.1739 33.8431 15.0098 33.7734 14.8387 33.7734Z" fill="white"/>
<path d="M17.4193 33.7734H16.7741C16.603 33.7734 16.4389 33.8431 16.3179 33.9672C16.1969 34.0913 16.1289 34.2596 16.1289 34.4351C16.1289 34.6105 16.1969 34.7788 16.3179 34.9029C16.4389 35.027 16.603 35.0967 16.7741 35.0967H17.4193C17.5904 35.0967 17.7545 35.027 17.8755 34.9029C17.9965 34.7788 18.0645 34.6105 18.0645 34.4351C18.0645 34.2596 17.9965 34.0913 17.8755 33.9672C17.7545 33.8431 17.5904 33.7734 17.4193 33.7734Z" fill="white"/>
<path d="M21.2902 33.1117H30.3225C30.4936 33.1117 30.6577 33.042 30.7787 32.9179C30.8997 32.7939 30.9677 32.6256 30.9677 32.4501C30.9677 32.2747 30.8997 32.1064 30.7787 31.9823C30.6577 31.8583 30.4936 31.7886 30.3225 31.7886H21.2902C21.1191 31.7886 20.955 31.8583 20.834 31.9823C20.713 32.1064 20.645 32.2747 20.645 32.4501C20.645 32.6256 20.713 32.7939 20.834 32.9179C20.955 33.042 21.1191 33.1117 21.2902 33.1117Z" fill="white"/>
<path d="M21.2902 31.1271H30.3225C30.4936 31.1271 30.6577 31.0574 30.7787 30.9333C30.8997 30.8092 30.9677 30.6409 30.9677 30.4655C30.9677 30.29 30.8997 30.1217 30.7787 29.9976C30.6577 29.8735 30.4936 29.8038 30.3225 29.8038H21.2902C21.1191 29.8038 20.955 29.8735 20.834 29.9976C20.713 30.1217 20.645 30.29 20.645 30.4655C20.645 30.6409 20.713 30.8092 20.834 30.9333C20.955 31.0574 21.1191 31.1271 21.2902 31.1271Z" fill="white"/>
<path d="M21.2902 29.1421H30.3225C30.4936 29.1421 30.6577 29.0724 30.7787 28.9483C30.8997 28.8243 30.9677 28.656 30.9677 28.4805C30.9677 28.3051 30.8997 28.1368 30.7787 28.0127C30.6577 27.8887 30.4936 27.819 30.3225 27.819H21.2902C21.1191 27.819 20.955 27.8887 20.834 28.0127C20.713 28.1368 20.645 28.3051 20.645 28.4805C20.645 28.656 20.713 28.8243 20.834 28.9483C20.955 29.0724 21.1191 29.1421 21.2902 29.1421Z" fill="white"/>
<path d="M26.4515 33.7734H21.2902C21.1191 33.7734 20.955 33.8431 20.834 33.9672C20.713 34.0913 20.645 34.2596 20.645 34.4351C20.645 34.6105 20.713 34.7788 20.834 34.9029C20.955 35.027 21.1191 35.0967 21.2902 35.0967H26.4515C26.6226 35.0967 26.7867 35.027 26.9077 34.9029C27.0287 34.7788 27.0967 34.6105 27.0967 34.4351C27.0967 34.2596 27.0287 34.0913 26.9077 33.9672C26.7867 33.8431 26.6226 33.7734 26.4515 33.7734Z" fill="white"/>
<path d="M28.3873 35.0967H29.0325C29.2036 35.0967 29.3677 35.027 29.4887 34.9029C29.6096 34.7788 29.6776 34.6105 29.6776 34.4351C29.6776 34.2596 29.6096 34.0913 29.4887 33.9672C29.3677 33.8431 29.2036 33.7734 29.0325 33.7734H28.3873C28.2162 33.7734 28.0521 33.8431 27.9311 33.9672C27.8102 34.0913 27.7422 34.2596 27.7422 34.4351C27.7422 34.6105 27.8102 34.7788 27.9311 34.9029C28.0521 35.027 28.2162 35.0967 28.3873 35.0967Z" fill="white"/>
</svg>
