<svg width="46" height="42" viewBox="0 0 46 42" fill="none" xmlns="http://www.w3.org/2000/svg">
<path d="M32.416 41.0508C32.2435 41.0508 32.0781 40.9805 31.9562 40.8555C31.8343 40.7304 31.7658 40.5609 31.7658 40.384V4.96422L23.5251 1.41904L16.6051 4.21077V40.384C16.6051 40.5609 16.5366 40.7304 16.4146 40.8555C16.2927 40.9805 16.1273 41.0508 15.9549 41.0508C15.7824 41.0508 15.6171 40.9805 15.4951 40.8555C15.3732 40.7304 15.3047 40.5609 15.3047 40.384V3.75604C15.3046 3.62208 15.3439 3.49121 15.4175 3.38048C15.491 3.26976 15.5953 3.18431 15.7169 3.13528L23.295 0.0781745C23.4526 0.0144637 23.6283 0.0163777 23.7846 0.0835087L32.6676 3.90606C32.7857 3.95689 32.8865 4.04235 32.9574 4.15171C33.0283 4.26108 33.0662 4.38949 33.0662 4.52082V40.384C33.0662 40.5609 32.9977 40.7304 32.8757 40.8555C32.7538 40.9805 32.5884 41.0508 32.416 41.0508Z" fill="white"/>
<path d="M23.533 41.0508C23.3606 41.0508 23.1952 40.9805 23.0733 40.8555C22.9513 40.7304 22.8828 40.5609 22.8828 40.384V0.698989C22.8828 0.522153 22.9513 0.352559 23.0733 0.227517C23.1952 0.102475 23.3606 0.0322266 23.533 0.0322266C23.7055 0.0322266 23.8708 0.102475 23.9928 0.227517C24.1147 0.352559 24.1832 0.522153 24.1832 0.698989V40.384C24.1832 40.5609 24.1147 40.7304 23.9928 40.8555C23.8708 40.9805 23.7055 41.0508 23.533 41.0508Z" fill="white"/>
<path d="M42.9137 41.0507C42.7413 41.0507 42.5759 40.9804 42.454 40.8554C42.332 40.7303 42.2635 40.5607 42.2635 40.3839V19.4276L35.9059 15.6344H32.4163C32.2439 15.6344 32.0785 15.5642 31.9566 15.4391C31.8346 15.3141 31.7661 15.1445 31.7661 14.9677C31.7661 14.7908 31.8346 14.6212 31.9566 14.4962C32.0785 14.3712 32.2439 14.3009 32.4163 14.3009H36.0815C36.1957 14.3013 36.3078 14.3326 36.4066 14.3916L43.2395 18.4682C43.3381 18.5266 43.4201 18.6105 43.4771 18.7116C43.5342 18.8127 43.5643 18.9274 43.5646 19.0442V40.3806C43.565 40.4685 43.5485 40.5556 43.5159 40.6369C43.4834 40.7182 43.4355 40.7922 43.3751 40.8544C43.3146 40.9167 43.2427 40.9661 43.1635 40.9998C43.0843 41.0335 42.9994 41.0507 42.9137 41.0507Z" fill="white"/>
<path d="M36.0814 41.0507C35.9089 41.0507 35.7435 40.9804 35.6216 40.8554C35.4997 40.7303 35.4312 40.5607 35.4312 40.3839V14.9677C35.4312 14.7908 35.4997 14.6212 35.6216 14.4962C35.7435 14.3712 35.9089 14.3009 36.0814 14.3009C36.2538 14.3009 36.4192 14.3712 36.5411 14.4962C36.6631 14.6212 36.7316 14.7908 36.7316 14.9677V40.3839C36.7316 40.5607 36.6631 40.7303 36.5411 40.8554C36.4192 40.9804 36.2538 41.0507 36.0814 41.0507Z" fill="white"/>
<path d="M2.59942 41.0508C2.42697 41.0508 2.26159 40.9805 2.13966 40.8555C2.01772 40.7305 1.94922 40.5609 1.94922 40.384V19.6178C1.94922 19.441 2.01772 19.2714 2.13966 19.1463C2.26159 19.0213 2.42697 18.951 2.59942 18.951H15.9551C16.1276 18.951 16.293 19.0213 16.4149 19.1463C16.5368 19.2714 16.6053 19.441 16.6053 19.6178C16.6053 19.7946 16.5368 19.9642 16.4149 20.0893C16.293 20.2143 16.1276 20.2846 15.9551 20.2846H3.24962V40.384C3.24962 40.5609 3.18111 40.7305 3.05918 40.8555C2.93724 40.9805 2.77186 41.0508 2.59942 41.0508Z" fill="white"/>
<path d="M6.17889 22.8455H4.79719C4.62474 22.8455 4.45935 22.7752 4.33742 22.6502C4.21548 22.5251 4.14697 22.3555 4.14697 22.1787C4.14697 22.0019 4.21548 21.8323 4.33742 21.7072C4.45935 21.5822 4.62474 21.512 4.79719 21.512H6.17889C6.35134 21.512 6.51672 21.5822 6.63866 21.7072C6.7606 21.8323 6.8291 22.0019 6.8291 22.1787C6.8291 22.3555 6.7606 22.5251 6.63866 22.6502C6.51672 22.7752 6.35134 22.8455 6.17889 22.8455Z" fill="white"/>
<path d="M9.96906 22.8455H8.58673C8.41428 22.8455 8.2489 22.7752 8.12696 22.6502C8.00503 22.5251 7.93652 22.3555 7.93652 22.1787C7.93652 22.0019 8.00503 21.8323 8.12696 21.7072C8.2489 21.5822 8.41428 21.512 8.58673 21.512H9.96906C10.1415 21.512 10.3069 21.5822 10.4288 21.7072C10.5508 21.8323 10.6193 22.0019 10.6193 22.1787C10.6193 22.3555 10.5508 22.5251 10.4288 22.6502C10.3069 22.7752 10.1415 22.8455 9.96906 22.8455Z" fill="white"/>
<path d="M13.7574 22.8455H12.3758C12.2033 22.8455 12.038 22.7752 11.916 22.6502C11.7941 22.5251 11.7256 22.3555 11.7256 22.1787C11.7256 22.0019 11.7941 21.8323 11.916 21.7072C12.038 21.5822 12.2033 21.512 12.3758 21.512H13.7574C13.9298 21.512 14.0952 21.5822 14.2172 21.7072C14.3391 21.8323 14.4076 22.0019 14.4076 22.1787C14.4076 22.3555 14.3391 22.5251 14.2172 22.6502C14.0952 22.7752 13.9298 22.8455 13.7574 22.8455Z" fill="white"/>
<path d="M6.17889 25.9746H4.79719C4.62474 25.9746 4.45935 25.9044 4.33742 25.7793C4.21548 25.6543 4.14697 25.4846 4.14697 25.3078C4.14697 25.131 4.21548 24.9613 4.33742 24.8363C4.45935 24.7112 4.62474 24.641 4.79719 24.641H6.17889C6.35134 24.641 6.51672 24.7112 6.63866 24.8363C6.7606 24.9613 6.8291 25.131 6.8291 25.3078C6.8291 25.4846 6.7606 25.6543 6.63866 25.7793C6.51672 25.9044 6.35134 25.9746 6.17889 25.9746Z" fill="white"/>
<path d="M9.96906 25.9746H8.58673C8.41428 25.9746 8.2489 25.9044 8.12696 25.7793C8.00503 25.6543 7.93652 25.4846 7.93652 25.3078C7.93652 25.131 8.00503 24.9613 8.12696 24.8363C8.2489 24.7112 8.41428 24.641 8.58673 24.641H9.96906C10.1415 24.641 10.3069 24.7112 10.4288 24.8363C10.5508 24.9613 10.6193 25.131 10.6193 25.3078C10.6193 25.4846 10.5508 25.6543 10.4288 25.7793C10.3069 25.9044 10.1415 25.9746 9.96906 25.9746Z" fill="white"/>
<path d="M13.7574 25.9746H12.3758C12.2033 25.9746 12.038 25.9044 11.916 25.7793C11.7941 25.6543 11.7256 25.4846 11.7256 25.3078C11.7256 25.131 11.7941 24.9613 11.916 24.8363C12.038 24.7112 12.2033 24.641 12.3758 24.641H13.7574C13.9298 24.641 14.0952 24.7112 14.2172 24.8363C14.3391 24.9613 14.4076 25.131 14.4076 25.3078C14.4076 25.4846 14.3391 25.6543 14.2172 25.7793C14.0952 25.9044 13.9298 25.9746 13.7574 25.9746Z" fill="white"/>
<path d="M6.17889 29.1029H4.79719C4.62474 29.1029 4.45935 29.0327 4.33742 28.9077C4.21548 28.7826 4.14697 28.6131 4.14697 28.4363C4.14697 28.2595 4.21548 28.0899 4.33742 27.9649C4.45935 27.8399 4.62474 27.7697 4.79719 27.7697H6.17889C6.35134 27.7697 6.51672 27.8399 6.63866 27.9649C6.7606 28.0899 6.8291 28.2595 6.8291 28.4363C6.8291 28.6131 6.7606 28.7826 6.63866 28.9077C6.51672 29.0327 6.35134 29.1029 6.17889 29.1029Z" fill="white"/>
<path d="M9.96906 29.1029H8.58673C8.41428 29.1029 8.2489 29.0327 8.12696 28.9077C8.00503 28.7826 7.93652 28.6131 7.93652 28.4363C7.93652 28.2595 8.00503 28.0899 8.12696 27.9649C8.2489 27.8399 8.41428 27.7697 8.58673 27.7697H9.96906C10.1415 27.7697 10.3069 27.8399 10.4288 27.9649C10.5508 28.0899 10.6193 28.2595 10.6193 28.4363C10.6193 28.6131 10.5508 28.7826 10.4288 28.9077C10.3069 29.0327 10.1415 29.1029 9.96906 29.1029Z" fill="white"/>
<path d="M13.7574 29.1029H12.3758C12.2033 29.1029 12.038 29.0327 11.916 28.9077C11.7941 28.7826 11.7256 28.6131 11.7256 28.4363C11.7256 28.2595 11.7941 28.0899 11.916 27.9649C12.038 27.8399 12.2033 27.7697 12.3758 27.7697H13.7574C13.9298 27.7697 14.0952 27.8399 14.2172 27.9649C14.3391 28.0899 14.4076 28.2595 14.4076 28.4363C14.4076 28.6131 14.3391 28.7826 14.2172 28.9077C14.0952 29.0327 13.9298 29.1029 13.7574 29.1029Z" fill="white"/>
<path d="M6.17889 32.2321H4.79719C4.62474 32.2321 4.45935 32.1618 4.33742 32.0368C4.21548 31.9118 4.14697 31.7422 4.14697 31.5654C4.14697 31.3886 4.21548 31.219 4.33742 31.0939C4.45935 30.9689 4.62474 30.8987 4.79719 30.8987H6.17889C6.35134 30.8987 6.51672 30.9689 6.63866 31.0939C6.7606 31.219 6.8291 31.3886 6.8291 31.5654C6.8291 31.7422 6.7606 31.9118 6.63866 32.0368C6.51672 32.1618 6.35134 32.2321 6.17889 32.2321Z" fill="white"/>
<path d="M9.96906 32.2321H8.58673C8.41428 32.2321 8.2489 32.1618 8.12696 32.0368C8.00503 31.9118 7.93652 31.7422 7.93652 31.5654C7.93652 31.3886 8.00503 31.219 8.12696 31.0939C8.2489 30.9689 8.41428 30.8987 8.58673 30.8987H9.96906C10.1415 30.8987 10.3069 30.9689 10.4288 31.0939C10.5508 31.219 10.6193 31.3886 10.6193 31.5654C10.6193 31.7422 10.5508 31.9118 10.4288 32.0368C10.3069 32.1618 10.1415 32.2321 9.96906 32.2321Z" fill="white"/>
<path d="M13.7574 32.2321H12.3758C12.2033 32.2321 12.038 32.1618 11.916 32.0368C11.7941 31.9118 11.7256 31.7422 11.7256 31.5654C11.7256 31.3886 11.7941 31.219 11.916 31.0939C12.038 30.9689 12.2033 30.8987 12.3758 30.8987H13.7574C13.9298 30.8987 14.0952 30.9689 14.2172 31.0939C14.3391 31.219 14.4076 31.3886 14.4076 31.5654C14.4076 31.7422 14.3391 31.9118 14.2172 32.0368C14.0952 32.1618 13.9298 32.2321 13.7574 32.2321Z" fill="white"/>
<path d="M6.17889 35.3612H4.79719C4.62474 35.3612 4.45935 35.291 4.33742 35.1659C4.21548 35.0409 4.14697 34.8713 4.14697 34.6945C4.14697 34.5176 4.21548 34.348 4.33742 34.223C4.45935 34.098 4.62474 34.0277 4.79719 34.0277H6.17889C6.35134 34.0277 6.51672 34.098 6.63866 34.223C6.7606 34.348 6.8291 34.5176 6.8291 34.6945C6.8291 34.8713 6.7606 35.0409 6.63866 35.1659C6.51672 35.291 6.35134 35.3612 6.17889 35.3612Z" fill="white"/>
<path d="M9.96906 35.3612H8.58673C8.41428 35.3612 8.2489 35.291 8.12696 35.1659C8.00503 35.0409 7.93652 34.8713 7.93652 34.6945C7.93652 34.5176 8.00503 34.348 8.12696 34.223C8.2489 34.098 8.41428 34.0277 8.58673 34.0277H9.96906C10.1415 34.0277 10.3069 34.098 10.4288 34.223C10.5508 34.348 10.6193 34.5176 10.6193 34.6945C10.6193 34.8713 10.5508 35.0409 10.4288 35.1659C10.3069 35.291 10.1415 35.3612 9.96906 35.3612Z" fill="white"/>
<path d="M13.7574 35.3612H12.3758C12.2033 35.3612 12.038 35.291 11.916 35.1659C11.7941 35.0409 11.7256 34.8713 11.7256 34.6945C11.7256 34.5176 11.7941 34.348 11.916 34.223C12.038 34.098 12.2033 34.0277 12.3758 34.0277H13.7574C13.9298 34.0277 14.0952 34.098 14.2172 34.223C14.3391 34.348 14.4076 34.5176 14.4076 34.6945C14.4076 34.8713 14.3391 35.0409 14.2172 35.1659C14.0952 35.291 13.9298 35.3612 13.7574 35.3612Z" fill="white"/>
<path d="M6.17889 38.4905H4.79719C4.62474 38.4905 4.45935 38.4202 4.33742 38.2952C4.21548 38.1702 4.14697 38.0006 4.14697 37.8237C4.14697 37.6469 4.21548 37.4773 4.33742 37.3523C4.45935 37.2272 4.62474 37.157 4.79719 37.157H6.17889C6.35134 37.157 6.51672 37.2272 6.63866 37.3523C6.7606 37.4773 6.8291 37.6469 6.8291 37.8237C6.8291 38.0006 6.7606 38.1702 6.63866 38.2952C6.51672 38.4202 6.35134 38.4905 6.17889 38.4905Z" fill="white"/>
<path d="M9.96906 38.4905H8.58673C8.41428 38.4905 8.2489 38.4202 8.12696 38.2952C8.00503 38.1702 7.93652 38.0006 7.93652 37.8237C7.93652 37.6469 8.00503 37.4773 8.12696 37.3523C8.2489 37.2272 8.41428 37.157 8.58673 37.157H9.96906C10.1415 37.157 10.3069 37.2272 10.4288 37.3523C10.5508 37.4773 10.6193 37.6469 10.6193 37.8237C10.6193 38.0006 10.5508 38.1702 10.4288 38.2952C10.3069 38.4202 10.1415 38.4905 9.96906 38.4905Z" fill="white"/>
<path d="M13.7574 38.4905H12.3758C12.2033 38.4905 12.038 38.4202 11.916 38.2952C11.7941 38.1702 11.7256 38.0006 11.7256 37.8237C11.7256 37.6469 11.7941 37.4773 11.916 37.3523C12.038 37.2272 12.2033 37.157 12.3758 37.157H13.7574C13.9298 37.157 14.0952 37.2272 14.2172 37.3523C14.3391 37.4773 14.4076 37.6469 14.4076 37.8237C14.4076 38.0006 14.3391 38.1702 14.2172 38.2952C14.0952 38.4202 13.9298 38.4905 13.7574 38.4905Z" fill="white"/>
<path d="M21.241 7.22583C21.0686 7.22583 20.9032 7.15558 20.7813 7.03054C20.6593 6.9055 20.5908 6.73591 20.5908 6.55908V5.30091C20.5908 5.12408 20.6593 4.95448 20.7813 4.82944C20.9032 4.7044 21.0686 4.63416 21.241 4.63416C21.4135 4.63416 21.5789 4.7044 21.7008 4.82944C21.8227 4.95448 21.8912 5.12408 21.8912 5.30091V6.55908C21.8912 6.73591 21.8227 6.9055 21.7008 7.03054C21.5789 7.15558 21.4135 7.22583 21.241 7.22583Z" fill="white"/>
<path d="M18.2762 8.00122C18.1037 8.00122 17.9384 7.93098 17.8164 7.80594C17.6945 7.68091 17.626 7.51132 17.626 7.3345V6.07639C17.626 5.89957 17.6945 5.72998 17.8164 5.60495C17.9384 5.47991 18.1037 5.40967 18.2762 5.40967C18.4486 5.40967 18.614 5.47991 18.736 5.60495C18.8579 5.72998 18.9264 5.89957 18.9264 6.07639V7.3345C18.9264 7.51132 18.8579 7.68091 18.736 7.80594C18.614 7.93098 18.4486 8.00122 18.2762 8.00122Z" fill="white"/>
<path d="M21.241 12.2413C21.0686 12.2413 20.9032 12.1711 20.7813 12.046C20.6593 11.921 20.5908 11.7514 20.5908 11.5746V10.3164C20.5908 10.1396 20.6593 9.96999 20.7813 9.84495C20.9032 9.71991 21.0686 9.64966 21.241 9.64966C21.4135 9.64966 21.5789 9.71991 21.7008 9.84495C21.8227 9.96999 21.8912 10.1396 21.8912 10.3164V11.5746C21.8912 11.7514 21.8227 11.921 21.7008 12.046C21.5789 12.1711 21.4135 12.2413 21.241 12.2413Z" fill="white"/>
<path d="M18.2762 13.0167C18.1037 13.0167 17.9384 12.9465 17.8164 12.8214C17.6945 12.6964 17.626 12.5268 17.626 12.3499V11.0917C17.626 10.9149 17.6945 10.7453 17.8164 10.6202C17.9384 10.4952 18.1037 10.4249 18.2762 10.4249C18.4486 10.4249 18.614 10.4952 18.736 10.6202C18.8579 10.7453 18.9264 10.9149 18.9264 11.0917V12.3499C18.9264 12.5268 18.8579 12.6964 18.736 12.8214C18.614 12.9465 18.4486 13.0167 18.2762 13.0167Z" fill="white"/>
<path d="M21.241 17.2593C21.0686 17.2593 20.9032 17.189 20.7813 17.064C20.6593 16.9389 20.5908 16.7694 20.5908 16.5925V15.3317C20.5908 15.1548 20.6593 14.9852 20.7813 14.8602C20.9032 14.7352 21.0686 14.6649 21.241 14.6649C21.4135 14.6649 21.5789 14.7352 21.7008 14.8602C21.8227 14.9852 21.8912 15.1548 21.8912 15.3317V16.5925C21.8912 16.7694 21.8227 16.9389 21.7008 17.064C21.5789 17.189 21.4135 17.2593 21.241 17.2593Z" fill="white"/>
<path d="M18.2762 18.0321C18.1037 18.0321 17.9384 17.9619 17.8164 17.8368C17.6945 17.7118 17.626 17.5422 17.626 17.3653V16.1072C17.626 15.9304 17.6945 15.7608 17.8164 15.6357C17.9384 15.5107 18.1037 15.4404 18.2762 15.4404C18.4486 15.4404 18.614 15.5107 18.736 15.6357C18.8579 15.7608 18.9264 15.9304 18.9264 16.1072V17.3653C18.9264 17.5422 18.8579 17.7118 18.736 17.8368C18.614 17.9619 18.4486 18.0321 18.2762 18.0321Z" fill="white"/>
<path d="M21.241 22.2714C21.0686 22.2714 20.9032 22.2011 20.7813 22.0761C20.6593 21.951 20.5908 21.7815 20.5908 21.6046V20.3465C20.5908 20.1697 20.6593 20.0001 20.7813 19.8751C20.9032 19.7501 21.0686 19.6798 21.241 19.6798C21.4135 19.6798 21.5789 19.7501 21.7008 19.8751C21.8227 20.0001 21.8912 20.1697 21.8912 20.3465V21.6046C21.8912 21.7815 21.8227 21.951 21.7008 22.0761C21.5789 22.2011 21.4135 22.2714 21.241 22.2714Z" fill="white"/>
<path d="M18.2762 23.0468C18.1037 23.0468 17.9384 22.9765 17.8164 22.8515C17.6945 22.7264 17.626 22.5568 17.626 22.38V21.1218C17.626 20.945 17.6945 20.7754 17.8164 20.6504C17.9384 20.5253 18.1037 20.4551 18.2762 20.4551C18.4486 20.4551 18.614 20.5253 18.736 20.6504C18.8579 20.7754 18.9264 20.945 18.9264 21.1218V22.38C18.9264 22.5568 18.8579 22.7264 18.736 22.8515C18.614 22.9765 18.4486 23.0468 18.2762 23.0468Z" fill="white"/>
<path d="M21.241 27.2867C21.0686 27.2867 20.9032 27.2165 20.7813 27.0915C20.6593 26.9664 20.5908 26.7968 20.5908 26.62V25.3619C20.5908 25.1851 20.6593 25.0155 20.7813 24.8905C20.9032 24.7654 21.0686 24.6952 21.241 24.6952C21.4135 24.6952 21.5789 24.7654 21.7008 24.8905C21.8227 25.0155 21.8912 25.1851 21.8912 25.3619V26.62C21.8912 26.7968 21.8227 26.9664 21.7008 27.0915C21.5789 27.2165 21.4135 27.2867 21.241 27.2867Z" fill="white"/>
<path d="M18.2762 28.0608C18.1037 28.0608 17.9384 27.9905 17.8164 27.8655C17.6945 27.7405 17.626 27.5709 17.626 27.394V26.1372C17.626 25.9604 17.6945 25.7908 17.8164 25.6657C17.9384 25.5407 18.1037 25.4705 18.2762 25.4705C18.4486 25.4705 18.614 25.5407 18.736 25.6657C18.8579 25.7908 18.9264 25.9604 18.9264 26.1372V27.394C18.9264 27.5709 18.8579 27.7405 18.736 27.8655C18.614 27.9905 18.4486 28.0608 18.2762 28.0608Z" fill="white"/>
<path d="M21.241 32.3022C21.0686 32.3022 20.9032 32.232 20.7813 32.1069C20.6593 31.9819 20.5908 31.8123 20.5908 31.6355V30.3772C20.5908 30.2004 20.6593 30.0308 20.7813 29.9057C20.9032 29.7807 21.0686 29.7104 21.241 29.7104C21.4135 29.7104 21.5789 29.7807 21.7008 29.9057C21.8227 30.0308 21.8912 30.2004 21.8912 30.3772V31.6355C21.8912 31.8123 21.8227 31.9819 21.7008 32.1069C21.5789 32.232 21.4135 32.3022 21.241 32.3022Z" fill="white"/>
<path d="M18.2762 33.0776C18.1037 33.0776 17.9384 33.0074 17.8164 32.8823C17.6945 32.7573 17.626 32.5877 17.626 32.4109V31.1527C17.626 30.9759 17.6945 30.8063 17.8164 30.6812C17.9384 30.5562 18.1037 30.486 18.2762 30.486C18.4486 30.486 18.614 30.5562 18.736 30.6812C18.8579 30.8063 18.9264 30.9759 18.9264 31.1527V32.4109C18.9264 32.5877 18.8579 32.7573 18.736 32.8823C18.614 33.0074 18.4486 33.0776 18.2762 33.0776Z" fill="white"/>
<path d="M21.241 37.3169C21.0686 37.3169 20.9032 37.2467 20.7813 37.1216C20.6593 36.9966 20.5908 36.827 20.5908 36.6502V35.3954C20.5908 35.2185 20.6593 35.049 20.7813 34.9239C20.9032 34.7989 21.0686 34.7286 21.241 34.7286C21.4135 34.7286 21.5789 34.7989 21.7008 34.9239C21.8227 35.049 21.8912 35.2185 21.8912 35.3954V36.6535C21.8904 36.8297 21.8215 36.9985 21.6996 37.1228C21.5778 37.2471 21.4129 37.3169 21.241 37.3169Z" fill="white"/>
<path d="M18.2762 38.0929C18.1037 38.0929 17.9384 38.0227 17.8164 37.8976C17.6945 37.7726 17.626 37.603 17.626 37.4262V36.1674C17.626 35.9905 17.6945 35.8209 17.8164 35.6959C17.9384 35.5709 18.1037 35.5006 18.2762 35.5006C18.4486 35.5006 18.614 35.5709 18.736 35.6959C18.8579 35.8209 18.9264 35.9905 18.9264 36.1674V37.4255C18.9265 37.5131 18.9097 37.5999 18.8771 37.6808C18.8444 37.7618 18.7966 37.8354 18.7362 37.8974C18.6758 37.9594 18.6041 38.0085 18.5252 38.0421C18.4462 38.0756 18.3616 38.0929 18.2762 38.0929Z" fill="white"/>
<path d="M25.7274 6.59106C25.5549 6.59106 25.3895 6.52081 25.2676 6.39577C25.1457 6.27072 25.0771 6.10112 25.0771 5.92428V4.66739C25.0771 4.49055 25.1457 4.32095 25.2676 4.19591C25.3895 4.07086 25.5549 4.00061 25.7274 4.00061C25.8998 4.00061 26.0652 4.07086 26.1871 4.19591C26.3091 4.32095 26.3776 4.49055 26.3776 4.66739V5.92428C26.3776 6.10112 26.3091 6.27072 26.1871 6.39577C26.0652 6.52081 25.8998 6.59106 25.7274 6.59106Z" fill="white"/>
<path d="M27.9232 7.44116C27.7507 7.44116 27.5853 7.37092 27.4634 7.24588C27.3415 7.12084 27.2729 6.95125 27.2729 6.77442V5.51696C27.2729 5.34013 27.3415 5.17054 27.4634 5.0455C27.5853 4.92047 27.7507 4.85022 27.9232 4.85022C28.0956 4.85022 28.261 4.92047 28.3829 5.0455C28.5049 5.17054 28.5734 5.34013 28.5734 5.51696V6.77509C28.5732 6.95181 28.5046 7.12122 28.3827 7.24611C28.2608 7.37101 28.0955 7.44116 27.9232 7.44116Z" fill="white"/>
<path d="M30.1179 8.29077C29.9455 8.29077 29.7801 8.22052 29.6582 8.09548C29.5363 7.97044 29.4678 7.80084 29.4678 7.624V6.36648C29.4678 6.18964 29.5363 6.02004 29.6582 5.895C29.7801 5.76996 29.9455 5.69971 30.1179 5.69971C30.2903 5.69971 30.4557 5.76996 30.5776 5.895C30.6996 6.02004 30.7681 6.18964 30.7681 6.36648V7.62467C30.7679 7.80139 30.6993 7.97082 30.5774 8.09572C30.4555 8.22061 30.2902 8.29077 30.1179 8.29077Z" fill="white"/>
<path d="M25.7274 11.5918C25.5549 11.5918 25.3895 11.5216 25.2676 11.3965C25.1457 11.2715 25.0771 11.1019 25.0771 10.9251V9.66491C25.0771 9.48808 25.1457 9.31849 25.2676 9.19345C25.3895 9.06841 25.5549 8.99817 25.7274 8.99817C25.8998 8.99817 26.0652 9.06841 26.1871 9.19345C26.3091 9.31849 26.3776 9.48808 26.3776 9.66491V10.9251C26.3776 11.1019 26.3091 11.2715 26.1871 11.3965C26.0652 11.5216 25.8998 11.5918 25.7274 11.5918Z" fill="white"/>
<path d="M27.9232 12.4387C27.7507 12.4387 27.5853 12.3685 27.4634 12.2434C27.3415 12.1184 27.2729 11.9488 27.2729 11.772V10.5144C27.2729 10.3376 27.3415 10.168 27.4634 10.0429C27.5853 9.9179 27.7507 9.84766 27.9232 9.84766C28.0956 9.84766 28.261 9.9179 28.3829 10.0429C28.5049 10.168 28.5734 10.3376 28.5734 10.5144V11.772C28.5734 11.9488 28.5049 12.1184 28.3829 12.2434C28.261 12.3685 28.0956 12.4387 27.9232 12.4387Z" fill="white"/>
<path d="M30.1179 13.2881C29.9455 13.2881 29.7801 13.2178 29.6582 13.0928C29.5363 12.9678 29.4678 12.7982 29.4678 12.6213V11.3639C29.4678 11.1871 29.5363 11.0175 29.6582 10.8924C29.7801 10.7674 29.9455 10.6971 30.1179 10.6971C30.2903 10.6971 30.4557 10.7674 30.5776 10.8924C30.6996 11.0175 30.7681 11.1871 30.7681 11.3639V12.622C30.7679 12.7987 30.6993 12.9681 30.5774 13.093C30.4555 13.2179 30.2902 13.2881 30.1179 13.2881Z" fill="white"/>
<path d="M25.7274 16.5872C25.5549 16.5872 25.3895 16.5169 25.2676 16.3919C25.1457 16.2668 25.0771 16.0972 25.0771 15.9204V14.6589C25.0771 14.4821 25.1457 14.3125 25.2676 14.1875C25.3895 14.0624 25.5549 13.9922 25.7274 13.9922C25.8998 13.9922 26.0652 14.0624 26.1871 14.1875C26.3091 14.3125 26.3776 14.4821 26.3776 14.6589V15.9171C26.378 16.0049 26.3615 16.092 26.329 16.1733C26.2965 16.2545 26.2487 16.3284 26.1883 16.3907C26.1278 16.453 26.056 16.5024 25.9769 16.5361C25.8978 16.5698 25.813 16.5872 25.7274 16.5872Z" fill="white"/>
<path d="M27.9232 17.4368C27.7507 17.4368 27.5853 17.3665 27.4634 17.2415C27.3415 17.1164 27.2729 16.9468 27.2729 16.77V15.5118C27.2729 15.3349 27.3415 15.1653 27.4634 15.0403C27.5853 14.9152 27.7507 14.845 27.9232 14.845C28.0956 14.845 28.261 14.9152 28.3829 15.0403C28.5049 15.1653 28.5734 15.3349 28.5734 15.5118V16.77C28.5734 16.9468 28.5049 17.1164 28.3829 17.2415C28.261 17.3665 28.0956 17.4368 27.9232 17.4368Z" fill="white"/>
<path d="M30.1179 18.2855C29.9455 18.2855 29.7801 18.2153 29.6582 18.0902C29.5363 17.9652 29.4678 17.7956 29.4678 17.6188V16.3613C29.4678 16.1845 29.5363 16.0149 29.6582 15.8899C29.7801 15.7648 29.9455 15.6946 30.1179 15.6946C30.2903 15.6946 30.4557 15.7648 30.5776 15.8899C30.6996 16.0149 30.7681 16.1845 30.7681 16.3613V17.6195C30.7679 17.7962 30.6993 17.9656 30.5774 18.0905C30.4555 18.2154 30.2902 18.2855 30.1179 18.2855Z" fill="white"/>
<path d="M25.7274 21.5847C25.5549 21.5847 25.3895 21.5145 25.2676 21.3894C25.1457 21.2644 25.0771 21.0948 25.0771 20.9179V19.6597C25.0771 19.4829 25.1457 19.3133 25.2676 19.1882C25.3895 19.0632 25.5549 18.9929 25.7274 18.9929C25.8998 18.9929 26.0652 19.0632 26.1871 19.1882C26.3091 19.3133 26.3776 19.4829 26.3776 19.6597V20.9179C26.3776 21.0948 26.3091 21.2644 26.1871 21.3894C26.0652 21.5145 25.8998 21.5847 25.7274 21.5847Z" fill="white"/>
<path d="M27.9232 22.4342C27.7507 22.4342 27.5853 22.364 27.4634 22.2389C27.3415 22.1139 27.2729 21.9443 27.2729 21.7674V20.5092C27.2729 20.3324 27.3415 20.1628 27.4634 20.0377C27.5853 19.9127 27.7507 19.8424 27.9232 19.8424C28.0956 19.8424 28.261 19.9127 28.3829 20.0377C28.5049 20.1628 28.5734 20.3324 28.5734 20.5092V21.7674C28.5734 21.9443 28.5049 22.1139 28.3829 22.2389C28.261 22.364 28.0956 22.4342 27.9232 22.4342Z" fill="white"/>
<path d="M30.1179 23.2836C29.9455 23.2836 29.7801 23.2133 29.6582 23.0883C29.5363 22.9632 29.4678 22.7936 29.4678 22.6168V21.3586C29.4678 21.1818 29.5363 21.0122 29.6582 20.8872C29.7801 20.7621 29.9455 20.6919 30.1179 20.6919C30.2903 20.6919 30.4557 20.7621 30.5776 20.8872C30.6996 21.0122 30.7681 21.1818 30.7681 21.3586V22.6168C30.7681 22.7936 30.6996 22.9632 30.5776 23.0883C30.4557 23.2133 30.2903 23.2836 30.1179 23.2836Z" fill="white"/>
<path d="M25.7274 26.582C25.5549 26.582 25.3895 26.5118 25.2676 26.3867C25.1457 26.2617 25.0771 26.0921 25.0771 25.9153V24.6604C25.0771 24.4836 25.1457 24.314 25.2676 24.1889C25.3895 24.0639 25.5549 23.9937 25.7274 23.9937C25.8998 23.9937 26.0652 24.0639 26.1871 24.1889C26.3091 24.314 26.3776 24.4836 26.3776 24.6604V25.9186C26.3767 26.0949 26.3078 26.2636 26.186 26.3879C26.0641 26.5122 25.8992 26.582 25.7274 26.582Z" fill="white"/>
<path d="M27.9232 27.4315C27.7507 27.4315 27.5853 27.3613 27.4634 27.2362C27.3415 27.1112 27.2729 26.9416 27.2729 26.7648V25.5066C27.2729 25.3298 27.3415 25.1602 27.4634 25.0351C27.5853 24.9101 27.7507 24.8398 27.9232 24.8398C28.0956 24.8398 28.261 24.9101 28.3829 25.0351C28.5049 25.1602 28.5734 25.3298 28.5734 25.5066V26.7648C28.5734 26.9416 28.5049 27.1112 28.3829 27.2362C28.261 27.3613 28.0956 27.4315 27.9232 27.4315Z" fill="white"/>
<path d="M30.1179 28.281C29.9455 28.281 29.7801 28.2108 29.6582 28.0857C29.5363 27.9607 29.4678 27.7911 29.4678 27.6143V26.3561C29.4678 26.1793 29.5363 26.0097 29.6582 25.8846C29.7801 25.7596 29.9455 25.6893 30.1179 25.6893C30.2903 25.6893 30.4557 25.7596 30.5776 25.8846C30.6996 26.0097 30.7681 26.1793 30.7681 26.3561V27.6143C30.7681 27.7911 30.6996 27.9607 30.5776 28.0857C30.4557 28.2108 30.2903 28.281 30.1179 28.281Z" fill="white"/>
<path d="M25.7274 31.5795C25.5549 31.5795 25.3895 31.5092 25.2676 31.3842C25.1457 31.2591 25.0771 31.0895 25.0771 30.9127V29.6545C25.0771 29.4776 25.1457 29.308 25.2676 29.183C25.3895 29.0579 25.5549 28.9877 25.7274 28.9877C25.8998 28.9877 26.0652 29.0579 26.1871 29.183C26.3091 29.308 26.3776 29.4776 26.3776 29.6545V30.9127C26.3776 31.0895 26.3091 31.2591 26.1871 31.3842C26.0652 31.5092 25.8998 31.5795 25.7274 31.5795Z" fill="white"/>
<path d="M27.9232 32.429C27.7507 32.429 27.5853 32.3587 27.4634 32.2337C27.3415 32.1086 27.2729 31.939 27.2729 31.7622V30.5039C27.2729 30.3271 27.3415 30.1575 27.4634 30.0325C27.5853 29.9074 27.7507 29.8372 27.9232 29.8372C28.0956 29.8372 28.261 29.9074 28.3829 30.0325C28.5049 30.1575 28.5734 30.3271 28.5734 30.5039V31.7622C28.5734 31.939 28.5049 32.1086 28.3829 32.2337C28.261 32.3587 28.0956 32.429 27.9232 32.429Z" fill="white"/>
<path d="M30.1179 33.2784C29.9455 33.2784 29.7801 33.2082 29.6582 33.0831C29.5363 32.9581 29.4678 32.7885 29.4678 32.6117V31.3534C29.4678 31.1766 29.5363 31.007 29.6582 30.8819C29.7801 30.7569 29.9455 30.6866 30.1179 30.6866C30.2903 30.6866 30.4557 30.7569 30.5776 30.8819C30.6996 31.007 30.7681 31.1766 30.7681 31.3534V32.6117C30.7681 32.7885 30.6996 32.9581 30.5776 33.0831C30.4557 33.2082 30.2903 33.2784 30.1179 33.2784Z" fill="white"/>
<path d="M25.7274 36.5768C25.5549 36.5768 25.3895 36.5065 25.2676 36.3815C25.1457 36.2565 25.0771 36.0869 25.0771 35.9101V34.652C25.0771 34.4751 25.1457 34.3055 25.2676 34.1805C25.3895 34.0555 25.5549 33.9852 25.7274 33.9852C25.8998 33.9852 26.0652 34.0555 26.1871 34.1805C26.3091 34.3055 26.3776 34.4751 26.3776 34.652V35.9101C26.3776 36.0869 26.3091 36.2565 26.1871 36.3815C26.0652 36.5065 25.8998 36.5768 25.7274 36.5768Z" fill="white"/>
<path d="M27.9232 37.4263C27.7507 37.4263 27.5853 37.356 27.4634 37.231C27.3415 37.106 27.2729 36.9364 27.2729 36.7595V35.5014C27.2729 35.3246 27.3415 35.155 27.4634 35.03C27.5853 34.905 27.7507 34.8347 27.9232 34.8347C28.0956 34.8347 28.261 34.905 28.3829 35.03C28.5049 35.155 28.5734 35.3246 28.5734 35.5014V36.7595C28.5734 36.9364 28.5049 37.106 28.3829 37.231C28.261 37.356 28.0956 37.4263 27.9232 37.4263Z" fill="white"/>
<path d="M30.1179 38.2756C29.9455 38.2756 29.7801 38.2054 29.6582 38.0804C29.5363 37.9553 29.4678 37.7858 29.4678 37.6089V36.3509C29.4678 36.1741 29.5363 36.0045 29.6582 35.8795C29.7801 35.7544 29.9455 35.6842 30.1179 35.6842C30.2903 35.6842 30.4557 35.7544 30.5776 35.8795C30.6996 36.0045 30.7681 36.1741 30.7681 36.3509V37.6089C30.7681 37.7858 30.6996 37.9553 30.5776 38.0804C30.4557 38.2054 30.2903 38.2756 30.1179 38.2756Z" fill="white"/>
<path d="M38.3416 20.7598C38.1692 20.7598 38.0038 20.6895 37.8818 20.5645C37.7599 20.4394 37.6914 20.2699 37.6914 20.093V19.4189C37.6914 19.2421 37.7599 19.0725 37.8818 18.9475C38.0038 18.8224 38.1692 18.7522 38.3416 18.7522C38.5141 18.7522 38.6794 18.8224 38.8014 18.9475C38.9233 19.0725 38.9918 19.2421 38.9918 19.4189V20.093C38.9918 20.2699 38.9233 20.4394 38.8014 20.5645C38.6794 20.6895 38.5141 20.7598 38.3416 20.7598Z" fill="white"/>
<path d="M40.5325 22.172C40.3601 22.172 40.1947 22.1018 40.0728 21.9767C39.9508 21.8517 39.8823 21.6821 39.8823 21.5053V20.8313C39.8823 20.6544 39.9508 20.4849 40.0728 20.3598C40.1947 20.2348 40.3601 20.1646 40.5325 20.1646C40.705 20.1646 40.8704 20.2348 40.9923 20.3598C41.1142 20.4849 41.1827 20.6544 41.1827 20.8313V21.5053C41.1827 21.6821 41.1142 21.8517 40.9923 21.9767C40.8704 22.1018 40.705 22.172 40.5325 22.172Z" fill="white"/>
<path d="M38.3416 24.0524C38.1692 24.0524 38.0038 23.9821 37.8818 23.8571C37.7599 23.732 37.6914 23.5624 37.6914 23.3856V22.7121C37.6914 22.5352 37.7599 22.3656 37.8818 22.2406C38.0038 22.1155 38.1692 22.0453 38.3416 22.0453C38.5141 22.0453 38.6794 22.1155 38.8014 22.2406C38.9233 22.3656 38.9918 22.5352 38.9918 22.7121V23.3862C38.9916 23.563 38.9231 23.7324 38.8011 23.8573C38.6792 23.9822 38.5139 24.0524 38.3416 24.0524Z" fill="white"/>
<path d="M40.5325 25.4645C40.3601 25.4645 40.1947 25.3942 40.0728 25.2692C39.9508 25.1441 39.8823 24.9746 39.8823 24.7977V24.127C39.8823 23.9501 39.9508 23.7805 40.0728 23.6555C40.1947 23.5305 40.3601 23.4602 40.5325 23.4602C40.705 23.4602 40.8704 23.5305 40.9923 23.6555C41.1142 23.7805 41.1827 23.9501 41.1827 24.127V24.8011C41.1819 24.9773 41.113 25.146 40.9912 25.2704C40.8693 25.3947 40.7044 25.4645 40.5325 25.4645Z" fill="white"/>
<path d="M38.3416 27.3455C38.1692 27.3455 38.0038 27.2752 37.8818 27.1502C37.7599 27.0251 37.6914 26.8555 37.6914 26.6787V26.0046C37.6914 25.8277 37.7599 25.6581 37.8818 25.5331C38.0038 25.408 38.1692 25.3378 38.3416 25.3378C38.5141 25.3378 38.6794 25.408 38.8014 25.5331C38.9233 25.6581 38.9918 25.8277 38.9918 26.0046V26.6787C38.9918 26.8555 38.9233 27.0251 38.8014 27.1502C38.6794 27.2752 38.5141 27.3455 38.3416 27.3455Z" fill="white"/>
<path d="M40.5325 28.7576C40.3601 28.7576 40.1947 28.6873 40.0728 28.5623C39.9508 28.4372 39.8823 28.2677 39.8823 28.0908V27.4167C39.8823 27.2399 39.9508 27.0703 40.0728 26.9453C40.1947 26.8202 40.3601 26.75 40.5325 26.75C40.705 26.75 40.8704 26.8202 40.9923 26.9453C41.1142 27.0703 41.1827 27.2399 41.1827 27.4167V28.0908C41.1827 28.2677 41.1142 28.4372 40.9923 28.5623C40.8704 28.6873 40.705 28.7576 40.5325 28.7576Z" fill="white"/>
<path d="M38.3416 30.6385C38.1692 30.6385 38.0038 30.5683 37.8818 30.4433C37.7599 30.3182 37.6914 30.1486 37.6914 29.9718V29.2977C37.6914 29.1209 37.7599 28.9513 37.8818 28.8263C38.0038 28.7012 38.1692 28.631 38.3416 28.631C38.5141 28.631 38.6794 28.7012 38.8014 28.8263C38.9233 28.9513 38.9918 29.1209 38.9918 29.2977V29.9718C38.9918 30.1486 38.9233 30.3182 38.8014 30.4433C38.6794 30.5683 38.5141 30.6385 38.3416 30.6385Z" fill="white"/>
<path d="M40.5325 32.0502C40.3601 32.0502 40.1947 31.9799 40.0728 31.8549C39.9508 31.7298 39.8823 31.5603 39.8823 31.3834V30.7093C39.8823 30.5325 39.9508 30.3629 40.0728 30.2379C40.1947 30.1129 40.3601 30.0426 40.5325 30.0426C40.705 30.0426 40.8704 30.1129 40.9923 30.2379C41.1142 30.3629 41.1827 30.5325 41.1827 30.7093V31.3834C41.1827 31.5603 41.1142 31.7298 40.9923 31.8549C40.8704 31.9799 40.705 32.0502 40.5325 32.0502Z" fill="white"/>
<path d="M38.3416 33.9285C38.1692 33.9285 38.0038 33.8582 37.8818 33.7332C37.7599 33.6081 37.6914 33.4385 37.6914 33.2617V32.5902C37.6914 32.4134 37.7599 32.2438 37.8818 32.1188C38.0038 31.9937 38.1692 31.9235 38.3416 31.9235C38.5141 31.9235 38.6794 31.9937 38.8014 32.1188C38.9233 32.2438 38.9918 32.4134 38.9918 32.5902V33.2617C38.9918 33.4385 38.9233 33.6081 38.8014 33.7332C38.6794 33.8582 38.5141 33.9285 38.3416 33.9285Z" fill="white"/>
<path d="M40.5325 35.3434C40.3601 35.3434 40.1947 35.2731 40.0728 35.1481C39.9508 35.0231 39.8823 34.8535 39.8823 34.6766V34.0026C39.8823 33.8257 39.9508 33.6561 40.0728 33.5311C40.1947 33.4061 40.3601 33.3358 40.5325 33.3358C40.705 33.3358 40.8704 33.4061 40.9923 33.5311C41.1142 33.6561 41.1827 33.8257 41.1827 34.0026V34.6766C41.1827 34.8535 41.1142 35.0231 40.9923 35.1481C40.8704 35.2731 40.705 35.3434 40.5325 35.3434Z" fill="white"/>
<path d="M38.3416 37.2242C38.1692 37.2242 38.0038 37.154 37.8818 37.0289C37.7599 36.9039 37.6914 36.7343 37.6914 36.5575V35.8833C37.6914 35.7065 37.7599 35.5369 37.8818 35.4118C38.0038 35.2868 38.1692 35.2166 38.3416 35.2166C38.5141 35.2166 38.6794 35.2868 38.8014 35.4118C38.9233 35.5369 38.9918 35.7065 38.9918 35.8833V36.5575C38.9918 36.7343 38.9233 36.9039 38.8014 37.0289C38.6794 37.154 38.5141 37.2242 38.3416 37.2242Z" fill="white"/>
<path d="M40.5325 38.6357C40.3601 38.6357 40.1947 38.5655 40.0728 38.4405C39.9508 38.3154 39.8823 38.1459 39.8823 37.969V37.295C39.8823 37.1182 39.9508 36.9486 40.0728 36.8236C40.1947 36.6985 40.3601 36.6283 40.5325 36.6283C40.705 36.6283 40.8704 36.6985 40.9923 36.8236C41.1142 36.9486 41.1827 37.1182 41.1827 37.295V37.969C41.1827 38.1459 41.1142 38.3154 40.9923 38.4405C40.8704 38.5655 40.705 38.6357 40.5325 38.6357Z" fill="white"/>
<path d="M44.8637 41.04H0.650199C0.477755 41.04 0.312375 40.9698 0.190439 40.8448C0.0685029 40.7197 0 40.5501 0 40.3733C0 40.1965 0.0685029 40.0269 0.190439 39.9018C0.312375 39.7768 0.477755 39.7065 0.650199 39.7065H44.8637C45.0362 39.7065 45.2015 39.7768 45.3235 39.9018C45.4454 40.0269 45.5139 40.1965 45.5139 40.3733C45.5139 40.5501 45.4454 40.7197 45.3235 40.8448C45.2015 40.9698 45.0362 41.04 44.8637 41.04Z" fill="white"/>
</svg>
