<svg width="41" height="42" viewBox="0 0 41 42" fill="none" xmlns="http://www.w3.org/2000/svg">
<path d="M20.8333 41.0182H2.5C1.12167 41.0182 0 39.8679 0 38.4545V36.7453C0 35.3319 1.12167 34.1816 2.5 34.1816H20.8333C22.2117 34.1816 23.3333 35.3319 23.3333 36.7453V38.4545C23.3333 39.8679 22.2117 41.0182 20.8333 41.0182ZM2.5 35.8908C2.04 35.8908 1.66667 36.2753 1.66667 36.7453V38.4545C1.66667 38.9245 2.04 39.3091 2.5 39.3091H20.8333C21.2933 39.3091 21.6667 38.9245 21.6667 38.4545V36.7453C21.6667 36.2753 21.2933 35.8908 20.8333 35.8908H2.5Z" fill="white"/>
<path d="M17.8224 21.582C17.4341 21.582 17.0624 21.4658 16.7557 21.1513L10.9057 15.1523C9.88239 14.1029 11.0074 12.2878 11.3757 11.693C12.0674 10.5786 13.1441 9.24891 14.4107 7.94996C15.6791 6.6476 16.9774 5.54008 18.0641 4.83079C18.6474 4.44965 20.4191 3.29599 21.4424 4.3454L27.2924 10.3445C28.3174 11.3956 27.1891 13.2141 26.8191 13.8106C26.1257 14.9267 25.0457 16.2581 23.7757 17.5587C22.5091 18.8577 21.2124 19.9618 20.1274 20.6694C19.7224 20.936 18.7307 21.582 17.8224 21.582ZM20.2657 5.55376C19.9741 5.56572 18.1457 6.53822 15.5957 9.15149C13.0457 11.7665 12.0957 13.6431 12.1557 14.067L17.9357 19.943C18.2291 19.931 20.0574 18.9585 22.6091 16.3435C25.0624 13.826 26.0324 11.9955 26.0491 11.4827L20.2657 5.55376Z" fill="white"/>
<path d="M15.0053 25.4978C14.3687 25.4978 13.7303 25.2483 13.2453 24.7509L7.39533 18.7518C6.92533 18.2715 6.66699 17.6306 6.66699 16.9486C6.66699 16.2667 6.92533 15.6257 7.39699 15.1437L8.56699 13.9439C9.53699 12.9492 11.1153 12.9492 12.0853 13.9439L17.9353 19.9431C18.9053 20.9378 18.9053 22.5563 17.9353 23.5511L16.7653 24.7509C16.2787 25.2483 15.642 25.4978 15.0053 25.4978ZM10.3253 14.9062C10.1153 14.9062 9.90533 14.9899 9.74366 15.154L8.57533 16.3521C8.41866 16.5128 8.33366 16.723 8.33366 16.9486C8.33366 17.1742 8.41866 17.3844 8.57533 17.5451L14.4253 23.5442C14.747 23.8724 15.267 23.8707 15.587 23.5442L16.757 22.3444C17.077 22.0163 17.077 21.4813 16.757 21.1531L10.907 15.154C10.7453 14.9899 10.5353 14.9062 10.3253 14.9062Z" fill="white"/>
<path d="M27.8756 12.2981C27.2389 12.2981 26.6006 12.0486 26.1156 11.5512L20.2656 5.55213C19.2956 4.55741 19.2956 2.94057 20.2656 1.94585L21.4356 0.746038C22.4056 -0.248679 23.9839 -0.248679 24.9539 0.746038L30.8039 6.74511C31.7739 7.73983 31.7739 9.35838 30.8039 10.3531L29.6339 11.5529C29.1489 12.0503 28.5123 12.2981 27.8756 12.2981ZM23.1956 1.70999C22.9856 1.70999 22.7756 1.79203 22.6139 1.95611L21.4439 3.15592C21.1239 3.48408 21.1239 4.01733 21.4439 4.34548L27.2939 10.3446C27.6139 10.671 28.1356 10.671 28.4556 10.3446L29.6256 9.14645C29.9456 8.81829 29.9456 8.28333 29.6256 7.95518L23.7756 1.95611C23.6156 1.79203 23.4056 1.70999 23.1956 1.70999ZM30.2139 9.74977H30.2306H30.2139Z" fill="white"/>
<path d="M36.8284 34.1869C35.8234 34.1869 34.7417 33.5972 33.5917 32.4179C32.4417 31.2386 25.6801 23.6073 21.4834 18.5329C21.1851 18.174 21.2284 17.6339 21.5801 17.3297C21.9301 17.0237 22.4567 17.0664 22.7551 17.4288C27.1317 22.7203 33.7767 30.1909 34.7701 31.2096C36.6467 33.1375 37.3784 32.3872 37.8151 31.9428C38.0151 31.7377 38.2901 31.4574 38.3284 31.0557C38.3851 30.4729 37.9601 29.7004 37.1017 28.8185C36.1167 27.8067 28.8434 21.0026 23.6634 16.4939C23.3117 16.1879 23.2684 15.6496 23.5667 15.2906C23.8667 14.9266 24.3917 14.8873 24.7417 15.1915C29.7101 19.5139 37.1434 26.4394 38.2834 27.6101C39.5251 28.8834 40.1001 30.1003 39.9901 31.225C39.8917 32.2316 39.2867 32.8521 38.9967 33.1494C38.3201 33.8416 37.5967 34.1869 36.8284 34.1869Z" fill="white"/>
</svg>
