<svg width="47" height="40" viewBox="0 0 47 40" fill="none" xmlns="http://www.w3.org/2000/svg">
<path d="M33.8453 37.4155H12.7842V39.0371H33.8453V37.4155Z" fill="white"/>
<path d="M24.0371 0H22.3745V35.5295H24.0371V0Z" fill="white"/>
<path d="M37.9395 10.3706C35.968 10.3706 34.2711 9.21993 32.7033 8.15601C32.3172 7.89384 31.9174 7.6231 31.5226 7.37428C31.373 7.2799 31.2234 7.18266 31.0729 7.08446C29.7045 6.19214 28.4113 5.34939 25.6559 6.11111L24.8564 6.33228L24.4028 4.77263L25.2024 4.55145C28.6958 3.58573 30.5255 4.77835 31.9966 5.7374C32.1403 5.83083 32.282 5.9233 32.4238 6.01291C32.8431 6.27699 33.2546 6.55632 33.6524 6.82611C36.1136 8.4954 38.0577 9.81386 40.95 7.45912L41.5883 6.93956L42.6537 8.18461L42.0154 8.70418C40.5238 9.91682 39.1779 10.3706 37.9395 10.3706Z" fill="white"/>
<path d="M31.0515 29.4558L30.2803 28.3423L37.0364 11.9875L38.5641 11.9551L46.1873 28.3089L45.4307 29.4549L31.0515 29.4558ZM37.8545 14.347L32.2831 27.8332L44.1405 27.8322L37.8545 14.347Z" fill="white"/>
<path d="M38.3376 34.4373C38.3033 34.4373 38.2691 34.4373 38.2339 34.4363C34.7621 34.4058 32.7769 32.9815 31.7222 31.7907C30.5669 30.4865 30.2531 29.169 30.2404 29.1137L30.0576 28.3224L31.6792 27.9658L31.861 28.7533C31.905 28.9335 32.9098 32.767 38.2476 32.8127C40.5241 32.8327 42.2825 32.1111 43.4848 30.6677C44.3655 29.6113 44.6137 28.5398 44.6167 28.5293L44.7867 27.7361L46.4142 28.0688L46.2441 28.862C46.2314 28.9211 45.9215 30.3159 44.775 31.6906C43.7291 32.9491 41.7655 34.4373 38.3376 34.4373Z" fill="white"/>
<path d="M8.47447 10.3704C7.23605 10.3704 5.8901 9.91657 4.39852 8.70298L3.76025 8.18341L4.82566 6.93836L5.46393 7.45793C8.35619 9.81266 10.3003 8.4942 12.7615 6.82491C13.1594 6.55512 13.5709 6.27579 13.9902 6.01267C14.1319 5.92305 14.2746 5.83059 14.4183 5.73716C15.8884 4.7781 17.7191 3.58548 21.2125 4.55121L22.0121 4.77239L21.5585 6.33204L20.759 6.11086C18.0036 5.34915 16.7114 6.1919 15.342 7.08422C15.1905 7.18241 15.0419 7.27965 14.8924 7.37403C14.4975 7.62285 14.0977 7.8936 13.7116 8.15577C12.1428 9.21969 10.446 10.3704 8.47447 10.3704Z" fill="white"/>
<path d="M15.3623 29.4558L0.983106 29.4549L0.226562 28.3089L7.84968 11.9548L9.37743 11.9873L16.1345 28.3423L15.3623 29.4558ZM2.27333 27.8332L14.1308 27.8341L8.5593 14.3478L2.27333 27.8332Z" fill="white"/>
<path d="M8.07662 34.437C4.64873 34.437 2.68504 32.9488 1.6382 31.6932C0.491656 30.3174 0.181816 28.9226 0.170086 28.8645L0 28.0713L1.62745 27.7385L1.79752 28.5317C1.83662 28.7053 2.83362 32.8601 8.16655 32.8153C13.565 32.7686 14.5434 28.7987 14.5532 28.7586L14.736 27.9673L16.3575 28.323L16.1748 29.1143C16.1621 29.1696 15.8483 30.4862 14.693 31.7914C13.6393 32.9812 11.6531 34.4065 8.18122 34.437C8.14505 34.4361 8.11084 34.437 8.07662 34.437Z" fill="white"/>
</svg>
